<?xml version="1.0" encoding="utf-8"?>
<!-- Generator: Adobe Illustrator 16.0.3, SVG Export Plug-In . SVG Version: 6.00 Build 0)  -->
<!DOCTYPE svg PUBLIC "-//W3C//DTD SVG 1.0//EN" "http://www.w3.org/TR/2001/REC-SVG-20010904/DTD/svg10.dtd">
<svg version="1.0" id="Layer_1" xmlns="http://www.w3.org/2000/svg" xmlns:xlink="http://www.w3.org/1999/xlink" x="0px" y="0px"
	 width="2304px" height="1440px" viewBox="0 0 2304 1440" enable-background="new 0 0 2304 1440" xml:space="preserve">
<path fill="none" stroke="#808080" stroke-width="0.709" stroke-linecap="round" stroke-linejoin="round" stroke-miterlimit="10" d="
	M851.1,1066.5v149.3 M840.2,1055v74.7 M840.2,1227.4v-74.7 M828,1066.5v149.3 M817.1,1055v74.7 M817.1,1227.4v-74.7 M805,1066.5
	v149.3 M794.1,1055v74.7 M794.1,1227.4v-74.7 M781.9,1066.5v149.3 M771.1,1055v74.7 M771.1,1227.4v-74.7 M758.9,1066.5v149.3
	 M748,1055v74.7 M748,1227.4v-74.7 M735.9,1066.5v149.3 M725,1055v74.7 M725,1227.4v-74.7 M712.8,1066.5v149.3 M701.9,1055v74.7
	 M701.9,1227.4v-74.7 M689.8,1066.5v149.3 M678.9,1055v74.7 M678.9,1227.4v-74.7 M666.7,1066.5v149.3 M655.9,1055v74.7
	 M655.9,1227.4v-74.7 M643.7,1066.5v149.3 M632.8,1055v74.7 M632.8,1227.4v-74.7 M620.7,1066.5v149.3 M609.8,1055v74.7
	 M609.8,1227.4v-74.7 M597.6,1066.5v149.3 M586.7,1055v74.7 M586.7,1227.4v-74.7 M574.6,1066.5v149.3 M563.7,1055v74.7
	 M563.7,1227.4v-74.7 M551.5,1066.5v149.3 M540.7,1055v74.7 M540.7,1227.4v-74.7 M528.5,1066.5v149.3 M517.6,1055v74.7
	 M517.6,1227.4v-74.7 M505.5,1066.5v149.3 M494.6,1055v74.7 M494.6,1227.4v-74.7 M482.4,1066.5v149.3 M471.5,1055v74.7
	 M471.5,1227.4v-74.7 M459.4,1066.5v149.3 M448.5,1055v74.7 M448.5,1227.4v-74.7 M436.3,1066.5v149.3 M425.5,1055v74.7
	 M425.5,1227.4v-74.7 M413.3,1066.5v149.3 M402.4,1055v74.7 M402.4,1227.4v-74.7 M390.3,1066.5v149.3 M379.4,1055v74.7
	 M379.4,1227.4v-74.7 M367.2,1066.5v149.3 M356.3,1055v74.7 M356.3,1227.4v-74.7 M344.2,1066.5v149.3 M333.3,1055v74.7
	 M333.3,1227.4v-74.7 M321.1,1066.5v149.3 M310.3,1055v74.7 M310.3,1227.4v-74.7 M287.2,1055v74.7 M298.1,1066.5v149.3
	 M287.2,1227.4v-74.7"/>
<path fill="none" stroke="#000000" stroke-width="0.709" stroke-linecap="round" stroke-linejoin="round" stroke-miterlimit="10" d="
	M359.1,680.1h60.101 M287.201,680.1H311.1 M359.1,1040.1h60.101 M287.201,680.1l-8,0.2l-8.101,0.6l-8,0.9l-8,1.2l-7.899,1.7
	l-7.801,1.9l-7.8,2.4l-7.6,2.6l-7.5,3l-7.4,3.4l-7.2,3.6l-7,4l-6.8,4.3l-6.7,4.6L175,719.4l-6.2,5.2l-5.9,5.4l-5.8,5.8l-5.4,5.9
	l-5.2,6.2l-4.9,6.399L137,761l-4.3,6.8l-4,7l-3.6,7.2l-3.4,7.4l-3,7.5l-2.6,7.6l-2.4,7.8l-1.9,7.8l-1.7,7.9l-1.2,8l-0.9,8l-0.6,8.1
	l-0.2,8l0.2,8.101l0.6,8.1l0.9,8l1.2,8l1.7,7.9l1.9,7.8l2.4,7.8l2.6,7.601l3,7.5l3.4,7.3l3.6,7.2l4,7.1l4.3,6.8l4.6,6.601l4.9,6.5
	l5.2,6.199l5.4,5.9l5.8,5.7l5.9,5.5l6.2,5.2l6.399,4.899l6.7,4.601l6.8,4.3l7,4l7.2,3.6l7.4,3.4l7.5,3l7.6,2.6l7.8,2.4l7.801,1.899
	l7.899,1.7l8,1.2l8,0.9l8.101,0.6l8,0.1 M287.201,1040.1H311.1 M467.201,1054.3V666 M311.1,1040.1v14.2 M311.1,1054.3h48
	 M359.1,1040.1v14.2 M419.201,1040.1v14.2 M467.201,1054.3h-48 M467.201,666h-48 M419.201,680.1V666 M359.1,680.1V666 M311.1,666h48
	 M311.1,680.1V666"/>
<path fill="none" stroke="#000000" stroke-width="0.709" stroke-linecap="round" stroke-linejoin="round" stroke-miterlimit="10" d="
	M876.3,1227.4H263.4 M215.3,1055h-60 M876.3,1055H263.4 M984.4,1227.4h-60.1 M1032.4,1213v-143.6 M984.4,1055h-60.1 M107.2,1213
	v-143.6 M215.3,1227.4h-60 M125.2,1091h14.2 M139.4,1091v29.1 M139.4,1120.1h-14.2 M125.2,1120.1V1091 M125.2,1162.5h14.2
	 M139.4,1162.5v29.1 M139.4,1191.6h-14.2 M125.2,1191.6v-29.1 M1000.3,1191.6v-29.1 M1000.3,1162.5h14.1 M1014.4,1162.5v29.1
	 M1014.4,1191.6h-14.1 M1000.3,1120.1V1091 M1000.3,1091h14.1 M1014.4,1091v29.1 M1014.4,1120.1h-14.1 M263.4,1227.4V1213
	 M876.3,1213v14.4 M924.3,1213h-48 M924.3,1227.4V1213 M984.4,1213v14.4 M1032.4,1213h-48 M984.4,1069.4h48 M984.4,1055v14.4
	 M924.3,1069.4V1055 M876.3,1069.4h48 M876.3,1055v14.4 M263.4,1069.4V1055 M215.3,1069.4h48.1 M215.3,1055v14.4 M155.3,1069.4V1055
	 M107.2,1069.4h48.1 M155.3,1213h-48.1 M155.3,1227.4V1213 M215.3,1213v14.4 M263.4,1213h-48.1"/>
<path fill="none" stroke="#000000" stroke-width="0.709" stroke-linecap="round" stroke-linejoin="round" stroke-miterlimit="10" d="
	M263.3,1278.101v42.399 M263.3,1349.601v21.6 M623.3,1320.5v-42.399 M623.3,1249v-21.6 M263.3,1227.4v21.6 M249.1,1249h14.2
	 M249.1,1278.101V1249 M263.3,1278.101h-14.2 M249.1,1320.5h14.2 M249.1,1349.601V1320.5 M263.3,1349.601h-14.2 M263.3,1371.2h360
	 M623.3,1371.2v-21.6 M637.5,1349.601h-14.2 M637.5,1320.5v29.101 M623.3,1320.5h14.2 M637.5,1278.101h-14.2 M637.5,1249v29.101
	 M623.3,1249h14.2 M623.3,1227.4h-360"/>
<path fill="none" stroke="#000000" stroke-width="0.709" stroke-linecap="round" stroke-linejoin="round" stroke-miterlimit="10" d="
	M575.301,1040.2h-60.101 M647.201,1040.2h-23.899 M575.301,680.2h-60.101 M647.201,1040.2l8-0.2l8.101-0.601l8-0.899l8-1.2
	l7.899-1.7l7.801-1.899l7.8-2.4l7.6-2.6l7.5-3l7.4-3.4l7.2-3.6l7-4l6.8-4.301l6.7-4.6l6.399-4.9l6.2-5.199l5.9-5.4l5.8-5.8l5.4-5.9
	l5.2-6.2l4.9-6.399l4.6-6.7l4.3-6.8l4-7l3.6-7.2l3.4-7.4l3-7.5l2.6-7.6l2.4-7.8l1.9-7.8l1.7-7.9l1.2-8l0.9-8l0.6-8.1l0.2-8
	l-0.2-8.101l-0.6-8.1l-0.9-8l-1.2-8l-1.7-7.9l-1.9-7.8l-2.4-7.8l-2.6-7.601l-3-7.5l-3.4-7.3l-3.6-7.2l-4-7.1l-4.3-6.8l-4.6-6.601
	l-4.9-6.5l-5.2-6.199l-5.4-5.9l-5.8-5.7l-5.9-5.5l-6.2-5.2l-6.399-4.899l-6.7-4.601l-6.8-4.3l-7-4l-7.2-3.6l-7.4-3.4l-7.5-3
	l-7.6-2.6l-7.8-2.4l-7.801-1.899l-7.899-1.7l-8-1.2l-8-0.9l-8.101-0.6l-8-0.1 M647.201,680.2h-23.899 M467.201,666v388.3
	 M623.301,680.2V666 M623.301,666h-48 M575.301,680.2V666 M515.201,680.2V666 M467.201,666h48 M467.201,1054.3h48 M515.201,1040.2
	v14.1 M575.301,1040.2v14.1 M623.301,1054.3h-48 M623.301,1040.2v14.1"/>
</svg>
