<?xml version="1.0" encoding="UTF-8" standalone="no"?>
<!-- Generator: Adobe Illustrator 16.0.0, SVG Export Plug-In . SVG Version: 6.00 Build 0)  -->

<svg
   xmlns:dc="http://purl.org/dc/elements/1.1/"
   xmlns:cc="http://creativecommons.org/ns#"
   xmlns:rdf="http://www.w3.org/1999/02/22-rdf-syntax-ns#"
   xmlns:svg="http://www.w3.org/2000/svg"
   xmlns="http://www.w3.org/2000/svg"
   xmlns:sodipodi="http://sodipodi.sourceforge.net/DTD/sodipodi-0.dtd"
   xmlns:inkscape="http://www.inkscape.org/namespaces/inkscape"
   version="1.1"
   id="Layer_1"
   x="0px"
   y="0px"
   width="2304px"
   height="1440px"
   viewBox="0 0 2304 1440"
   enable-background="new 0 0 2304 1440"
   xml:space="preserve"
   inkscape:version="0.48.2 r9819"
   sodipodi:docname="musicbox_speaker.svg"><metadata
   id="metadata27"><rdf:RDF><cc:Work
       rdf:about=""><dc:format>image/svg+xml</dc:format><dc:type
         rdf:resource="http://purl.org/dc/dcmitype/StillImage" /><dc:title></dc:title></cc:Work></rdf:RDF></metadata><defs
   id="defs25" /><sodipodi:namedview
   pagecolor="#ffffff"
   bordercolor="#666666"
   borderopacity="1"
   objecttolerance="10"
   gridtolerance="10"
   guidetolerance="10"
   inkscape:pageopacity="0"
   inkscape:pageshadow="2"
   inkscape:window-width="1280"
   inkscape:window-height="752"
   id="namedview23"
   showgrid="false"
   inkscape:zoom="0.32"
   inkscape:cx="773.875"
   inkscape:cy="720"
   inkscape:window-x="0"
   inkscape:window-y="0"
   inkscape:window-maximized="1"
   inkscape:current-layer="Layer_1" />

<path
   stroke-miterlimit="10"
   d="m 792.2505,266.4245 0,60.102 m 0,-132.001 0,23.899 m -360,48 0,60.102 m 360,-132.001 -0.2,-8 -0.6,-8.101 -0.899,-8 -1.2,-8 -1.7,-7.899 -1.901,-7.801 -2.4,-7.8 -2.6,-7.6 -3,-7.5 -3.4,-7.4 -3.6,-7.2 -4,-7 -4.301,-6.8 -4.6,-6.7 -4.9,-6.4 -5.199,-6.2 -5.4,-5.9 -5.8,-5.8 -5.9,-5.4 -6.2,-5.2 -6.398,-4.9 -6.702,-4.6 -6.8,-4.3 -7,-4 -7.2,-3.6 -7.4,-3.4 -7.5,-3 -7.6,-2.6 -7.8,-2.4 -7.8,-1.9 -7.9,-1.7 -8,-1.2 -8,-0.9 -8.1,-0.6 -8,-0.2 -8.102,0.2 -8.1,0.6 -8,0.9 -8,1.2 -7.9,1.7 -7.8,1.9 -7.8,2.4 -7.602,2.6 -7.5,3 -7.3,3.4 -7.2,3.6 -7.1,4 -6.8,4.3 -6.602,4.6 -6.5,4.9 -6.198,5.2 -5.9,5.4 -5.7,5.8 -5.5,5.9 -5.2,6.2 -4.898,6.399 -4.602,6.7 -4.3,6.8 -4,7 -3.6,7.2 -3.4,7.4 -3,7.5 -2.6,7.6 -2.4,7.8 -1.898,7.801 -1.7,7.899 -1.2,8 -0.899,8 -0.601,8.101 -0.1,8 m 0.002,0.001 0,23.899 m -14.2,156.101 388.3,0 m -374.1,-156.101 -14.2,0 m 0,0 0,48 m 14.2,0 -14.2,0 m 14.2,60.101 -14.2,0 m 0,48 0,-48 m 388.3,48 0,-48 m -14.1,0 14.1,0 m -14.1,-60.101 14.1,0 m 0,-48 0,48 m -14.1,-48 14.1,0"
   id="path5"
   inkscape:connector-curvature="0"
   style="fill:none;stroke:#000000;stroke-width:0.28349999;stroke-linecap:round;stroke-linejoin:round;stroke-miterlimit:10" />







<g
   id="g3004"
   transform="matrix(0,-1,1,0,-650.45,841.725)"><path
     id="path11"
     d="M 575.301,1040.2 H 515.2 m 132.001,0 h -23.899 m -48.001,-360 H 515.2 m 132.001,360 8,-0.2 8.101,-0.601 8,-0.899 8,-1.2 7.899,-1.7 7.801,-1.898 7.8,-2.4 7.601,-2.6 7.5,-3 7.399,-3.4 7.2,-3.6 7,-4 6.8,-4.301 6.7,-4.601 6.399,-4.899 6.199,-5.199 5.9,-5.4 5.8,-5.8 5.4,-5.9 5.2,-6.199 4.899,-6.399 4.601,-6.7 4.3,-6.8 4,-7 3.6,-7.2 3.4,-7.399 3,-7.5 2.6,-7.601 2.4,-7.8 1.9,-7.8 1.699,-7.9 1.2,-8 0.9,-8 0.6,-8.1 0.2,-8 -0.2,-8.102 -0.6,-8.1 -0.9,-8 -1.2,-8 -1.699,-7.9 -1.9,-7.8 -2.4,-7.8 -2.6,-7.601 -3,-7.5 -3.4,-7.301 -3.6,-7.199 -4,-7.101 -4.3,-6.8 -4.601,-6.601 -4.899,-6.5 -5.2,-6.199 -5.4,-5.9 -5.8,-5.7 -5.9,-5.5 -6.199,-5.199 -6.399,-4.899 -6.7,-4.601 -6.8,-4.301 -7,-4 -7.2,-3.6 -7.399,-3.4 -7.5,-3 -7.601,-2.6 -7.8,-2.4 -7.801,-1.898 -7.899,-1.7 -8,-1.2 -8,-0.899 -8.101,-0.601 -8,-0.1 m 0,-0.002 H 623.302 M 467.201,666 v 388.3 m 156.1,-374.1 V 666 m 0,0 h -48 m 0,14.2 V 666 m -60.1,14.2 V 666 m -48,0 h 48 m -48,388.3 h 48 m 0,-14.1 v 14.1 m 60.1,-14.1 v 14.1 m 48,0 h -48 m 48,-14.1 v 14.1"
     stroke-miterlimit="10"
     inkscape:connector-curvature="0"
     style="fill:none;stroke:#000000;stroke-width:0.28349999;stroke-linecap:round;stroke-linejoin:round;stroke-miterlimit:10" /><circle
     id="circle13"
     r="106.301"
     cy="860.14801"
     cx="647.20099"
     stroke-miterlimit="10"
     sodipodi:cx="647.20099"
     sodipodi:cy="860.14801"
     sodipodi:rx="106.301"
     sodipodi:ry="106.301"
     style="fill:none;stroke:#000000;stroke-width:0.28349999;stroke-linecap:round;stroke-linejoin:round;stroke-miterlimit:10"
     d="m 753.50199,860.14801 c 0,58.70842 -47.59258,106.301 -106.301,106.301 -58.70842,0 -106.301,-47.59258 -106.301,-106.301 0,-58.70842 47.59258,-106.301 106.301,-106.301 58.70842,0 106.301,47.59258 106.301,106.301 z" /><circle
     id="circle15"
     r="5.8109999"
     cy="945.18799"
     cx="562.16199"
     stroke-miterlimit="10"
     sodipodi:cx="562.16199"
     sodipodi:cy="945.18799"
     sodipodi:rx="5.8109999"
     sodipodi:ry="5.8109999"
     style="fill:none;stroke:#000000;stroke-width:0.28349999;stroke-linecap:round;stroke-linejoin:round;stroke-miterlimit:10"
     d="m 567.97299,945.18799 c 0,3.20932 -2.60168,5.811 -5.811,5.811 -3.20933,0 -5.811,-2.60168 -5.811,-5.811 0,-3.20933 2.60167,-5.811 5.811,-5.811 3.20932,0 5.811,2.60167 5.811,5.811 z" /><circle
     id="circle17"
     r="5.8109999"
     cy="945.18799"
     cx="732.24103"
     stroke-miterlimit="10"
     sodipodi:cx="732.24103"
     sodipodi:cy="945.18799"
     sodipodi:rx="5.8109999"
     sodipodi:ry="5.8109999"
     style="fill:none;stroke:#000000;stroke-width:0.28349999;stroke-linecap:round;stroke-linejoin:round;stroke-miterlimit:10"
     d="m 738.05203,945.18799 c 0,3.20932 -2.60168,5.811 -5.811,5.811 -3.20933,0 -5.811,-2.60168 -5.811,-5.811 0,-3.20933 2.60167,-5.811 5.811,-5.811 3.20932,0 5.811,2.60167 5.811,5.811 z" /><circle
     id="circle19"
     r="5.8109999"
     cy="775.10901"
     cx="732.24103"
     stroke-miterlimit="10"
     sodipodi:cx="732.24103"
     sodipodi:cy="775.10901"
     sodipodi:rx="5.8109999"
     sodipodi:ry="5.8109999"
     style="fill:none;stroke:#000000;stroke-width:0.28349999;stroke-linecap:round;stroke-linejoin:round;stroke-miterlimit:10"
     d="m 738.05203,775.10901 c 0,3.20933 -2.60168,5.811 -5.811,5.811 -3.20933,0 -5.811,-2.60167 -5.811,-5.811 0,-3.20933 2.60167,-5.811 5.811,-5.811 3.20932,0 5.811,2.60167 5.811,5.811 z" /><circle
     id="circle21"
     r="5.8109999"
     cy="775.10901"
     cx="562.16199"
     stroke-miterlimit="10"
     sodipodi:cx="562.16199"
     sodipodi:cy="775.10901"
     sodipodi:rx="5.8109999"
     sodipodi:ry="5.8109999"
     style="fill:none;stroke:#000000;stroke-width:0.28349999;stroke-linecap:round;stroke-linejoin:round;stroke-miterlimit:10"
     d="m 567.97299,775.10901 c 0,3.20933 -2.60168,5.811 -5.811,5.811 -3.20933,0 -5.811,-2.60167 -5.811,-5.811 0,-3.20933 2.60167,-5.811 5.811,-5.811 3.20932,0 5.811,2.60167 5.811,5.811 z" /></g>
</svg>