<?xml version="1.0" encoding="utf-8"?>
<!-- Generator: Adobe Illustrator 16.0.3, SVG Export Plug-In . SVG Version: 6.00 Build 0)  -->
<!DOCTYPE svg PUBLIC "-//W3C//DTD SVG 1.0//EN" "http://www.w3.org/TR/2001/REC-SVG-20010904/DTD/svg10.dtd">
<svg version="1.0" id="Layer_1" xmlns="http://www.w3.org/2000/svg" xmlns:xlink="http://www.w3.org/1999/xlink" x="0px" y="0px"
	 width="2304px" height="1296px" viewBox="0 0 2304 1296" enable-background="new 0 0 2304 1296" xml:space="preserve">
<path fill="none" stroke="#000000" stroke-width="0.709" stroke-linecap="round" stroke-linejoin="round" stroke-miterlimit="10" d="
	M888.045,279.26v-48.1 M888.045,231.16h-14.2 M888.045,339.26h-14.2 M888.045,339.26v48.1 M499.645,231.16h14.2 M888.045,387.36
	h-388.4 M499.645,279.26v-48.1 M513.845,207.36v23.8 M499.645,279.26h14.2 M513.845,279.26v60 M499.645,339.26h14.2 M499.645,339.26
	v48.1 M873.845,279.26v60 M888.045,279.26h-14.2 M873.845,207.36v23.8 M513.845,207.36l0.2-8.101l0.5-8.1l0.899-8l1.301-8l1.6-7.9
	l2-7.8l2.3-7.8l2.7-7.6l3-7.5l3.3-7.301l3.7-7.199l4-7.101l4.3-6.8l4.601-6.6l4.899-6.5l5.101-6.2l5.5-5.9l5.699-5.7l6-5.5
	l6.2-5.199l6.4-4.9l6.6-4.6l6.9-4.301l7-3.899l7.2-3.7l7.399-3.3l7.5-3.101l7.601-2.6l7.699-2.3l7.801-2l8-1.601l7.899-1.3
	l8.101-0.899l8-0.601l8.1-0.1l8.1,0.1l8,0.601l8.101,0.899l7.899,1.3l8,1.601l7.801,2l7.699,2.3l7.601,2.6l7.5,3.101l7.399,3.3
	l7.2,3.7l7,3.899l6.9,4.301l6.6,4.6l6.4,4.9l6.2,5.199l6,5.5l5.699,5.7l5.5,5.9l5.101,6.2l4.899,6.5l4.601,6.6l4.3,6.8l4,7.101
	l3.7,7.199l3.3,7.301l3,7.5l2.7,7.6l2.3,7.8l2,7.8l1.6,7.9l1.301,8l0.899,8l0.5,8.1l0.2,8.101"/>
<g>
	
		<path fill="none" stroke="#808080" stroke-width="0.709" stroke-linecap="round" stroke-linejoin="round" stroke-miterlimit="10" d="
		M338.845,208.76h149.3 M327.246,219.561h74.7 M499.645,219.561h-74.699 M338.845,231.761h149.3 M327.246,242.66h74.7
		 M499.645,242.66h-74.699 M338.845,254.86h149.3 M327.246,265.66h74.7 M499.645,265.66h-74.699 M338.845,277.86h149.3
		 M327.246,288.761h74.7 M499.645,288.761h-74.699 M338.845,300.86h149.3 M327.246,311.761h74.7 M499.645,311.761h-74.699
		 M338.845,323.961h149.3 M327.246,334.761h74.7 M499.645,334.761h-74.699 M338.845,346.961h149.3 M327.246,357.86h74.7
		 M499.645,357.86h-74.699 M338.845,370.061h149.3 M327.246,380.86h74.7 M499.645,380.86h-74.699 M338.845,393.061h149.3
		 M327.246,403.961h74.7 M499.645,403.961h-74.699 M338.845,416.061h149.3 M327.246,426.961h74.7 M499.645,426.961h-74.699
		 M338.845,439.16h149.3 M327.246,449.961h74.7 M499.645,449.961h-74.699 M338.845,462.16h149.3 M327.246,473.061h74.7
		 M499.645,473.061h-74.699 M338.845,485.261h149.3 M327.246,496.061h74.7 M499.645,496.061h-74.699 M338.845,508.261h149.3
		 M327.246,519.16h74.7 M499.645,519.16h-74.699 M338.845,531.261h149.3 M327.246,542.16h74.7 M499.645,542.16h-74.699
		 M338.845,554.36h149.3 M327.246,565.16h74.7 M499.645,565.16h-74.699 M338.845,577.36h149.3 M327.246,588.261h74.7
		 M499.645,588.261h-74.699 M338.845,600.461h149.3 M327.246,611.261h74.7 M499.645,611.261h-74.699 M338.845,623.461h149.3
		 M327.246,634.36h74.7 M499.645,634.36h-74.699 M338.845,646.461h149.3 M327.246,657.36h74.7 M499.645,657.36h-74.699
		 M338.845,669.561h149.3 M327.246,680.36h74.7 M499.645,680.36h-74.699 M338.845,692.561h149.3 M327.246,703.461h74.7
		 M499.645,703.461h-74.699 M338.845,715.66h149.3 M327.246,726.461h74.7 M499.645,726.461h-74.699 M338.845,738.66h149.3
		 M327.246,749.561h74.7 M499.645,749.561h-74.699 M327.246,772.561h74.7 M338.845,761.66h149.3 M499.645,772.561h-74.699"/>
	
		<path fill="none" stroke="#000000" stroke-width="0.709" stroke-linecap="round" stroke-linejoin="round" stroke-miterlimit="10" d="
		M499.645,183.56v612.8 M327.246,844.461v60 M327.246,183.56v612.8 M499.645,75.46v60 M485.246,27.36H341.645 M327.246,75.46v60
		 M485.246,952.561H341.645 M499.645,844.461v60 M363.246,934.561v-14.2 M363.246,920.36h29.1 M392.345,920.36v14.2
		 M392.345,934.561h-29.1 M434.746,934.561v-14.2 M434.746,920.36h29.1 M463.845,920.36v14.2 M463.845,934.561h-29.1 M463.845,59.56
		h-29.1 M434.746,59.56v-14.2 M434.746,45.36h29.1 M463.845,45.36v14.2 M392.345,59.56h-29.1 M363.246,59.56v-14.2 M363.246,45.36
		h29.1 M392.345,45.36v14.2 M499.645,796.36h-14.399 M485.246,183.56h14.399 M485.246,135.46v48.1 M499.645,135.46h-14.399
		 M485.246,75.46h14.399 M485.246,27.36v48.1 M341.645,75.46v-48.1 M327.246,75.46h14.399 M341.645,135.46h-14.399 M341.645,183.56
		v-48.1 M327.246,183.56h14.399 M341.645,796.36h-14.399 M341.645,844.461V796.36 M327.246,844.461h14.399 M341.645,904.461h-14.399
		 M341.645,952.561v-48.1 M485.246,904.461v48.1 M499.645,904.461h-14.399 M485.246,844.461h14.399 M485.246,796.36v48.101"/>
</g>
<path fill="none" stroke="#000000" stroke-width="0.709" stroke-linecap="round" stroke-linejoin="round" stroke-miterlimit="10" d="
	M140.946,775.761h85 M284.045,775.761h43.2 M225.946,55.76h-85 M82.846,55.76h-43.2 M39.646,775.761h43.2 M82.846,804.061v-28.3
	 M140.946,804.061h-58.1 M140.946,775.761v28.3 M225.946,804.061v-28.3 M284.045,804.061h-58.1 M284.045,775.761v28.3
	 M327.246,775.761V55.76 M327.246,55.76h-43.2 M284.045,27.36V55.76 M225.946,27.36h58.1 M225.946,55.76V27.36 M140.946,27.36V55.76
	 M82.846,27.36h58.1 M82.846,55.76V27.36 M39.646,55.76v720.001"/>
<path fill="none" stroke="#000000" stroke-width="0.709" stroke-linecap="round" stroke-linejoin="round" stroke-miterlimit="10" d="
	M499.645,495.46v48.1 M499.645,543.56h14.2 M499.645,435.46h14.2 M499.645,435.46v-48.1 M888.045,543.56h-14.2 M499.645,387.36
	h388.4 M888.045,495.46v48.1 M873.845,567.361V543.56 M888.045,495.46h-14.2 M873.845,495.46v-60 M888.045,435.46h-14.2
	 M888.045,435.46v-48.1 M513.845,495.46v-60 M499.645,495.46h14.2 M513.845,567.361V543.56 M873.845,567.361l-0.2,8.1l-0.5,8.1
	l-0.899,8l-1.301,8l-1.6,7.9l-2,7.801l-2.3,7.799l-2.7,7.6l-3,7.5l-3.3,7.301l-3.7,7.2l-4,7.102l-4.3,6.799l-4.601,6.6l-4.899,6.5
	l-5.101,6.201l-5.5,5.9l-5.699,5.699l-6,5.5l-6.2,5.199l-6.4,4.9l-6.6,4.6l-6.9,4.301l-7,3.9l-7.2,3.699l-7.4,3.301l-7.5,3.1
	l-7.6,2.6l-7.7,2.301l-7.8,2l-8,1.6l-7.9,1.301l-8.1,0.898l-8,0.602l-8.1,0.1l-8.1-0.1l-8-0.602l-8.1-0.898l-7.9-1.301l-8-1.6
	l-7.8-2l-7.7-2.301l-7.6-2.6l-7.5-3.1l-7.4-3.301l-7.2-3.699l-7-3.9l-6.9-4.301l-6.6-4.6l-6.4-4.9l-6.2-5.199l-6-5.5l-5.7-5.699
	l-5.5-5.9l-5.1-6.201l-4.9-6.5l-4.6-6.6l-4.3-6.799l-4-7.102l-3.7-7.2l-3.3-7.301l-3-7.5l-2.7-7.6l-2.3-7.799l-2-7.801l-1.6-7.9
	l-1.3-8l-0.9-8l-0.5-8.1l-0.2-8.1"/>
</svg>
