<?xml version="1.0" encoding="UTF-8" standalone="no"?>
<!-- Generator: Adobe Illustrator 16.0.0, SVG Export Plug-In . SVG Version: 6.00 Build 0)  -->

<svg
   xmlns:dc="http://purl.org/dc/elements/1.1/"
   xmlns:cc="http://creativecommons.org/ns#"
   xmlns:rdf="http://www.w3.org/1999/02/22-rdf-syntax-ns#"
   xmlns:svg="http://www.w3.org/2000/svg"
   xmlns="http://www.w3.org/2000/svg"
   xmlns:sodipodi="http://sodipodi.sourceforge.net/DTD/sodipodi-0.dtd"
   xmlns:inkscape="http://www.inkscape.org/namespaces/inkscape"
   version="1.1"
   id="Layer_1"
   x="0px"
   y="0px"
   width="2304px"
   height="1440px"
   viewBox="0 0 2304 1440"
   enable-background="new 0 0 2304 1440"
   xml:space="preserve"
   inkscape:version="0.48.4 r9939"
   sodipodi:docname="musicbox_front_back.svg"><metadata
   id="metadata27"><rdf:RDF><cc:Work
       rdf:about=""><dc:format>image/svg+xml</dc:format><dc:type
         rdf:resource="http://purl.org/dc/dcmitype/StillImage" /><dc:title></dc:title></cc:Work></rdf:RDF></metadata><defs
   id="defs25"><clipPath
     clipPathUnits="userSpaceOnUse"
     id="clipPath3673"><path
       inkscape:connector-curvature="0"
       d="M 0,0 500,0 500,500 0,500 0,0 z"
       id="path3675" /></clipPath></defs><sodipodi:namedview
   pagecolor="#ffffff"
   bordercolor="#666666"
   borderopacity="1"
   objecttolerance="10"
   gridtolerance="10"
   guidetolerance="10"
   inkscape:pageopacity="0"
   inkscape:pageshadow="2"
   inkscape:window-width="1600"
   inkscape:window-height="878"
   id="namedview23"
   showgrid="false"
   inkscape:zoom="1.28"
   inkscape:cx="405.35057"
   inkscape:cy="1205.663"
   inkscape:window-x="-8"
   inkscape:window-y="-8"
   inkscape:window-maximized="1"
   inkscape:current-layer="Layer_1" />

<path
   stroke-miterlimit="10"
   d="m 792.2505,266.4245 0,60.102 m 0,-132.001 0,23.899 m -360,48 0,60.102 m 360,-132.001 -0.2,-8 -0.6,-8.101 -0.899,-8 -1.2,-8 -1.7,-7.899 -1.901,-7.801 -2.4,-7.8 -2.6,-7.6 -3,-7.5 -3.4,-7.4 -3.6,-7.2 -4,-7 -4.301,-6.8 -4.6,-6.7 -4.9,-6.4 -5.199,-6.2 -5.4,-5.9 -5.8,-5.8 -5.9,-5.4 -6.2,-5.2 -6.398,-4.9 -6.702,-4.6 -6.8,-4.3 -7,-4 -7.2,-3.6 -7.4,-3.4 -7.5,-3 -7.6,-2.6 -7.8,-2.4 -7.8,-1.9 -7.9,-1.7 -8,-1.2 -8,-0.9 -8.1,-0.6 -8,-0.2 -8.102,0.2 -8.1,0.6 -8,0.9 -8,1.2 -7.9,1.7 -7.8,1.9 -7.8,2.4 -7.602,2.6 -7.5,3 -7.3,3.4 -7.2,3.6 -7.1,4 -6.8,4.3 -6.602,4.6 -6.5,4.9 -6.198,5.2 -5.9,5.4 -5.7,5.8 -5.5,5.9 -5.2,6.2 -4.898,6.399 -4.602,6.7 -4.3,6.8 -4,7 -3.6,7.2 -3.4,7.4 -3,7.5 -2.6,7.6 -2.4,7.8 -1.898,7.801 -1.7,7.899 -1.2,8 -0.899,8 -0.601,8.101 -0.1,8 m 0.002,0.001 0,23.899 m -14.2,156.101 388.3,0 m -374.1,-156.101 -14.2,0 m 0,0 0,48 m 14.2,0 -14.2,0 m 14.2,60.101 -14.2,0 m 0,48 0,-48 m 388.3,48 0,-48 m -14.1,0 14.1,0 m -14.1,-60.101 14.1,0 m 0,-48 0,48 m -14.1,-48 14.1,0"
   id="path5"
   inkscape:connector-curvature="0"
   style="fill:none;stroke:#000000;stroke-width:0.28349999;stroke-linecap:round;stroke-linejoin:round;stroke-miterlimit:10" />







<g
   id="g3004"
   transform="matrix(0,-1,1,0,-650.45,841.725)"><path
     id="path11"
     d="M 575.301,1040.2 H 515.2 m 132.001,0 h -23.899 m -48.001,-360 H 515.2 m 132.001,360 8,-0.2 8.101,-0.601 8,-0.899 8,-1.2 7.899,-1.7 7.801,-1.898 7.8,-2.4 7.601,-2.6 7.5,-3 7.399,-3.4 7.2,-3.6 7,-4 6.8,-4.301 6.7,-4.601 6.399,-4.899 6.199,-5.199 5.9,-5.4 5.8,-5.8 5.4,-5.9 5.2,-6.199 4.899,-6.399 4.601,-6.7 4.3,-6.8 4,-7 3.6,-7.2 3.4,-7.399 3,-7.5 2.6,-7.601 2.4,-7.8 1.9,-7.8 1.699,-7.9 1.2,-8 0.9,-8 0.6,-8.1 0.2,-8 -0.2,-8.102 -0.6,-8.1 -0.9,-8 -1.2,-8 -1.699,-7.9 -1.9,-7.8 -2.4,-7.8 -2.6,-7.601 -3,-7.5 -3.4,-7.301 -3.6,-7.199 -4,-7.101 -4.3,-6.8 -4.601,-6.601 -4.899,-6.5 -5.2,-6.199 -5.4,-5.9 -5.8,-5.7 -5.9,-5.5 -6.199,-5.199 -6.399,-4.899 -6.7,-4.601 -6.8,-4.301 -7,-4 -7.2,-3.6 -7.399,-3.4 -7.5,-3 -7.601,-2.6 -7.8,-2.4 -7.801,-1.898 -7.899,-1.7 -8,-1.2 -8,-0.899 -8.101,-0.601 -8,-0.1 m 0,-0.002 H 623.302 M 467.201,666 v 388.3 m 156.1,-374.1 V 666 m 0,0 h -48 m 0,14.2 V 666 m -60.1,14.2 V 666 m -48,0 h 48 m -48,388.3 h 48 m 0,-14.1 v 14.1 m 60.1,-14.1 v 14.1 m 48,0 h -48 m 48,-14.1 v 14.1"
     stroke-miterlimit="10"
     inkscape:connector-curvature="0"
     style="fill:none;stroke:#000000;stroke-width:0.28349999;stroke-linecap:round;stroke-linejoin:round;stroke-miterlimit:10" /><circle
     id="circle13"
     r="106.301"
     cy="860.14801"
     cx="647.20099"
     stroke-miterlimit="10"
     sodipodi:cx="647.20099"
     sodipodi:cy="860.14801"
     sodipodi:rx="106.301"
     sodipodi:ry="106.301"
     style="fill:none;stroke:#000000;stroke-width:0.28349999;stroke-linecap:round;stroke-linejoin:round;stroke-miterlimit:10"
     d="m 753.50199,860.14801 c 0,58.70842 -47.59258,106.301 -106.301,106.301 -58.70842,0 -106.301,-47.59258 -106.301,-106.301 0,-58.70842 47.59258,-106.301 106.301,-106.301 58.70842,0 106.301,47.59258 106.301,106.301 z" /><circle
     id="circle15"
     r="5.8109999"
     cy="945.18799"
     cx="562.16199"
     stroke-miterlimit="10"
     sodipodi:cx="562.16199"
     sodipodi:cy="945.18799"
     sodipodi:rx="5.8109999"
     sodipodi:ry="5.8109999"
     style="fill:none;stroke:#000000;stroke-width:0.28349999;stroke-linecap:round;stroke-linejoin:round;stroke-miterlimit:10"
     d="m 567.97299,945.18799 c 0,3.20932 -2.60168,5.811 -5.811,5.811 -3.20933,0 -5.811,-2.60168 -5.811,-5.811 0,-3.20933 2.60167,-5.811 5.811,-5.811 3.20932,0 5.811,2.60167 5.811,5.811 z" /><circle
     id="circle17"
     r="5.8109999"
     cy="945.18799"
     cx="732.24103"
     stroke-miterlimit="10"
     sodipodi:cx="732.24103"
     sodipodi:cy="945.18799"
     sodipodi:rx="5.8109999"
     sodipodi:ry="5.8109999"
     style="fill:none;stroke:#000000;stroke-width:0.28349999;stroke-linecap:round;stroke-linejoin:round;stroke-miterlimit:10"
     d="m 738.05203,945.18799 c 0,3.20932 -2.60168,5.811 -5.811,5.811 -3.20933,0 -5.811,-2.60168 -5.811,-5.811 0,-3.20933 2.60167,-5.811 5.811,-5.811 3.20932,0 5.811,2.60167 5.811,5.811 z" /><circle
     id="circle19"
     r="5.8109999"
     cy="775.10901"
     cx="732.24103"
     stroke-miterlimit="10"
     sodipodi:cx="732.24103"
     sodipodi:cy="775.10901"
     sodipodi:rx="5.8109999"
     sodipodi:ry="5.8109999"
     style="fill:none;stroke:#000000;stroke-width:0.28349999;stroke-linecap:round;stroke-linejoin:round;stroke-miterlimit:10"
     d="m 738.05203,775.10901 c 0,3.20933 -2.60168,5.811 -5.811,5.811 -3.20933,0 -5.811,-2.60167 -5.811,-5.811 0,-3.20933 2.60167,-5.811 5.811,-5.811 3.20932,0 5.811,2.60167 5.811,5.811 z" /><circle
     id="circle21"
     r="5.8109999"
     cy="775.10901"
     cx="562.16199"
     stroke-miterlimit="10"
     sodipodi:cx="562.16199"
     sodipodi:cy="775.10901"
     sodipodi:rx="5.8109999"
     sodipodi:ry="5.8109999"
     style="fill:none;stroke:#000000;stroke-width:0.28349999;stroke-linecap:round;stroke-linejoin:round;stroke-miterlimit:10"
     d="m 567.97299,775.10901 c 0,3.20933 -2.60168,5.811 -5.811,5.811 -3.20933,0 -5.811,-2.60167 -5.811,-5.811 0,-3.20933 2.60167,-5.811 5.811,-5.811 3.20932,0 5.811,2.60167 5.811,5.811 z" /></g>
<g
   transform="matrix(0.58546491,0,0,-0.58546491,465.24385,330.79891)"
   id="g3669"><g
     id="g3671"
     clip-path="url(#clipPath3673)"><g
       id="g3677"
       transform="translate(256.0225,399.979)"><path
         inkscape:connector-curvature="0"
         d="m 0,0 c 0,0 -20.355,-0.368 -26.953,-4.557 -0.372,-0.362 -0.742,-0.725 -1.109,-0.72 -8.816,-1.181 -15.922,2.756 -21.37,7.403 -1.818,1.488 -1.781,4.424 -3.792,5.18 -1.841,-0.711 -2.776,-2.168 -4.077,-3.804 -3.55,-5.461 -1.07,-12.825 1.626,-17.624 1.079,-1.848 2.952,-3.392 4.153,-5.551 -4.09,-4.72 -10.181,-7.951 -16.435,-9.528 -8.636,-1.548 -21.89,-4.003 -26.717,4.899 -1.694,3.12 -0.227,9.447 6.54,10.377 3.29,0.452 6.589,-1.177 8.387,-4.132 1.257,-2.4 -0.059,-5.135 -0.269,-7.333 1.095,-0.381 2.746,-0.584 4.034,-0.048 3.318,1.428 5.933,5.433 6.524,8.91 1.167,5.672 -1.159,10.65 -4.969,14.178 l 4.47,5.818 c 4.214,5.701 1.648,22.022 -7.08,21.725 0.658,-15.657 -8.64,-17.323 -13.401,-16.716 -0.549,0.191 -1.465,0.2 -1.271,1.115 6.311,6.528 9.73,16.391 6.541,25.966 -2.301,6.996 -8.646,13.489 -15.965,14.858 -7.874,1.009 -16.696,-0.719 -21.898,-6.345 -5.745,-5.067 -4.941,-14.614 -12.319,-18.195 -1.106,-0.537 -2.931,0.218 -3.493,-0.692 3.752,-8.479 15.941,-1.287 20.806,-8.681 0.352,-1.288 2.349,-2.961 0.686,-4.043 -8.922,5.424 -21.353,8.871 -32.035,4.962 -8.473,-3.019 -13.532,-12.129 -13.457,-21.484 0.466,-7.156 7.7,-21.153 20.902,-16.016 -0.525,2.207 -1.579,4.178 -1.572,6.803 0.015,4.93 9.46,12.083 13.817,5.158 -0.398,-2.564 -0.43,-5.314 -0.096,-8.071 3.08,-18.925 22.423,-27.221 38.688,-31.996 0,0 6.473,-2.063 4.494,-7.756 -1.515,-4.019 -4.475,-6.185 -8.347,-7.971 -1.837,-0.345 -3.868,-1.422 -5.695,-0.85 -1.039,5.147 0.068,7.361 -4.966,14.362 -5.032,7.001 -13.866,6.031 -19.68,10.869 -3.633,2.978 -5.602,7.033 -7.94,10.912 -7.785,-4.393 -6.041,-17.32 -5.216,-22.494 0.176,-0.554 0.707,-2.211 -0.577,-2.195 l -7.855,2.66 c -10.609,2.325 -21.302,-2.501 -26.722,-11.057 -5.585,-7.087 -4.781,-16.816 -5.254,-25.797 l -0.396,-1.165 c -1.117,-1.456 -3.658,-0.437 -5.309,-0.419 -1.475,-0.716 -1.685,-2.914 -1.707,-4.931 0.323,-3.672 2.302,-6.813 5.03,-8.863 3.812,-3.344 10.414,-3.422 15.204,-1.461 6.281,3.776 10.761,10.509 11.589,18.57 0.776,3.475 -0.838,6.612 0.67,10.078 0.567,1.461 2.228,2.358 3.69,1.974 4.917,-2.992 6.505,-8.329 10.309,-12.225 3.447,-3.341 6.893,-6.5 11.639,-8.572 l -0.375,-0.546 c -9.025,-3.38 -17.682,-6.396 -25.809,-11.435 -16.245,-8.978 -29.423,-27.376 -28.778,-45.51 0.644,-18.137 3.512,-28.688 23.328,-43.739 -0.057,-4.769 0.253,-9.541 3.516,-12.881 5.803,-5.57 14.968,-6.043 21.706,-9.974 4.737,-2.805 7.62,-7.059 6.999,-13.104 -0.581,-2.744 -2.626,-5.103 -5.567,-5.619 -2.572,-0.334 -4.189,2.434 -6.01,3.553 -0.73,0.377 -1.105,-0.352 -1.297,-1.082 -0.395,-2.381 -0.986,-5.858 1.565,-7.356 4.72,-4.089 12.232,-4.543 18.308,-2.601 7.194,3.588 13.139,9.935 14.34,18.541 1.747,8.232 -1.645,16.158 -6.707,22.269 l -0.355,1.106 c 4.089,4.535 7.639,10.178 8.265,16.592 0.567,1.459 -1.225,10.498 -5.006,11.06 -2.045,-2.359 -4.264,-3.982 -7.393,-4.863 -1.288,-0.352 -3.5,-1.244 -4.401,0.053 4.649,5.445 9.302,11.259 8.664,19.336 -0.79,10.83 -15.218,21.342 -16.781,23.306 -1.565,1.962 -1.433,2.952 -1.433,2.952 -4.779,-0.863 -8.499,-5.22 -10.563,-9.23 -2.441,-4.923 -2.349,-12.628 1.091,-16.519 0.899,-1.476 3.274,-2.238 3.618,-4.261 -3.546,-5.092 -10.344,-6.297 -16.196,-4.76 -2.004,1.123 -4.206,2.494 -4.712,4.824 -3.619,16.718 12.886,37.746 32.124,33.732 7.147,-1.49 9.492,-6.378 19.33,-9.396 0.894,-0.274 8.759,-1.375 9.479,-2.484 l 1.467,41.078 22.721,1.541 c 0,0 20.951,19.377 32.218,26.214 6.832,3.955 15.1,5.141 22.648,7.62 l 1.1,-0.013 c -5.177,-3.607 -11.075,-6.105 -15.527,-10.454 -6.494,-6.343 -10.071,-14.187 -11.828,-23.152 2.95,-0.778 43.294,-0.778 43.294,-0.778"
         style="fill:#ed1d24;fill-opacity:1;fill-rule:nonzero;stroke:none"
         id="path3679" /></g><g
       id="g3681"
       transform="translate(151.4268,436.6812)"><path
         inkscape:connector-curvature="0"
         d="m 0,0 c 0.357,-0.921 -0.574,-0.944 -1.291,-0.717 -3.106,0.952 -6.906,0.381 -9.01,-1.913 -0.681,-0.743 -2.404,-1.805 -2.236,-3.092 3.489,0.326 9.198,2.461 11.167,-1.599 -2.206,-0.523 -5.393,-0.544 -7.718,-1.375 -4.151,-1.484 -9.55,-5.038 -13.971,-2.771 -0.804,0.438 0.191,0.732 0.191,0.732 7.216,5.233 7.183,18.071 18.523,15.555 C -2.154,3.877 -1.262,1.849 0,0"
         style="fill:#ffffff;fill-opacity:1;fill-rule:nonzero;stroke:none"
         id="path3683" /></g><g
       id="g3685"
       transform="translate(157.5913,430.5571)"><path
         inkscape:connector-curvature="0"
         d="m 0,0 c 2.805,-11.037 -2.465,-22.528 -7.712,-32.003 l -0.006,-0.551 c 15.283,5.277 24.564,-0.838 26.371,-3.244 l -0.372,-0.363 c -9.128,3.592 -20.706,1.528 -27.388,-5.362 -4.814,-4.826 -3.281,-11.85 2.215,-17.787 5.632,-6.083 15.282,-10.697 17.95,-14.178 0.172,-0.92 -0.741,-0.542 -1.11,-0.721 -9.488,4.145 -21.006,7.214 -25.838,17.359 -2.325,4.979 -3.704,12.515 -1.073,17.985 4.344,10.587 13.438,19.833 14.505,32.658 L -2.526,3.514 C -1.249,2.949 -0.458,1.375 0,0"
         style="fill:#ffffff;fill-opacity:1;fill-rule:nonzero;stroke:none"
         id="path3687" /></g><g
       id="g3689"
       transform="translate(119.5522,408.4463)"><path
         inkscape:connector-curvature="0"
         d="m 0,0 c -5.331,-0.811 -9.595,-2.461 -11.465,-7.935 0.769,-0.992 1.961,0.567 2.763,1.069 4.246,2.333 10.86,3.356 15.037,-0.177 0.575,-0.647 1.086,-1.297 0.893,-2.028 -3.638,2.427 -8.904,1.464 -12.292,-0.407 -8.474,-4.676 -7.489,-12.932 -7.489,-12.932 -1.81,0.096 -3.349,1.807 -4.364,2.985 -8.861,10.269 1.5,21.823 8.335,22.644 C -5.285,3.614 -2.362,1.861 0,0"
         style="fill:#ffffff;fill-opacity:1;fill-rule:nonzero;stroke:none"
         id="path3691" /></g><g
       id="g3693"
       transform="translate(215.791,373.5703)"><path
         inkscape:connector-curvature="0"
         d="m 0,0 c -7.797,-8.161 -17.424,-15.751 -27.196,-20.221 -0.375,-0.728 0.354,-1.104 1.087,-1.112 4.779,0.86 8.662,3.565 13.086,5.531 l 13.857,8.639 0.549,-0.006 c -2.066,-4.194 -5.579,-6.72 -8.735,-9.799 -6.849,-5.422 -14.975,-10.279 -21.643,-15.885 l -0.006,-0.55 c 2.193,-0.577 4.23,1.05 6.07,1.577 8.483,3.936 16.617,9.525 24.199,14.756 l 0.548,-0.19 c -2.847,-8.037 -10.621,-14.18 -18.003,-18.127 -6.857,-6.156 -12.467,-15.26 -23.644,-14.395 l -3.847,0.411 c -0.554,-0.359 -0.2,-1.464 0.161,-2.019 2.899,-2.968 6.549,-4.479 10.385,-5.806 0.727,-0.56 0.009,-1.211 -0.202,-1.467 -7.232,-6.883 -15.92,-12.648 -27.26,-10.133 -11.335,3.068 -17.838,11.58 -26.36,19.751 -1.454,1.117 -3.271,2.605 -5.106,2.627 4.531,-4.637 7.607,-8.158 11.579,-13.524 3.437,-4.075 7.405,-9.806 12.506,-12.617 0,0 0.526,-0.194 0.359,-0.556 -2.976,-3.202 -6.649,-4.139 -9.788,-5.937 -14.39,-7.167 -30.944,-11.373 -41.182,-24.273 -6.326,-7.628 -9.918,-16.757 -10.953,-26.831 -1.806,2.406 -1.762,6.074 -1.542,9.187 0.085,7.336 2.552,14.276 5.925,20.471 10.1,16.755 30.535,23.299 47.843,29.332 0.761,0.35 0.748,1.093 0.57,1.644 -4.001,2.797 -8.925,5.055 -12.182,8.763 -8.177,6.699 -10.425,18.279 -22.324,20.068 0.201,1.464 1.679,2.364 2.788,3.087 5.546,3.785 13.432,3.875 20.014,2.147 0.737,0.175 0.566,1.278 0.201,1.465 -3.773,3.612 -7.288,16.756 -5.243,21.887 3.222,-6.642 7.726,-13.48 14.467,-17.228 4.923,-2.44 10.578,-5.075 11.234,-11.685 -0.222,-3.299 -1.169,-5.854 -3.397,-8.213 0.889,-2.393 2.887,-4.069 4.699,-5.739 4.717,-4.458 12.568,-7.483 19.387,-4.631 -0.717,1.293 -2,1.492 -3.085,2.788 -2.538,2.414 -4.33,6.102 -3.553,9.762 4.05,1.42 8.829,2.28 11.982,5.177 5.006,4.709 8.764,12.369 6.467,19.731 -0.874,3.678 -1.747,5.884 -4.435,11.263 16.015,-0.49 25.908,5.541 34.625,14.058 L 0.198,1.099 0,0 z"
         style="fill:#ffffff;fill-opacity:1;fill-rule:nonzero;stroke:none"
         id="path3695" /></g><g
       id="g3697"
       transform="translate(102.9912,341.335)"><path
         inkscape:connector-curvature="0"
         d="m 0,0 c -2.608,-3.454 -8.832,-4.755 -9.629,-10.065 -0.206,-1.83 -2.799,-17.482 -5.054,-22.04 -1.311,-2.37 -2.989,-4.733 -5.387,-5.805 -1.654,-0.348 -3.676,-0.692 -4.579,0.419 4.985,2.692 6.528,9.277 6.774,14.592 -0.093,7.703 2.23,18.131 10.705,21.515 C -4.956,-0.492 -2.565,0.213 0,0"
         style="fill:#ffffff;fill-opacity:1;fill-rule:nonzero;stroke:none"
         id="path3699" /></g><g
       id="g3701"
       transform="translate(219.415,338.5)"><path
         inkscape:connector-curvature="0"
         d="m 0,0 c -6.862,-6.34 -13.543,-13.046 -22.561,-15.875 -1.347,-0.279 -2.95,-1.248 -4.407,-0.498 6.998,2.485 11.105,8.673 16.472,12.827 2.958,1.984 6.099,3.965 9.775,4.655 L 0.194,0.914 0,0 z"
         style="fill:#ffffff;fill-opacity:1;fill-rule:nonzero;stroke:none"
         id="path3703" /></g><g
       id="g3705"
       transform="translate(141.3096,324.7446)"><path
         inkscape:connector-curvature="0"
         d="m 0,0 c 3.419,-5.541 7.748,-11.645 14.886,-13.012 4.021,-1.149 8.793,-0.838 12.645,-0.883 -0.566,-1.094 -2.722,-2.013 -4.063,-2.336 -5.701,-1.216 -11.43,-0.677 -15.928,2.389 C -1.874,-7.427 -4.486,2.431 -5.043,7.946 -5.404,9.904 -6.465,11.63 -6.465,11.63 -3.017,8.656 -2.527,3.515 0,0"
         style="fill:#ed1d24;fill-opacity:1;fill-rule:nonzero;stroke:none"
         id="path3707" /></g><g
       id="g3709"
       transform="translate(121.0527,229.5547)"><path
         inkscape:connector-curvature="0"
         d="m 0,0 c 1.04,0.979 1.164,-0.133 1.164,-0.133 0.161,-1.836 -0.593,-3.664 -1.711,-5.117 -2.976,-3.633 -8.668,-4.115 -12.689,-2.967 -1.825,0.754 -3.648,1.692 -5.098,3.176 0.376,0.73 2.026,0.711 2.941,0.516 C -8.667,-5.828 -3.362,-3.486 0,0"
         style="fill:#ffffff;fill-opacity:1;fill-rule:nonzero;stroke:none"
         id="path3711" /></g><g
       id="g3713"
       transform="translate(119.2803,212.9277)"><path
         inkscape:connector-curvature="0"
         d="M 0,0 C 13.021,-1.834 22.957,3.418 22.957,3.418 23.167,-0.488 12.252,-7.049 -0.124,-5.072 -20.784,-1.773 -21.909,9.082 -21.909,9.082 -19.534,8.32 -13.561,1.91 0,0"
         style="fill:#ffffff;fill-opacity:1;fill-rule:nonzero;stroke:none"
         id="path3715" /></g><g
       id="g3717"
       transform="translate(138.5791,185.9473)"><path
         inkscape:connector-curvature="0"
         d="m 0,0 c -0.011,-0.916 2.89,-7.984 -1.103,-15.76 -0.552,-0.176 -0.755,-1.824 -2.223,-1.806 -0.366,0.004 -0.728,0.373 -0.723,0.74 1.693,3.646 1.01,13.244 -0.181,15.777 -3.936,8.481 -12.807,11.279 -20.721,15.83 -1.923,1.104 -4.116,2.748 -6.004,4.106 -1.06,0.758 0.163,1.062 0.56,0.91 C -17.954,17.268 -4.99,12.529 0,0"
         style="fill:#ffffff;fill-opacity:1;fill-rule:nonzero;stroke:none"
         id="path3719" /></g><g
       id="g3721"
       transform="translate(155.0391,292.6377)"><path
         inkscape:connector-curvature="0"
         d="m 0,0 0.123,-26.163 c -1.957,-1.834 -7.581,0.306 -9.206,1.18 -7.833,4.31 -17.508,8.967 -27.257,5.822 -13.428,-3.51 -23.646,-14.577 -26.012,-28.67 -0.951,-2.924 -0.517,-6.664 -1.03,-9.707 0,0 -0.13,-1.94 -0.898,1.66 -2.441,18.07 9.39,34.367 24.157,42.445 10.327,4.832 21.183,7.821 31.146,13.023 C -7.641,0.122 -1.956,2.689 0,0"
         style="fill:#ffffff;fill-opacity:1;fill-rule:nonzero;stroke:none"
         id="path3723" /></g><g
       id="g3725"
       transform="translate(126.9341,256.3242)"><path
         inkscape:connector-curvature="0"
         d="m 0,0 c 2.003,-1.158 8.362,-7.27 10.487,-12.775 0.991,-2.075 1.024,-6.434 0.275,-7.891 l -0.367,0.004 c -1.57,6.805 -7.396,10.539 -10.812,16.266 -1.294,-0.718 -0.269,-2.446 0.143,-3.303 3.597,-6.094 7.562,-12.01 6.373,-19.516 -2.021,-0.342 -2.168,2.778 -3.255,3.891 -4.886,5.742 -11.793,10.775 -10.592,19.381 0.399,2.725 1.894,5.295 3.938,7.471 C -2.169,2.776 -2.003,1.158 0,0"
         style="fill:#ffffff;fill-opacity:1;fill-rule:nonzero;stroke:none"
         id="path3727" /></g><g
       id="g3729"
       transform="translate(218.3418,387.6626)"><path
         inkscape:connector-curvature="0"
         d="m 0,0 c 0.895,-1.845 -0.591,-3.294 -1.338,-4.57 -6.22,1.356 -12.04,5.461 -13.245,12.077 l 0.188,0.548 C -10.033,4.518 -3.8,4.444 0,0"
         style="fill:#ffffff;fill-opacity:1;fill-rule:nonzero;stroke:none"
         id="path3731" /></g><g
       id="g3733"
       transform="translate(246.3496,399.979)"><path
         inkscape:connector-curvature="0"
         d="m 0,0 c 0,0 20.355,-0.368 26.954,-4.557 0.37,-0.362 0.741,-0.725 1.109,-0.72 8.816,-1.181 15.923,2.756 21.37,7.403 1.817,1.488 1.782,4.424 3.792,5.18 1.841,-0.711 2.776,-2.168 4.076,-3.804 3.551,-5.461 1.068,-12.825 -1.624,-17.624 -1.081,-1.848 -2.954,-3.392 -4.154,-5.551 4.09,-4.72 10.18,-7.951 16.435,-9.528 8.636,-1.548 21.888,-4.003 26.718,4.899 1.691,3.12 0.224,9.447 -6.541,10.377 -3.291,0.452 -6.59,-1.177 -8.389,-4.132 -1.256,-2.4 0.063,-5.135 0.272,-7.333 -1.098,-0.381 -2.745,-0.584 -4.036,-0.048 -3.317,1.428 -5.932,5.433 -6.523,8.91 -1.168,5.672 1.158,10.65 4.969,14.178 L 69.957,3.468 C 65.743,9.169 68.311,25.49 77.039,25.193 76.379,9.536 85.678,7.87 90.439,8.477 c 0.547,0.191 1.463,0.2 1.27,1.115 -6.311,6.528 -9.729,16.391 -6.539,25.966 2.301,6.996 8.644,13.489 15.963,14.858 7.873,1.009 16.697,-0.719 21.9,-6.345 5.744,-5.067 4.94,-14.614 12.317,-18.195 1.107,-0.537 2.931,0.218 3.494,-0.692 -3.754,-8.479 -15.944,-1.287 -20.805,-8.681 -0.353,-1.288 -2.35,-2.961 -0.689,-4.043 8.923,5.424 21.355,8.871 32.037,4.962 8.472,-3.019 13.533,-12.129 13.457,-21.484 -0.467,-7.156 -7.701,-21.153 -20.903,-16.016 0.526,2.207 1.578,4.178 1.571,6.803 -0.016,4.93 -9.459,12.083 -13.815,5.158 0.399,-2.564 0.43,-5.314 0.096,-8.071 -3.08,-18.925 -22.422,-27.221 -38.689,-31.996 0,0 -6.473,-2.063 -4.493,-7.756 1.512,-4.019 4.473,-6.185 8.346,-7.971 1.838,-0.345 3.869,-1.422 5.697,-0.85 1.037,5.147 -0.068,7.361 4.963,14.362 5.035,7.001 13.869,6.031 19.682,10.869 3.631,2.978 5.601,7.033 7.941,10.912 7.781,-4.393 6.039,-17.32 5.215,-22.494 -0.178,-0.554 -0.709,-2.211 0.574,-2.195 l 7.86,2.66 c 10.605,2.325 21.3,-2.501 26.72,-11.057 5.584,-7.087 4.782,-16.816 5.254,-25.797 l 0.393,-1.165 c 1.119,-1.456 3.66,-0.437 5.31,-0.419 1.477,-0.716 1.686,-2.914 1.709,-4.931 -0.324,-3.672 -2.304,-6.813 -5.031,-8.863 -3.812,-3.344 -10.414,-3.422 -15.205,-1.461 -6.279,3.776 -10.758,10.509 -11.588,18.57 -0.775,3.475 0.838,6.612 -0.668,10.078 -0.568,1.461 -2.228,2.358 -3.693,1.974 -4.916,-2.992 -6.504,-8.329 -10.309,-12.225 -3.445,-3.341 -6.89,-6.5 -11.637,-8.572 l 0.374,-0.546 c 9.025,-3.38 17.681,-6.396 25.81,-11.435 16.244,-8.978 29.422,-27.376 28.777,-45.51 -0.644,-18.137 -3.511,-28.688 -23.328,-43.739 0.057,-4.769 -0.254,-9.541 -3.515,-12.881 -5.805,-5.57 -14.967,-6.043 -21.707,-9.974 -4.737,-2.805 -7.619,-7.059 -6.998,-13.104 0.582,-2.744 2.627,-5.103 5.568,-5.619 2.57,-0.334 4.189,2.434 6.008,3.553 0.73,0.377 1.105,-0.352 1.299,-1.082 0.394,-2.381 0.984,-5.858 -1.565,-7.356 -4.721,-4.089 -12.234,-4.543 -18.31,-2.601 -7.196,3.588 -13.137,9.935 -14.34,18.541 -1.746,8.232 1.644,16.158 6.707,22.269 l 0.355,1.106 c -4.09,4.535 -7.638,10.178 -8.263,16.592 -0.569,1.459 1.224,10.498 5.005,11.06 2.043,-2.359 4.264,-3.982 7.393,-4.863 1.287,-0.352 3.498,-1.244 4.398,0.053 -4.648,5.445 -9.302,11.259 -8.662,19.336 0.791,10.83 15.219,21.342 16.782,23.306 1.562,1.962 1.433,2.952 1.433,2.952 4.779,-0.863 8.498,-5.22 10.563,-9.23 2.441,-4.923 2.347,-12.628 -1.09,-16.519 -0.901,-1.476 -3.274,-2.238 -3.619,-4.261 3.545,-5.092 10.343,-6.297 16.195,-4.76 2.004,1.123 4.207,2.494 4.711,4.824 3.619,16.718 -12.887,37.746 -32.125,33.732 -7.145,-1.49 -9.488,-6.378 -19.328,-9.396 -0.895,-0.274 -8.76,-1.375 -9.479,-2.484 l -1.466,41.078 -22.721,1.541 c 0,0 -20.951,19.377 -32.219,26.214 -6.832,3.955 -15.1,5.141 -22.646,7.62 l -1.1,-0.013 c 5.176,-3.607 11.074,-6.105 15.525,-10.454 6.495,-6.343 10.073,-14.187 11.828,-23.152 -2.949,-0.778 -43.294,-0.778 -43.294,-0.778"
         style="fill:#ed1d24;fill-opacity:1;fill-rule:nonzero;stroke:none"
         id="path3735" /></g><g
       id="g3737"
       transform="translate(350.9453,436.6812)"><path
         inkscape:connector-curvature="0"
         d="m 0,0 c -0.357,-0.921 0.574,-0.944 1.291,-0.717 3.107,0.952 6.906,0.381 9.01,-1.913 0.681,-0.743 2.404,-1.805 2.236,-3.092 -3.486,0.326 -9.197,2.461 -11.168,-1.599 2.207,-0.523 5.395,-0.544 7.719,-1.375 4.15,-1.484 9.551,-5.038 13.971,-2.771 0.804,0.438 -0.192,0.732 -0.192,0.732 C 15.654,-5.502 15.688,7.336 4.346,4.82 2.156,3.877 1.262,1.849 0,0"
         style="fill:#ffffff;fill-opacity:1;fill-rule:nonzero;stroke:none"
         id="path3739" /></g><g
       id="g3741"
       transform="translate(344.7832,430.5571)"><path
         inkscape:connector-curvature="0"
         d="m 0,0 c -2.807,-11.037 2.463,-22.528 7.711,-32.003 l 0.006,-0.551 c -15.285,5.277 -24.565,-0.838 -26.371,-3.244 l 0.371,-0.363 c 9.129,3.592 20.705,1.528 27.388,-5.362 4.815,-4.826 3.282,-11.85 -2.216,-17.787 -5.631,-6.083 -15.282,-10.697 -17.948,-14.178 -0.173,-0.92 0.741,-0.542 1.11,-0.721 9.488,4.145 21.004,7.214 25.838,17.359 2.324,4.979 3.703,12.515 1.072,17.985 -4.342,10.587 -13.438,19.833 -14.506,32.658 l 0.07,9.721 C 1.248,2.949 0.455,1.375 0,0"
         style="fill:#ffffff;fill-opacity:1;fill-rule:nonzero;stroke:none"
         id="path3743" /></g><g
       id="g3745"
       transform="translate(382.8203,408.4463)"><path
         inkscape:connector-curvature="0"
         d="M 0,0 C 5.33,-0.811 9.594,-2.461 11.465,-7.935 10.693,-8.927 9.502,-7.368 8.701,-6.866 4.457,-4.533 -2.158,-3.51 -6.334,-7.043 -6.91,-7.69 -7.422,-8.34 -7.228,-9.071 c 3.638,2.427 8.904,1.464 12.293,-0.407 8.472,-4.676 7.486,-12.932 7.486,-12.932 1.81,0.096 3.351,1.807 4.367,2.985 C 25.777,-9.156 15.416,2.398 8.582,3.219 5.285,3.614 2.363,1.861 0,0"
         style="fill:#ffffff;fill-opacity:1;fill-rule:nonzero;stroke:none"
         id="path3747" /></g><g
       id="g3749"
       transform="translate(286.582,373.5703)"><path
         inkscape:connector-curvature="0"
         d="m 0,0 c 7.797,-8.161 17.422,-15.751 27.195,-20.221 0.375,-0.728 -0.352,-1.104 -1.086,-1.112 -4.78,0.86 -8.663,3.565 -13.086,5.531 l -13.857,8.639 -0.55,-0.006 c 2.066,-4.194 5.581,-6.72 8.736,-9.799 6.849,-5.422 14.975,-10.279 21.642,-15.885 L 29,-33.403 c -2.192,-0.577 -4.229,1.05 -6.068,1.577 -8.485,3.936 -16.62,9.525 -24.2,14.756 l -0.548,-0.19 c 2.846,-8.037 10.621,-14.18 18.003,-18.127 6.858,-6.156 12.465,-15.26 23.645,-14.395 l 3.844,0.411 c 0.556,-0.359 0.201,-1.464 -0.16,-2.019 -2.897,-2.968 -6.547,-4.479 -10.384,-5.806 -0.728,-0.56 -0.011,-1.211 0.202,-1.467 7.23,-6.883 15.918,-12.648 27.26,-10.133 11.336,3.068 17.836,11.58 26.361,19.751 1.453,1.117 3.27,2.605 5.104,2.627 -4.532,-4.637 -7.606,-8.158 -11.579,-13.524 -3.437,-4.075 -7.404,-9.806 -12.505,-12.617 0,0 -0.528,-0.194 -0.362,-0.556 2.981,-3.202 6.651,-4.139 9.789,-5.937 14.391,-7.167 30.946,-11.373 41.184,-24.273 6.326,-7.628 9.916,-16.757 10.951,-26.831 1.807,2.406 1.764,6.074 1.545,9.187 -0.086,7.336 -2.553,14.276 -5.926,20.471 -10.099,16.755 -30.537,23.299 -47.845,29.332 -0.758,0.35 -0.747,1.093 -0.569,1.644 4.002,2.797 8.928,5.055 12.184,8.763 8.174,6.699 10.422,18.279 22.322,20.068 -0.201,1.464 -1.678,2.364 -2.787,3.087 -5.545,3.785 -13.436,3.875 -20.016,2.147 -0.736,0.175 -0.562,1.278 -0.199,1.465 3.772,3.612 7.287,16.756 5.242,21.887 -3.22,-6.642 -7.724,-13.48 -14.467,-17.228 -4.923,-2.44 -10.58,-5.075 -11.234,-11.685 0.223,-3.299 1.17,-5.854 3.397,-8.213 -0.889,-2.393 -2.885,-4.069 -4.698,-5.739 -4.716,-4.458 -12.568,-7.483 -19.388,-4.631 0.718,1.293 2,1.492 3.086,2.788 2.539,2.414 4.33,6.102 3.552,9.762 -4.05,1.42 -8.83,2.28 -11.982,5.177 -5.006,4.709 -8.764,12.369 -6.467,19.731 0.874,3.678 1.747,5.884 4.436,11.263 C 23.708,-11.37 13.816,-5.339 5.098,3.178 L -0.197,1.099 0,0 z"
         style="fill:#ffffff;fill-opacity:1;fill-rule:nonzero;stroke:none"
         id="path3751" /></g><g
       id="g3753"
       transform="translate(399.3809,341.335)"><path
         inkscape:connector-curvature="0"
         d="m 0,0 c 2.609,-3.454 8.832,-4.755 9.629,-10.065 0.207,-1.83 2.801,-17.482 5.055,-22.04 1.31,-2.37 2.99,-4.733 5.386,-5.805 1.655,-0.348 3.674,-0.692 4.58,0.419 -4.984,2.692 -6.527,9.277 -6.775,14.592 0.094,7.703 -2.23,18.131 -10.705,21.515 C 4.959,-0.492 2.564,0.213 0,0"
         style="fill:#ffffff;fill-opacity:1;fill-rule:nonzero;stroke:none"
         id="path3755" /></g><g
       id="g3757"
       transform="translate(361.0645,324.7446)"><path
         inkscape:connector-curvature="0"
         d="m 0,0 c -3.422,-5.541 -7.752,-11.645 -14.887,-13.012 -4.021,-1.149 -8.793,-0.838 -12.644,-0.883 0.562,-1.094 2.72,-2.013 4.062,-2.336 5.701,-1.216 11.43,-0.677 15.928,2.389 C 1.871,-7.427 4.484,2.431 5.041,7.946 5.4,9.904 6.463,11.63 6.463,11.63 3.014,8.656 2.523,3.515 0,0"
         style="fill:#ed1d24;fill-opacity:1;fill-rule:nonzero;stroke:none"
         id="path3759" /></g><g
       id="g3761"
       transform="translate(348.6934,292.7598)"><path
         inkscape:connector-curvature="0"
         d="m 0,0 -0.24,-26.412 c 1.84,-0.529 6.338,0.433 7.961,1.308 7.838,4.309 17.509,8.967 27.257,5.82 13.432,-3.509 23.649,-14.575 26.014,-28.669 0.951,-2.924 0.518,-6.664 1.031,-9.709 0,0 0.129,-1.938 0.897,1.662 2.441,18.069 -9.391,34.368 -24.156,42.447 C 28.437,-8.724 17.58,-5.733 7.617,-0.532 6.281,0 1.816,1.487 0,0"
         style="fill:#ffffff;fill-opacity:1;fill-rule:nonzero;stroke:none"
         id="path3763" /></g><g
       id="g3765"
       transform="translate(375.4375,256.3242)"><path
         inkscape:connector-curvature="0"
         d="m 0,0 c -2.004,-1.158 -8.359,-7.27 -10.484,-12.775 -0.994,-2.075 -1.026,-6.434 -0.276,-7.891 l 0.365,0.004 c 1.573,6.805 7.397,10.539 10.815,16.266 1.291,-0.718 0.267,-2.446 -0.145,-3.303 -3.595,-6.094 -7.562,-12.01 -6.373,-19.516 2.02,-0.342 2.166,2.778 3.254,3.891 C 2.043,-17.582 8.951,-12.549 7.75,-3.943 7.348,-1.218 5.853,1.352 3.81,3.528 2.17,2.776 2.006,1.158 0,0"
         style="fill:#ffffff;fill-opacity:1;fill-rule:nonzero;stroke:none"
         id="path3767" /></g><g
       id="g3769"
       transform="translate(381.3203,229.5547)"><path
         inkscape:connector-curvature="0"
         d="m 0,0 c -1.039,0.979 -1.166,-0.133 -1.166,-0.133 -0.16,-1.836 0.594,-3.664 1.711,-5.117 2.978,-3.633 8.67,-4.115 12.689,-2.967 1.825,0.754 3.649,1.692 5.1,3.176 -0.377,0.73 -2.027,0.711 -2.941,0.516 C 8.666,-5.828 3.361,-3.486 0,0"
         style="fill:#ffffff;fill-opacity:1;fill-rule:nonzero;stroke:none"
         id="path3771" /></g><g
       id="g3773"
       transform="translate(383.0938,212.9277)"><path
         inkscape:connector-curvature="0"
         d="M 0,0 C -13.021,-1.834 -22.957,3.418 -22.957,3.418 -23.168,-0.488 -12.254,-7.049 0.121,-5.072 20.781,-1.773 21.908,9.082 21.908,9.082 19.533,8.32 13.561,1.91 0,0"
         style="fill:#ffffff;fill-opacity:1;fill-rule:nonzero;stroke:none"
         id="path3775" /></g><g
       id="g3777"
       transform="translate(363.7949,185.9473)"><path
         inkscape:connector-curvature="0"
         d="m 0,0 c 0.01,-0.916 -2.891,-7.984 1.102,-15.76 0.55,-0.176 0.755,-1.824 2.222,-1.806 0.367,0.004 0.729,0.373 0.725,0.74 -1.694,3.646 -1.012,13.244 0.181,15.777 3.934,8.481 12.807,11.279 20.721,15.83 1.92,1.104 4.113,2.748 6.002,4.106 1.059,0.758 -0.162,1.062 -0.56,0.91 C 17.951,17.268 4.986,12.529 0,0"
         style="fill:#ffffff;fill-opacity:1;fill-rule:nonzero;stroke:none"
         id="path3779" /></g><g
       id="g3781"
       transform="translate(282.5527,387.6626)"><path
         inkscape:connector-curvature="0"
         d="M 0,0 C -0.895,-1.845 0.589,-3.294 1.338,-4.57 7.557,-3.214 13.377,0.891 14.582,7.507 L 14.394,8.055 C 10.033,4.518 3.798,4.444 0,0"
         style="fill:#ffffff;fill-opacity:1;fill-rule:nonzero;stroke:none"
         id="path3783" /></g><g
       id="g3785"
       transform="translate(155.4688,300.4697)"><path
         inkscape:connector-curvature="0"
         d="m 0,0 c 0,0 -0.242,-178.493 -0.242,-195.61 0,-19.315 13.425,-28.68 25.916,-32.276 19.561,-5.623 37.776,-8.332 49.85,-12.728 13.724,-4.996 17.757,-13.127 18.369,-13.863 0.77,-0.924 1.106,-2.508 2.537,-2.516 1.427,-0.004 1.763,1.584 2.535,2.512 0.61,0.732 4.644,8.863 18.369,13.859 12.074,4.398 30.289,7.105 49.849,12.732 12.493,3.592 25.917,12.957 25.917,32.272 0,17.117 -0.243,195.611 -0.243,195.611"
         style="fill:#ed1d24;fill-opacity:1;fill-rule:nonzero;stroke:none"
         id="path3787" /></g><g
       id="g3789"
       transform="translate(161.9243,184.0664)"><path
         inkscape:connector-curvature="0"
         d="m 0,0 -0.252,-70.869 c 0,0 -1.467,-19.316 6.967,-25.916 8.316,-6.508 11.371,-7.947 33.253,-12.598 13.602,-2.885 29.481,-7.051 39.49,-11.734 6.561,-3.069 8.803,-5.99 10.514,-8.557 1.713,2.567 3.801,4.969 10.361,8.037 10.008,4.684 25.887,8.85 39.49,11.737 21.882,4.646 24.938,6.087 33.253,12.593 8.435,6.602 6.966,25.916 6.966,25.916 L 179.74,-0.021 0,0 z"
         style="fill:#ffffff;fill-opacity:1;fill-rule:nonzero;stroke:none"
         id="path3791" /></g><g
       id="g3793"
       transform="translate(256.5107,142.3867)"><path
         inkscape:connector-curvature="0"
         d="m 0,0 c -0.104,-8.986 3.863,-17.107 6.707,-24.844 -4.621,-3.062 -10.667,-2.625 -15.108,-5.875 -4.988,-3.058 -8.168,-8.523 -9.705,-14.373 -0.556,-1.176 -1.55,-2.683 -2.601,-2.904 0.131,1.029 0.206,2.014 -0.146,3.117 -0.348,1.842 -1.609,3.506 -2.142,5.16 l -0.184,0.004 c -1.296,-1.086 -1.136,-3.103 -1.704,-4.562 -0.921,-1.877 -2.061,-3.828 -4.085,-4.356 0.217,2.932 -1.221,5.334 -2.296,7.545 -1.106,-0.537 -1.02,-2.121 -1.131,-2.555 -0.438,-2.037 -2.268,-5.839 -5.209,-6.357 0.591,3.479 -1.76,6.256 -2.086,9.746 -0.348,1.656 0.772,3.291 -0.127,4.772 -3.685,-1.426 -7.385,-4.133 -9.077,-7.784 -0.02,-1.648 1.246,-3.13 1.408,-4.964 2.744,-0.584 4.74,-2.442 6.362,-4.846 0.59,-0.996 1.048,-4.412 -0.619,-5.861 -0.925,-0.721 -1.855,-1.813 -3.134,-1.43 -0.385,-1.463 -1.324,-3.283 -2.799,-4.002 -1.826,0.57 -1.415,4.418 -3.811,3.346 -1.282,0.199 -2.184,1.494 -2.535,2.783 -0.512,3.306 2.09,6.392 -0.446,8.988 0,0 -0.143,0.154 -0.735,-0.174 -0.684,-0.377 -0.61,-7.775 -5.039,-7.461 -2.01,0.577 -3.82,2.614 -4.351,4.272 -1.649,0.203 -4.179,-1.053 -5.318,0.06 -1.616,2.954 4.815,3.979 1.36,6.59 -1.216,1.17 -1.974,3.69 -0.852,5.51 1.856,1.812 4.901,2.361 7.722,1.561 0.37,-0.106 0.185,0.179 0.185,0.179 -2.859,2.61 -5.361,-0.849 -8.344,2.059 -3.385,3.301 0.572,7.568 -3.262,9.082 -0.546,0.375 -2.016,0.207 -1.455,1.117 1.852,1.447 4.225,0.5 6.424,0.477 2.218,1.439 6.081,2.31 8.999,0.992 3.826,-2.246 3.768,-7.012 4.456,-11.055 0.541,-0.738 1.65,-0.019 2.205,0.524 3.33,2.345 6.851,5.421 10.364,7.947 l 0.005,0.367 c -4.576,0.787 -7.835,4.311 -12.79,4.002 0.934,1.457 2.597,2.537 4.254,3.066 2.948,1.252 6.075,1.948 9.197,2.278 -0.713,1.841 -3.875,2.224 -4.924,2.441 -0.718,0.113 -2.2,0.027 -2.2,0.027 0.018,1.651 1.849,2.776 2.79,3.268 4.546,1.828 14.376,1.018 14.693,1.846 -0.5,1.455 -3.454,2.607 -5.278,3.545 1.127,2.187 5.329,2.328 7.178,2.3 6.771,-1.363 12.5,2.237 18.203,3.821 3.497,1.06 10.182,1.324 10.627,1.531 C 0.09,1.129 0,0 0,0"
         style="fill:#ed1d24;fill-opacity:1;fill-rule:nonzero;stroke:none"
         id="path3795" /></g><g
       id="g3797"
       transform="translate(230.6494,186.5156)"><path
         inkscape:connector-curvature="0"
         d="m 0,0 c 13.813,0.768 40.776,1.102 43.224,0.738 3.299,-0.488 5.302,-3.179 5.302,-3.179 -0.187,-0.364 0.205,-1.981 0.202,-2.348 -0.952,-2.924 -4.146,-4.375 -6.297,-5.246 -2.213,-1.074 -6.009,0.045 -7.52,0.088 -0.506,0.002 -0.012,-1.098 -0.012,-1.098 4.102,-9.953 10.766,-20.117 20.612,-25.185 3.104,-1.137 5.084,-4.28 8.569,-4.321 2.394,0.889 2.554,3.785 2.997,5.285 1.359,6.584 -0.574,13.579 -5.847,17.674 -2.178,1.858 -5.292,2.08 -5.625,5.02 1.283,-0.018 2.371,-1.129 3.658,-0.961 2.203,0.34 4.951,0.123 7.148,-0.268 3.84,-0.961 6.179,-4.842 7.051,-8.703 2.219,1.625 3.808,5.041 4.114,6.922 1.04,3.605 1.958,8.924 1.743,13.141 l 4.282,-0.008 c 0,0 0.272,-4.791 -0.671,-10.264 -0.943,-5.471 -2.509,-10.603 -4.761,-14.982 3.529,3.81 9.041,4.664 14.359,4.601 -1.732,-6.949 -9.633,-8.138 -14.808,-11.748 -3.352,-4.176 -6.144,-7.629 -9.487,-11.26 -1.148,-4.021 2.662,-7.365 1.325,-12.117 -0.637,-7.328 2.037,-13.965 5.824,-19.326 0.541,-0.924 1.074,-2.213 0.15,-2.935 -1.084,1.48 -2.916,1.681 -4.379,2.068 -0.013,-1.285 1.254,-2.582 1.608,-3.686 1.251,-2.769 1.206,-6.617 -0.834,-8.611 -0.332,2.938 -3.807,3.713 -4.879,6.109 -0.912,0.561 -2.004,1.309 -2.746,0.582 0.153,-2.568 0.32,-5.689 0.086,-8.435 -0.045,-0.518 -0.385,-1.279 -1.114,-1.09 l -2.888,3.889 c -1.281,0.381 -1.813,2.037 -2.906,2.416 -0.594,-3.66 -0.463,-8.065 0.043,-11.739 0,0 -0.104,-0.595 0.723,-0.923 5.18,-1.049 10.487,2.81 16.154,1.093 1.456,-0.752 2.91,-2.052 2.891,-3.703 0.155,-2.201 -1.513,-3.832 -3.177,-5.097 -3.126,-0.512 -4.851,-2.664 -5.554,-4.526 -0.704,-1.865 -2.414,-1.681 -2.568,-0.597 -0.083,0.597 -0.179,1.187 -0.536,2.107 -0.904,1.109 -2.387,-0.156 -3.668,-0.141 -0.917,0.012 -1.46,0.75 -1.82,1.307 -1.5,-2.918 -6.608,-0.475 -7.016,-3.953 -0.566,-1.461 -0.963,-4.026 -2.796,-4.002 -1.089,0.93 0.023,2.017 -0.334,2.937 -0.721,0.926 -1.437,2.403 -2.536,2.598 -0.926,-0.908 -1.312,-0.533 -3.121,-0.144 -2.054,0.439 -2.535,2.595 -3.985,4.078 -1.302,-1.452 0.508,-3.489 0.675,-4.957 l -2.754,-0.151 c -2.018,-0.164 -3.264,3.155 -5.487,1.348 -2.388,-0.707 -2.965,-2.719 -4.812,-3.981 -0.916,0.198 -0.535,1.291 -1.076,2.03 -1.61,3.504 3.55,5.644 1.201,8.605 -0.339,2.574 0.787,4.578 2.82,6.02 7.02,4.318 12.957,-5.471 20.699,-2.076 0.742,0.724 0.758,2.009 0.771,2.923 -0.508,3.674 0.089,7.703 -0.425,10.827 -1.672,-1.633 -2.432,-4.004 -5.008,-4.709 -1.47,-0.35 -2.043,-2.178 -3.334,-2.895 -0.899,1.479 -0.139,3.67 0.43,5.496 0.39,1.83 2.605,3.086 2.26,4.924 -1.853,-1.627 -3.702,-2.707 -5.19,-4.705 -0.373,-0.363 -1.107,-0.537 -1.467,0.015 -0.516,2.944 0.617,5.678 1.38,8.239 l -0.178,0.369 c -0.55,0.006 -1.287,-0.168 -1.661,-0.715 -1.293,-0.902 -3.683,-1.424 -4.437,-3.248 -0.73,0.561 -0.715,1.66 -0.524,2.572 1.52,4.201 4.329,9.119 1.815,13.733 -2.713,3.334 -4.68,7.576 -5.729,11.988 -2.49,6.633 -2.578,14.701 -3.595,21.682 -0.384,-1.461 0.141,-3.485 -1.151,-4.204 -1.804,2.59 -4.72,4.092 -7.09,5.405 -4.552,2.619 -10.048,3.234 -13.485,7.127 2.062,4.008 5.404,7.455 7.105,11.654 -3.771,-8.76 -14.285,-13.955 -18.971,-22.519 -0.936,-1.639 -2.616,-4.004 -4.995,-3.612 1.118,1.455 0.959,3.477 0.243,4.951 -1.508,-3.466 -5.216,-6.724 -9.066,-6.681 -0.174,0.738 0.565,1.279 0.939,1.824 0.199,1.281 0.95,2.74 0.228,3.848 -0.747,-1.09 -1.121,-1.821 -1.868,-2.911 -1.673,-1.814 -4.083,-4.169 -6.828,-3.587 0.575,2.011 2.613,3.822 1.54,6.216 l -0.367,0.006 c -1.869,-2.914 -5.729,-3.783 -9.214,-3.928 1.306,2.002 2.072,4.747 1.554,7.502 -3.482,0.223 -6.253,-1.578 -9.561,-2.089 -1.29,-0.534 -3.126,-0.696 -4.053,-1.604 -1.339,-4.568 1.38,-7.352 1.884,-11.393 -0.028,-2.38 -0.433,-5.496 -3.012,-6.564 -1.472,-0.35 -2.931,0.4 -4.205,1.15 -2.394,-0.89 -5.327,-0.855 -7.698,0.272 -1.624,2.404 2.571,0.336 2.05,2.91 -1.267,1.482 -2.346,3.328 -1.22,5.52 0.375,0.724 1.844,0.709 2.572,0.334 0.916,-0.198 1.836,0.16 1.849,1.259 0.007,0.553 -1.279,0.385 -2.01,0.575 -2.195,0.578 -1.986,2.775 -3.071,4.072 -1.824,0.754 -3.466,1.508 -5.098,2.994 -0.903,1.297 -1.619,2.769 -1.232,4.6 1.488,1.632 2.375,-0.946 3.843,-0.778 0.546,-0.375 1.105,0.354 1.293,0.901 -0.709,2.025 2.809,4.734 -0.483,5.509 -0.714,1.84 -0.142,3.666 0.247,5.495 -0.531,1.66 -3.461,1.878 -2.703,4.068 2.038,1.81 5.162,2.324 7.906,1.74 1.106,0.356 2.398,1.074 3.677,0.693 2.014,-0.39 2.903,-2.603 3.982,-4.449 1.424,-3.683 -1.73,-6.765 -1.773,-10.431 0.355,-0.924 1.083,-1.481 1.998,-1.676 3.853,0.139 7.891,0.457 10.672,2.992 -0.537,1.107 -2.191,0.943 -2.729,1.867 -0.911,0.561 -2.379,0.578 -2.733,1.5 1.313,2.551 4.783,1.408 7.356,1.746 l 0.37,0.362 c -1.632,1.486 -4.009,2.066 -5.831,3.189 0.193,0.729 0.924,0.539 1.299,1.268 2.405,1.621 5.338,1.588 8.077,0.636 0.369,0.182 1.285,0.17 1.294,0.903 -2.564,0.213 -4.378,1.884 -6.939,2.467 0.004,0.367 0.008,0.734 0.378,0.91 4.261,3.802 10.86,3.541 16.733,3.838 5.335,1.406 9.398,3.923 13.656,7.177 0,0 3.268,1.287 8.087,1.555"
         style="fill:#ed1d24;fill-opacity:1;fill-rule:nonzero;stroke:none"
         id="path3799" /></g><g
       id="g3801"
       transform="translate(230.6494,186.5156)"><path
         inkscape:connector-curvature="0"
         d="m 0,0 c 2.36,-2.045 6.015,-3.189 9.328,-2.127 3.276,-2.24 7.517,-0.273 11.363,-0.684 2.917,-1.318 5.328,0.856 7.361,2.116 l 3.471,-1.145 c 2.556,-0.943 4.955,0.313 6.622,1.76 -1.81,2.037 -4.543,3.353 -5.611,6.301 -0.517,2.756 -3.839,0.961 -4.918,2.808 3.313,1.059 7.358,1.932 10.498,3.729 4.247,2.515 6.697,6.808 7.104,11.469 0.808,9.326 0.767,18.513 1.974,27.671 0.952,2.922 2.088,5.844 4.861,7.829 l 22.536,13.672 c 12.184,7.008 25.33,17.493 23.33,34.572 -0.527,2.022 -2.201,0.025 -2.574,-0.521 C 91.987,102.538 87.347,97.824 82.9,94.024 70.478,82.434 55.875,72.886 41.106,64.622 37.779,62.277 32.614,59.955 33.105,54.813 33.714,43.986 35.603,33.145 32.362,22.729 31.241,20.727 29.925,18.17 28.255,16.725 c 0,0 -0.43,-0.215 -0.178,0.185 3.119,5.559 3.289,14.815 3.201,22.887 -0.494,4.773 -1.168,9.916 -0.924,14.865 -1.319,-2.918 -3.374,-6.195 -7.043,-6.152 -2.615,0.459 -6.396,1.908 -7.831,4.678 1.658,0.529 3.127,-0.545 4.759,-0.792 1.466,-0.218 4.756,-1.156 5.513,0.854 -0.542,0.74 -1.829,0.57 -2.181,1.676 0.558,0.543 1.293,0.902 1.848,1.262 -1.272,1.115 -3.647,1.693 -5.096,3.361 -0.178,0.369 -1.085,1.113 -0.346,1.654 4.067,-1.049 8.101,-3.707 10.782,-3.244 0.617,0.371 0.557,0.729 0.557,0.729 0.593,3.476 -1.76,6.253 -3.192,9.205 2.063,3.644 2.291,7.676 1.789,11.9 0.018,1.467 0.215,2.564 -0.137,3.853 -4.242,-1.967 -3.763,-8.026 -8.362,-9.438 -0.738,-0.359 -2.206,-0.342 -2.377,0.761 1.691,3.464 0.272,7.515 -1.16,10.466 -0.537,1.107 0.034,2.935 -0.871,4.045 -4.052,-1.602 -2.286,-7.309 -4.704,-10.214 -2.614,-4.004 -6.414,0.442 -10.1,-1.165 -2.548,-0.708 -3.53,-3.811 -5.381,-5.256 -4.766,0.24 -10.624,1.042 -13.611,-3.507 -0.795,-1.711 -0.6,-4.213 0.48,-5.876 2.355,-2.411 3.174,2.011 4.064,2.52 1.309,1.599 4.048,1.053 5.87,0.116 3.472,-1.142 6.941,-2.467 10.214,-4.889 1.09,-0.746 3.293,-0.59 4.196,-1.885 C 4.843,53.129 -3.573,54.877 -9.802,55.5 c -0.367,0.006 -0.373,-0.543 -0.01,-0.916 6.029,-1.904 10.921,-7.096 17.891,-6.996 1.836,0.164 -0.164,1.652 0.944,2.373 0.895,-2.027 1.621,-3.537 4.569,-4.707 2.947,-1.17 3.462,1.312 5.659,1.101 1.816,-1.488 3.814,-3.16 6.186,-4.107 0.906,-0.928 2.751,-0.031 3.287,-1.322 -2.401,-1.438 -6.616,-1.205 -8.798,0.47 -1.447,1.668 -3.467,1.508 -5.309,0.797 -1.831,0.205 -3.286,1.323 -4.742,2.256 -4.023,0.965 -5.354,-3.054 -7.933,-4.125 0.545,-0.373 1.461,-0.385 1.821,-0.937 -1.67,-1.815 -4.242,-2.151 -6.09,-3.414 -0.208,-2.014 2.555,-1.129 3.641,-2.244 -3.334,-2.711 -8.871,-5.764 -13.789,-2.954 -2.363,1.86 -3.623,3.891 -5.617,5.934 -1.051,-0.715 -0.966,-1.168 -1.281,-3.236 -0.313,-2.069 1.016,-3.733 0.076,-5.739 -2.525,3.7 -2.647,8.838 -3.144,13.428 -0.351,1.287 -0.694,3.309 -2.34,3.695 -2.248,-2.49 -2.659,-8.818 -2.678,-9.322 -0.018,-0.504 -0.367,0.004 -0.367,0.004 -2.877,4.803 -0.578,13.211 -6.969,15.486 1.066,-2.947 -0.05,-9.332 -0.485,-10.08 -0.323,-0.549 -0.736,0.008 -0.736,0.008 l -4.886,5.377 c -1.802,2.774 -5.443,5.016 -6.505,8.328 1.502,2.918 5.343,2.139 7.384,3.947 2.592,2.172 4.458,4.902 3.949,8.576 0.04,3.299 -3.633,2.976 -5.82,4.101 -1.449,1.487 -1.598,4.421 -3.978,4.816 l -0.98,-5.307 c 0.164,-1.652 1.064,-3.131 1.042,-4.963 -2.04,-1.996 -0.657,1.845 -1.985,2.59 -1.99,2.406 -4.761,0.605 -7.15,0.268 -1.454,1.117 -2.536,2.596 -4.373,2.436 -0.751,-1.46 0.332,-2.939 0.497,-4.409 -0.966,-4.205 -5.562,-5.252 -4.702,-10.031 0.703,-2.758 3.646,-1.875 4.907,-3.909 -2.249,-4.007 -9.026,-3.378 -9.09,-8.88 0.161,-1.834 1.795,-3.137 3.25,-4.256 0.722,-0.924 -0.206,-1.83 -0.584,-2.744 1.448,-1.85 4.238,1.601 4.944,-0.789 0.241,-1.12 2.305,-2.172 3.466,-1.508 2.771,1.617 3.18,5.279 3.582,8.209 0.254,1.533 0.416,4.213 2.806,4.734 4.357,-3.719 7.794,-7.795 11.591,-12.422 0.298,-0.498 0.716,-1.476 -0.203,-1.65 -2.926,0.586 -6.041,0.806 -8.618,0.101 0.88,-3.129 3.985,-4.263 6.161,-6.306 0.91,-0.744 2.741,-0.95 2.912,-1.867 -1.475,-0.717 -4.08,-0.956 -5.323,-0.491 -0.82,-6.056 11.651,-5.597 14.739,-9.89 -3.105,1.132 -6.787,-0.106 -9.898,0.482 1.237,-4.051 5.241,-6.48 9.079,-7.627 4.377,-2.25 10.442,-9.822 15.564,-10.799 C -9.102,-4.58 0,0 0,0"
         style="fill:#ffffff;fill-opacity:1;fill-rule:nonzero;stroke:none"
         id="path3803" /></g><g
       id="g3805"
       transform="translate(334.0996,234.6348)"><path
         inkscape:connector-curvature="0"
         d="m 0,0 c 1.145,-1.475 1.238,-4.049 1.578,-6.254 2.902,-2.787 2.889,-8.328 1.33,-11.57 -4.879,-9.479 -16.295,-13.377 -21.176,-23.043 -1.502,-2.916 -2.277,-6.393 -1.582,-9.701 -1.468,0.007 -2.867,0.007 -4.281,0.007 -1.954,5.342 -1.637,11.25 -0.291,16.735 0.576,2.195 0.848,6.42 0.454,7.515 -0.198,0.551 -1.243,3.317 -1.243,3.317 3.303,0.142 5.102,-2.813 6.539,-5.399 0.356,-0.919 0.754,-1.615 1.068,-2.761 0.944,0.771 3.041,2.867 4.446,3.799 4.678,3.103 8.691,6.132 11.316,10.871 0.752,1.642 0.969,3.517 0.244,5.316 -0.898,1.477 -2.357,2.229 -4.015,1.697 -2.063,-4.009 -8.002,-6.404 -10.524,-6.111 -0.822,0.094 -1.648,0.203 -1.648,0.203 1.301,1.451 3.404,2.779 3.541,4.908 -0.674,5.145 1.451,10.707 5.287,12.959 C -5.914,4.273 -1.916,2.465 0,0"
         style="fill:#ffffff;fill-opacity:1;fill-rule:nonzero;stroke:none"
         id="path3807" /></g><g
       id="g3809"
       transform="translate(225.1167,168.2402)"><path
         inkscape:connector-curvature="0"
         d="m 0,0 c -0.224,-0.494 -3.891,-7.371 -8.185,-9.807 -1.068,-0.605 -2.194,-1.828 -2.594,-2.351 -0.333,6.162 9.066,9.851 10.048,12.349 C -0.533,0.697 0.121,0.561 0,0"
         style="fill:#ffffff;fill-opacity:1;fill-rule:nonzero;stroke:none"
         id="path3811" /></g><g
       id="g3813"
       transform="translate(212.2783,168.209)"><path
         inkscape:connector-curvature="0"
         d="M 0,0 C -2.608,-3.453 -7.92,-2.842 -11.768,-2.613 -7.737,-2.844 -3.752,0.203 -0.182,0.185 0.122,0.203 0,0 0,0"
         style="fill:#ffffff;fill-opacity:1;fill-rule:nonzero;stroke:none"
         id="path3815" /></g><g
       id="g3817"
       transform="translate(172.9878,164.4512)"><path
         inkscape:connector-curvature="0"
         d="M 0,0 C -0.244,-0.303 -0.74,-0.541 -1.289,-0.352 -1.27,1.115 0.032,2.752 1.143,3.654 1.861,2.363 0.558,0.59 0,0"
         style="fill:#ffffff;fill-opacity:1;fill-rule:nonzero;stroke:none"
         id="path3819" /></g><g
       id="g3821"
       transform="translate(215.5435,165.0547)"><path
         inkscape:connector-curvature="0"
         d="m 0,0 c -1.562,-5.996 -9.078,-7.781 -13.152,-11.035 1.207,6.209 10.33,7.996 12.604,11.224 C -0.295,0.545 0.158,0.766 0,0"
         style="fill:#ffffff;fill-opacity:1;fill-rule:nonzero;stroke:none"
         id="path3823" /></g><g
       id="g3825"
       transform="translate(173.8203,150.875)"><path
         inkscape:connector-curvature="0"
         d="M 0,0 C 0.02,-0.777 -0.276,-1.469 -0.828,-1.645 -1.544,-0.17 -1.802,3.439 -2.23,3.873 -2.453,4.424 -2.726,5.158 -1.85,4.969 -0.687,4.723 -0.045,1.926 0,0"
         style="fill:#ffffff;fill-opacity:1;fill-rule:nonzero;stroke:none"
         id="path3827" /></g><g
       id="g3829"
       transform="translate(178.1782,137.9824)"><path
         inkscape:connector-curvature="0"
         d="m 0,0 c -0.556,-0.545 -1.429,0.475 -2.011,0.574 -0.581,0.102 -0.566,1 0.012,0.918 C -1.424,1.41 0.159,0.996 0,0"
         style="fill:#ffffff;fill-opacity:1;fill-rule:nonzero;stroke:none"
         id="path3831" /></g><g
       id="g3833"
       transform="translate(238.6133,130.6699)"><path
         inkscape:connector-curvature="0"
         d="M 0,0 C -3.145,-2.346 -7.751,-4.129 -12.137,-2.793 -7.907,-1.924 -4.583,0.238 0,0"
         style="fill:#ffffff;fill-opacity:1;fill-rule:nonzero;stroke:none"
         id="path3835" /></g><g
       id="g3837"
       transform="translate(267.0039,127.584)"><path
         inkscape:connector-curvature="0"
         d="m 0,0 c 0.756,-1.426 5.92,-7.234 5.535,-12.719 l -0.577,-2.377 c -0.89,2.395 -1.216,5.885 -2.84,8.104 -1.44,2.217 -3.063,4.619 -2.847,7.369 0,0 0.28,0.562 0.729,-0.377"
         style="fill:#ffffff;fill-opacity:1;fill-rule:nonzero;stroke:none"
         id="path3839" /></g><g
       id="g3841"
       transform="translate(233.7734,124.4922)"><path
         inkscape:connector-curvature="0"
         d="m 0,0 c -2.039,-1.812 -5.127,-3.525 -7.205,-4.318 -3.236,-0.739 -6.597,0.445 -10.256,1.037 0.739,0.541 2.75,-0.032 4.038,0.32 4.057,1.971 8.477,3.568 13.241,3.145 L 0,0 z"
         style="fill:#ffffff;fill-opacity:1;fill-rule:nonzero;stroke:none"
         id="path3843" /></g><g
       id="g3845"
       transform="translate(250.9619,120.2539)"><path
         inkscape:connector-curvature="0"
         d="m 0,0 c -2.612,-3.818 -8.756,-5.918 -9.47,-8.617 -0.878,5.275 6.344,7.92 9.496,10.818 C 0.752,1.643 0.356,0.637 0,0"
         style="fill:#ffffff;fill-opacity:1;fill-rule:nonzero;stroke:none"
         id="path3847" /></g><g
       id="g3849"
       transform="translate(277.2402,109.125)"><path
         inkscape:connector-curvature="0"
         d="m 0,0 c -0.381,-0.947 -0.945,-2.371 -0.945,-2.371 l -1.186,8.266 c 0.575,2.191 0.971,4.572 0.631,6.96 C 2.193,9.789 0.359,0.895 0,0"
         style="fill:#ffffff;fill-opacity:1;fill-rule:nonzero;stroke:none"
         id="path3851" /></g><g
       id="g3853"
       transform="translate(286.6719,115.8008)"><path
         inkscape:connector-curvature="0"
         d="M 0,0 C 0.859,-4.779 5.221,-8.316 4.615,-13.076 2.284,-8.463 -2.452,-5.84 -2.567,0.029 L -3.601,5.725 C -1.967,4.24 -1.445,1.85 0,0"
         style="fill:#ffffff;fill-opacity:1;fill-rule:nonzero;stroke:none"
         id="path3855" /></g><g
       id="g3857"
       transform="translate(235.3857,121.3535)"><path
         inkscape:connector-curvature="0"
         d="m 0,0 c -0.023,-2.018 -1.997,-3.98 -3.363,-5.277 -3.336,-2.895 -8.76,-6.618 -9.28,-9.428 -0.52,-2.813 -0.791,-4.76 -0.791,-4.76 -1.606,3.688 -0.262,8.807 1.972,11.715 C -10.984,-6.928 -3.69,-1.973 0,0"
         style="fill:#ffffff;fill-opacity:1;fill-rule:nonzero;stroke:none"
         id="path3859" /></g><g
       id="g3861"
       transform="translate(295.6055,111.2949)"><path
         inkscape:connector-curvature="0"
         d="M 0,0 C 0.435,-0.557 0.537,-1.107 0.715,-1.66 -1.643,0.75 -6.011,3.555 -6.334,7.225 -3.785,5.545 -1.959,2.516 0,0"
         style="fill:#ffffff;fill-opacity:1;fill-rule:nonzero;stroke:none"
         id="path3863" /></g><g
       id="g3865"
       transform="translate(239.1533,114.1602)"><path
         inkscape:connector-curvature="0"
         d="m 0,0 c -2.414,-2.543 -5.913,-3.783 -7.965,-6.693 -0.248,0.881 0.134,1.494 0.388,1.826 2.604,3.09 4.662,6.549 7.989,8.713 C 1.867,2.908 0.695,0.65 0,0"
         style="fill:#ffffff;fill-opacity:1;fill-rule:nonzero;stroke:none"
         id="path3867" /></g><g
       id="g3869"
       transform="translate(191.6538,114.166)"><path
         inkscape:connector-curvature="0"
         d="m 0,0 c 0.047,-0.449 -0.336,-3.164 -1.352,-4.094 -0.458,-0.437 -1.649,-1.556 -2.002,-0.453 0.572,1.828 1.407,2.906 2.987,4.551 C -0.068,0.314 -0.047,0.449 0,0"
         style="fill:#ffffff;fill-opacity:1;fill-rule:nonzero;stroke:none"
         id="path3871" /></g><g
       id="g3873"
       transform="translate(281.0459,105.2305)"><path
         inkscape:connector-curvature="0"
         d="M 0,0 C -0.542,0.738 -0.52,2.572 0.225,3.48 0.764,2.557 0.378,0.91 0,0"
         style="fill:#ffffff;fill-opacity:1;fill-rule:nonzero;stroke:none"
         id="path3875" /></g><g
       id="g3877"
       transform="translate(196.3501,92.4707)"><path
         inkscape:connector-curvature="0"
         d="M 0,0 C -1.451,1.299 -2.154,3.877 -3.793,4.994 -2.265,4.947 0.599,2.221 0,0"
         style="fill:#ffffff;fill-opacity:1;fill-rule:nonzero;stroke:none"
         id="path3879" /></g><g
       id="g3881"
       transform="translate(209.6787,87.3613)"><path
         inkscape:connector-curvature="0"
         d="m 0,0 c -1.476,-0.717 -1.865,-2.545 -3.886,-2.891 -0.541,0.741 -0.018,1.715 0.574,2.012 C -2.211,-0.326 -1.276,0.566 0,0"
         style="fill:#ffffff;fill-opacity:1;fill-rule:nonzero;stroke:none"
         id="path3883" /></g><g
       id="g3885"
       transform="translate(301.5039,82.6133)"><path
         inkscape:connector-curvature="0"
         d="m 0,0 c -2.432,0.594 -3.68,-1.057 -5.703,-1.582 -0.914,0.193 -0.34,1.09 0.018,1.467 C -4.449,1.189 -0.661,1.633 0,0"
         style="fill:#ffffff;fill-opacity:1;fill-rule:nonzero;stroke:none"
         id="path3887" /></g><g
       id="g3889"
       transform="translate(266.7988,78.8047)"><path
         inkscape:connector-curvature="0"
         d="M 0,0 C -1.951,-0.297 -3.762,2.889 -4.551,2.988 -5.16,3.119 -5.183,3.461 -4.91,3.541 -3.51,4.148 -1.439,2.402 -0.17,1.283 0.043,0.963 0.372,0.545 0,0"
         style="fill:#ffffff;fill-opacity:1;fill-rule:nonzero;stroke:none"
         id="path3891" /></g><g
       id="g3893"
       transform="translate(284.0371,78.7852)"><path
         inkscape:connector-curvature="0"
         d="M 0,0 C -2.016,0.207 -4.586,0.055 -6.432,-1.025 -7.156,-0.283 -6.145,0.25 -5.863,0.434 -4.201,1.518 -1.085,1.48 0,0"
         style="fill:#ffffff;fill-opacity:1;fill-rule:nonzero;stroke:none"
         id="path3895" /></g><g
       id="g3897"
       transform="translate(248.6382,265.8984)"><path
         inkscape:connector-curvature="0"
         d="m 0,0 c 0.169,-1.286 -0.398,-2.747 -1.322,-3.286 -0.92,-0.172 -1.219,0.585 -1.084,1.479 L -1.625,2.22 C -0.896,1.843 -0.173,0.918 0,0"
         style="fill:#231f20;fill-opacity:1;fill-rule:nonzero;stroke:none"
         id="path3899" /></g><g
       id="g3901"
       transform="translate(258.1377,262.668)"><path
         inkscape:connector-curvature="0"
         d="m 0,0 c 0.519,-2.572 -0.976,-4.756 -2.642,-6.204 0,0 -0.41,-0.501 -0.55,0.007 -0.756,2.693 2.316,4.182 2.826,6.202 C -0.243,0.499 0,0 0,0"
         style="fill:#ed1d24;fill-opacity:1;fill-rule:nonzero;stroke:none"
         id="path3903" /></g><g
       id="g3905"
       transform="translate(248.876,254.8916)"><path
         inkscape:connector-curvature="0"
         d="m 0,0 c -4.046,-1.055 -9.745,-2.088 -12.45,1.797 l -0.178,0.367 C -8.4,3.032 -2.149,4.428 0,0"
         style="fill:#ed1d24;fill-opacity:1;fill-rule:nonzero;stroke:none"
         id="path3907" /></g><g
       id="g3909"
       transform="translate(191.2749,253.7344)"><path
         inkscape:connector-curvature="0"
         d="m 0,0 c -0.207,-2.198 -2.049,-2.726 -3.344,-3.811 -0.47,-0.251 -1.098,0.196 -1.091,0.745 0.747,1.276 2.957,1.983 2.982,4.183 C -0.525,2.023 0.01,0.733 0,0"
         style="fill:#ed1d24;fill-opacity:1;fill-rule:nonzero;stroke:none"
         id="path3911" /></g><g
       id="g3913"
       transform="translate(174.6714,245.3105)"><path
         inkscape:connector-curvature="0"
         d="M 0,0 C -0.702,-0.359 -3.647,-1.781 -4.04,-0.502 -4.061,1.27 -1.086,1.113 0.388,1.83 1.717,2.574 3.527,4.66 3.39,7.479 3.964,7.159 4.766,2.942 0,0"
         style="fill:#ed1d24;fill-opacity:1;fill-rule:nonzero;stroke:none"
         id="path3915" /></g><g
       id="g3917"
       transform="translate(173.3618,227.5371)"><path
         inkscape:connector-curvature="0"
         d="M 0,0 C 0.178,-0.553 0.62,-1.314 0.164,-1.652 -1.444,-2.254 -1.832,0.203 -3.29,0.955 -4.02,1.146 -4.75,1.523 -5.105,2.443 -5.1,2.994 -4.354,2.904 -4,2.979 -1.971,3.109 -0.871,1.963 0,0"
         style="fill:#ed1d24;fill-opacity:1;fill-rule:nonzero;stroke:none"
         id="path3919" /></g><g
       id="g3921"
       transform="translate(199.3491,222.8301)"><path
         inkscape:connector-curvature="0"
         d="m 0,0 c 0.707,-2.211 3.081,-3.154 2.872,-5.352 -1.963,0.721 -3.914,1.717 -4.716,4.456 -0.489,1.664 -1.6,4.419 0.615,5.494 C 0.225,3.482 -0.349,1.471 0,0"
         style="fill:#ed1d24;fill-opacity:1;fill-rule:nonzero;stroke:none"
         id="path3923" /></g><g
       id="g3925"
       transform="translate(209.272,208.957)"><path
         inkscape:connector-curvature="0"
         d="M 0,0 C -0.189,-0.549 -1.107,-0.537 -1.283,0.018 -2.539,2.414 -3.605,5.178 -3.203,8.291 -1.395,6.068 -0.148,2.936 0,0"
         style="fill:#ed1d24;fill-opacity:1;fill-rule:nonzero;stroke:none"
         id="path3927" /></g><g
       id="g3929"
       transform="translate(202.2944,208.1211)"><path
         inkscape:connector-curvature="0"
         d="M 0,0 C -2.004,1.125 -2.285,3.889 -3.971,5.367 -4.855,6.139 -5.61,6.486 -6.146,7.594 -3.323,8.791 1.911,5.549 0,0"
         style="fill:#ed1d24;fill-opacity:1;fill-rule:nonzero;stroke:none"
         id="path3931" /></g><g
       id="g3933"
       transform="translate(216.6094,209.0547)"><path
         inkscape:connector-curvature="0"
         d="M 0,0 C -0.035,-3.115 0.107,-6.604 1.357,-9.369 0.802,-9.912 0.072,-9.537 -0.29,-9.164 -2.648,-6.937 -2.797,-4.002 -1.845,-1.078 -1.522,-0.408 -1.087,1.113 0,0"
         style="fill:#ed1d24;fill-opacity:1;fill-rule:nonzero;stroke:none"
         id="path3935" /></g><g
       id="g3937"
       transform="translate(210.4414,199.2246)"><path
         inkscape:connector-curvature="0"
         d="m 0,0 c 0.078,-0.303 -0.184,-0.182 -0.184,-0.182 -1.643,0.752 -2.723,2.416 -3.622,4.077 0,0 -0.517,0.937 0.376,0.728 C -1.251,4.352 -0.078,0.301 0,0"
         style="fill:#ed1d24;fill-opacity:1;fill-rule:nonzero;stroke:none"
         id="path3939" /></g><g
       id="g3941"
       transform="translate(208.5459,193.9277)"><path
         inkscape:connector-curvature="0"
         d="m 0,0 c 3.477,-0.592 7.71,0.645 10.252,-1.588 0,0 0.272,-0.385 -0.188,-0.363 C 8.897,-1.746 3.633,-2.977 0.71,-2.025 -1.663,-1.08 -5.321,-0.305 -6.571,2.645 -4.193,2.066 -2.377,0.578 0,0"
         style="fill:#ed1d24;fill-opacity:1;fill-rule:nonzero;stroke:none"
         id="path3943" /></g><g
       id="g3945"
       transform="translate(260.1699,232.752)"><path
         inkscape:connector-curvature="0"
         d="m 0,0 c 0.531,-1.656 -1.371,-1.67 -2.584,-1.438 -0.551,0.19 -0.914,0.377 -1.455,0.936 0.562,1.275 2.398,1.254 3.682,1.422 L 0,0 z"
         style="fill:#ed1d24;fill-opacity:1;fill-rule:nonzero;stroke:none"
         id="path3947" /></g><g
       id="g3949"
       transform="translate(248.8931,224.7324)"><path
         inkscape:connector-curvature="0"
         d="M 0,0 C 2.842,0 3.31,1.145 4.765,0.027 6.394,-1.828 8.959,-2.041 10.775,-3.527 8.736,-5.338 6.187,-3.658 4.179,-2.9 2.337,-3.613 0.524,-4.41 -1.673,-3.736 c -1.671,0.513 -3.672,1.865 -5.123,3.166 -1.649,0.201 -3.483,0.222 -4.574,1.154 -0.161,1.652 2.22,1.441 3.326,1.979 C -5.296,2.348 -2.842,0 0,0"
         style="fill:#ed1d24;fill-opacity:1;fill-rule:nonzero;stroke:none"
         id="path3951" /></g><g
       id="g3953"
       transform="translate(244.7822,218.6289)"><path
         inkscape:connector-curvature="0"
         d="m 0,0 4.768,-0.057 c 2.182,-1.492 4.549,-2.988 7.3,-3.023 -0.012,-1.1 -1.296,-1.082 -1.852,-1.443 -2.206,-0.526 -3.471,1.14 -4.931,1.709 -2.757,-0.52 -6.148,-1.696 -8.254,-0.084 -1.959,1.498 -4.28,0.71 -5.734,1.828 -1.274,0.748 -2.75,1.466 -1.924,2.98 L -7.328,1.268 C -4.119,0.352 -4.302,1.451 0,0"
         style="fill:#ed1d24;fill-opacity:1;fill-rule:nonzero;stroke:none"
         id="path3955" /></g><g
       id="g3957"
       transform="translate(248.54,210.6953)"><path
         inkscape:connector-curvature="0"
         d="M 0,0 C 3.118,-0.033 4.362,-3.352 7.104,-4.115 6.362,-4.842 4.64,-5.561 3.612,-4.807 c -3.602,2.821 -9.15,-0.937 -13.229,2.409 -2.36,1.935 -1.929,3.085 -3.572,3.654 -3.13,-1.061 -6.422,-0.289 -8.973,1.207 2.961,2.166 6.603,0.107 9.92,1.535 C -9.154,1.209 -4.239,-1.781 0,0"
         style="fill:#ed1d24;fill-opacity:1;fill-rule:nonzero;stroke:none"
         id="path3959" /></g><g
       id="g3961"
       transform="translate(232.7271,207.2168)"><path
         inkscape:connector-curvature="0"
         d="m 0,0 c 1.834,-0.023 2.726,-1.9 3.451,-2.793 0.726,-0.895 3.399,-2.186 4.378,-2.066 0.98,0.115 2.949,1.246 4.218,0.13 1.62,-2.767 3.979,-4.998 7.462,-4.857 -0.928,-1.088 -2.948,-1.248 -4.779,-1.041 -1.464,0.199 -2.367,1.494 -3.456,2.424 -4.953,-0.125 -8.786,1.387 -11.866,4.723 -3.857,-0.502 -6.583,1.546 -8.568,4.32 0.004,0.367 0.012,0.918 0.561,0.91 C -6.415,0.441 -3.134,-1.434 0,0"
         style="fill:#ed1d24;fill-opacity:1;fill-rule:nonzero;stroke:none"
         id="path3963" /></g><g
       id="g3965"
       transform="translate(227.8521,198.1035)"><path
         inkscape:connector-curvature="0"
         d="m 0,0 c 3.107,-0.955 6.786,0.104 8.954,-2.674 3.113,-0.404 5.855,-1.168 8.403,-2.849 1.831,-0.391 4.033,-0.231 5.687,0.117 0.534,-1.475 -1.52,-1.547 -2.22,-1.625 -3.674,-0.506 -6.025,2.271 -9.705,1.215 -1.827,0.57 -3.837,1.328 -5.101,2.812 -3.11,0.77 -7.526,-0.465 -8.955,2.856 -0.435,1.31 -1.067,2.945 -1.045,4.595 C -2.164,3.141 -2.376,0.762 0,0"
         style="fill:#ed1d24;fill-opacity:1;fill-rule:nonzero;stroke:none"
         id="path3967" /></g><g
       id="g3969"
       transform="translate(256.7559,190.5098)"><path
         inkscape:connector-curvature="0"
         d="M 0,0 C 1.686,1.098 2.842,3.164 3.66,0.791 3.458,-0.854 1.866,-1.975 0.506,-2.287 -1.1,-2.66 -2.428,-2.252 -3.519,-1.508 -2.934,-0.779 -1.378,-0.898 0,0"
         style="fill:#ed1d24;fill-opacity:1;fill-rule:nonzero;stroke:none"
         id="path3971" /></g><g
       id="g3973"
       transform="translate(240.4102,189.8848)"><path
         inkscape:connector-curvature="0"
         d="m 0,0 5.114,-1.711 c 0.664,0.158 2.389,0.34 3.301,-0.221 -0.016,-1.101 -1.628,-1.318 -2.218,-1.257 -1.831,0.205 -3.663,0.41 -4.935,1.341 -2.212,-0.89 -5.33,-1.039 -7.33,0.452 -0.361,0.554 -1.088,1.115 -0.533,1.66 C -4.59,-0.494 -2.038,-1.627 0,0"
         style="fill:#ed1d24;fill-opacity:1;fill-rule:nonzero;stroke:none"
         id="path3975" /></g><g
       id="g3977"
       transform="translate(322.7559,268.1455)"><path
         inkscape:connector-curvature="0"
         d="m 0,0 c 1.181,-5.949 -5.895,-9.602 -7.271,-10.369 -0.741,-0.411 -4.034,-1.295 -5.5,0.248 3.167,4.364 9.458,5.425 12.406,10.125 C -0.167,0.474 0,0 0,0"
         style="fill:#ffffff;fill-opacity:1;fill-rule:nonzero;stroke:none"
         id="path3979" /></g><g
       id="g3981"
       transform="translate(320.6152,257.5322)"><path
         inkscape:connector-curvature="0"
         d="m 0,0 c -1.355,-5.147 -8.781,-11.505 -14.981,-10.644 1.186,2.043 3.375,6.197 3.375,6.197 C -7.379,-3.58 -3.514,-2.525 0,0"
         style="fill:#ffffff;fill-opacity:1;fill-rule:nonzero;stroke:none"
         id="path3983" /></g><g
       id="g3985"
       transform="translate(304.0645,253.6924)"><path
         inkscape:connector-curvature="0"
         d="m 0,0 c 1.014,-5.532 -7.721,-9.315 -11.084,-6.655 -0.121,0.207 -0.074,0.506 0.193,0.73 C -10.722,-5.78 -3.846,-1.016 0,0"
         style="fill:#ffffff;fill-opacity:1;fill-rule:nonzero;stroke:none"
         id="path3987" /></g><g
       id="g3989"
       transform="translate(314.9766,245.8633)"><path
         inkscape:connector-curvature="0"
         d="m 0,0 c 0.15,-2.754 -1.709,-4.934 -3.381,-6.746 -2.776,-2.168 -5.727,-3.602 -9.219,-4.109 0.401,2.929 2.809,4.918 3.211,7.847 C -6.08,-2.313 -2.953,-1.617 0,0"
         style="fill:#ffffff;fill-opacity:1;fill-rule:nonzero;stroke:none"
         id="path3991" /></g><g
       id="g3993"
       transform="translate(290.1855,243.2188)"><path
         inkscape:connector-curvature="0"
         d="m 0,0 c -0.049,-4.219 -3.391,-7.662 -6.896,-9.639 -0.555,-0.175 -1.616,-0.16 -1.457,0.934 0.234,4.4 3.033,8.584 7.091,10.371 C -0.161,1.838 -0.031,0.402 0,0"
         style="fill:#ffffff;fill-opacity:1;fill-rule:nonzero;stroke:none"
         id="path3995" /></g><g
       id="g3997"
       transform="translate(292.6338,232.9199)"><path
         inkscape:connector-curvature="0"
         d="M 0,0 C -0.913,-0.094 -2.021,-0.158 -2.565,0.396 L 1.196,8.238 C 3.771,8.76 6.169,10.326 8.747,11.031 8.747,11.031 6.79,1.77 0,0"
         style="fill:#ffffff;fill-opacity:1;fill-rule:nonzero;stroke:none"
         id="path3999" /></g><g
       id="g4001"
       transform="translate(310.4355,234.1797)"><path
         inkscape:connector-curvature="0"
         d="m 0,0 c -1.879,-3.83 -6.138,-7.447 -10.546,-7.947 1.126,2.006 1.878,3.83 2.82,5.65 C -4.609,-2.148 -3.105,0.953 0,0"
         style="fill:#ffffff;fill-opacity:1;fill-rule:nonzero;stroke:none"
         id="path4003" /></g><g
       id="g4005"
       transform="translate(298.3164,232.6699)"><path
         inkscape:connector-curvature="0"
         d="m 0,0 c -0.939,-4.949 -2.285,-6.812 -8.358,-8.887 -0.732,0.192 -0.347,0.942 -0.169,1.283 1.3,1.456 1.506,3.469 2.445,5.108 C -4.056,-1.604 -2.213,-0.891 0,0"
         style="fill:#ffffff;fill-opacity:1;fill-rule:nonzero;stroke:none"
         id="path4007" /></g><g
       id="g4009"
       transform="translate(288.375,229.4863)"><path
         inkscape:connector-curvature="0"
         d="m 0,0 c 0.106,-1.398 -0.597,-5.189 -6.145,-7.814 -1.023,1.035 -2.153,6.597 1.194,7.871 1.433,0.365 3.122,0.332 4.59,0.496 0,0 0.314,0.051 0.361,-0.553"
         style="fill:#ffffff;fill-opacity:1;fill-rule:nonzero;stroke:none"
         id="path4011" /></g><g
       id="g4013"
       transform="translate(303.708,223.4375)"><path
         inkscape:connector-curvature="0"
         d="m 0,0 c -0.985,-2.227 -3.796,-5.588 -10.165,-6.668 0.756,1.828 1.879,3.647 2.999,5.467 2.39,0.523 4.419,1.599 7.173,1.75 0,0 0.182,0.057 -0.007,-0.549"
         style="fill:#ffffff;fill-opacity:1;fill-rule:nonzero;stroke:none"
         id="path4015" /></g><g
       id="g4017"
       transform="translate(289.7324,220.1172)"><path
         inkscape:connector-curvature="0"
         d="m 0,0 c -0.487,-3.461 -4.215,-10.123 -9.272,-8.512 -0.16,2.02 -0.669,5.328 1.544,6.403 2.385,0.154 4.595,0.861 6.628,2.304 L 0,0 z"
         style="fill:#ffffff;fill-opacity:1;fill-rule:nonzero;stroke:none"
         id="path4019" /></g><g
       id="g4021"
       transform="translate(300.6914,216.3203)"><path
         inkscape:connector-curvature="0"
         d="M 0,0 C -0.105,-3.713 -6.25,-7.824 -8.877,-6.314 -8.643,-1.916 -2.643,-1.008 0,0"
         style="fill:#ffffff;fill-opacity:1;fill-rule:nonzero;stroke:none"
         id="path4023" /></g><g
       id="g4025"
       transform="translate(285.9043,206.5918)"><path
         inkscape:connector-curvature="0"
         d="m 0,0 c -0.885,-3.107 -5.767,-7.373 -9.051,-5.395 -1.259,2.032 0.867,3.196 1.748,5.198 2.499,1.72 4.93,1.138 7.147,2.582 C 0.904,2.852 0.405,1.426 0,0"
         style="fill:#ffffff;fill-opacity:1;fill-rule:nonzero;stroke:none"
         id="path4027" /></g><g
       id="g4029"
       transform="translate(295.6182,206.1094)"><path
         inkscape:connector-curvature="0"
         d="m 0,0 c -0.466,-0.633 -5.028,-5.424 -8.475,-3.385 0.566,1.461 1.678,2.364 2.427,3.639 1.09,1.726 3.68,0.398 6.059,0.664 C 0.382,0.957 0.465,0.631 0,0"
         style="fill:#ffffff;fill-opacity:1;fill-rule:nonzero;stroke:none"
         id="path4031" /></g><g
       id="g4033"
       transform="translate(293.5352,200.4492)"><path
         inkscape:connector-curvature="0"
         d="m 0,0 c 0.219,-3.178 -7.277,-7.35 -8.493,-4.852 1.296,1.084 2.133,2.75 3.71,3.625 C -3.135,-1.248 -1.65,0.02 0,0"
         style="fill:#ffffff;fill-opacity:1;fill-rule:nonzero;stroke:none"
         id="path4035" /></g><g
       id="g4037"
       transform="translate(281.3994,197.8398)"><path
         inkscape:connector-curvature="0"
         d="m 0,0 c -1.127,-2.371 -4.069,-3.07 -6.634,-2.857 -1.093,0.562 -3.117,0.22 -3.837,1.33 C -7.501,1.373 -3.489,-0.51 0,0"
         style="fill:#ffffff;fill-opacity:1;fill-rule:nonzero;stroke:none"
         id="path4039" /></g><g
       id="g4041"
       transform="translate(275.8203,191.3027)"><path
         inkscape:connector-curvature="0"
         d="m 0,0 c -0.75,-1.641 -3.135,-1.613 -4.972,-1.957 -3.299,0.221 -5.108,2.443 -6.542,5.211 0.743,0.725 2.58,1.068 3.856,0.506 C -5.103,2.629 -2.551,1.314 0,0"
         style="fill:#ffffff;fill-opacity:1;fill-rule:nonzero;stroke:none"
         id="path4043" /></g><g
       id="g4045"
       transform="translate(289.959,192.6055)"><path
         inkscape:connector-curvature="0"
         d="m 0,0 c 0.998,-1.408 -2.67,-2.783 -3.34,-3.08 -2.08,-1.127 -3.844,0.414 -5.3,1.346 -0.546,0.375 -1.091,0.929 -1.085,1.48 C -6.945,2.096 -3.117,0.035 0,0"
         style="fill:#ffffff;fill-opacity:1;fill-rule:nonzero;stroke:none"
         id="path4047" /></g><g
       id="g4049"
       transform="translate(284.0205,186.6211)"><path
         inkscape:connector-curvature="0"
         d="m 0,0 c -1.854,-1.629 -5.151,-1.223 -7.527,-0.643 -0.597,0.153 -0.344,0.887 0.192,0.913 1.291,0.537 3.334,2.529 5.15,1.224 L 0,0 z"
         style="fill:#ffffff;fill-opacity:1;fill-rule:nonzero;stroke:none"
         id="path4051" /></g><g
       id="g4053"
       transform="translate(274.4297,182.1504)"><path
         inkscape:connector-curvature="0"
         d="m 0,0 c -1.121,-1.82 -3.697,-2.525 -5.902,-2.865 -0.908,0.744 -2.01,0.574 -2.734,1.5 2.208,0.709 4.781,1.043 6.993,2.117 C -0.848,1.115 0.184,0.838 0,0"
         style="fill:#ffffff;fill-opacity:1;fill-rule:nonzero;stroke:none"
         id="path4055" /></g><g
       id="g4057"
       transform="translate(229.5142,245.9492)"><path
         inkscape:connector-curvature="0"
         d="m 0,0 c 0,0 0.56,-0.035 -0.003,-0.367 -1.156,-0.668 -6.221,1.357 -8.261,-0.637 -3.336,-2.894 -8.314,-5.221 -13.069,-4.064 1.108,0.72 2.966,0.707 4.234,1.418 3.579,2.004 6.155,8.73 11.636,7.015 C -3.646,1.877 -2.191,0.943 0,0"
         style="fill:#ffffff;fill-opacity:1;fill-rule:nonzero;stroke:none"
         id="path4059" /></g><g
       id="g4061"
       transform="translate(238.7842,336.1616)"><path
         inkscape:connector-curvature="0"
         d="m 0,0 0.199,-2.294 c -5.177,-3.607 -11.075,-6.104 -15.528,-10.453 -6.493,-6.342 -10.07,-14.188 -11.826,-23.153 -0.229,-3.711 4.172,-4.201 4.172,-4.201 1.222,-2.689 2.689,-0.979 3.177,-4.891 0.491,-3.912 1.468,-15.403 5.869,-17.115 4.401,-1.711 20.732,2.713 28.853,11.736 2.201,2.447 6.112,-4.889 9.292,-2.933 10.757,-0.244 20.281,16.137 20.281,16.137 l 25.916,0 c 0,0 7.105,23.472 -1.453,31.054 -8.557,7.58 -13.69,8.557 -15.647,7.824 -1.958,-0.734 -15.404,14.67 -14.916,17.116 4.89,1.955 5.175,22.173 1.222,34.231 -4.889,14.915 -41.97,19.241 -52.815,-2.444 -2.932,-5.87 -3.178,-13.205 -2.444,-18.095 C -23.473,23.961 -12.225,7.09 -9.78,-0.49 -6.112,-3.179 0,0 0,0"
         style="fill:#ed1d24;fill-opacity:1;fill-rule:nonzero;stroke:none"
         id="path4063" /></g><g
       id="g4065"
       transform="translate(257.9805,405.5361)"><path
         inkscape:connector-curvature="0"
         d="M 0,0 C 0.719,-1.293 1.804,-2.771 1.967,-4.425 -0.42,-4.58 -3.17,-4.548 -4.984,-2.875 -5.889,-1.764 -7.524,-0.461 -7.133,1.552 -4.734,2.807 -2,1.307 0,0"
         style="fill:#ffffff;fill-opacity:1;fill-rule:nonzero;stroke:none"
         id="path4067" /></g><g
       id="g4069"
       transform="translate(269.292,400.4526)"><path
         inkscape:connector-curvature="0"
         d="m 0,0 c -2.021,-0.343 -4.03,0.413 -5.853,1.168 -1.637,1.303 -2.163,3.327 -3.245,4.99 0.929,0.907 2.944,0.7 4.034,-0.047 C -2.876,4.8 -0.888,2.395 0,0"
         style="fill:#ffffff;fill-opacity:1;fill-rule:nonzero;stroke:none"
         id="path4071" /></g><g
       id="g4073"
       transform="translate(250.2349,401.7759)"><path
         inkscape:connector-curvature="0"
         d="M 0,0 C 0.533,-1.475 -1.112,-0.904 -1.665,-1.265 -4.972,-1.775 -7.701,0.09 -9.323,2.494 -9.678,3.598 -9.115,4.691 -8.01,5.046 -4.519,5.555 -1.247,3.133 0,0"
         style="fill:#ffffff;fill-opacity:1;fill-rule:nonzero;stroke:none"
         id="path4075" /></g><g
       id="g4077"
       transform="translate(279.2188,402.5361)"><path
         inkscape:connector-curvature="0"
         d="m 0,0 c 0.721,-1.293 -0.578,-2.561 -1.682,-2.732 -2.021,-0.343 -4.582,0.236 -5.482,1.716 -0.717,1.292 -1.623,2.219 -1.604,3.869 1.116,1.271 3.68,1.058 5.141,0.489 C -2.168,2.593 -0.717,1.476 0,0"
         style="fill:#ffffff;fill-opacity:1;fill-rule:nonzero;stroke:none"
         id="path4079" /></g><g
       id="g4081"
       transform="translate(237.4209,403.7612)"><path
         inkscape:connector-curvature="0"
         d="m 0,0 c 0.536,-1.291 2.354,-2.596 1.237,-3.867 -1.844,-0.895 -4.044,-0.869 -6.055,-0.296 -1.096,0.381 -2.371,1.129 -2.722,2.417 0.015,1.283 0.944,2.373 2.05,2.725 C -3.464,1.874 -1.457,0.934 0,0"
         style="fill:#ffffff;fill-opacity:1;fill-rule:nonzero;stroke:none"
         id="path4083" /></g><g
       id="g4085"
       transform="translate(274.8271,387.5488)"><path
         inkscape:connector-curvature="0"
         d="m 0,0 c 0.683,-4.226 -2.605,-7.62 -4.701,-9.848 -10.556,-8.495 -24.542,-12.733 -39.191,-10.728 -3.471,1.142 -2.135,5.527 -2.285,8.465 0.065,5.501 2.688,10.054 5.851,14.053 7.052,7.068 19.349,7.841 29.409,5.705 C -7.804,7.062 -0.161,4.055 0,0"
         style="fill:#ffffff;fill-opacity:1;fill-rule:nonzero;stroke:none"
         id="path4087" /></g><g
       id="g4089"
       transform="translate(255.4648,394.1948)"><path
         inkscape:connector-curvature="0"
         d="m 0,0 c -0.02,-1.65 -1.697,-3.198 -3.348,-3.996 -3.957,-1.911 -7.211,-4.866 -11.262,-6.286 0,0 -0.331,-0.037 -0.181,0.186 0.678,1.462 10.924,8.384 14.057,10.106 C -0.347,0.222 0,0 0,0"
         style="fill:#ed1d24;fill-opacity:1;fill-rule:nonzero;stroke:none"
         id="path4091" /></g><g
       id="g4093"
       transform="translate(261.6875,393.2051)"><path
         inkscape:connector-curvature="0"
         d="m 0,0 c -0.39,-2.013 -2.685,-3.083 -3.897,-3.807 -3.321,-1.794 -5.547,-3.968 -9.042,-4.843 2.712,3.962 12.076,8.605 12.392,8.839 C -0.232,0.424 0,0 0,0"
         style="fill:#ed1d24;fill-opacity:1;fill-rule:nonzero;stroke:none"
         id="path4095" /></g><g
       id="g4097"
       transform="translate(246.6387,392.2813)"><path
         inkscape:connector-curvature="0"
         d="m 0,0 c -0.749,-0.303 -6.639,-6.102 -10.724,-7.392 0,0 -0.449,-0.094 -0.408,0.052 0.302,1.055 7.428,7.587 11.142,8.073 C 0.101,0.751 0.749,0.304 0,0"
         style="fill:#ed1d24;fill-opacity:1;fill-rule:nonzero;stroke:none"
         id="path4099" /></g><g
       id="g4101"
       transform="translate(265.875,390.5889)"><path
         inkscape:connector-curvature="0"
         d="m 0,0 c -2.238,-3.276 -5.565,-5.254 -9.239,-5.942 l 8.147,6.504 C -0.726,0.559 -0.176,0.551 0,0"
         style="fill:#ed1d24;fill-opacity:1;fill-rule:nonzero;stroke:none"
         id="path4103" /></g><g
       id="g4105"
       transform="translate(270.1201,388.5176)"><path
         inkscape:connector-curvature="0"
         d="m 0,0 c -2.407,-4.081 -11.026,-7.405 -12.073,-8.659 -0.718,-0.488 -0.734,0.01 -0.734,0.01 1.677,2.181 4.997,3.976 7.404,5.78 1.658,0.717 2.8,4.188 5.178,3.61 0,0 0.408,-0.306 0.225,-0.741"
         style="fill:#ed1d24;fill-opacity:1;fill-rule:nonzero;stroke:none"
         id="path4107" /></g><g
       id="g4109"
       transform="translate(272.252,384.5508)"><path
         inkscape:connector-curvature="0"
         d="m 0,0 c 0.642,-0.482 -0.05,-1.738 -0.05,-1.738 -6.116,-5.802 -16.433,-10.937 -19.205,-11.33 -0.688,-0.204 -0.366,0.188 -0.366,0.188 4.262,3.434 10.159,6.117 14.604,9.732 C -3.354,-2.066 -2.086,1.696 0,0"
         style="fill:#ed1d24;fill-opacity:1;fill-rule:nonzero;stroke:none"
         id="path4111" /></g><g
       id="g4113"
       transform="translate(253.0566,376.6167)"><path
         inkscape:connector-curvature="0"
         d="m 0,0 c -4.235,-1.418 -9.008,-1.911 -13.587,-1.307 -1.274,0.748 -1.846,2.54 -1.793,3.506 0.965,4.023 5.875,1.602 8.81,2.519 2.176,0.543 5.341,2.529 7.929,1.685 C 2.279,6.032 2.391,0.523 0,0"
         style="fill:#ed1d24;fill-opacity:1;fill-rule:nonzero;stroke:none"
         id="path4115" /></g><g
       id="g4117"
       transform="translate(251.6191,379.0181)"><path
         inkscape:connector-curvature="0"
         d="m 0,0 c -1.68,-2.363 -8.336,-1.36 -8.82,-1.364 -0.484,-0.004 -0.179,0.369 -0.179,0.369 2.579,0.888 5.688,0.3 7.913,2.293 C -0.35,1.472 0.191,0.732 0,0"
         style="fill:#ffffff;fill-opacity:1;fill-rule:nonzero;stroke:none"
         id="path4119" /></g><g
       id="g4121"
       transform="translate(224.9077,359.4814)"><path
         inkscape:connector-curvature="0"
         d="m 0,0 c -0.396,-0.916 0.06,-1.057 0.06,-1.057 10.362,-3.1 16.048,0.324 16.048,0.324 C 10.979,-0.306 5.753,-0.391 0.996,0.583 0.996,0.583 0.27,0.622 0,0"
         style="fill:#231f20;fill-opacity:1;fill-rule:nonzero;stroke:none"
         id="path4123" /></g><g
       id="g4125"
       transform="translate(224.8423,363.3774)"><path
         inkscape:connector-curvature="0"
         d="m 0,0 c 0.801,0.475 1.055,-0.86 6.031,-1.722 4.977,-0.86 27.105,-2.082 44.357,13.417 0.92,0.356 1.01,-0.653 1.086,-1.112 0.85,-5.695 -0.318,-11.55 -2.577,-16.476 -11.294,-9.038 -25.664,-14.552 -40.553,-17.496 -3.667,0.043 -2.701,4.249 -4.142,6.467 -1.976,3.509 -3.766,7.197 -4.635,11.425 0,0 -1.579,4.321 0.433,5.497"
         style="fill:#ffffff;fill-opacity:1;fill-rule:nonzero;stroke:none"
         id="path4127" /></g><g
       id="g4129"
       transform="translate(273.8691,368.4878)"><path
         inkscape:connector-curvature="0"
         d="m 0,0 c -5.934,-5.616 -13.675,-8.644 -22.3,-9.092 0,0 -0.68,0.238 0.007,0.549 6.578,1.867 14.927,6.061 21.76,10.017 0,0 0.498,0.217 0.73,-0.195 C 0.561,0.637 0,0 0,0"
         style="fill:#ed1d24;fill-opacity:1;fill-rule:nonzero;stroke:none"
         id="path4131" /></g><g
       id="g4133"
       transform="translate(273.8193,364.27)"><path
         inkscape:connector-curvature="0"
         d="m 0,0 c -0.021,-1.651 -1.842,-2.436 -2.971,-3.083 -5.17,-2.875 -11.054,-4.272 -16.76,-6.222 -0.702,-0.098 -1.335,0.11 -1.465,0.383 -0.13,0.275 0.374,0.546 0.374,0.546 6.456,3.225 13.455,5.711 19.366,9.31 C -0.722,1.109 -0.055,0.728 0,0"
         style="fill:#ed1d24;fill-opacity:1;fill-rule:nonzero;stroke:none"
         id="path4135" /></g><g
       id="g4137"
       transform="translate(272.1025,358.7881)"><path
         inkscape:connector-curvature="0"
         d="m 0,0 c -5.194,-5.074 -11.998,-6.647 -18.802,-8.215 0,0 -0.303,-0.131 -0.556,0.005 -0.251,0.138 -0.174,0.369 -0.174,0.369 2.59,1.805 6.264,2.312 9.221,4.111 3.538,1.918 8.718,5.194 10.697,5.008 C 0.585,0.914 0,0 0,0"
         style="fill:#ed1d24;fill-opacity:1;fill-rule:nonzero;stroke:none"
         id="path4139" /></g><g
       id="g4141"
       transform="translate(241.4385,355.4795)"><path
         inkscape:connector-curvature="0"
         d="m 0,0 c -3.694,-2.156 -8.651,-2.649 -13.41,-1.86 -0.551,0.008 -0.728,0.56 -0.538,1.108 3.679,0.874 7.688,0.414 11.142,0.75 L 0,0 z"
         style="fill:#ed1d24;fill-opacity:1;fill-rule:nonzero;stroke:none"
         id="path4143" /></g><g
       id="g4145"
       transform="translate(242.1304,351.9863)"><path
         inkscape:connector-curvature="0"
         d="m 0,0 c -3.691,-1.974 -8.836,-2.83 -13.414,-2.226 -0.533,1.474 1.483,1.45 2.404,1.623 C -7.342,-0.462 -3.666,0.228 0,0"
         style="fill:#ed1d24;fill-opacity:1;fill-rule:nonzero;stroke:none"
         id="path4147" /></g><g
       id="g4149"
       transform="translate(280.3457,342.1846)"><path
         inkscape:connector-curvature="0"
         d="m 0,0 c 2.347,-3.144 5.252,-5.746 8.53,-7.619 0.354,-0.921 0.709,-2.027 -0.215,-2.565 -9.805,-7.403 -14.52,-18.352 -20.877,-28.732 -1.307,-2.002 -3.848,0.228 -5.673,0.983 -2.552,1.315 -3.814,3.163 -5.998,4.656 l -0.919,-0.172 c -5.03,-6.726 -11.151,-12.524 -19.077,-15.915 -1.086,1.112 -1.062,3.314 -0.859,4.962 0.058,4.952 2.488,8.773 3.275,13.35 -2.192,0.758 -4.579,0.42 -6.773,0.995 -0.167,1.47 0.952,3.108 1.886,4.564 3.552,5.644 8.742,10.35 15.184,12.292 -1.124,-2.003 -2.243,-3.641 -3.914,-5.271 l 0.548,-0.191 c 1.839,0.346 3.504,1.609 5.517,1.219 -0.018,-1.467 -2.036,-1.626 -2.238,-3.092 2.39,0.339 4.429,2.332 6.984,1.201 0.545,-0.374 1.074,-2.029 2.366,-1.495 1.319,2.92 -0.304,5.323 -1.004,8.082 0,0 -3.826,7.633 -4.121,8.485 -0.292,0.853 0.38,1.096 0.38,1.096 7.012,3.586 14.033,7.905 20.674,11.312 C -3.416,5.909 -2.351,2.779 0,0"
         style="fill:#ffffff;fill-opacity:1;fill-rule:nonzero;stroke:none"
         id="path4151" /></g><g
       id="g4153"
       transform="translate(244.3013,349.3945)"><path
         inkscape:connector-curvature="0"
         d="m 0,0 c -3.33,-2.345 -7.565,-3.946 -12.142,-3.158 -0.18,0.184 -0.911,0.561 -0.353,1.104 C -8.274,-1.736 -4.223,-0.5 0,0"
         style="fill:#ed1d24;fill-opacity:1;fill-rule:nonzero;stroke:none"
         id="path4155" /></g><g
       id="g4157"
       transform="translate(273.2441,346.4863)"><path
         inkscape:connector-curvature="0"
         d="m 0,0 c -3.164,-3.813 -7.4,-5.413 -11.642,-7.381 l -0.917,0.009 0.007,0.552 c 4.788,1.776 7.407,5.965 12.372,7.189 L 0,0 z"
         style="fill:#ed1d24;fill-opacity:1;fill-rule:nonzero;stroke:none"
         id="path4159" /></g><g
       id="g4161"
       transform="translate(234.0771,344.7188)"><path
         inkscape:connector-curvature="0"
         d="M 0,0 C 2.813,-0.03 8.679,1.895 10.737,1.552 9.81,0.646 8.153,0.115 6.864,-0.42 4.284,-1.307 1.331,-2.923 -1.217,-1.425 -1.436,-1.101 -0.977,-0.214 0,0"
         style="fill:#ed1d24;fill-opacity:1;fill-rule:nonzero;stroke:none"
         id="path4163" /></g><g
       id="g4165"
       transform="translate(274.8652,344.0835)"><path
         inkscape:connector-curvature="0"
         d="m 0,0 c -0.203,-1.832 -1.311,-2.368 -2.605,-3.271 -3.323,-1.794 -6.28,-3.777 -9.954,-4.284 3.518,2.893 7.584,5.595 11.643,7.749 L 0,0 z"
         style="fill:#ed1d24;fill-opacity:1;fill-rule:nonzero;stroke:none"
         id="path4167" /></g><g
       id="g4169"
       transform="translate(276.6719,341.6787)"><path
         inkscape:connector-curvature="0"
         d="m 0,0 c -0.199,-1.282 -1.127,-2.372 -2.422,-3.09 -2.947,-1.249 -5.73,-3.968 -9.408,-4.657 2.969,2.899 6.295,4.877 9.443,7.591 C -1.652,-0.164 -0.728,0.557 0,0"
         style="fill:#ed1d24;fill-opacity:1;fill-rule:nonzero;stroke:none"
         id="path4171" /></g><g
       id="g4173"
       transform="translate(278.4756,339.0898)"><path
         inkscape:connector-curvature="0"
         d="m 0,0 c -0.388,-1.646 -2.608,-3.271 -4.265,-3.802 -1.66,-0.896 -3.697,-2.706 -5.717,-2.866 2.416,2.722 5.928,5.065 8.883,6.863 L 0,0 z"
         style="fill:#ed1d24;fill-opacity:1;fill-rule:nonzero;stroke:none"
         id="path4175" /></g><g
       id="g4177"
       transform="translate(281.375,336.3047)"><path
         inkscape:connector-curvature="0"
         d="m 0,0 c -3.703,-3.257 -7.586,-5.78 -12.01,-7.744 l 0.379,0.912 c 3.336,3.077 6.485,5.793 11.091,7.571 C 0.012,0.733 0.373,0.362 0,0"
         style="fill:#ed1d24;fill-opacity:1;fill-rule:nonzero;stroke:none"
         id="path4179" /></g><g
       id="g4181"
       transform="translate(283.3613,333.5303)"><path
         inkscape:connector-curvature="0"
         d="m 0,0 c -1.573,-2.137 -4.232,-3.421 -5.37,-4.339 -2.773,-1.8 -5.374,-4.704 -8.507,-5.952 l 0.01,0.734 c 3.523,3.443 7.98,8.159 12.775,10.303 C -0.729,0.376 0.009,0.733 0,0"
         style="fill:#ed1d24;fill-opacity:1;fill-rule:nonzero;stroke:none"
         id="path4183" /></g><g
       id="g4185"
       transform="translate(286.0996,332.3975)"><path
         inkscape:connector-curvature="0"
         d="m 0,0 -0.381,-1.095 c -3.334,-2.713 -7.027,-4.87 -9.631,-8.141 0,0 -2.42,-3.089 -3.718,-4.174 l -0.177,0.369 c 0,0 1.756,3.142 2.432,4.19 2.973,3.266 6.5,6.891 10.375,9.047 C -0.732,0.191 -0.363,0.372 0,0"
         style="fill:#ed1d24;fill-opacity:1;fill-rule:nonzero;stroke:none"
         id="path4187" /></g><g
       id="g4189"
       transform="translate(304.377,327.2314)"><path
         inkscape:connector-curvature="0"
         d="m 0,0 c 0.721,-1.293 1.808,-2.223 1.424,-3.685 -1.112,-0.904 -2.145,0.787 -3.289,0.956 -5.494,0.615 -9.934,-2.634 -12.918,-6.818 0,0 -2.984,-4.182 -4.473,-6.181 -5.972,-8.735 -10.301,-18.22 -19.355,-23.981 -2.032,-1.078 -3.823,0.31 -5.303,1.345 -1.873,1.309 -3.258,3.705 -5.65,3.001 -7.228,-6.335 -15.559,-13.023 -25.844,-14.369 -1.876,-0.114 -2.746,2.913 -3.431,4.627 -1.959,4.975 -2.618,11.401 -2.186,16.897 0.391,2.014 -1.809,2.223 -3.089,2.42 -0.918,0.013 -2.013,0.39 -2.002,1.308 -0.057,10.822 7.2,19.722 16.6,23.646 -4.821,-4.527 -8.741,-10.352 -9.924,-17.307 1.082,-1.664 3.656,-1.144 5.482,-1.714 0.734,-0.009 1.834,-0.021 1.823,-0.939 -1.169,-5.854 -2.351,-12.809 -0.036,-18.706 0.9,-1.478 2.744,-0.582 4.029,-0.414 7.558,3.212 15.295,9.141 19.063,14.631 0.444,0.648 0.921,0.355 0.921,0.355 4.38,-1.883 7.277,-5.037 11.853,-5.822 2.398,1.254 11.75,16.733 14.178,20.372 1.097,1.932 4.662,6.732 7.808,9.079 C -10.623,1.042 -3.791,4.997 0,0"
         style="fill:#ffffff;fill-opacity:1;fill-rule:nonzero;stroke:none"
         id="path4191" /></g><g
       id="g4193"
       transform="translate(284.3584,300.6992)"><path
         inkscape:connector-curvature="0"
         d="M 0,0 C 0.054,0.141 0.142,0.319 0.275,0.539 1.13,1.955 8.983,17.398 15.161,18.886 17.727,18.857 19.171,16.821 20.064,14.61 21.013,9.728 21.181,3.624 17.788,-0.005 L 0,0 z"
         style="fill:#ffffff;fill-opacity:1;fill-rule:nonzero;stroke:none"
         id="path4195" /></g><g
       id="g4197"
       transform="translate(250.8711,315.3887)"><path
         inkscape:connector-curvature="0"
         d="m 0,0 c 1.467,-0.018 2.217,1.441 3.863,1.056 3.824,-2.247 7.148,-0.268 10.473,1.526 0.918,0.356 1.277,-0.381 1.641,-0.752 0.707,-2.209 -0.598,-4.028 -1.898,-5.48 -0.585,-0.838 -4.061,-2.154 -5.891,-1.763 -1.65,0.017 -2.727,2.049 -4.39,0.967 -1.663,-1.265 -3.519,-2.893 -6.081,-2.496 -2.382,0.21 -4.196,1.883 -5.278,3.546 -0.858,1.978 -1.23,4.416 -0.288,6.606 0.375,0.73 0.747,1.092 1.484,1.45 C -4.732,3.174 -3.307,-0.511 0,0"
         style="fill:#ed1d24;fill-opacity:1;fill-rule:nonzero;stroke:none"
         id="path4199" /></g><g
       id="g4201"
       transform="translate(299.3047,316.8369)"><path
         inkscape:connector-curvature="0"
         d="M 0,0 C -0.381,-1.097 -1.676,-1.998 -2.599,-2.536 L -2.963,-2.35 C -2.213,-1.074 -1.105,-0.354 0,0"
         style="fill:#ed1d24;fill-opacity:1;fill-rule:nonzero;stroke:none"
         id="path4203" /></g><g
       id="g4205"
       transform="translate(252.6758,312.9834)"><path
         inkscape:connector-curvature="0"
         d="M 0,0 C -2.384,-4.651 -9.351,-0.707 -7.611,3.372 -4.355,-0.067 0,0 0,0"
         style="fill:#ffffff;fill-opacity:1;fill-rule:nonzero;stroke:none"
         id="path4207" /></g><g
       id="g4209"
       transform="translate(301.291,314.2461)"><path
         inkscape:connector-curvature="0"
         d="m 0,0 -6.473,-4.509 -0.55,0.007 0.378,0.911 c 2.035,1.444 3.901,4.173 6.838,4.505 L 0,0 z"
         style="fill:#ed1d24;fill-opacity:1;fill-rule:nonzero;stroke:none"
         id="path4211" /></g><g
       id="g4213"
       transform="translate(264.6875,315.668)"><path
         inkscape:connector-curvature="0"
         d="m 0,0 c -0.046,-3.026 -4.145,-4.245 -6.707,-3.849 -1.088,0.135 -2.197,1.05 -2.371,1.969 C -6.287,-2.644 -1.604,-1.696 0,0"
         style="fill:#ffffff;fill-opacity:1;fill-rule:nonzero;stroke:none"
         id="path4215" /></g><g
       id="g4217"
       transform="translate(302.3652,312.0332)"><path
         inkscape:connector-curvature="0"
         d="m 0,0 c -2.601,-2.904 -6.297,-5.246 -9.619,-7.04 l 0.191,0.732 c 2.783,2.717 4.648,5.263 8.149,6.691 C -0.916,0.193 -0.176,0.552 0,0"
         style="fill:#ed1d24;fill-opacity:1;fill-rule:nonzero;stroke:none"
         id="path4219" /></g><g
       id="g4221"
       transform="translate(302.126,307.2686)"><path
         inkscape:connector-curvature="0"
         d="m 0,0 c -2.782,-2.721 -5.915,-3.966 -8.685,-5.585 1.864,2.547 4.462,5.267 7.782,6.695 L 0.013,0.916 0,0 z"
         style="fill:#ed1d24;fill-opacity:1;fill-rule:nonzero;stroke:none"
         id="path4223" /></g><g
       id="g4225"
       transform="translate(248.6382,265.8984)"><path
         inkscape:connector-curvature="0"
         d="m 0,0 c 0.169,-1.286 -0.398,-2.747 -1.322,-3.286 -0.92,-0.172 -1.094,0.562 -1.084,1.479 L -1.625,2.22 C -0.896,1.843 -0.173,0.918 0,0"
         style="fill:#ed1d24;fill-opacity:1;fill-rule:nonzero;stroke:none"
         id="path4227" /></g><g
       id="g4229"
       transform="translate(229.0698,395.4224)"><path
         inkscape:connector-curvature="0"
         d="m 0,0 c -1.777,0.705 -2.904,2.602 -3.246,4.623 -0.526,2.207 -0.181,4.151 1.356,6.402 3.048,4.474 9.543,0.439 13.248,3.513 0.746,1.091 -0.342,2.206 -0.326,3.488 -0.16,2.019 0.334,4.257 2.077,5.111 2.397,1.073 5.286,0.186 7.06,-0.671 1.64,-0.752 2.741,-3.459 4.951,-2.752 0.922,0.203 1.527,0.514 1.355,1.433 -5.487,1.348 -10.945,5.08 -14.011,9.517 -4.15,5.734 -6.066,14.376 -3.054,21.128 -0.532,1.473 -2.174,2.036 -2.019,3.378 0.184,1.589 -2.384,1.162 -2.676,2.727 -0.075,2.408 -1.694,2.499 -2.144,4.977 -0.164,1.471 1.303,1.985 1.503,2.916 0.2,0.933 -0.244,2.365 0.223,3.299 0.466,0.935 2.055,0.813 2.592,2.171 -0.88,3.128 2.773,1.801 3.885,2.889 0.936,1.64 3.137,1.614 4.786,1.41 l 2.224,-0.828 c 1.528,0.978 4.035,-0.061 4.279,-1.405 0.478,-1.113 1.713,-0.981 2.451,-0.44 0.761,2.376 3.762,1.603 5.312,1.234 2.409,2.171 4.053,-0.242 6.622,-0.273 2.382,-0.027 2.92,-3.47 3.437,-3.89 0.517,-0.421 3.104,-1.138 2.713,-3.335 -1.134,-2.737 1.959,-4.791 -0.45,-6.965 -3.168,-4.362 2.302,-6.994 3.175,-10.856 l 3.169,-11.224 c 1.444,-1.852 4.743,-2.073 6.948,-1.732 1.621,-2.405 0.853,-6.595 -0.639,-7.512 -1.441,-1.281 -5.517,-1.402 -4.09,-4.72 0.696,-3.125 2.684,-5.717 3.938,-8.3 0.172,-0.918 -0.555,-0.916 -1.111,-0.902 -3.481,0.406 -6.015,3.186 -8.756,4.136 -0.196,-1.097 -0.213,-2.565 0.511,-3.491 1.622,-2.402 6.483,-4.46 7.091,-5.034 0.61,-0.575 2.228,-1.128 2.153,-4.245 C 54.461,2.662 53.321,1.769 52.565,0.766 51.81,-0.237 49.694,-1.373 47.186,-1.557 44.679,-1.739 35.635,3.578 26.465,2.967 17.294,2.356 8.683,-3.089 0,0"
         style="fill:#ed1d24;fill-opacity:1;fill-rule:nonzero;stroke:none"
         id="path4231" /></g><g
       id="g4233"
       transform="translate(250.0308,462.4814)"><path
         inkscape:connector-curvature="0"
         d="m 0,0 c 0.521,-2.572 1.028,-6.246 -0.648,-8.428 -1.485,-1.448 -3.705,-3.074 -6.267,-2.677 -2.019,0.024 -3.653,1.327 -4.923,2.442 -1.996,1.856 -1.224,5.149 -1.011,7.714 0.589,3.296 4.087,4.354 7.027,4.869 C -3.257,3.707 -1.069,2.582 0,0"
         style="fill:#ffffff;fill-opacity:1;fill-rule:nonzero;stroke:none"
         id="path4235" /></g><g
       id="g4237"
       transform="translate(266.7051,461.186)"><path
         inkscape:connector-curvature="0"
         d="m 0,0 c 1.248,-2.949 -0.078,-6.602 -1.754,-8.782 -2.402,-1.623 -5.904,-3.049 -8.816,-1.181 -2.548,1.68 -3.799,4.447 -3.397,7.559 0.769,2.926 2.457,6.207 5.768,6.903 C -4.346,4.82 -1.426,3.501 0,0"
         style="fill:#ffffff;fill-opacity:1;fill-rule:nonzero;stroke:none"
         id="path4239" /></g><g
       id="g4241"
       transform="translate(247.6064,459.0264)"><path
         inkscape:connector-curvature="0"
         d="m 0,0 c -0.264,-1.343 -1.821,-2.268 -2.967,-2.715 -2.431,-0.95 -5.856,2.839 -3.419,5.541 0.787,0.873 1.67,1.631 2.953,1.616 C -0.264,4.097 0.18,0.917 0,0"
         style="fill:#ed1d24;fill-opacity:1;fill-rule:nonzero;stroke:none"
         id="path4243" /></g><g
       id="g4245"
       transform="translate(263.0234,459.9453)"><path
         inkscape:connector-curvature="0"
         d="m 0,0 c 0.537,-1.106 0.155,-2.202 -0.225,-3.481 -0.418,-1.226 -2.969,-2.901 -4.786,-1.412 -1.817,1.305 -2.53,3.148 -1.591,5.154 0.747,1.092 1.86,1.995 3.143,1.981 C -1.994,2.225 -0.537,1.29 0,0"
         style="fill:#ed1d24;fill-opacity:1;fill-rule:nonzero;stroke:none"
         id="path4247" /></g><g
       id="g4249"
       transform="translate(245.1572,459.876)"><path
         inkscape:connector-curvature="0"
         d="m 0,0 c -0.097,-0.583 -0.656,-0.512 -1.159,-0.505 -0.56,0.023 -0.77,1.318 0.019,1.57 C -0.359,1.057 0.114,0.688 0,0"
         style="fill:#ffffff;fill-opacity:1;fill-rule:nonzero;stroke:none"
         id="path4251" /></g><g
       id="g4253"
       transform="translate(260.5342,459.1187)"><path
         inkscape:connector-curvature="0"
         d="m 0,0 c -0.005,-0.406 -0.622,-1.007 -1.231,-1.201 -0.407,0.132 -1.004,0.416 -0.795,1.022 C -1.812,0.832 -0.188,1.217 0,0"
         style="fill:#ffffff;fill-opacity:1;fill-rule:nonzero;stroke:none"
         id="path4255" /></g><g
       id="g4257"
       transform="translate(253.2109,449.1855)"><path
         inkscape:connector-curvature="0"
         d="m 0,0 c -0.367,-1.1 -2.874,-3.36 -3.423,-2.994 -0.91,0.561 -0.462,3.095 0.094,3.638 C -2.566,2.08 0.386,1.831 0,0"
         style="fill:#ffffff;fill-opacity:1;fill-rule:nonzero;stroke:none"
         id="path4259" /></g><g
       id="g4261"
       transform="translate(248.5278,443.7939)"><path
         inkscape:connector-curvature="0"
         d="m 0,0 3.831,-1.88 c 1.93,-7.174 4.967,-14.18 10.034,-19.924 -0.016,-1.467 -2.217,-1.44 -3.684,-1.424 -3.488,-0.325 -6.779,0.629 -9.323,2.678 -6.542,5.029 -9.197,13.313 -8.003,21.183 0.569,1.644 1.868,2.914 3.7,2.709 C -1.43,3.134 -1.456,0.934 0,0"
         style="fill:#ffffff;fill-opacity:1;fill-rule:nonzero;stroke:none"
         id="path4263" /></g><g
       id="g4265"
       transform="translate(261.2021,445.479)"><path
         inkscape:connector-curvature="0"
         d="M 0,0 C 1.304,1.635 3.681,1.24 5.321,0.303 5.882,1.032 6.794,0.836 7.337,0.097 11.494,-5.086 11.775,-12.427 12.245,-19.217 8.799,-15.877 6.802,-6.013 6.55,-4.48 3.948,-7.381 7.14,-16.773 7.312,-17.692 3.318,-15.916 1.749,-7.174 0.86,-4.78 -0.815,-6.96 0.064,-10.271 0.398,-13.026 l 0.695,-3.31 c -2.364,1.861 -4.709,5.191 -5.586,8.501 -0.52,2.576 -0.85,5.696 -0.453,8.26 0.197,1.281 1.849,1.262 2.576,0.702 C -1.643,0.569 -0.927,-0.724 0,0"
         style="fill:#ffffff;fill-opacity:1;fill-rule:nonzero;stroke:none"
         id="path4267" /></g><g
       id="g4269"
       transform="translate(281.709,427.0811)"><path
         inkscape:connector-curvature="0"
         d="m 0,0 c -0.195,-1.098 -1.117,-1.453 -2.039,-1.809 -0.924,-0.54 -1.091,0.747 -1.271,1.114 0.013,0.919 0.027,2.202 0.944,2.191 C -1.635,1.119 0.572,1.828 0,0"
         style="fill:#ffffff;fill-opacity:1;fill-rule:nonzero;stroke:none"
         id="path4271" /></g><g
       id="g4273"
       transform="translate(270.207,415.8467)"><path
         inkscape:connector-curvature="0"
         d="m 0,0 c 0.538,-1.108 -0.395,-2.38 -1.673,-1.814 -1.28,0.382 -2.374,0.761 -2.913,1.867 -0.164,1.47 0.943,2.19 1.865,2.547 C -1.072,2.397 -0.533,1.473 0,0"
         style="fill:#ffffff;fill-opacity:1;fill-rule:nonzero;stroke:none"
         id="path4275" /></g><g
       id="g4277"
       transform="translate(268.3086,410.3672)"><path
         inkscape:connector-curvature="0"
         d="m 0,0 c 0.18,-0.369 -0.191,-0.732 -0.377,-0.913 -2.548,1.681 -8.434,0.099 -7.828,4.861 0.56,1.094 1.657,0.713 2.566,0.152 L 0,0 z"
         style="fill:#ffffff;fill-opacity:1;fill-rule:nonzero;stroke:none"
         id="path4279" /></g><g
       id="g4281"
       transform="translate(256.2188,411.6094)"><path
         inkscape:connector-curvature="0"
         d="m 0,0 c 0.734,-0.009 1.465,-0.2 1.82,-1.122 0.359,-0.738 -0.559,-0.911 -0.928,-1.09 -2.921,1.135 -6.579,1.912 -9.527,0.845 -2.441,-0.239 -3.298,0.407 -3.642,2.245 -0.206,1.001 -0.527,2.022 0.581,2.561 C -7.3,3.02 -4.595,-0.863 0,0"
         style="fill:#ffffff;fill-opacity:1;fill-rule:nonzero;stroke:none"
         id="path4283" /></g><g
       id="g4285"
       transform="translate(257.9805,405.5361)"><path
         inkscape:connector-curvature="0"
         d="M 0,0 C 0.719,-1.293 1.804,-2.771 1.967,-4.425 -0.42,-4.58 -3.17,-4.548 -4.984,-2.875 -5.889,-1.764 -7.524,-0.461 -7.133,1.552 -4.734,2.807 -2,1.307 0,0"
         style="fill:#ffffff;fill-opacity:1;fill-rule:nonzero;stroke:none"
         id="path4287" /></g><g
       id="g4289"
       transform="translate(269.292,400.4526)"><path
         inkscape:connector-curvature="0"
         d="m 0,0 c -2.021,-0.343 -4.03,0.413 -5.853,1.168 -1.637,1.303 -2.163,3.327 -3.245,4.99 0.929,0.907 2.944,0.7 4.034,-0.047 C -2.876,4.8 -0.888,2.395 0,0"
         style="fill:#ffffff;fill-opacity:1;fill-rule:nonzero;stroke:none"
         id="path4291" /></g><g
       id="g4293"
       transform="translate(250.2349,401.7759)"><path
         inkscape:connector-curvature="0"
         d="M 0,0 C 0.533,-1.475 -0.936,-1.186 -1.665,-1.265 -4.972,-1.775 -7.701,0.09 -9.323,2.494 -9.678,3.598 -9.115,4.691 -8.01,5.046 -4.519,5.555 -1.247,3.133 0,0"
         style="fill:#ffffff;fill-opacity:1;fill-rule:nonzero;stroke:none"
         id="path4295" /></g><g
       id="g4297"
       transform="translate(279.2188,402.5361)"><path
         inkscape:connector-curvature="0"
         d="m 0,0 c 0.721,-1.293 -0.578,-2.561 -1.682,-2.732 -2.021,-0.343 -4.582,0.236 -5.482,1.716 -0.717,1.292 -1.623,2.219 -1.604,3.869 1.116,1.271 3.68,1.058 5.141,0.489 C -2.168,2.593 -0.717,1.476 0,0"
         style="fill:#ffffff;fill-opacity:1;fill-rule:nonzero;stroke:none"
         id="path4299" /></g><g
       id="g4301"
       transform="translate(237.4209,403.7612)"><path
         inkscape:connector-curvature="0"
         d="m 0,0 c 0.813,-0.971 2.354,-2.596 1.237,-3.867 -1.844,-0.895 -4.044,-0.869 -6.055,-0.296 -1.096,0.381 -2.371,1.129 -2.722,2.417 0.015,1.283 0.944,2.373 2.05,2.725 C -3.464,1.874 -1.457,0.934 0,0"
         style="fill:#ffffff;fill-opacity:1;fill-rule:nonzero;stroke:none"
         id="path4303" /></g></g></g><flowRoot
   xml:space="preserve"
   id="flowRoot3651-3"
   style="font-size:32px;font-style:normal;font-weight:normal;line-height:125%;letter-spacing:0px;word-spacing:0px;fill:#000000;fill-opacity:1;stroke:none;font-family:Sans"
   transform="translate(-77.5,-7.933664)"><flowRegion
     id="flowRegion3653-9"><rect
       id="rect3655-1"
       width="138.35617"
       height="63.013699"
       x="647.94519"
       y="318.08218"
       style="font-size:32px" /></flowRegion><flowPara
     id="flowPara3657-0"
     style="font-size:40px;font-style:normal;font-variant:normal;font-weight:bold;font-stretch:normal;fill:#ff0000;font-family:Arial Unicode MS;-inkscape-font-specification:Arial Unicode MS">TFW</flowPara></flowRoot></svg>