<?xml version="1.0" encoding="UTF-8" standalone="no"?>
<!-- Generator: Adobe Illustrator 16.0.0, SVG Export Plug-In . SVG Version: 6.00 Build 0)  -->

<svg
   xmlns:dc="http://purl.org/dc/elements/1.1/"
   xmlns:cc="http://creativecommons.org/ns#"
   xmlns:rdf="http://www.w3.org/1999/02/22-rdf-syntax-ns#"
   xmlns:svg="http://www.w3.org/2000/svg"
   xmlns="http://www.w3.org/2000/svg"
   xmlns:sodipodi="http://sodipodi.sourceforge.net/DTD/sodipodi-0.dtd"
   xmlns:inkscape="http://www.inkscape.org/namespaces/inkscape"
   version="1.1"
   id="Layer_1"
   x="0px"
   y="0px"
   width="2304px"
   height="1440px"
   viewBox="0 0 2304 1440"
   enable-background="new 0 0 2304 1440"
   xml:space="preserve"
   inkscape:version="0.48.2 r9819"
   sodipodi:docname="christian_henry.svg"><metadata
   id="metadata27"><rdf:RDF><cc:Work
       rdf:about=""><dc:format>image/svg+xml</dc:format><dc:type
         rdf:resource="http://purl.org/dc/dcmitype/StillImage" /><dc:title /></cc:Work></rdf:RDF></metadata><defs
   id="defs25" /><sodipodi:namedview
   pagecolor="#ffffff"
   bordercolor="#666666"
   borderopacity="1"
   objecttolerance="10"
   gridtolerance="10"
   guidetolerance="10"
   inkscape:pageopacity="0"
   inkscape:pageshadow="2"
   inkscape:window-width="1280"
   inkscape:window-height="752"
   id="namedview23"
   showgrid="false"
   inkscape:zoom="2.0584323"
   inkscape:cx="600.58015"
   inkscape:cy="1198.0819"
   inkscape:window-x="0"
   inkscape:window-y="0"
   inkscape:window-maximized="1"
   inkscape:current-layer="layer2"
   showguides="true"
   inkscape:guide-bbox="true"><sodipodi:guide
     orientation="0,1"
     position="492.60789,1116.8694"
     id="guide3168" /><sodipodi:guide
     orientation="1,0"
     position="418.27948,1158.1629"
     id="guide3170" /><sodipodi:guide
     orientation="1,0"
     position="806.43896,1072.1752"
     id="guide3172" /><sodipodi:guide
     orientation="1,0"
     position="623.28987,1116.8694"
     id="guide3174" /></sodipodi:namedview>

<path
   stroke-miterlimit="10"
   d="m 792.2505,266.4245 0,60.102 m 0,-132.001 0,23.899 m -360,48 0,60.102 m 360,-132.001 -0.2,-8 -0.6,-8.101 -0.899,-8 -1.2,-8 -1.7,-7.899 -1.901,-7.801 -2.4,-7.8 -2.6,-7.6 -3,-7.5 -3.4,-7.4 -3.6,-7.2 -4,-7 -4.301,-6.8 -4.6,-6.7 -4.9,-6.4 -5.199,-6.2 -5.4,-5.9 -5.8,-5.8 -5.9,-5.4 -6.2,-5.2 -6.398,-4.9 -6.702,-4.6 -6.8,-4.3 -7,-4 -7.2,-3.6 -7.4,-3.4 -7.5,-3 -7.6,-2.6 -7.8,-2.4 -7.8,-1.9 -7.9,-1.7 -8,-1.2 -8,-0.9 -8.1,-0.6 -8,-0.2 -8.102,0.2 -8.1,0.6 -8,0.9 -8,1.2 -7.9,1.7 -7.8,1.9 -7.8,2.4 -7.602,2.6 -7.5,3 -7.3,3.4 -7.2,3.6 -7.1,4 -6.8,4.3 -6.602,4.6 -6.5,4.9 -6.198,5.2 -5.9,5.4 -5.7,5.8 -5.5,5.9 -5.2,6.2 -4.898,6.399 -4.602,6.7 -4.3,6.8 -4,7 -3.6,7.2 -3.4,7.4 -3,7.5 -2.6,7.6 -2.4,7.8 -1.898,7.801 -1.7,7.899 -1.2,8 -0.899,8 -0.601,8.101 -0.1,8 m 0.002,0.001 0,23.899 m -14.2,156.101 388.3,0 m -374.1,-156.101 -14.2,0 m 0,0 0,48 m 14.2,0 -14.2,0 m 14.2,60.101 -14.2,0 m 0,48 0,-48 m 388.3,48 0,-48 m -14.1,0 14.1,0 m -14.1,-60.101 14.1,0 m 0,-48 0,48 m -14.1,-48 14.1,0"
   id="path5"
   inkscape:connector-curvature="0"
   style="fill:none;stroke:#000000;stroke-width:0.28349999;stroke-linecap:round;stroke-linejoin:round;stroke-miterlimit:10" />







<g
   id="g3004"
   transform="matrix(0,-1,1,0,-650.45,841.725)"><path
   id="path11"
   d="M 575.301,1040.2 H 515.2 m 132.001,0 h -23.899 m -48.001,-360 H 515.2 m 132.001,360 8,-0.2 8.101,-0.601 8,-0.899 8,-1.2 7.899,-1.7 7.801,-1.898 7.8,-2.4 7.601,-2.6 7.5,-3 7.399,-3.4 7.2,-3.6 7,-4 6.8,-4.301 6.7,-4.601 6.399,-4.899 6.199,-5.199 5.9,-5.4 5.8,-5.8 5.4,-5.9 5.2,-6.199 4.899,-6.399 4.601,-6.7 4.3,-6.8 4,-7 3.6,-7.2 3.4,-7.399 3,-7.5 2.6,-7.601 2.4,-7.8 1.9,-7.8 1.699,-7.9 1.2,-8 0.9,-8 0.6,-8.1 0.2,-8 -0.2,-8.102 -0.6,-8.1 -0.9,-8 -1.2,-8 -1.699,-7.9 -1.9,-7.8 -2.4,-7.8 -2.6,-7.601 -3,-7.5 -3.4,-7.301 -3.6,-7.199 -4,-7.101 -4.3,-6.8 -4.601,-6.601 -4.899,-6.5 -5.2,-6.199 -5.4,-5.9 -5.8,-5.7 -5.9,-5.5 -6.199,-5.199 -6.399,-4.899 -6.7,-4.601 -6.8,-4.301 -7,-4 -7.2,-3.6 -7.399,-3.4 -7.5,-3 -7.601,-2.6 -7.8,-2.4 -7.801,-1.898 -7.899,-1.7 -8,-1.2 -8,-0.899 -8.101,-0.601 -8,-0.1 m 0,-0.002 H 623.302 M 467.201,666 v 388.3 m 156.1,-374.1 V 666 m 0,0 h -48 m 0,14.2 V 666 m -60.1,14.2 V 666 m -48,0 h 48 m -48,388.3 h 48 m 0,-14.1 v 14.1 m 60.1,-14.1 v 14.1 m 48,0 h -48 m 48,-14.1 v 14.1"
   stroke-miterlimit="10"
   inkscape:connector-curvature="0"
   style="fill:none;stroke:#000000;stroke-width:0.28349999;stroke-linecap:round;stroke-linejoin:round;stroke-miterlimit:10" /><circle
   id="circle13"
   r="106.301"
   cy="860.14801"
   cx="647.20099"
   stroke-miterlimit="10"
   sodipodi:cx="647.20099"
   sodipodi:cy="860.14801"
   sodipodi:rx="106.301"
   sodipodi:ry="106.301"
   style="fill:none;stroke:#000000;stroke-width:0.28349999;stroke-linecap:round;stroke-linejoin:round;stroke-miterlimit:10"
   d="m 753.50199,860.14801 c 0,58.70842 -47.59258,106.301 -106.301,106.301 -58.70842,0 -106.301,-47.59258 -106.301,-106.301 0,-58.70842 47.59258,-106.301 106.301,-106.301 58.70842,0 106.301,47.59258 106.301,106.301 z" /><circle
   id="circle15"
   r="5.8109999"
   cy="945.18799"
   cx="562.16199"
   stroke-miterlimit="10"
   sodipodi:cx="562.16199"
   sodipodi:cy="945.18799"
   sodipodi:rx="5.8109999"
   sodipodi:ry="5.8109999"
   style="fill:none;stroke:#000000;stroke-width:0.28349999;stroke-linecap:round;stroke-linejoin:round;stroke-miterlimit:10"
   d="m 567.97299,945.18799 c 0,3.20932 -2.60168,5.811 -5.811,5.811 -3.20933,0 -5.811,-2.60168 -5.811,-5.811 0,-3.20933 2.60167,-5.811 5.811,-5.811 3.20932,0 5.811,2.60167 5.811,5.811 z" /><circle
   id="circle17"
   r="5.8109999"
   cy="945.18799"
   cx="732.24103"
   stroke-miterlimit="10"
   sodipodi:cx="732.24103"
   sodipodi:cy="945.18799"
   sodipodi:rx="5.8109999"
   sodipodi:ry="5.8109999"
   style="fill:none;stroke:#000000;stroke-width:0.28349999;stroke-linecap:round;stroke-linejoin:round;stroke-miterlimit:10"
   d="m 738.05203,945.18799 c 0,3.20932 -2.60168,5.811 -5.811,5.811 -3.20933,0 -5.811,-2.60168 -5.811,-5.811 0,-3.20933 2.60167,-5.811 5.811,-5.811 3.20932,0 5.811,2.60167 5.811,5.811 z" /><circle
   id="circle19"
   r="5.8109999"
   cy="775.10901"
   cx="732.24103"
   stroke-miterlimit="10"
   sodipodi:cx="732.24103"
   sodipodi:cy="775.10901"
   sodipodi:rx="5.8109999"
   sodipodi:ry="5.8109999"
   style="fill:none;stroke:#000000;stroke-width:0.28349999;stroke-linecap:round;stroke-linejoin:round;stroke-miterlimit:10"
   d="m 738.05203,775.10901 c 0,3.20933 -2.60168,5.811 -5.811,5.811 -3.20933,0 -5.811,-2.60167 -5.811,-5.811 0,-3.20933 2.60167,-5.811 5.811,-5.811 3.20932,0 5.811,2.60167 5.811,5.811 z" /><circle
   id="circle21"
   r="5.8109999"
   cy="775.10901"
   cx="562.16199"
   stroke-miterlimit="10"
   sodipodi:cx="562.16199"
   sodipodi:cy="775.10901"
   sodipodi:rx="5.8109999"
   sodipodi:ry="5.8109999"
   style="fill:none;stroke:#000000;stroke-width:0.28349999;stroke-linecap:round;stroke-linejoin:round;stroke-miterlimit:10"
   d="m 567.97299,775.10901 c 0,3.20933 -2.60168,5.811 -5.811,5.811 -3.20933,0 -5.811,-2.60167 -5.811,-5.811 0,-3.20933 2.60167,-5.811 5.811,-5.811 3.20932,0 5.811,2.60167 5.811,5.811 z" /><text
   xml:space="preserve"
   style="font-size:40px;font-style:normal;font-weight:normal;line-height:125%;letter-spacing:0px;word-spacing:0px;fill:#ff0000;fill-opacity:1;stroke:none;font-family:Sans"
   x="107.17735"
   y="394.33383"
   id="text2989"
   sodipodi:linespacing="125%"
   transform="matrix(0,1,-1,0,841.725,650.45)"><tspan
     sodipodi:role="line"
     id="tspan2991"
     x="107.17735"
     y="394.33383" /></text>

</g><g
   inkscape:groupmode="layer"
   id="layer1"
   inkscape:label="Red Circle"
   style="display:inline" />
<g
   inkscape:groupmode="layer"
   id="layer2"
   inkscape:label="Name"><text
   xml:space="preserve"
   style="font-size:40px;font-style:normal;font-weight:normal;line-height:125%;letter-spacing:0px;word-spacing:0px;fill:#000000;fill-opacity:1;stroke:none;font-family:Sans"
   x="623.28986"
   y="358.59451"
   id="text3854"
   sodipodi:linespacing="125%"><tspan
     sodipodi:role="line"
     id="tspan3856"
     x="623.28986"
     y="358.59451"
     style="font-size:10px;font-weight:bold;text-align:center;text-anchor:middle;fill:#ff0000;-inkscape-font-specification:Sans Bold">Christian Henry, COLL 142, Spring 2014</tspan></text>

</g><g
   inkscape:groupmode="layer"
   id="layer4"
   inkscape:label="Hands on"><text
   xml:space="preserve"
   style="font-size:40px;font-style:normal;font-weight:normal;line-height:125%;letter-spacing:0px;word-spacing:0px;fill:#000000;fill-opacity:1;stroke:none;font-family:Sans"
   x="448.34271"
   y="340.13385"
   id="text4067"
   sodipodi:linespacing="125%"><tspan
     sodipodi:role="line"
     id="tspan4069"
     x="448.34271"
     y="340.13385"
     style="font-size:16px;font-weight:bold;fill:#ff0000;-inkscape-font-specification:Sans Bold">Hands-on with the Maker Movement</tspan></text>

</g><g
   inkscape:groupmode="layer"
   id="layer3"
   inkscape:label="Wu Tang"><g
     id="layer1-5"
     inkscape:label="Layer 1"
     transform="matrix(0.41412443,0,0,0.41412443,457.73066,-3.268145)"><path
       style="fill:#ff0000"
       d="m 481.44159,740.45464 c -0.1871,-0.30273 0.1547,-2.6813 0.7595,-5.28571 6.9963,-30.1267 4.815,-64.47223 -6.1982,-97.59245 -14.6785,-44.14334 -41.3055,-89.91877 -63.3634,-108.93017 -7.5214,-6.48256 -14.459,-9.15162 -19.9466,-7.67395 -5.1438,1.38507 -11.1736,7.61626 -15.238,15.74698 -4.8065,9.61508 -6.6932,18.49239 -6.6794,31.42857 0.016,14.8178 2.4107,26.5442 9.5114,46.57143 1.4298,4.03275 7.9155,17.19607 11.4837,23.30708 11.1784,19.14467 28.9564,39.11542 48.3723,54.33855 3.9204,3.07381 4.6534,4.32214 2.8571,4.86562 -1.6459,0.49802 -15.8763,2.87419 -24.4285,4.07908 -29.6375,4.17551 -72.913,5.87025 -103.14288,4.03926 -22.61205,-1.3696 -48.53721,-4.16623 -61.42858,-6.62651 -12.41489,-2.36935 -15.37154,-2.9451 -19.14286,-3.72767 -5.31661,-1.10323 -22.63517,-5.32256 -24.57143,-5.98636 -0.78571,-0.26935 -3.35714,-1.04848 -5.71429,-1.73138 -25.17192,-7.29274 -52.96031,-19.24255 -74.28571,-31.94502 -4.24286,-2.52725 -8.15168,-4.59897 -8.68627,-4.60383 -0.5346,-0.005 -2.46317,-1.29589 -4.28572,-2.86898 -1.82255,-1.57309 -6.91373,-5.52792 -11.31373,-8.78851 -10.619094,-7.86919 -19.419694,-15.58198 -29.168494,-25.56305 -26.72116,-27.35783 -45.30696,-58.41035 -56.18731,-93.87586 -0.90739,-2.95774 -1.05039,-4.13727 -0.57151,-4.71429 0.93309,-1.1243 703.468884,-1.15329 704.401984,-0.0291 0.572,0.68931 -0.4682,4.60536 -4.7365,17.83093 -6.9337,21.48383 -21.0091,49.91566 -35.3614,71.42857 -25.3963,38.06706 -60.6338,70.9614 -104.091,97.1694 -13.7164,8.27203 -40.4817,21.22969 -54.2858,26.28089 -11.3103,4.13872 -18.0327,6.36803 -26.8571,8.90648 -5.3429,1.53694 -11.0226,3.17828 -12.6216,3.64741 -3.384,0.99278 -4.6081,1.06568 -5.0797,0.30255 z m 121.0179,-235.4042 c -5.8033,-2.41592 -8.0551,-5.44917 -5.1737,-6.96913 2.308,-1.21752 7.5353,-5.56783 9.1639,-7.62637 2.9352,-3.71024 5.0744,-18.37442 3.6577,-25.07261 -1.1955,-5.65227 -14.8344,-15.80343 -24.656,-18.35101 -2.6286,-0.68183 -6.6054,-0.88142 -17.4286,-0.87466 -7.7125,0.005 -14.3908,0.24167 -14.8407,0.52635 -0.6903,0.43684 -0.5253,1.52764 1.0573,6.99125 1.0314,3.56051 2.1009,7.05176 2.3767,7.75833 0.7751,1.98591 2.0722,8.06693 2.5136,11.78384 0.7461,6.28348 3.1797,10.11292 9.5339,15.00234 2.6552,2.04316 3.3364,2.89249 3.3364,4.15969 0,2.24511 -1.3389,3.11731 -6.5714,4.28075 -4.8767,1.08433 -8.62,2.41921 -16.1,5.74136 -8.3108,3.69113 -15.0428,2.67413 -15.0428,-2.27253 0,-1.843 1.6172,-4.67886 4.6415,-8.13887 0.9004,-1.03018 2.1733,-2.92387 2.8285,-4.20822 1.0963,-2.14893 1.1423,-2.70599 0.577,-6.98412 -0.3378,-2.5569 -0.5738,-8.37749 -0.5244,-12.93464 0.103,-9.49719 -0.5458,-13.32141 -2.9838,-17.58792 -1.3845,-2.42295 -2.333,-3.31535 -4.8204,-4.53529 -2.1357,-1.04743 -3.3121,-2.03868 -3.7906,-3.19393 -0.8673,-2.09384 -0.2727,-3.18652 2.481,-4.55883 1.9208,-0.95723 3.5165,-0.9845 26.3864,-0.45105 16.6371,0.38806 26.6194,0.87298 31.537,1.53198 l 7.1951,0.9642 6.3792,4.65932 c 3.5086,2.56262 8.3146,5.98837 10.68,7.61278 2.3655,1.62441 5.7084,4.21438 7.4286,5.75549 l 3.1277,2.80203 0,9.35776 c 0,10.93714 0.5061,12.85012 4.9705,18.78632 2.4132,3.2088 2.7705,4.02485 2.6257,5.99631 -0.1607,2.18823 -0.285,2.32089 -3.0247,3.22789 -1.5715,0.52024 -4.9143,1.39657 -7.4286,1.94742 -9.0425,1.98108 -13.1101,3.39783 -15.4286,5.37375 -1.0842,0.92395 -1.3247,0.89827 -4.6834,-0.49998 z m 113.4735,0.26849 c -0.5077,-0.50767 -20.9527,-2.53239 -29.0758,-2.87944 -13.5948,-0.58083 -16.3505,-1.34771 -31.7509,-8.83568 l -10.3222,-5.01891 -2.8206,-4.50421 c -5.2044,-8.31099 -5.7886,-10.94033 -3.7482,-16.87081 2.5481,-7.40619 5.6906,-11.41815 12.5944,-16.07865 9.3847,-6.33538 20.6464,-10.39952 32.6189,-11.77157 6.3683,-0.7298 33.9805,-1.05353 35.8668,-0.4205 0.7124,0.23909 1.809,1.44178 2.4369,2.67264 0.628,1.23087 2.1665,3.82346 3.4191,5.76133 1.2524,1.93786 2.2772,3.88902 2.2772,4.3359 0,0.44688 -0.7516,1.56415 -1.6703,2.48283 -1.4021,1.40206 -2.1306,1.67033 -4.536,1.67033 -3.3329,0 -8.7492,-1.18302 -13.2223,-2.888 -7.3163,-2.78876 -10.55,-3.45905 -18.3062,-3.79451 -4.9407,-0.21369 -9.1724,-0.0877 -11.7143,0.34871 -5.7425,0.98596 -12.6725,4.49972 -16.7571,8.49645 -4.5026,4.40583 -5.9169,7.29962 -6.2441,12.77621 -0.227,3.80142 -0.072,4.7803 1.1976,7.55318 4.3617,9.52725 14.6859,14.6131 32.1099,15.81782 4.4,0.30421 11.0469,0.82626 14.771,1.1601 3.7241,0.33384 6.9154,0.46267 7.0918,0.28629 0.1764,-0.17638 -0.5962,-2.31512 -1.7168,-4.75275 -1.1206,-2.43764 -2.3616,-6.23207 -2.7578,-8.43207 -0.3962,-2.2 -1.0052,-4.31824 -1.3534,-4.7072 -0.3496,-0.39071 -3.3122,-0.9705 -6.6196,-1.29551 -11.5347,-1.1335 -25.5234,-3.72236 -26.9662,-4.99056 -1.5783,-1.38742 -2.9194,-5.55769 -2.5022,-7.78124 0.4855,-2.58817 2.9646,-3.79692 7.7875,-3.79692 4.9052,0 7.3803,0.87027 10.935,3.84484 1.6747,1.40141 3.8164,2.88236 4.7592,3.29099 3.616,1.5672 12.4045,2.57835 22.5293,2.59209 10.2979,0.014 14.1327,0.47551 14.9745,1.80219 0.2637,0.41559 0.6435,1.60785 0.844,2.64949 0.2958,1.53631 0.042,2.34546 -1.3435,4.28571 -4.6563,6.51982 -5.1294,9.85639 -2.489,17.55629 2.6797,7.81448 2.6447,7.23926 0.5192,8.53511 -1.4571,0.88839 -2.887,1.1538 -6.2249,1.15544 -2.3834,10e-4 -4.4493,-0.11376 -4.5909,-0.25541 z m -202.5044,-1.1651 c -6.2459,-1.4906 -11.396,-2.67157 -13.9606,-3.20132 -5.9427,-1.22755 -6.6584,-3.56014 -2.468,-8.04282 l 2.7143,-2.90354 -0.058,-6.64341 c -0.038,-4.37744 -0.3502,-7.42303 -0.9148,-8.92912 l -0.8569,-2.28571 -11.3709,-0.0113 c -6.254,-0.006 -15.9994,-0.22314 -21.6566,-0.48209 -16.6117,-0.76036 -17.0176,-0.47446 -17.3374,12.21135 l -0.1945,7.71794 2.0517,2.98257 c 2.4808,3.60641 2.5996,5.34778 0.4802,7.03615 -1.5052,1.19908 -1.9326,1.23829 -10.1428,0.93051 -10.4525,-0.39183 -17.4286,-2.0759 -17.4286,-4.20731 0,-0.42457 0.6033,-1.73112 1.3408,-2.90344 0.7374,-1.17233 2.4259,-5.34579 3.7523,-9.27436 1.3264,-3.92857 3.0754,-8.3 3.8868,-9.71429 3.6047,-6.2835 14.2706,-21.70606 16.9411,-24.49645 7.3661,-7.69671 15.7664,-13.0114 22.7147,-14.37112 4.5068,-0.88194 8.2044,-0.1496 15.9921,3.16739 3.9928,1.70063 5.5558,2.78514 9.2868,6.4439 7.0333,6.89705 12.0588,13.76842 16.3822,22.39914 2.1254,4.24286 4.8052,9.5229 5.9551,11.73344 1.4526,2.79222 2.1867,5.05995 2.4049,7.42857 0.1728,1.87518 0.9314,5.30296 1.6858,7.61729 1.6665,5.11234 1.7201,6.70828 0.2519,7.49408 -1.9219,1.02852 -5.882,1.15588 -9.4517,0.30397 z m -20.3781,-40.466 c 0.847,-1.02062 -2.5177,-6.60438 -6.3305,-10.50542 -4.8605,-4.97295 -13.6226,-8.50633 -16.8793,-6.8067 -4.4494,2.32208 -14.7337,13.9583 -14.307,16.18772 0.1711,0.89407 1.1327,1.0495 8.1873,1.32343 17.1117,0.66445 28.678,0.58597 29.3295,-0.19903 z m -273.90761,40.35224 c -9.4118,-0.66518 -15.46988,-1.89085 -19.42857,-3.93077 -14.35038,-7.39479 -21.26323,-12.7656 -24.25638,-18.84556 l -1.88276,-3.82443 1.21795,-6.07427 c 0.66987,-3.34085 1.87357,-8.51713 2.6749,-11.50285 1.29048,-4.80832 1.42905,-6.24469 1.21282,-12.57142 -0.23515,-6.88016 -0.19124,-7.22206 1.1939,-9.29615 1.72154,-2.57782 3.25143,-3.05957 6.84368,-2.15503 3.29519,0.82974 3.76312,1.2046 6.13798,4.91709 2.02935,3.17239 3.27154,4.20265 8.5722,7.10973 5.60212,3.07242 8.27292,5.70548 8.28195,8.16493 0.004,1.01283 -4.98526,3.8128 -6.81583,3.82527 -3.8005,0.0259 -10.12184,6.59974 -11.7579,12.22759 -0.77431,2.66351 -0.76996,3.27229 0.0429,6.00947 0.74551,2.51036 1.72573,3.87296 5.57669,7.75197 5.76249,5.80448 10.86213,8.51783 17.71355,9.42483 13.29909,1.76053 23.89062,-0.65274 32.18238,-7.33273 4.4164,-3.55793 6.50172,-7.00344 6.90052,-11.40155 0.48194,-5.31492 -0.67227,-7.07554 -12.89968,-19.677 -10.47216,-10.79251 -13.83332,-14.61696 -14.52391,-16.5258 -0.1905,-0.52656 -0.0926,-1.87656 0.21763,-3 0.6904,-2.50041 0.94791,-2.51714 9.004,-0.58487 21.6905,5.20251 26.67622,6.60221 27.64914,7.76225 1.3538,1.61417 1.2535,3.20866 -0.37063,5.89187 -1.52237,2.51507 -1.47187,2.81634 1.16743,6.96351 6.63561,10.42666 8.33454,17.33331 5.87847,23.89773 -3.36562,8.99541 -11.47043,14.89942 -27.84179,20.28153 -5.79045,1.90362 -7.57476,2.23299 -13.26205,2.44808 -3.61429,0.13668 -7.85715,0.15765 -9.42857,0.0466 z m 141.99631,-0.14036 c -3.0181,-0.91806 -5.1392,-2.35935 -5.1392,-3.49212 0,-0.62674 0.6078,-2.10231 1.3506,-3.27904 3.4177,-5.41387 4.556,-8.43882 5.3148,-14.1235 2.5408,-19.03473 3.271,-34.98208 1.7002,-37.13026 -0.6914,-0.94555 -1.0544,-0.99096 -3.2857,-0.41105 -1.3796,0.35856 -5.337,1.19178 -8.7941,1.8516 -8.1881,1.56275 -13.7882,3.49688 -18.7986,6.49252 -5.8239,3.48196 -7.92116,4.34005 -10.60772,4.34005 -2.07488,0 -2.76832,-0.37065 -5.46505,-2.92111 -3.01386,-2.85038 -5.41438,-6.71813 -5.41438,-8.72371 0,-2.38014 11.24672,-5.83372 24.28575,-7.45752 4.0857,-0.50881 10.1285,-1.34204 13.4285,-1.85161 11.3815,-1.75749 49.7684,-0.33128 62.8572,2.33537 11.5989,2.36309 19.9448,5.42202 22.4935,8.24433 0.8916,0.98725 0.9648,1.46677 0.4495,2.94489 -1.4096,4.04373 -4.7128,6.9731 -8.6947,7.7109 -1.7886,0.33141 -3.1143,-0.17522 -10.8571,-4.14918 -10.9934,-5.64228 -13.8324,-6.47863 -28.5341,-8.40605 -4.6039,-0.60359 -6.1571,-0.63003 -6.6753,-0.11361 -0.7698,0.76716 -0.1845,24.7104 0.6366,26.03886 0.2551,0.41286 0.6704,3.54105 0.9228,6.95154 0.4181,5.65118 0.645,6.53373 2.5586,9.95564 2.4743,4.42452 2.7653,7.10937 0.9768,9.01313 -0.9675,1.0299 -2.5687,1.54603 -7.3985,2.38489 -3.3901,0.5888 -8.2059,1.80368 -10.7018,2.69975 -2.4959,0.89606 -4.6816,1.6071 -4.8571,1.58009 -0.1756,-0.027 -0.9637,-0.24517 -1.7515,-0.4848 z M 48.835876,498.00632 c -3.15456,-3.22213 -6.85704,-7.34665 -8.22773,-9.16561 -1.37069,-1.81896 -4.46467,-4.95242 -6.87552,-6.96324 -5.21793,-4.35213 -7.03329,-6.84657 -8.32839,-11.44385 -0.53122,-1.88571 -2.06455,-5.48571 -3.40741,-8 -2.17525,-4.07282 -2.85014,-6.07755 -4.00231,-11.88869 -0.1748,-0.88164 -1.72364,-3.05442 -3.44187,-4.82839 -2.42673,-2.50546 -3.12405,-3.62307 -3.12405,-5.00695 0,-1.65185 0.22205,-1.85154 3.05022,-2.74304 4.20183,-1.32451 8.07146,-1.2044 13.02762,0.40438 2.31433,0.75124 6.79244,2.05412 9.95135,2.89528 6.41626,1.70854 10.1458,3.53089 10.44907,5.10567 0.12327,0.64006 -0.70111,1.97297 -2.11096,3.41311 -3.51352,3.58903 -4.08159,5.49594 -4.08159,13.70129 0,4.85411 0.27139,7.85856 0.86073,9.52894 0.83603,2.36956 6.64387,9.99134 11.90026,15.61701 l 2.5882,2.77004 1.80121,-1.05575 c 2.68,-1.57085 11.64138,-11.04543 14.21856,-15.03285 4.51136,-6.97994 5.86712,-14.74788 3.42385,-19.6171 -0.66395,-1.32319 -2.16482,-3.69152 -3.33526,-5.26295 -3.00656,-4.0366 -3.45755,-5.04281 -3.45755,-7.71428 0,-2.88051 0.82953,-4.57143 2.24264,-4.57143 0.58276,0 3.46658,0.63971 6.40846,1.42159 2.94189,0.78187 7.66318,1.95491 10.49175,2.60675 11.598674,2.6729 15.142864,3.88353 15.142864,5.17252 0,0.33004 -1.32002,2.49068 -2.93338,4.80142 l -2.933394,4.20135 0.6936,4.75533 c 1.495364,10.25221 2.513374,14.54887 4.221874,17.81906 2.14318,4.10222 9.17425,11.79341 10.78119,11.79341 1.42117,0 9.87156,-7.58133 14.01251,-12.57143 4.30663,-5.18975 6.72809,-10.46576 8.39236,-18.28572 0.76921,-3.61428 1.67392,-7.2953 2.01047,-8.18005 0.90043,-2.3671 0.75206,-3.71113 -0.53094,-4.80968 -1.3686,-1.17183 -1.52865,-4.25713 -0.28534,-5.50044 1.65362,-1.65362 14.51396,-4.54959 23.40865,-5.2713 l 4.81263,-0.39049 1.74632,1.74631 c 0.96047,0.96047 1.74631,2.12787 1.74631,2.5942 0,0.46634 -1.28831,1.92653 -2.86292,3.24486 -2.48363,2.07942 -3.51151,3.69518 -7.75858,12.19607 -9.07629,18.16701 -10.76532,20.31928 -29.22867,37.24534 -9.0925,8.33545 -13.23534,11.12518 -16.52127,11.12518 -1.74431,0 -2.62115,-0.69345 -8.12867,-6.42857 -3.3954,-3.53571 -8.707314,-9.19285 -11.804244,-12.57143 -3.09693,-3.37857 -5.80772,-6.14285 -6.02397,-6.14285 -0.21625,0 -1.12306,0.96428 -2.01512,2.14285 -2.88287,3.80878 -6.62883,7.59239 -15.2204,15.37345 l -8.42099,7.62655 -3.2933,10e-4 -3.29329,0.001 -5.73558,-5.85841 z M 285.77023,482.63407 c -0.34504,-0.98976 -0.62734,-3.03785 -0.62734,-4.55133 0,-3.71263 0.72094,-4.01924 10.85715,-4.61748 13.96139,-0.824 19.4305,-0.73814 21.9922,0.34525 4.38064,1.85266 5.62523,3.97757 4.32806,7.3894 -0.93703,2.46457 -6.22549,3.23371 -22.23431,3.23371 l -13.68844,0 -0.62732,-1.79955 z M 11.616096,423.71934 c 0.15676,-1.96429 0.5729,-5.37143 0.92474,-7.57143 0.35184,-2.2 1.03151,-6.82857 1.51037,-10.28572 1.12928,-8.15276 4.36557,-24.82226 6.52935,-33.63142 3.34968,-13.63722 5.06436,-19.46308 10.28359,-34.94 6.84562,-20.29974 16.80879,-43.11494 28.57201,-65.42858 5.34045,-10.13028 17.23129,-30.16537 18.11636,-30.52455 0.38245,-0.15521 5.65387,0.74715 11.71429,2.00524 6.0604,1.25809 12.304644,2.51525 13.876074,2.79369 1.57142,0.27844 4.14286,0.78594 5.71429,1.12777 1.57142,0.34183 5.42857,1.13227 8.57142,1.75652 3.14286,0.62426 13.42858,2.7032 22.85715,4.61987 9.42857,1.91667 17.78571,3.60177 18.57143,3.74467 0.78571,0.1429 3.1,0.60753 5.14285,1.03253 2.04286,0.42499 5.9,1.20348 8.57143,1.72998 2.67143,0.5265 6.52857,1.29792 8.57143,1.71428 2.04286,0.41636 5.9,1.18637 8.57143,1.71113 2.67143,0.52476 5.88571,1.2004 7.14286,1.50141 1.25714,0.30102 3.57143,0.76051 5.14286,1.0211 1.57142,0.26058 21.62857,4.26424 44.57142,8.897 22.94286,4.63276 47.11375,9.50332 53.71308,10.82345 13.73511,2.74758 14.28482,3.10468 9.23058,5.99643 -8.2457,4.7177 -18.87874,14.90102 -23.99697,22.98202 -4.71452,7.44358 -7.43191,14.17437 -9.65899,23.92461 -1.75886,7.70037 -1.7378,27.57611 0.0387,36.57143 3.40474,17.23942 9.90968,30.63948 20.07042,41.34468 4.96332,5.22928 6.12818,5.6018 12.56664,4.01888 5.21056,-1.28103 9.79956,-3.84336 13.06287,-7.29383 6.78961,-7.179 5.49801,-12.70087 -3.22323,-13.78 -1.77744,-0.21993 -3.58688,-0.69173 -4.02099,-1.04844 -1.68447,-1.38417 -8.122,-12.00033 -7.95523,-13.11903 0.17477,-1.17232 0.96345,-1.62985 21.60166,-12.53156 10.3208,-5.45177 26.0761,-13.39448 31.7143,-15.98819 20.191,-9.28833 23.7891,-10.50587 26.6319,-9.01193 0.7524,0.39543 3.6868,2.45451 6.5208,4.57572 15.2902,11.44471 27.0931,29.42124 32.8132,49.97655 1.1985,4.3066 2.8912,13.51198 2.8912,15.72257 0,2.7422 0.6715,3.18734 3.4333,2.27587 5.3681,-1.77162 11.5603,-8.62274 16.5258,-18.28415 2.5641,-4.9891 6.7177,-16.34704 8.7767,-24 3.4205,-12.71327 2.5337,-27.86713 -2.2684,-38.76301 -5.6315,-12.77769 -16.0694,-24.04048 -29.7752,-32.12803 -2.5946,-1.53103 -4.1027,-2.77537 -4,-3.30032 0.1014,-0.51794 14.9179,-7.18156 38.4507,-17.2929 37.3598,-16.05242 40.9474,-17.60161 46.8571,-20.23392 1.5715,-0.69994 9.9286,-4.29819 18.5715,-7.99611 14.651,-6.26858 18.4357,-7.91167 24.2857,-10.54361 1.2571,-0.56559 7.5571,-3.27982 14,-6.03162 6.4428,-2.7518 13.2571,-5.7071 15.1428,-6.56733 1.8857,-0.86023 9.6,-4.20346 17.1429,-7.42941 12.8259,-5.48541 16.5802,-7.11732 22.2857,-9.68705 1.2571,-0.56621 5.7571,-2.50572 10,-4.31004 4.2429,-1.80431 7.8,-3.50726 7.9047,-3.78432 0.2534,-0.67003 5.0897,-0.6505 5.3334,0.0215 0.1048,0.28891 2.5048,2.04545 5.3333,3.90342 9.5878,6.29775 22.932,18.69498 31.2153,28.99986 20.7132,25.76842 37.6015,62.65629 47.8756,104.57143 3.7423,15.26744 5.3277,23.68694 8.0164,42.57143 1.6606,11.66338 3.1318,34.4856 2.3208,36.00097 -0.61,1.13971 -1.2987,1.14189 -362.6398,1.14189 l -362.028654,0 0.28502,-3.57143 z"
       id="path3052"
       inkscape:connector-curvature="0" /></g></g></svg>