<?xml version="1.0" encoding="UTF-8" standalone="no"?>
<!-- Generator: Adobe Illustrator 16.0.0, SVG Export Plug-In . SVG Version: 6.00 Build 0)  -->

<svg
   xmlns:dc="http://purl.org/dc/elements/1.1/"
   xmlns:cc="http://creativecommons.org/ns#"
   xmlns:rdf="http://www.w3.org/1999/02/22-rdf-syntax-ns#"
   xmlns:svg="http://www.w3.org/2000/svg"
   xmlns="http://www.w3.org/2000/svg"
   xmlns:sodipodi="http://sodipodi.sourceforge.net/DTD/sodipodi-0.dtd"
   xmlns:inkscape="http://www.inkscape.org/namespaces/inkscape"
   version="1.1"
   id="Layer_1"
   x="0px"
   y="0px"
   width="2304px"
   height="1440px"
   viewBox="0 0 2304 1440"
   enable-background="new 0 0 2304 1440"
   xml:space="preserve"
   inkscape:version="0.48.4 r9939"
   sodipodi:docname="gabe_breternitz.svg"><metadata
   id="metadata27"><rdf:RDF><cc:Work
       rdf:about=""><dc:format>image/svg+xml</dc:format><dc:type
         rdf:resource="http://purl.org/dc/dcmitype/StillImage" /><dc:title /></cc:Work></rdf:RDF></metadata><defs
   id="defs25" /><sodipodi:namedview
   pagecolor="#ffffff"
   bordercolor="#666666"
   borderopacity="1"
   objecttolerance="10"
   gridtolerance="10"
   guidetolerance="10"
   inkscape:pageopacity="0"
   inkscape:pageshadow="2"
   inkscape:window-width="1600"
   inkscape:window-height="837"
   id="namedview23"
   showgrid="false"
   inkscape:zoom="1.28"
   inkscape:cx="433.92238"
   inkscape:cy="1215.5765"
   inkscape:window-x="-8"
   inkscape:window-y="-8"
   inkscape:window-maximized="1"
   inkscape:current-layer="Layer_1" />

<path
   stroke-miterlimit="10"
   d="m 792.2505,266.4245 0,60.102 m 0,-132.001 0,23.899 m -360,48 0,60.102 m 360,-132.001 -0.2,-8 -0.6,-8.101 -0.899,-8 -1.2,-8 -1.7,-7.899 -1.901,-7.801 -2.4,-7.8 -2.6,-7.6 -3,-7.5 -3.4,-7.4 -3.6,-7.2 -4,-7 -4.301,-6.8 -4.6,-6.7 -4.9,-6.4 -5.199,-6.2 -5.4,-5.9 -5.8,-5.8 -5.9,-5.4 -6.2,-5.2 -6.398,-4.9 -6.702,-4.6 -6.8,-4.3 -7,-4 -7.2,-3.6 -7.4,-3.4 -7.5,-3 -7.6,-2.6 -7.8,-2.4 -7.8,-1.9 -7.9,-1.7 -8,-1.2 -8,-0.9 -8.1,-0.6 -8,-0.2 -8.102,0.2 -8.1,0.6 -8,0.9 -8,1.2 -7.9,1.7 -7.8,1.9 -7.8,2.4 -7.602,2.6 -7.5,3 -7.3,3.4 -7.2,3.6 -7.1,4 -6.8,4.3 -6.602,4.6 -6.5,4.9 -6.198,5.2 -5.9,5.4 -5.7,5.8 -5.5,5.9 -5.2,6.2 -4.898,6.399 -4.602,6.7 -4.3,6.8 -4,7 -3.6,7.2 -3.4,7.4 -3,7.5 -2.6,7.6 -2.4,7.8 -1.898,7.801 -1.7,7.899 -1.2,8 -0.899,8 -0.601,8.101 -0.1,8 m 0.002,0.001 0,23.899 m -14.2,156.101 388.3,0 m -374.1,-156.101 -14.2,0 m 0,0 0,48 m 14.2,0 -14.2,0 m 14.2,60.101 -14.2,0 m 0,48 0,-48 m 388.3,48 0,-48 m -14.1,0 14.1,0 m -14.1,-60.101 14.1,0 m 0,-48 0,48 m -14.1,-48 14.1,0"
   id="path5"
   inkscape:connector-curvature="0"
   style="fill:none;stroke:#000000;stroke-width:0.28349999;stroke-linecap:round;stroke-linejoin:round;stroke-miterlimit:10" />







<g
   id="g3004"
   transform="matrix(0,-1,1,0,-650.45,841.725)"><path
     id="path11"
     d="M 575.301,1040.2 H 515.2 m 132.001,0 h -23.899 m -48.001,-360 H 515.2 m 132.001,360 8,-0.2 8.101,-0.601 8,-0.899 8,-1.2 7.899,-1.7 7.801,-1.898 7.8,-2.4 7.601,-2.6 7.5,-3 7.399,-3.4 7.2,-3.6 7,-4 6.8,-4.301 6.7,-4.601 6.399,-4.899 6.199,-5.199 5.9,-5.4 5.8,-5.8 5.4,-5.9 5.2,-6.199 4.899,-6.399 4.601,-6.7 4.3,-6.8 4,-7 3.6,-7.2 3.4,-7.399 3,-7.5 2.6,-7.601 2.4,-7.8 1.9,-7.8 1.699,-7.9 1.2,-8 0.9,-8 0.6,-8.1 0.2,-8 -0.2,-8.102 -0.6,-8.1 -0.9,-8 -1.2,-8 -1.699,-7.9 -1.9,-7.8 -2.4,-7.8 -2.6,-7.601 -3,-7.5 -3.4,-7.301 -3.6,-7.199 -4,-7.101 -4.3,-6.8 -4.601,-6.601 -4.899,-6.5 -5.2,-6.199 -5.4,-5.9 -5.8,-5.7 -5.9,-5.5 -6.199,-5.199 -6.399,-4.899 -6.7,-4.601 -6.8,-4.301 -7,-4 -7.2,-3.6 -7.399,-3.4 -7.5,-3 -7.601,-2.6 -7.8,-2.4 -7.801,-1.898 -7.899,-1.7 -8,-1.2 -8,-0.899 -8.101,-0.601 -8,-0.1 m 0,-0.002 H 623.302 M 467.201,666 v 388.3 m 156.1,-374.1 V 666 m 0,0 h -48 m 0,14.2 V 666 m -60.1,14.2 V 666 m -48,0 h 48 m -48,388.3 h 48 m 0,-14.1 v 14.1 m 60.1,-14.1 v 14.1 m 48,0 h -48 m 48,-14.1 v 14.1"
     stroke-miterlimit="10"
     inkscape:connector-curvature="0"
     style="fill:none;stroke:#000000;stroke-width:0.28349999;stroke-linecap:round;stroke-linejoin:round;stroke-miterlimit:10" /><circle
     id="circle13"
     r="106.301"
     cy="860.14801"
     cx="647.20099"
     stroke-miterlimit="10"
     sodipodi:cx="647.20099"
     sodipodi:cy="860.14801"
     sodipodi:rx="106.301"
     sodipodi:ry="106.301"
     style="fill:none;stroke:#000000;stroke-width:0.28349999;stroke-linecap:round;stroke-linejoin:round;stroke-miterlimit:10"
     d="m 753.50199,860.14801 c 0,58.70842 -47.59258,106.301 -106.301,106.301 -58.70842,0 -106.301,-47.59258 -106.301,-106.301 0,-58.70842 47.59258,-106.301 106.301,-106.301 58.70842,0 106.301,47.59258 106.301,106.301 z" /><circle
     id="circle15"
     r="5.8109999"
     cy="945.18799"
     cx="562.16199"
     stroke-miterlimit="10"
     sodipodi:cx="562.16199"
     sodipodi:cy="945.18799"
     sodipodi:rx="5.8109999"
     sodipodi:ry="5.8109999"
     style="fill:none;stroke:#000000;stroke-width:0.28349999;stroke-linecap:round;stroke-linejoin:round;stroke-miterlimit:10"
     d="m 567.97299,945.18799 c 0,3.20932 -2.60168,5.811 -5.811,5.811 -3.20933,0 -5.811,-2.60168 -5.811,-5.811 0,-3.20933 2.60167,-5.811 5.811,-5.811 3.20932,0 5.811,2.60167 5.811,5.811 z" /><circle
     id="circle17"
     r="5.8109999"
     cy="945.18799"
     cx="732.24103"
     stroke-miterlimit="10"
     sodipodi:cx="732.24103"
     sodipodi:cy="945.18799"
     sodipodi:rx="5.8109999"
     sodipodi:ry="5.8109999"
     style="fill:none;stroke:#000000;stroke-width:0.28349999;stroke-linecap:round;stroke-linejoin:round;stroke-miterlimit:10"
     d="m 738.05203,945.18799 c 0,3.20932 -2.60168,5.811 -5.811,5.811 -3.20933,0 -5.811,-2.60168 -5.811,-5.811 0,-3.20933 2.60167,-5.811 5.811,-5.811 3.20932,0 5.811,2.60167 5.811,5.811 z" /><circle
     id="circle19"
     r="5.8109999"
     cy="775.10901"
     cx="732.24103"
     stroke-miterlimit="10"
     sodipodi:cx="732.24103"
     sodipodi:cy="775.10901"
     sodipodi:rx="5.8109999"
     sodipodi:ry="5.8109999"
     style="fill:none;stroke:#000000;stroke-width:0.28349999;stroke-linecap:round;stroke-linejoin:round;stroke-miterlimit:10"
     d="m 738.05203,775.10901 c 0,3.20933 -2.60168,5.811 -5.811,5.811 -3.20933,0 -5.811,-2.60167 -5.811,-5.811 0,-3.20933 2.60167,-5.811 5.811,-5.811 3.20932,0 5.811,2.60167 5.811,5.811 z" /><circle
     id="circle21"
     r="5.8109999"
     cy="775.10901"
     cx="562.16199"
     stroke-miterlimit="10"
     sodipodi:cx="562.16199"
     sodipodi:cy="775.10901"
     sodipodi:rx="5.8109999"
     sodipodi:ry="5.8109999"
     style="fill:none;stroke:#000000;stroke-width:0.28349999;stroke-linecap:round;stroke-linejoin:round;stroke-miterlimit:10"
     d="m 567.97299,775.10901 c 0,3.20933 -2.60168,5.811 -5.811,5.811 -3.20933,0 -5.811,-2.60167 -5.811,-5.811 0,-3.20933 2.60167,-5.811 5.811,-5.811 3.20932,0 5.811,2.60167 5.811,5.811 z" /></g>
<path
   sodipodi:type="star"
   style="fill:#ff0000"
   id="path4087"
   sodipodi:sides="3"
   sodipodi:cx="596.09375"
   sodipodi:cy="186.09375"
   sodipodi:r1="175.02789"
   sodipodi:r2="29.754745"
   sodipodi:arg1="-0.017855245"
   sodipodi:arg2="1.0293423"
   inkscape:flatsided="false"
   inkscape:rounded="1"
   inkscape:randomized="0"
   d="M 771.09374,182.96875 C 773.9899,345.15324 750.43664,127.99199 611.42883,211.59238 472.42101,295.19277 653.20405,417.7948 511.30008,339.21069 369.39611,260.62658 569.2399,348.80949 566.34375,186.625 563.4476,24.440506 366.87961,119.7022 505.88742,36.10181 644.89524,-47.498579 468.60471,81.479761 610.50868,160.06387 752.41264,238.64797 768.19759,20.784256 771.09374,182.96875 z"
   inkscape:transform-center-x="-15.525484"
   inkscape:transform-center-y="0.52582384"
   transform="matrix(0.8785127,0,0,0.87472998,83.549175,35.496646)" /><rect
   style="fill:#ff0000"
   id="rect4097"
   width="25.782227"
   height="3.7095191"
   x="677.80908"
   y="331.77933" /><rect
   style="fill:#ff0000"
   id="rect4097-9"
   width="25.6497"
   height="3.7095191"
   x="677.94147"
   y="351.73654" /><rect
   style="fill:#ff0000"
   id="rect4097-4"
   width="14.842951"
   height="3.7095191"
   x="688.74817"
   y="342.28964" /><rect
   style="fill:#ff0000"
   id="rect4097-4-8"
   width="11.746811"
   height="3.1806324"
   x="-354.74686"
   y="700.42676"
   transform="matrix(0,-1,1,0,0,0)" /><rect
   style="fill:#ff0000"
   id="rect4097-8"
   width="17.300541"
   height="3.7095191"
   x="706.4046"
   y="337.15195" /><rect
   style="fill:#ff0000"
   id="rect4097-8-2"
   width="19.3547"
   height="3.7095191"
   x="706.40436"
   y="349.90344" /><rect
   style="fill:#ff0000"
   id="rect4097-8-5"
   width="26.531303"
   height="8.6573086"
   x="1714.297"
   y="2196.5671"
   transform="matrix(0,-1,0.32912274,0.94428715,0,0)" /><rect
   style="fill:#ff0000"
   id="rect4097-4-5"
   width="19.474976"
   height="3.1806324"
   x="-356.62692"
   y="706.30811"
   transform="matrix(0,-1,1,0,0,0)" /><rect
   style="fill:#ff0000"
   id="rect4097-8-1"
   width="17.366804"
   height="3.7095191"
   x="-747.92157"
   y="-353.96771"
   transform="scale(-1,-1)" /><rect
   style="fill:#ff0000"
   id="rect4097-8-2-7"
   width="19.3547"
   height="3.7095191"
   x="-747.92175"
   y="-341.21625"
   transform="scale(-1,-1)" /><rect
   style="fill:#ff0000"
   id="rect4097-8-5-1"
   width="27.417473"
   height="8.9156017"
   x="-1838.0935"
   y="-2288.5293"
   transform="matrix(0,1,-0.31958775,-0.94755668,0,0)" /><rect
   style="fill:#ff0000"
   id="rect4097-4-5-1"
   width="19.320412"
   height="3.1806324"
   x="334.64731"
   y="-748.01801"
   transform="matrix(0,1,-1,0,0,0)" /><rect
   style="fill:#ff0000"
   id="rect4097-5"
   width="25.782227"
   height="3.7095191"
   x="-776.92249"
   y="-355.44598"
   transform="scale(-1,-1)" /><rect
   style="fill:#ff0000"
   id="rect4097-9-2"
   width="25.6497"
   height="3.7095191"
   x="-776.7901"
   y="-335.48877"
   transform="scale(-1,-1)" /><rect
   style="fill:#ff0000"
   id="rect4097-4-7"
   width="14.842951"
   height="3.7095191"
   x="-765.9834"
   y="-344.93567"
   transform="scale(-1,-1)" /><rect
   style="fill:#ff0000"
   id="rect4097-4-8-6"
   width="11.746811"
   height="3.1806324"
   x="332.47845"
   y="-754.30481"
   transform="matrix(0,1,-1,0,0,0)" /><rect
   style="fill:#ff0000"
   id="rect3039"
   width="349.21875"
   height="7.03125"
   x="35.5"
   y="348.59375" /><rect
   style="fill:#ff0000"
   id="rect3039-1"
   width="350"
   height="7.03125"
   x="35.109375"
   y="361.48438" /><rect
   style="fill:#ff0000"
   id="rect3039-7"
   width="350"
   height="7.03125"
   x="35.109375"
   y="334.92188" /><rect
   style="fill:#ff0000"
   id="rect3039-4"
   width="37.5"
   height="7.03125"
   x="35.203125"
   y="316.95312" /><rect
   style="fill:#ff0000"
   id="rect3039-4-0"
   width="37.5"
   height="7.03125"
   x="34.8125"
   y="305.23438" /><rect
   style="fill:#ff0000"
   id="rect3039-4-2"
   width="37.5"
   height="7.03125"
   x="347.07031"
   y="318.125" /><rect
   style="fill:#ff0000"
   id="rect3039-4-0-4"
   width="37.5"
   height="7.03125"
   x="346.67969"
   y="306.40625" /><rect
   style="fill:#ff0000"
   id="rect3039-4-7"
   width="37.5"
   height="7.03125"
   x="190.82031"
   y="35.3125" /><rect
   style="fill:#ff0000"
   id="rect3039-4-0-6"
   width="37.5"
   height="7.03125"
   x="190.42969"
   y="23.59375" /><rect
   style="fill:#ff0000"
   id="rect3197"
   width="37.5"
   height="28.90625"
   x="34.8125"
   y="272.03125" /><rect
   style="fill:#ff0000"
   id="rect3197-2"
   width="38.28125"
   height="28.90625"
   x="346.09375"
   y="273.20312" /><rect
   style="fill:#ff0000"
   id="rect3197-1"
   width="37.5"
   height="28.90625"
   x="190.625"
   y="48.203125" /></svg>