<?xml version="1.0" encoding="UTF-8" standalone="no"?>
<!-- Generator: Adobe Illustrator 16.0.0, SVG Export Plug-In . SVG Version: 6.00 Build 0)  -->

<svg
   xmlns:dc="http://purl.org/dc/elements/1.1/"
   xmlns:cc="http://creativecommons.org/ns#"
   xmlns:rdf="http://www.w3.org/1999/02/22-rdf-syntax-ns#"
   xmlns:svg="http://www.w3.org/2000/svg"
   xmlns="http://www.w3.org/2000/svg"
   xmlns:sodipodi="http://sodipodi.sourceforge.net/DTD/sodipodi-0.dtd"
   xmlns:inkscape="http://www.inkscape.org/namespaces/inkscape"
   version="1.1"
   id="Layer_1"
   x="0px"
   y="0px"
   width="2304px"
   height="1440px"
   viewBox="0 0 2304 1440"
   enable-background="new 0 0 2304 1440"
   xml:space="preserve"
   inkscape:version="0.48.2 r9819"
   sodipodi:docname="musicbox_front_back.svg"><metadata
   id="metadata27"><rdf:RDF><cc:Work
       rdf:about=""><dc:format>image/svg+xml</dc:format><dc:type
         rdf:resource="http://purl.org/dc/dcmitype/StillImage" /><dc:title></dc:title></cc:Work></rdf:RDF></metadata><defs
   id="defs25"><inkscape:path-effect
     effect="spiro"
     id="path-effect9603"
     is_visible="true" /><inkscape:path-effect
     effect="spiro"
     id="path-effect9599"
     is_visible="true" /><inkscape:path-effect
     effect="spiro"
     id="path-effect9595"
     is_visible="true" /><inkscape:path-effect
     effect="spiro"
     id="path-effect9591"
     is_visible="true" /><inkscape:path-effect
     effect="spiro"
     id="path-effect9587"
     is_visible="true" /><inkscape:path-effect
     effect="spiro"
     id="path-effect9583"
     is_visible="true" /><inkscape:path-effect
     effect="spiro"
     id="path-effect9516"
     is_visible="true" /><inkscape:path-effect
     effect="spiro"
     id="path-effect9512"
     is_visible="true" /><inkscape:path-effect
     effect="spiro"
     id="path-effect9508"
     is_visible="true" /><inkscape:path-effect
     effect="spiro"
     id="path-effect9504"
     is_visible="true" /><inkscape:path-effect
     effect="spiro"
     id="path-effect9500"
     is_visible="true" /><inkscape:path-effect
     effect="spiro"
     id="path-effect9496"
     is_visible="true" /><inkscape:path-effect
     effect="spiro"
     id="path-effect9492"
     is_visible="true" /><inkscape:path-effect
     effect="spiro"
     id="path-effect9488"
     is_visible="true" /><inkscape:path-effect
     effect="spiro"
     id="path-effect9484"
     is_visible="true" /><inkscape:path-effect
     effect="spiro"
     id="path-effect9468"
     is_visible="true" /><inkscape:path-effect
     effect="spiro"
     id="path-effect9464"
     is_visible="true" /><inkscape:path-effect
     effect="spiro"
     id="path-effect9456"
     is_visible="true" /><inkscape:path-effect
     effect="spiro"
     id="path-effect9452"
     is_visible="true" /><inkscape:path-effect
     effect="spiro"
     id="path-effect9448"
     is_visible="true" /></defs><sodipodi:namedview
   pagecolor="#ffffff"
   bordercolor="#666666"
   borderopacity="1"
   objecttolerance="10"
   gridtolerance="10"
   guidetolerance="10"
   inkscape:pageopacity="0"
   inkscape:pageshadow="2"
   inkscape:window-width="1440"
   inkscape:window-height="790"
   id="namedview23"
   showgrid="false"
   inkscape:zoom="1.2072043"
   inkscape:cx="410.95025"
   inkscape:cy="1245.475"
   inkscape:window-x="0"
   inkscape:window-y="0"
   inkscape:window-maximized="0"
   inkscape:current-layer="Layer_1" />

<path
   stroke-miterlimit="10"
   d="m 792.2505,266.4245 0,60.102 m 0,-132.001 0,23.899 m -360,48 0,60.102 m 360,-132.001 -0.2,-8 -0.6,-8.101 -0.899,-8 -1.2,-8 -1.7,-7.899 -1.901,-7.801 -2.4,-7.8 -2.6,-7.6 -3,-7.5 -3.4,-7.4 -3.6,-7.2 -4,-7 -4.301,-6.8 -4.6,-6.7 -4.9,-6.4 -5.199,-6.2 -5.4,-5.9 -5.8,-5.8 -5.9,-5.4 -6.2,-5.2 -6.398,-4.9 -6.702,-4.6 -6.8,-4.3 -7,-4 -7.2,-3.6 -7.4,-3.4 -7.5,-3 -7.6,-2.6 -7.8,-2.4 -7.8,-1.9 -7.9,-1.7 -8,-1.2 -8,-0.9 -8.1,-0.6 -8,-0.2 -8.102,0.2 -8.1,0.6 -8,0.9 -8,1.2 -7.9,1.7 -7.8,1.9 -7.8,2.4 -7.602,2.6 -7.5,3 -7.3,3.4 -7.2,3.6 -7.1,4 -6.8,4.3 -6.602,4.6 -6.5,4.9 -6.198,5.2 -5.9,5.4 -5.7,5.8 -5.5,5.9 -5.2,6.2 -4.898,6.399 -4.602,6.7 -4.3,6.8 -4,7 -3.6,7.2 -3.4,7.4 -3,7.5 -2.6,7.6 -2.4,7.8 -1.898,7.801 -1.7,7.899 -1.2,8 -0.899,8 -0.601,8.101 -0.1,8 m 0.002,0.001 0,23.899 m -14.2,156.101 388.3,0 m -374.1,-156.101 -14.2,0 m 0,0 0,48 m 14.2,0 -14.2,0 m 14.2,60.101 -14.2,0 m 0,48 0,-48 m 388.3,48 0,-48 m -14.1,0 14.1,0 m -14.1,-60.101 14.1,0 m 0,-48 0,48 m -14.1,-48 14.1,0"
   id="path5"
   inkscape:connector-curvature="0"
   style="fill:none;stroke:#000000;stroke-width:0.28349999;stroke-linecap:round;stroke-linejoin:round;stroke-miterlimit:10" />







<g
   id="g3004"
   transform="matrix(0,-1,1,0,-650.45,841.725)"><path
     id="path11"
     d="M 575.301,1040.2 H 515.2 m 132.001,0 h -23.899 m -48.001,-360 H 515.2 m 132.001,360 8,-0.2 8.101,-0.601 8,-0.899 8,-1.2 7.899,-1.7 7.801,-1.898 7.8,-2.4 7.601,-2.6 7.5,-3 7.399,-3.4 7.2,-3.6 7,-4 6.8,-4.301 6.7,-4.601 6.399,-4.899 6.199,-5.199 5.9,-5.4 5.8,-5.8 5.4,-5.9 5.2,-6.199 4.899,-6.399 4.601,-6.7 4.3,-6.8 4,-7 3.6,-7.2 3.4,-7.399 3,-7.5 2.6,-7.601 2.4,-7.8 1.9,-7.8 1.699,-7.9 1.2,-8 0.9,-8 0.6,-8.1 0.2,-8 -0.2,-8.102 -0.6,-8.1 -0.9,-8 -1.2,-8 -1.699,-7.9 -1.9,-7.8 -2.4,-7.8 -2.6,-7.601 -3,-7.5 -3.4,-7.301 -3.6,-7.199 -4,-7.101 -4.3,-6.8 -4.601,-6.601 -4.899,-6.5 -5.2,-6.199 -5.4,-5.9 -5.8,-5.7 -5.9,-5.5 -6.199,-5.199 -6.399,-4.899 -6.7,-4.601 -6.8,-4.301 -7,-4 -7.2,-3.6 -7.399,-3.4 -7.5,-3 -7.601,-2.6 -7.8,-2.4 -7.801,-1.898 -7.899,-1.7 -8,-1.2 -8,-0.899 -8.101,-0.601 -8,-0.1 m 0,-0.002 H 623.302 M 467.201,666 v 388.3 m 156.1,-374.1 V 666 m 0,0 h -48 m 0,14.2 V 666 m -60.1,14.2 V 666 m -48,0 h 48 m -48,388.3 h 48 m 0,-14.1 v 14.1 m 60.1,-14.1 v 14.1 m 48,0 h -48 m 48,-14.1 v 14.1"
     stroke-miterlimit="10"
     inkscape:connector-curvature="0"
     style="fill:none;stroke:#000000;stroke-width:0.28349999;stroke-linecap:round;stroke-linejoin:round;stroke-miterlimit:10" /><circle
     id="circle13"
     r="106.301"
     cy="860.14801"
     cx="647.20099"
     stroke-miterlimit="10"
     sodipodi:cx="647.20099"
     sodipodi:cy="860.14801"
     sodipodi:rx="106.301"
     sodipodi:ry="106.301"
     style="fill:none;stroke:#000000;stroke-width:0.28349999;stroke-linecap:round;stroke-linejoin:round;stroke-miterlimit:10"
     d="m 753.50199,860.14801 c 0,58.70842 -47.59258,106.301 -106.301,106.301 -58.70842,0 -106.301,-47.59258 -106.301,-106.301 0,-58.70842 47.59258,-106.301 106.301,-106.301 58.70842,0 106.301,47.59258 106.301,106.301 z" /><circle
     id="circle15"
     r="5.8109999"
     cy="945.18799"
     cx="562.16199"
     stroke-miterlimit="10"
     sodipodi:cx="562.16199"
     sodipodi:cy="945.18799"
     sodipodi:rx="5.8109999"
     sodipodi:ry="5.8109999"
     style="fill:none;stroke:#000000;stroke-width:0.28349999;stroke-linecap:round;stroke-linejoin:round;stroke-miterlimit:10"
     d="m 567.97299,945.18799 c 0,3.20932 -2.60168,5.811 -5.811,5.811 -3.20933,0 -5.811,-2.60168 -5.811,-5.811 0,-3.20933 2.60167,-5.811 5.811,-5.811 3.20932,0 5.811,2.60167 5.811,5.811 z" /><circle
     id="circle17"
     r="5.8109999"
     cy="945.18799"
     cx="732.24103"
     stroke-miterlimit="10"
     sodipodi:cx="732.24103"
     sodipodi:cy="945.18799"
     sodipodi:rx="5.8109999"
     sodipodi:ry="5.8109999"
     style="fill:none;stroke:#000000;stroke-width:0.28349999;stroke-linecap:round;stroke-linejoin:round;stroke-miterlimit:10"
     d="m 738.05203,945.18799 c 0,3.20932 -2.60168,5.811 -5.811,5.811 -3.20933,0 -5.811,-2.60168 -5.811,-5.811 0,-3.20933 2.60167,-5.811 5.811,-5.811 3.20932,0 5.811,2.60167 5.811,5.811 z" /><circle
     id="circle19"
     r="5.8109999"
     cy="775.10901"
     cx="732.24103"
     stroke-miterlimit="10"
     sodipodi:cx="732.24103"
     sodipodi:cy="775.10901"
     sodipodi:rx="5.8109999"
     sodipodi:ry="5.8109999"
     style="fill:none;stroke:#000000;stroke-width:0.28349999;stroke-linecap:round;stroke-linejoin:round;stroke-miterlimit:10"
     d="m 738.05203,775.10901 c 0,3.20933 -2.60168,5.811 -5.811,5.811 -3.20933,0 -5.811,-2.60167 -5.811,-5.811 0,-3.20933 2.60167,-5.811 5.811,-5.811 3.20932,0 5.811,2.60167 5.811,5.811 z" /><circle
     id="circle21"
     r="5.8109999"
     cy="775.10901"
     cx="562.16199"
     stroke-miterlimit="10"
     sodipodi:cx="562.16199"
     sodipodi:cy="775.10901"
     sodipodi:rx="5.8109999"
     sodipodi:ry="5.8109999"
     style="fill:none;stroke:#000000;stroke-width:0.28349999;stroke-linecap:round;stroke-linejoin:round;stroke-miterlimit:10"
     d="m 567.97299,775.10901 c 0,3.20933 -2.60168,5.811 -5.811,5.811 -3.20933,0 -5.811,-2.60167 -5.811,-5.811 0,-3.20933 2.60167,-5.811 5.811,-5.811 3.20932,0 5.811,2.60167 5.811,5.811 z" /></g>
<text
   xml:space="preserve"
   style="font-size:40px;font-style:normal;font-weight:normal;line-height:125%;letter-spacing:0px;word-spacing:0px;fill:#000000;fill-opacity:1;stroke:none;font-family:Sans"
   x="427.68039"
   y="369.85428"
   id="text3047"
   sodipodi:linespacing="125%"><tspan
     sodipodi:role="line"
     id="tspan3049"
     x="427.68039"
     y="369.85428"
     style="font-size:9px;font-style:normal;font-variant:normal;font-weight:normal;font-stretch:normal;text-align:start;line-height:125%;writing-mode:lr-tb;text-anchor:start;fill:#ff0000;font-family:Copperplate;-inkscape-font-specification:Copperplate">Laura Blumenschein</tspan></text>
<g
   id="g8796"
   transform="matrix(0.00717605,0,0,-0.00717605,603.308,365.42209)"
   style="fill:#ff0000;stroke:none"><path
     id="path8798"
     d="m 11560,35170 c -136,-18 -322,-97 -480,-203 -171,-115 -538,-399 -547,-425 -4,-9 1,-36 11,-61 17,-46 24,-141 91,-1251 30,-516 35,-586 41,-672 7,-88 7,-88 -17,-88 -13,0 -330,-14 -704,-30 -374,-16 -837,-37 -1030,-45 -192,-8 -498,-22 -680,-30 -390,-18 -875,-39 -1360,-60 -192,-8 -656,-28 -1030,-45 -374,-16 -945,-41 -1270,-55 -324,-14 -604,-28 -622,-30 -65,-11 -63,4 -63,-561 l 0,-511 -61,-7 c -34,-3 -142,-6 -239,-6 -97,0 -239,-3 -316,-7 -126,-6 -140,-8 -161,-29 l -23,-23 0,-469 0,-469 -122,-6 c -68,-4 -215,-9 -328,-13 -144,-4 -211,-10 -226,-19 -12,-8 -26,-31 -31,-53 -10,-37 -1,-3021 52,-18922 8,-2571 15,-4903 15,-5182 l 0,-508 -122,-61 c -68,-34 -186,-96 -263,-138 -77,-41 -205,-109 -285,-151 -101,-52 -149,-83 -157,-100 -17,-34 -18,-837 -2,-874 17,-36 46,-44 234,-61 269,-25 757,-71 1170,-110 209,-20 544,-51 745,-70 201,-19 509,-48 685,-65 176,-16 488,-46 693,-65 204,-19 540,-51 745,-70 406,-38 796,-75 1382,-130 209,-20 544,-51 745,-70 201,-19 507,-48 680,-64 487,-46 1044,-99 1385,-131 171,-16 481,-45 690,-65 209,-20 547,-51 750,-70 204,-19 512,-48 685,-65 173,-16 482,-45 685,-64 204,-19 541,-51 750,-71 209,-20 520,-49 690,-65 171,-16 481,-45 690,-65 209,-20 544,-51 745,-70 201,-19 511,-48 690,-65 912,-87 934,-89 957,-74 11,7 68,66 125,131 56,65 108,123 114,128 6,6 73,82 150,169 76,87 180,205 229,261 204,231 439,498 555,630 67,77 151,172 185,210 99,112 373,422 600,680 116,132 264,300 330,375 66,74 219,247 340,385 121,137 285,323 365,413 332,376 325,367 316,432 -3,19 -13,168 -22,330 -11,194 -21,304 -29,321 -13,25 -123,88 -457,264 l -128,67 0,9974 0,9974 45,0 c 56,0 100,21 109,52 3,13 6,378 6,811 0,683 -2,792 -15,817 -16,31 -28,37 -285,155 -69,32 -186,86 -260,120 -74,34 -160,74 -190,87 l -56,25 -18,339 c -20,372 -20,374 -84,401 -20,8 -73,31 -117,50 -91,40 -179,79 -343,149 -82,36 -114,54 -117,69 -2,11 -11,191 -20,400 -9,209 -21,391 -26,405 -7,19 -36,39 -107,74 -53,26 -171,87 -262,136 -91,48 -394,207 -675,353 -280,145 -591,307 -690,359 -99,52 -331,173 -515,268 -184,95 -398,207 -475,249 l -140,76 -90,-3 c -49,-1 -196,-6 -325,-12 -325,-14 -1489,-65 -2179,-95 -315,-14 -576,-24 -578,-21 -5,5 46,1840 52,1871 3,11 21,29 42,40 47,25 64,65 42,103 -18,34 -108,102 -324,246 -403,269 -703,379 -945,346 z m 216,-121 c 98,-17 325,-102 344,-128 12,-17 75,-55 118,-70 49,-18 288,-169 280,-176 -3,-3 -81,4 -176,15 -477,54 -1032,48 -1397,-15 -43,-8 -81,-13 -82,-11 -6,5 192,148 224,162 42,18 109,64 106,72 -5,14 205,117 282,139 89,24 207,29 301,12 z m 264,-449 c 160,-10 412,-39 535,-61 l 60,-10 -3,-102 c -2,-56 -6,-104 -8,-106 -2,-2 -14,3 -27,12 -37,24 -151,55 -262,72 -163,25 -544,39 -773,29 l -202,-9 0,87 c 0,74 3,87 18,91 34,9 501,7 662,-3 z m -796,-47 c 3,-21 6,-59 6,-85 0,-56 11,-51 -165,-68 -136,-13 -316,-43 -358,-59 -16,-6 -32,-11 -36,-11 -5,0 -11,28 -13,63 -3,34 -8,69 -12,78 -6,14 12,21 111,47 127,33 328,67 424,71 35,1 37,-1 43,-36 z m 579,-415 c 4,-133 6,-243 4,-244 -1,0 -104,-4 -229,-7 l -228,-6 0,177 c 0,97 -3,207 -6,244 l -7,67 84,4 c 46,1 150,4 230,5 l 146,2 6,-242 z m 348,226 c 13,-4 17,-31 22,-171 4,-91 7,-197 7,-235 l 0,-68 -154,0 -153,0 -7,53 c -3,28 -6,139 -6,246 l 0,193 138,-7 c 75,-3 144,-9 153,-11 z m -917,-245 c 4,-133 6,-243 4,-245 -5,-5 -268,-27 -272,-23 -4,4 -25,472 -22,476 2,2 229,29 267,32 14,1 17,-28 23,-240 z m 1141,214 c 97,-18 181,-49 206,-74 17,-17 19,-35 19,-156 0,-76 -3,-167 -6,-203 l -6,-66 -83,17 c -45,9 -122,20 -172,24 l -90,7 -7,96 c -3,54 -6,161 -6,239 l 0,143 33,-6 c 17,-3 68,-12 112,-21 z m -1479,-245 c 5,-128 8,-237 9,-243 0,-5 -20,-13 -45,-16 -25,-4 -71,-14 -103,-22 -69,-18 -62,-41 -76,223 -14,245 -15,227 12,242 19,10 152,45 183,47 9,1 14,-68 20,-231 z m 918,-474 c 4,-124 6,-227 4,-229 -2,-1 -105,-5 -230,-8 l -228,-6 0,225 c 0,123 1,225 3,225 1,1 83,5 182,8 99,4 198,8 221,9 l 41,2 7,-226 z m 362,212 c 1,0 4,-101 8,-223 l 7,-223 -154,0 -154,0 -6,68 c -4,37 -7,139 -7,228 l 0,160 153,-4 c 83,-2 153,-5 153,-6 z m 244,-21 c 52,-8 112,-19 133,-25 l 39,-11 -7,-207 c -4,-114 -8,-208 -9,-209 -1,-1 -51,3 -111,8 -233,21 -212,17 -219,51 -3,17 -6,115 -6,219 l 0,189 43,0 c 23,0 85,-7 137,-15 z m -1177,-147 c 4,-83 7,-184 7,-223 l 0,-72 -131,-12 c -72,-7 -132,-11 -134,-9 -1,1 -6,103 -10,224 l -7,222 93,9 c 52,6 112,11 135,12 l 41,1 6,-152 z m -320,-204 4,-121 -99,-25 c -117,-28 -104,-44 -113,142 -3,69 -8,160 -12,202 l -6,77 57,16 c 32,9 79,20 104,24 l 47,6 7,-100 c 3,-55 8,-155 11,-221 z m 900,-296 c 4,-95 7,-205 7,-244 l 0,-71 -222,-6 c -122,-3 -225,-4 -228,-1 -3,3 -6,111 -8,240 -3,189 -1,234 10,235 7,1 99,5 203,8 105,4 199,8 211,9 20,2 21,-3 27,-170 z m 363,158 c 1,0 4,-110 7,-244 l 5,-243 -148,3 c -82,2 -151,6 -155,9 -3,4 -9,115 -12,249 l -6,242 154,-7 c 85,-4 155,-8 155,-9 z m 222,-6 c 56,-5 117,-12 135,-15 l 33,-6 -3,-102 c -2,-56 -6,-170 -9,-253 l -6,-151 -36,8 c -21,5 -89,15 -152,22 l -115,12 -3,248 -2,247 27,0 c 16,-1 74,-5 131,-10 z m -1153,-162 c 3,-84 5,-191 3,-238 l -3,-85 -119,-8 c -65,-4 -121,-5 -124,-3 -6,7 -26,455 -20,461 5,6 150,22 209,24 l 47,1 7,-152 z m -321,15 c 3,-60 8,-164 12,-234 l 6,-125 -93,-17 c -51,-9 -95,-14 -98,-11 -11,10 -29,429 -20,440 10,12 102,39 180,53 4,0 9,-47 13,-106 z m 1364,-403 c 74,-6 162,-17 195,-24 l 62,-12 -1,-82 c -1,-45 -3,-84 -5,-86 -2,-2 -240,-13 -529,-25 -289,-12 -551,-24 -582,-27 l -58,-6 0,135 0,136 28,5 c 47,8 751,-3 890,-14 z m -1034,-51 c 3,-34 6,-94 6,-134 l 0,-72 -67,-6 c -38,-4 -150,-9 -250,-13 l -183,-7 0,65 c 0,36 -3,86 -6,111 -6,44 -5,47 22,57 49,19 256,46 450,59 19,1 22,-6 28,-60 z m 4492,-641 c -4,-282 -11,-515 -16,-518 -7,-4 -4791,-187 -9940,-380 -861,-32 -1618,-62 -1682,-65 l -118,-6 0,484 0,483 288,12 c 260,11 1102,48 1982,87 184,8 495,22 690,30 195,8 454,20 575,25 121,6 427,19 680,30 253,11 768,33 1145,50 377,16 791,35 920,40 129,6 384,17 565,25 182,8 438,19 570,25 132,6 391,17 575,25 184,8 542,24 795,35 1592,69 2101,92 2697,119 95,4 197,9 227,9 l 54,2 -7,-512 z m 559,250 c 99,-52 340,-178 535,-278 195,-101 445,-231 555,-290 110,-59 328,-173 485,-253 507,-260 705,-365 712,-379 5,-11 40,-710 35,-714 -1,-1 -56,23 -122,53 -66,30 -160,73 -210,95 -49,22 -139,63 -200,90 -126,58 -268,122 -405,183 -52,23 -141,63 -197,89 -57,25 -149,67 -205,92 -57,25 -146,66 -198,90 -107,49 -817,366 -953,426 -88,38 -89,38 -183,32 l -94,-7 0,502 0,502 133,-69 c 72,-37 213,-111 312,-164 z m -322,-1180 c 4,-166 7,-361 7,-435 l 0,-133 -26,0 c -14,0 -321,-11 -682,-25 -692,-26 -1999,-75 -3337,-125 -440,-17 -1218,-46 -1730,-65 -959,-36 -2132,-80 -3750,-140 -511,-19 -1236,-47 -1610,-61 -707,-26 -1659,-61 -1661,-60 -1,1 -4,198 -8,439 l -7,437 153,1 c 356,2 128,-7 9423,348 1700,65 3120,119 3156,120 l 66,1 6,-302 z m 265,211 c 150,-67 277,-124 435,-195 56,-26 140,-63 187,-84 80,-36 171,-77 425,-192 61,-28 148,-67 195,-88 47,-21 137,-61 200,-90 63,-29 153,-69 200,-90 144,-63 540,-241 870,-390 173,-79 356,-160 405,-182 50,-22 95,-45 101,-51 10,-11 34,-344 34,-476 0,-62 10,-62 -130,-1 -152,67 -490,215 -787,346 -183,80 -651,293 -836,380 -86,41 -181,81 -211,88 -30,8 -87,29 -127,46 -145,63 -225,98 -329,145 -188,85 -179,83 -400,74 -107,-4 -234,-8 -282,-8 l -86,-1 -6,83 c -9,133 -12,747 -3,747 5,0 70,-28 145,-61 z m 383,-871 c 1,-4 73,-11825 125,-20246 20,-3346 35,-6084 33,-6086 -2,-2 -96,5 -209,15 -446,41 -769,69 -857,75 l -93,7 0,12047 0,12047 83,6 c 45,4 128,7 185,7 96,0 105,2 127,24 l 25,25 -5,213 c -7,281 -25,1408 -25,1569 0,148 -8,168 -75,173 -22,1 -186,-3 -365,-10 -179,-7 -444,-18 -590,-24 -146,-5 -497,-19 -780,-30 -283,-11 -686,-27 -895,-35 -209,-8 -558,-22 -775,-30 -217,-9 -561,-22 -765,-30 -203,-8 -543,-22 -755,-30 -212,-8 -560,-22 -775,-30 -214,-8 -563,-22 -775,-30 -212,-8 -497,-20 -635,-25 -137,-6 -943,-37 -1790,-70 -847,-33 -1652,-64 -1790,-70 -137,-5 -425,-17 -640,-25 -214,-8 -561,-22 -770,-30 -209,-8 -508,-20 -665,-25 -283,-11 -333,-18 -349,-49 -5,-9 -1,-252 9,-561 10,-300 24,-702 30,-895 6,-192 16,-362 21,-376 18,-45 36,-47 313,-37 142,5 261,6 264,4 3,-3 13,-4604 23,-10223 10,-5620 20,-10713 21,-11318 l 3,-1100 -250,22 c -631,56 -709,64 -713,68 -3,2 -13,2481 -23,5507 -10,3027 -27,8435 -39,12018 -21,6266 -22,7022 -9,7034 5,5 237,13 1279,46 179,5 735,25 1235,45 501,19 1338,50 1860,70 523,19 1366,51 1875,70 509,19 1287,48 1730,65 879,33 2136,80 3615,135 523,20 1276,49 1675,64 716,28 879,33 881,29 z m 259,-93 c 52,-23 102,-45 110,-48 9,-3 4,-6 -12,-6 -39,-1 -74,-20 -86,-45 -6,-14 -7,-84 -1,-196 12,-257 36,-765 59,-1265 11,-242 22,-455 25,-473 3,-18 16,-39 28,-47 21,-13 266,-114 412,-170 33,-12 134,-53 225,-90 91,-37 210,-85 265,-106 55,-21 161,-63 235,-94 74,-31 169,-69 210,-85 41,-15 262,-103 490,-195 228,-92 466,-187 528,-210 62,-24 130,-55 150,-69 l 37,-25 193,17 192,18 0,-9963 0,-9963 -172,-182 c -94,-101 -249,-264 -343,-363 -94,-99 -245,-259 -335,-355 -90,-96 -211,-225 -269,-285 -58,-61 -173,-182 -256,-270 -279,-297 -499,-529 -600,-635 -56,-58 -180,-188 -275,-290 -96,-102 -222,-236 -282,-298 l -108,-113 0,189 0,189 143,134 c 78,74 266,251 417,394 151,143 352,332 445,419 94,88 211,198 260,246 124,119 603,569 700,659 44,40 85,83 92,95 9,16 11,265 7,1086 -5,1086 -12,3390 -39,13390 -9,3105 -18,5664 -21,5688 -3,24 -13,51 -23,61 -9,9 -67,34 -127,54 -60,20 -248,83 -419,141 -1226,415 -1536,519 -1579,531 -47,13 -49,13 -73,-12 l -26,-25 8,-364 c 4,-237 3,-369 -3,-377 -6,-7 -7,-33 -2,-67 5,-30 13,-1101 19,-2380 6,-1279 16,-3139 21,-4135 5,-995 12,-2285 15,-2865 3,-580 12,-2351 21,-3935 8,-1584 14,-2947 13,-3030 -1,-82 5,-1347 14,-2810 9,-1463 17,-2829 16,-3035 l 0,-375 -138,-145 -139,-145 -5,225 c -4,124 -22,3002 -42,6395 -20,3394 -54,9077 -75,12630 -22,3553 -40,6590 -40,6748 l 0,288 23,-7 c 12,-3 65,-26 117,-49 z m -986,-217 c 3,-40 8,-280 11,-533 3,-253 8,-620 12,-816 l 6,-356 -249,-7 c -137,-3 -805,-24 -1484,-46 -1431,-46 -3265,-106 -4805,-155 -594,-19 -1640,-53 -2325,-75 -2896,-93 -3744,-120 -3905,-122 l -170,-3 -11,355 c -19,571 -34,1004 -40,1171 l -7,156 199,6 c 110,4 366,14 569,22 204,8 546,21 760,30 215,8 676,26 1025,40 349,14 984,38 1410,55 1250,48 1531,59 1795,70 138,6 423,17 635,25 539,21 1051,41 1795,70 352,14 811,32 1020,40 1047,41 1263,49 2318,90 224,9 602,25 840,34 238,10 469,19 514,20 l 81,1 6,-72 z m 1376,-817 0,-859 -90,-22 c -50,-12 -92,-21 -94,-19 -4,4 -16,244 -56,1124 -11,237 -22,476 -26,533 l -6,102 136,0 136,0 0,-859 z m 172,790 c 40,-19 102,-46 308,-136 106,-47 341,-152 480,-215 387,-176 556,-254 565,-260 6,-5 55,-28 110,-53 253,-113 392,-179 415,-195 14,-10 77,-41 140,-69 63,-29 176,-79 250,-113 74,-34 192,-87 262,-118 l 128,-57 0,-737 c 0,-406 -4,-738 -8,-738 -5,0 -98,35 -208,79 -183,72 -280,110 -499,194 -44,16 -163,63 -265,103 -102,40 -223,87 -270,104 -47,17 -141,53 -210,80 -295,116 -567,222 -590,230 -14,5 -99,38 -190,73 -91,35 -234,91 -317,123 l -153,59 0,833 c 0,457 2,832 5,832 2,0 24,-9 47,-19 z m -7,-1794 c 50,-19 178,-69 285,-111 107,-41 290,-112 405,-158 116,-45 215,-83 220,-84 6,-1 96,-36 200,-77 105,-41 278,-109 385,-151 107,-41 287,-111 400,-155 113,-44 268,-99 345,-122 77,-22 165,-48 195,-58 43,-12 55,-20 55,-36 0,-19 -7,-20 -160,-20 l -160,1 -425,173 c -234,95 -452,183 -485,196 -33,12 -134,53 -225,90 -91,37 -214,87 -275,110 -60,23 -285,113 -500,200 -214,87 -416,167 -447,178 -32,12 -58,24 -58,28 0,7 130,38 145,34 6,-1 51,-19 100,-38 z m -1935,-12047 0,-12040 -28,0 c -16,0 -75,4 -133,10 -57,5 -212,19 -344,30 -132,12 -364,32 -515,45 -320,28 -772,68 -1085,95 -313,27 -765,67 -1085,95 -151,13 -383,34 -515,45 -132,11 -364,32 -515,45 -320,28 -772,68 -1085,95 -313,27 -765,67 -1085,95 -151,13 -383,34 -515,45 -132,11 -364,32 -515,45 -320,28 -772,68 -1085,95 -313,27 -765,67 -1085,95 -151,13 -383,34 -515,45 -132,11 -364,32 -515,45 -151,13 -387,33 -525,45 -285,23 -674,58 -723,66 -26,4 -31,8 -23,22 5,10 3,2992 -4,7177 -8,3938 -17,9026 -21,11307 l -7,4146 44,6 c 24,3 211,10 414,16 341,10 907,28 3935,125 597,19 1645,53 2330,75 3158,102 4758,154 5163,169 l 37,1 0,-12040 z m 2111,11285 377,-128 6,-1461 c 3,-803 11,-5657 17,-10786 10,-9154 11,-9325 30,-9352 l 19,-27 -332,-313 c -183,-172 -356,-335 -385,-362 l -53,-49 0,445 0,444 280,253 c 153,139 291,266 305,282 l 25,31 0,2222 0,2223 -21,27 c -11,14 -31,26 -43,26 -12,0 -71,-33 -129,-72 -59,-40 -180,-122 -268,-183 -89,-60 -166,-111 -170,-113 -5,-2 -9,205 -9,466 l 0,469 53,22 c 28,12 117,58 197,103 80,44 194,108 254,141 85,48 111,68 121,92 17,41 -11,4257 -29,4295 -8,17 -21,26 -41,28 -18,2 -140,-34 -300,-87 -148,-49 -271,-89 -272,-87 -1,1 -5,191 -9,422 -7,409 -7,421 12,426 10,3 71,25 134,47 63,23 161,58 218,77 141,48 164,59 187,84 20,22 20,45 23,2149 2,1603 -1,2133 -9,2154 -7,16 -22,32 -34,37 -13,5 -141,14 -286,21 -145,6 -265,12 -265,13 -1,0 -4,205 -6,454 l -4,452 264,0 263,0 25,25 24,24 -2,2176 -3,2176 -24,18 c -13,10 -92,37 -175,61 -83,24 -167,50 -186,58 -19,9 -39,15 -43,14 -5,-2 -44,7 -88,19 l -79,21 0,333 0,334 28,-9 c 15,-5 196,-66 403,-135 z m 960,-326 c 244,-83 482,-163 529,-178 l 85,-27 7,-650 c 4,-357 20,-4879 34,-10049 l 27,-9399 -64,-60 c -35,-33 -185,-175 -334,-315 -148,-140 -342,-323 -430,-406 -88,-82 -188,-177 -222,-209 -35,-33 -63,-57 -64,-55 -2,11 -28,17962 -28,19597 -1,1046 3,1902 7,1902 5,0 209,-68 453,-151 z m -1315,-335 54,-15 0,-1065 0,-1064 -47,0 c -27,0 -53,4 -59,8 -16,10 -28,2152 -13,2152 6,0 35,-7 65,-16 z m 254,-73 c 36,-11 84,-25 108,-31 l 42,-11 0,-1036 0,-1036 -87,7 c -49,4 -104,11 -123,15 l -35,7 -3,1058 c -2,1004 -1,1057 15,1052 10,-3 47,-14 83,-25 z m -212,-2177 c 9,-3 12,-220 12,-1044 l 0,-1040 -55,0 -55,0 0,743 c 0,408 -3,880 -7,1050 l -6,307 49,-6 c 27,-3 55,-7 62,-10 z m 290,-30 72,-7 0,-1023 0,-1024 -125,0 -125,0 0,1036 0,1037 53,-6 c 28,-4 85,-10 125,-13 z m -55,-3210 157,-7 -2,-2085 -3,-2085 -100,-34 c -55,-19 -155,-55 -222,-79 -68,-24 -124,-44 -126,-44 -2,0 -7,537 -11,1193 -3,655 -9,1635 -12,2176 l -7,984 84,-6 c 46,-4 155,-10 242,-13 z m 237,-7482 c 7,-1071 8,-1917 4,-1922 -9,-8 -139,-81 -387,-217 -65,-36 -120,-63 -123,-60 -7,7 -28,4247 -20,4254 4,4 118,44 254,89 l 247,83 7,-157 c 3,-86 12,-1018 18,-2070 z m -33,-7397 c -24,-22 -134,-122 -244,-222 l -200,-182 -7,482 c -3,265 -9,1256 -12,2202 l -6,1720 89,58 c 48,32 162,109 253,171 l 165,113 3,-2151 3,-2151 -44,-40 z m 2358,650 c 55,-30 175,-94 267,-142 109,-57 164,-91 160,-99 -4,-6 -124,-135 -267,-285 -143,-151 -298,-314 -344,-364 -47,-49 -137,-144 -201,-210 -63,-66 -190,-199 -280,-295 -90,-96 -252,-267 -359,-380 -108,-113 -236,-248 -285,-300 -50,-52 -133,-140 -186,-195 -52,-55 -169,-179 -259,-275 -91,-96 -217,-229 -281,-295 -64,-66 -224,-235 -356,-375 -131,-140 -275,-292 -319,-339 l -81,-84 -29,41 c -17,23 -49,69 -73,104 -24,35 -86,124 -138,198 -51,74 -94,139 -94,144 0,5 36,45 79,90 43,44 91,96 106,114 15,18 32,31 38,29 12,-4 67,55 67,71 0,6 8,17 18,24 11,7 21,18 23,24 4,12 460,496 984,1044 50,52 160,169 246,260 137,146 575,611 759,805 225,239 446,472 515,545 45,47 105,111 135,143 29,31 54,57 54,57 1,0 47,-25 101,-55 z m 475,-648 11,-218 -32,-37 c -18,-20 -62,-71 -99,-112 -76,-84 -388,-438 -640,-725 -92,-104 -258,-293 -370,-420 -112,-126 -251,-284 -309,-351 -58,-66 -189,-214 -291,-329 -102,-115 -241,-272 -309,-349 -68,-78 -201,-228 -295,-335 -94,-107 -209,-238 -256,-292 -134,-153 -427,-485 -442,-500 -7,-8 -46,-51 -86,-97 -66,-75 -72,-80 -72,-55 0,15 -9,179 -20,362 l -20,335 23,25 c 24,28 89,98 362,386 99,104 218,230 264,280 47,49 137,144 201,210 63,66 189,199 280,295 90,96 207,220 260,275 52,55 174,183 270,285 96,102 220,232 275,290 55,58 137,143 181,190 44,47 125,132 179,190 55,58 151,159 215,225 93,97 471,497 655,693 38,41 40,42 46,20 4,-13 12,-121 19,-241 z M 2802,5255 c 150,-13 381,-34 513,-45 132,-11 364,-32 515,-45 320,-28 772,-68 1085,-95 313,-27 765,-67 1085,-95 151,-13 383,-33 515,-45 132,-11 366,-32 520,-45 417,-37 810,-72 1080,-95 132,-11 364,-32 515,-45 151,-13 383,-34 515,-45 132,-11 364,-32 515,-45 320,-28 772,-68 1085,-95 313,-27 765,-67 1085,-95 151,-13 383,-34 515,-45 132,-11 364,-32 515,-45 320,-28 772,-68 1085,-95 313,-27 765,-67 1085,-95 151,-13 383,-34 515,-45 132,-11 364,-32 515,-45 151,-13 383,-34 515,-45 132,-12 254,-26 270,-33 17,-6 35,-12 42,-12 19,0 310,-418 295,-423 -5,-1 -409,33 -898,78 -2390,216 -2832,256 -3659,330 -862,78 -1729,156 -3705,334 -520,47 -1370,124 -1890,171 -520,47 -1368,123 -1885,170 -1226,111 -2784,251 -3005,270 -96,8 -195,18 -219,21 l -44,6 304,158 c 167,87 314,159 326,159 13,1 145,-10 295,-24 z m -772,-425 c 129,-11 656,-58 1170,-105 514,-46 1365,-123 1890,-170 525,-47 1374,-124 1885,-170 1294,-117 2652,-240 3765,-340 520,-47 1368,-123 1885,-170 517,-47 1365,-123 1885,-170 2166,-195 2745,-248 2751,-254 7,-7 50,-773 44,-780 -3,-2 -109,6 -237,18 -374,35 -938,88 -1283,121 -176,16 -489,46 -695,65 -206,19 -544,51 -750,71 -206,19 -514,48 -685,64 -170,16 -481,45 -690,65 -209,20 -544,51 -745,70 -201,19 -509,48 -685,65 -176,16 -486,46 -690,65 -414,38 -972,91 -1445,136 -173,16 -481,45 -685,64 -400,38 -785,74 -1380,130 -209,20 -544,51 -745,70 -201,19 -509,48 -685,65 -176,16 -488,46 -692,65 -205,19 -541,51 -745,70 -205,19 -517,49 -693,65 -495,47 -1018,96 -1380,130 -181,16 -394,37 -472,45 -78,8 -152,15 -163,15 -20,0 -20,5 -20,365 l 0,365 28,-5 c 15,-3 133,-14 262,-25 z"
     inkscape:connector-curvature="0"
     style="fill:#ff0000" /><path
     id="path8800"
     d="m 15610,30113 c -30,-1 -190,-7 -355,-13 -550,-19 -3092,-110 -3657,-130 -771,-28 -1603,-57 -2108,-75 -234,-9 -672,-24 -975,-35 -302,-11 -803,-29 -1112,-40 -310,-11 -814,-29 -1120,-40 -1183,-42 -1704,-61 -2413,-85 -404,-14 -745,-28 -757,-31 -51,-10 -52,-24 -37,-349 7,-165 20,-462 29,-660 8,-198 18,-375 21,-392 9,-60 27,-62 314,-52 140,4 485,15 765,24 281,8 722,22 980,30 259,8 767,24 1130,35 363,11 797,24 965,30 168,5 526,17 795,25 270,8 783,24 1140,35 358,11 868,27 1135,35 267,8 627,19 800,25 173,6 605,19 960,30 1761,54 2299,71 2570,80 162,5 468,14 680,20 212,6 394,15 406,20 12,4 32,28 46,52 l 25,43 -28,640 c -15,352 -29,664 -32,694 -5,64 -30,92 -81,89 -17,-1 -56,-3 -86,-5 z m 83,-754 c 16,-353 25,-644 22,-648 -7,-7 -2,-7 -665,-26 -283,-9 -729,-22 -990,-30 -261,-8 -983,-31 -1605,-50 -621,-19 -1274,-39 -1450,-45 -176,-6 -612,-19 -970,-30 -357,-11 -792,-24 -965,-30 -332,-11 -678,-21 -2255,-70 -533,-16 -1109,-34 -1280,-40 -170,-5 -609,-19 -975,-30 -366,-11 -793,-25 -950,-30 -157,-6 -306,-10 -331,-10 l -46,0 -7,173 c -3,94 -15,372 -27,616 -11,244 -19,444 -17,445 2,1 611,24 1353,50 743,26 1589,56 1880,66 292,11 726,26 965,35 239,8 557,20 705,25 149,6 648,24 1110,40 462,16 1093,39 1403,50 309,11 815,29 1125,40 309,11 812,29 1117,40 875,31 1648,59 2125,75 242,9 460,17 485,18 25,2 83,4 130,5 l 86,2 27,-641 z"
     inkscape:connector-curvature="0"
     style="fill:#ff0000" /><path
     id="path8802"
     d="m 13798,29651 c -46,-6 -50,-9 -138,-116 -50,-60 -99,-119 -108,-130 -9,-11 -16,-23 -14,-27 13,-44 -166,145 -218,228 -13,21 -22,24 -82,24 -38,0 -68,-3 -68,-6 0,-3 33,-44 73,-92 39,-48 77,-93 84,-102 6,-8 37,-45 68,-83 56,-67 56,-67 38,-91 -10,-13 -63,-79 -118,-146 -55,-67 -107,-132 -115,-145 -8,-13 -30,-42 -49,-65 l -34,-41 63,3 c 71,3 45,-20 243,220 l 96,118 58,-72 c 76,-95 81,-101 148,-181 l 58,-69 56,7 c 31,4 58,9 60,11 2,2 -32,46 -75,99 -44,52 -89,109 -100,125 -12,16 -44,56 -71,87 -27,32 -53,64 -57,71 -5,8 24,51 81,120 49,59 102,125 118,147 17,22 38,49 48,60 10,11 23,28 28,38 11,19 12,19 -73,8 z"
     inkscape:connector-curvature="0"
     style="fill:#ff0000" /><path
     id="path8804"
     d="m 12607,29605 c -98,-32 -184,-104 -231,-195 -31,-60 -56,-149 -56,-199 0,-54 33,-157 70,-214 38,-60 119,-123 182,-142 65,-19 180,-19 241,-1 61,18 150,77 178,119 13,17 26,34 30,37 13,10 40,71 55,127 17,63 21,151 9,198 -27,105 -107,205 -201,251 -71,35 -199,43 -277,19 z m 221,-116 c 54,-32 101,-79 125,-124 29,-55 31,-203 3,-255 -36,-68 -68,-99 -133,-132 -55,-27 -77,-33 -132,-33 -56,0 -73,5 -116,31 -27,17 -64,49 -82,73 -95,124 -61,335 67,413 19,12 37,25 40,29 3,3 23,11 45,17 57,16 139,7 183,-19 z"
     inkscape:connector-curvature="0"
     style="fill:#ff0000" /><path
     id="path8806"
     d="m 11759,29568 c 0,-7 0,-179 0,-383 l 0,-370 73,1 c 132,2 264,20 304,41 21,11 52,36 68,57 29,36 31,43 31,126 0,88 0,89 -35,126 -19,20 -53,44 -75,54 -22,10 -33,19 -24,19 19,1 40,24 68,74 44,79 18,182 -61,238 -31,22 -44,24 -190,27 -126,3 -158,1 -159,-10 z m 293,-116 c 31,-31 33,-122 3,-151 -22,-21 -112,-48 -160,-47 l -30,1 -3,99 c -1,55 -1,105 2,112 4,10 27,13 86,11 68,-2 83,-6 102,-25 z m 38,-321 c 37,-26 53,-65 45,-110 -10,-62 -41,-83 -137,-92 -46,-4 -96,-8 -111,-8 l -28,-1 2,113 1,112 67,5 c 87,7 131,2 161,-19 z"
     inkscape:connector-curvature="0"
     style="fill:#ff0000" /><path
     id="path8808"
     d="m 10730,29531 c -130,-40 -197,-165 -134,-248 59,-77 214,-108 347,-69 53,15 57,19 57,46 0,17 -2,30 -5,30 -3,0 -26,-10 -52,-22 -35,-17 -66,-22 -124,-23 -71,0 -80,2 -115,31 -55,44 -67,80 -44,131 25,56 80,82 180,83 41,1 91,-3 110,-9 20,-6 38,-7 43,-2 16,16 3,45 -23,52 -34,9 -209,9 -240,0 z"
     inkscape:connector-curvature="0"
     style="fill:#ff0000" /><path
     id="path8810"
     d="m 10428,29525 c -3,-3 -4,-81 -1,-173 l 3,-167 33,0 32,0 3,173 2,172 -33,0 c -19,0 -36,-2 -39,-5 z"
     inkscape:connector-curvature="0"
     style="fill:#ff0000" /><path
     id="path8812"
     d="m 10098,29513 c -16,-4 -18,-21 -18,-175 l 0,-171 142,7 c 78,3 143,7 144,9 1,1 4,11 6,22 3,19 -2,20 -109,17 l -113,-3 0,151 c 0,162 2,157 -52,143 z"
     inkscape:connector-curvature="0"
     style="fill:#ff0000" /><path
     id="path8814"
     d="m 9760,29503 -75,-4 0,-169 0,-170 100,0 c 156,1 218,32 213,104 -3,37 -7,43 -44,61 l -41,20 29,23 c 40,33 38,73 -4,105 -38,28 -74,34 -178,30 z m 144,-203 c 20,-7 26,-17 26,-39 0,-24 -6,-31 -31,-40 -18,-6 -56,-11 -85,-11 l -54,0 0,50 0,50 59,0 c 33,0 71,-4 85,-10 z"
     inkscape:connector-curvature="0"
     style="fill:#ff0000" /><path
     id="path8816"
     d="m 9548,29492 -28,-3 1,-115 c 1,-137 -8,-156 -75,-173 -25,-6 -57,-11 -71,-11 -31,0 -96,26 -107,43 -4,7 -8,65 -8,130 l 0,118 -36,-3 -36,-3 1,-130 c 2,-118 4,-132 24,-153 32,-34 118,-56 194,-48 81,8 110,20 151,59 l 32,31 0,127 c 0,70 -3,129 -7,131 -5,2 -20,2 -35,0 z"
     inkscape:connector-curvature="0"
     style="fill:#ff0000" /><path
     id="path8818"
     d="m 8837,29466 c -16,-12 -17,-30 -15,-177 l 3,-164 35,0 35,0 3,73 3,72 70,0 c 60,0 75,4 104,26 19,14 39,41 45,60 10,29 9,38 -10,63 -23,33 -28,35 -114,50 -80,15 -137,13 -159,-3 z"
     inkscape:connector-curvature="0"
     style="fill:#ff0000" /><path
     id="path8820"
     d="m 7840,29420 c -74,-4 -143,-8 -152,-9 -17,-1 -18,-26 -18,-368 l 0,-368 132,2 c 73,2 170,6 216,9 l 82,6 0,45 0,46 -159,-5 -160,-5 -3,105 c -2,57 -1,108 2,112 3,5 72,12 153,16 l 147,7 0,46 0,46 -152,0 -153,0 3,105 c 2,58 4,106 5,106 2,1 273,14 300,14 4,0 7,21 5,48 l -3,47 -55,1 c -30,1 -116,-2 -190,-6 z"
     inkscape:connector-curvature="0"
     style="fill:#ff0000" /><path
     id="path8822"
     d="m 7261,29399 c -76,-13 -132,-40 -185,-89 -90,-83 -132,-194 -124,-328 6,-100 35,-165 101,-229 95,-93 195,-125 316,-103 79,14 187,63 195,87 8,26 4,103 -5,103 -4,0 -29,-13 -56,-30 -50,-30 -146,-60 -196,-60 -82,0 -178,54 -212,120 -41,79 -57,177 -36,218 5,9 15,32 22,50 20,55 97,140 132,146 6,1 18,5 26,10 8,5 51,9 96,9 72,0 92,-4 150,-31 37,-18 69,-32 72,-32 2,0 3,28 1,62 l -3,62 -58,18 c -75,23 -167,29 -236,17 z"
     inkscape:connector-curvature="0"
     style="fill:#ff0000" /><path
     id="path8824"
     d="m 6740,29010 0,-370 50,0 50,0 0,370 -1,370 -49,0 -50,0 0,-370 z"
     inkscape:connector-curvature="0"
     style="fill:#ff0000" /><path
     id="path8826"
     d="m 6238,29353 c -2,-5 -5,-171 -7,-370 l -3,-361 194,4 c 106,3 203,7 216,10 19,4 22,11 22,54 l 0,50 -160,-7 -160,-6 0,316 0,317 -49,0 c -28,0 -51,-3 -53,-7 z"
     inkscape:connector-curvature="0"
     style="fill:#ff0000" /><path
     id="path8828"
     d="m 5675,29338 c -78,-29 -174,-109 -208,-173 -47,-89 -52,-109 -52,-211 0,-94 2,-105 32,-165 41,-81 94,-132 179,-170 59,-27 75,-30 138,-26 86,5 109,10 114,25 2,7 8,10 13,7 13,-9 81,30 116,67 159,166 162,425 7,567 -77,71 -113,85 -219,88 -49,1 -103,-3 -120,-9 z m 199,-113 c 47,-20 95,-69 119,-122 33,-71 30,-190 -5,-258 -47,-91 -113,-136 -213,-145 -38,-4 -72,-4 -75,-1 -3,3 -21,15 -40,25 -65,36 -116,100 -135,171 -10,36 -14,155 -6,155 3,0 15,19 26,42 20,43 101,130 126,136 90,23 144,22 203,-3 z"
     inkscape:connector-curvature="0"
     style="fill:#ff0000" /><path
     id="path8830"
     d="m 4920,29078 c 0,-128 -1,-293 -3,-366 l -2,-132 45,0 45,0 -2,154 -1,153 93,6 c 75,5 102,12 142,33 48,27 75,53 67,65 -2,4 3,9 10,12 47,18 46,227 -1,227 -8,0 -12,4 -9,9 6,9 -28,43 -61,60 -13,7 -80,11 -172,11 l -151,0 0,-232 z m 296,109 c 19,-22 24,-39 24,-81 0,-81 -16,-96 -123,-108 -48,-6 -93,-8 -100,-5 -10,4 -14,33 -15,108 0,57 2,107 5,112 3,5 46,7 95,5 84,-3 91,-5 114,-31 z"
     inkscape:connector-curvature="0"
     style="fill:#ff0000" /><path
     id="path8832"
     d="m 10395,29098 c -3,-8 -4,-87 -3,-177 l 3,-163 125,1 c 154,2 170,6 170,37 0,24 -1,24 -110,24 l -109,0 -3,143 -3,142 -33,3 c -20,2 -34,-2 -37,-10 z"
     inkscape:connector-curvature="0"
     style="fill:#ff0000" /><path
     id="path8834"
     d="m 10046,29082 c -3,-5 -3,-82 -1,-171 l 4,-163 128,1 c 150,2 173,6 173,32 0,23 2,22 -128,19 l -103,-2 1,63 c 1,35 1,101 1,147 l -1,82 -34,0 c -19,0 -37,-4 -40,-8 z"
     inkscape:connector-curvature="0"
     style="fill:#ff0000" /><path
     id="path8836"
     d="m 9726,29012 c -22,-37 -46,-78 -55,-92 -8,-14 -14,-28 -13,-32 1,-5 -2,-8 -6,-8 -5,0 -17,-17 -28,-37 -10,-21 -29,-52 -41,-69 -30,-40 -29,-44 10,-44 28,1 36,7 62,53 l 30,52 97,3 98,3 27,-45 c 25,-41 32,-45 66,-46 21,0 36,3 34,8 -17,31 -109,181 -149,245 -65,100 -79,101 -132,9 z"
     inkscape:connector-curvature="0"
     style="fill:#ff0000" /><path
     id="path8838"
     d="m 9295,29057 c -115,-33 -186,-118 -171,-202 6,-32 59,-90 105,-115 42,-22 127,-31 198,-20 101,15 123,27 123,61 0,34 -5,35 -50,13 -36,-18 -153,-30 -194,-20 -14,3 -41,20 -61,37 -29,26 -35,38 -35,71 0,118 118,161 320,116 10,-2 16,6 18,23 3,24 -2,28 -42,38 -56,14 -158,13 -211,-2 z"
     inkscape:connector-curvature="0"
     style="fill:#ff0000" /><path
     id="path8840"
     d="m 17532,29918 c -6,-8 -12,-173 -16,-438 -3,-234 -9,-528 -12,-655 -5,-215 -5,-231 13,-252 10,-11 79,-46 153,-76 74,-30 232,-95 350,-145 118,-49 359,-149 535,-222 176,-73 469,-195 650,-270 578,-240 789,-327 811,-334 13,-4 26,-1 32,7 9,10 8,175 -4,638 -9,343 -19,627 -22,630 -6,5 -2413,1116 -2445,1128 -6,2 -6,-2 -2,-10 6,-11 5,-12 -6,-1 -7,6 -16,12 -20,12 -4,0 -11,-6 -17,-12 z m 1268,-618 c 635,-292 1158,-535 1162,-539 5,-4 12,-252 18,-551 5,-300 12,-560 15,-577 3,-18 3,-33 0,-33 -4,0 -165,66 -358,146 -194,80 -487,202 -652,271 -165,68 -439,182 -610,253 -170,71 -422,176 -560,233 l -250,104 3,394 c 1,217 5,498 8,626 l 6,232 32,-13 c 17,-8 551,-253 1186,-546 z"
     inkscape:connector-curvature="0"
     style="fill:#ff0000" /><path
     id="path8842"
     d="m 14520,27965 c -294,-7 -1509,-34 -2700,-60 -1191,-25 -2175,-48 -2187,-51 -54,-11 -52,54 -37,-1309 7,-693 23,-2142 34,-3220 11,-1078 27,-2594 35,-3370 8,-775 22,-2060 30,-2855 8,-795 20,-1870 25,-2390 6,-520 19,-1809 30,-2865 35,-3420 50,-4772 60,-5710 6,-506 10,-992 9,-1080 -1,-171 6,-210 43,-224 13,-5 160,-21 328,-36 168,-14 429,-37 580,-50 395,-35 1255,-111 1650,-145 223,-19 535,-47 1082,-95 671,-59 856,-75 1083,-95 132,-11 359,-31 504,-44 270,-25 301,-24 319,11 6,11 7,462 1,1238 -5,671 -20,2890 -34,4930 -68,10039 -86,12727 -100,14685 -8,1169 -15,2254 -15,2411 0,349 6,331 -121,335 -46,1 -325,-4 -619,-11 z m 624,-347 c 3,-134 10,-1033 16,-1998 6,-965 22,-3388 35,-5385 14,-1996 38,-5608 55,-8025 16,-2417 35,-5143 41,-6058 7,-914 10,-1664 8,-1666 -2,-2 -119,7 -259,19 -140,13 -415,37 -610,55 -195,17 -508,44 -695,61 -870,77 -1019,90 -1295,114 -162,14 -443,39 -625,55 -181,16 -487,43 -680,60 -192,17 -496,44 -675,60 -179,16 -368,32 -422,36 l -96,7 -6,121 c -3,66 -8,434 -11,816 -3,382 -12,1316 -20,2075 -8,759 -22,2035 -30,2835 -8,800 -19,1878 -25,2395 -6,517 -19,1804 -30,2860 -40,3875 -50,4790 -55,5275 -3,272 -12,1116 -20,1875 -8,759 -22,2088 -31,2953 -9,865 -13,1576 -10,1580 4,4 285,13 624,20 339,7 1486,33 2547,56 1062,24 2005,44 2096,45 l 167,1 6,-242 z"
     inkscape:connector-curvature="0"
     style="fill:#ff0000" /><path
     id="path8844"
     d="m 14160,27093 c -136,-4 -2252,-61 -2270,-61 -27,0 -770,-23 -1014,-31 -236,-8 -240,-9 -259,-32 -19,-23 -19,-39 -13,-474 3,-247 8,-1237 12,-2200 3,-1137 9,-1761 15,-1783 6,-17 18,-36 27,-41 24,-12 3717,7 3764,20 21,5 42,17 47,27 5,10 -7,699 -30,1727 -21,941 -43,1951 -49,2245 -6,306 -16,546 -21,561 -12,30 -48,50 -87,47 -15,-1 -70,-3 -122,-5 z m 104,-145 c 3,-18 10,-289 16,-603 5,-313 15,-774 21,-1023 6,-249 8,-456 5,-460 -9,-8 -1106,-26 -1114,-17 -4,3 -10,235 -13,513 -4,279 -10,751 -14,1048 l -8,542 154,6 c 168,8 671,22 841,24 l 107,2 5,-32 z m -1220,-120 c 9,-198 28,-1979 21,-1986 -8,-8 -1104,-26 -1112,-18 -4,3 -9,476 -11,1051 l -5,1045 114,1 c 92,1 806,21 950,27 l 37,2 6,-122 z m -1221,-210 c 4,-161 7,-631 7,-1045 l 0,-752 -52,-5 c -29,-3 -276,-8 -549,-12 l -496,-6 -6,279 c -4,153 -7,621 -7,1040 l 0,761 63,6 c 65,6 624,22 883,24 l 151,2 6,-292 z m 2491,-1920 c 7,-60 49,-2089 43,-2094 -3,-3 -259,-8 -570,-11 l -565,-6 -6,104 c -9,170 -29,2019 -21,2027 6,7 420,16 892,20 l 222,2 5,-42 z m -1240,-110 c 7,-161 30,-1988 25,-1992 -2,-2 -259,-6 -570,-8 l -566,-4 -6,305 c -9,421 -9,1811 1,1812 11,3 677,15 903,17 l 207,2 6,-132 z m -1241,-190 c 4,-166 7,-643 7,-1060 l 0,-758 -548,0 -549,0 -6,293 c -7,272 -10,1805 -4,1808 3,3 663,15 893,17 l 201,2 6,-302 z"
     inkscape:connector-curvature="0"
     style="fill:#ff0000" /><path
     id="path8846"
     d="m 10565,21080 c 7,-508 35,-3666 35,-3972 l 0,-226 48,-11 c 26,-5 207,-15 402,-21 195,-6 560,-17 810,-25 828,-26 1438,-46 2025,-64 352,-11 587,-15 597,-10 10,5 22,17 27,27 9,17 -45,4603 -55,4649 -11,56 113,52 -1972,55 l -1922,3 5,-405 z m 3779,188 c 8,-136 59,-4378 53,-4385 -3,-3 -248,2 -544,11 -1139,35 -1522,46 -2223,66 -399,11 -766,23 -816,26 l -92,6 -6,171 c -4,139 -37,3843 -36,4120 l 0,77 1829,0 1829,0 6,-92 z"
     inkscape:connector-curvature="0"
     style="fill:#ff0000" /><path
     id="path8848"
     d="m 10215,16635 c -80,-29 -155,-142 -155,-235 0,-82 63,-190 131,-225 42,-22 101,-28 149,-15 88,24 170,139 170,240 0,61 -32,135 -79,181 -65,66 -134,83 -216,54 z"
     inkscape:connector-curvature="0"
     style="fill:#ff0000" /><path
     id="path8850"
     d="m 10595,15940 -50,-5 3,-160 c 34,-2162 74,-4405 78,-4422 7,-35 50,-50 159,-57 443,-29 1879,-120 2995,-191 300,-19 570,-36 600,-38 64,-5 94,6 109,40 16,35 16,4632 0,4667 -7,13 -23,29 -38,35 -25,9 -504,26 -2731,92 -575,17 -1052,34 -1060,38 -8,3 -37,4 -65,1 z m 425,-130 c 151,-5 723,-23 1270,-40 547,-17 1240,-39 1540,-48 l 545,-17 3,-2263 2,-2263 -67,6 c -38,3 -243,17 -458,30 -455,29 -1235,78 -2110,134 -341,22 -706,45 -812,52 l -192,12 -5,61 c -3,34 -19,905 -36,1936 -17,1031 -34,1995 -37,2143 l -6,267 44,0 c 24,0 168,-5 319,-10 z"
     inkscape:connector-curvature="0"
     style="fill:#ff0000" /><path
     id="path8852"
     d="m 10587,10367 c -2,-6 2,-347 9,-757 7,-410 22,-1262 34,-1895 11,-632 23,-1310 26,-1505 7,-380 12,-415 56,-424 13,-3 122,-13 243,-21 121,-9 369,-27 550,-40 182,-14 485,-36 675,-50 190,-14 496,-36 680,-50 184,-14 522,-38 750,-55 228,-17 527,-39 664,-50 255,-19 276,-18 295,18 5,10 4,587 -4,1457 -8,792 -17,1820 -20,2285 -4,465 -11,852 -16,861 -15,29 -62,38 -274,48 -289,15 -894,47 -1355,71 -212,11 -648,33 -970,50 -322,17 -751,39 -953,50 -202,11 -372,20 -376,20 -5,0 -11,-6 -14,-13 z m 573,-132 c 162,-8 471,-24 685,-35 377,-20 724,-38 1535,-80 212,-11 511,-27 665,-35 154,-8 301,-15 326,-15 l 47,0 6,-192 c 7,-241 40,-4248 34,-4253 -2,-2 -179,9 -393,25 -215,16 -545,41 -735,55 -190,14 -527,39 -750,55 -223,17 -553,41 -735,55 -181,13 -495,36 -697,51 l -367,28 -5,70 c -3,39 -10,384 -16,766 -13,809 -46,2727 -56,3204 l -7,328 84,-6 c 46,-4 217,-13 379,-21 z"
     inkscape:connector-curvature="0"
     style="fill:#ff0000" /><path
     id="path8854"
     d="m 9145,27865 c -29,-9 -255,-18 -815,-29 -426,-10 -1047,-23 -1380,-31 -864,-21 -1787,-43 -2360,-56 -527,-12 -555,-15 -564,-61 -3,-13 -12,-4451 -20,-9863 -9,-5412 -18,-10426 -21,-11143 l -6,-1302 23,-9 c 13,-5 79,-14 148,-20 69,-6 280,-25 470,-41 190,-17 494,-44 675,-60 182,-16 463,-41 625,-55 162,-14 444,-39 625,-55 182,-16 488,-43 680,-60 193,-17 499,-44 680,-60 182,-16 463,-41 625,-55 162,-14 418,-37 569,-51 151,-13 275,-23 277,-21 5,4 5,38 -10,2572 -8,1353 -22,3821 -30,5485 -9,1664 -18,3421 -21,3905 -3,484 -12,2185 -20,3780 -8,1595 -20,3681 -25,4635 -5,954 -10,1923 -10,2153 0,404 -1,418 -20,437 -22,22 -37,23 -95,5 z m -1,-417 c 3,-161 12,-1764 21,-3563 9,-1798 22,-4514 30,-6035 8,-1521 22,-4032 30,-5580 8,-1548 20,-3811 26,-5028 7,-1217 9,-2215 6,-2219 -7,-6 -82,0 -732,57 -181,16 -463,41 -625,55 -162,14 -443,39 -625,55 -181,16 -483,43 -670,60 -187,16 -491,43 -675,59 -184,17 -468,42 -630,56 -162,14 -419,37 -570,50 -151,14 -353,32 -449,40 -96,8 -176,17 -179,20 -6,6 26,19641 34,21082 l 6,1062 42,5 c 22,3 372,12 776,21 749,16 1307,29 2975,69 517,13 999,24 1071,25 l 132,1 6,-292 z"
     inkscape:connector-curvature="0"
     style="fill:#ff0000" /><path
     id="path8856"
     d="m 8525,27053 c -27,-1 -270,-10 -540,-18 -269,-9 -751,-24 -1070,-35 -319,-11 -877,-29 -1240,-41 -736,-23 -712,-20 -701,-87 3,-21 20,-982 36,-2137 17,-1155 33,-2115 36,-2132 10,-68 -123,-63 1823,-63 1269,0 1767,3 1784,11 14,6 30,22 36,36 8,17 11,630 11,2213 0,1583 -3,2196 -11,2213 -13,29 -49,48 -87,45 -15,-1 -49,-3 -77,-5 z m 55,-1132 0,-1019 -72,-6 c -127,-10 -1010,-37 -1016,-31 -6,6 -17,2034 -11,2036 6,2 913,36 1012,37 l 87,2 0,-1019 z m -1217,717 c 4,-145 7,-605 7,-1024 l 0,-760 -387,-12 c -214,-7 -450,-15 -525,-19 l -138,-6 0,1025 0,1025 263,8 c 144,4 341,11 437,15 96,4 211,7 256,8 l 81,2 6,-262 z m -1163,-801 0,-1023 -531,-18 c -292,-10 -533,-15 -537,-12 -5,6 -30,1472 -31,1877 l -1,166 438,13 c 240,7 439,14 441,16 2,2 53,4 113,4 l 108,0 0,-1023 z m 2380,-2117 0,-1060 -538,0 -539,0 -6,272 c -4,149 -7,618 -7,1043 l 0,772 433,15 c 237,8 483,16 545,16 l 112,2 0,-1060 z m -1207,703 c 4,-174 7,-642 7,-1040 l 0,-723 -530,0 -530,0 0,1020 c 0,561 1,1021 3,1021 3,2 872,36 963,37 l 81,2 6,-317 z m -1173,-743 0,-1020 -519,0 -519,0 -6,103 c -9,162 -29,1888 -22,1895 6,5 760,36 989,41 l 77,1 0,-1020 z"
     inkscape:connector-curvature="0"
     style="fill:#ff0000" /><path
     id="path8858"
     d="m 4994,21556 c -17,-8 -33,-20 -36,-27 -3,-8 9,-734 27,-1614 19,-880 39,-1865 46,-2190 6,-324 15,-600 20,-613 5,-12 19,-26 31,-32 13,-5 735,-20 1648,-34 894,-14 1698,-28 1787,-32 l 163,-5 26,26 26,26 -6,312 c -3,172 -13,1176 -22,2232 -14,1620 -18,1924 -30,1943 l -14,22 -1818,0 c -1502,-1 -1822,-3 -1848,-14 z m 3560,-198 c 3,-51 15,-844 26,-1763 11,-918 24,-1849 27,-2067 l 6,-398 -129,1 c -440,2 -3315,56 -3321,63 -17,17 -62,2775 -63,3879 l 0,377 1724,0 1724,0 6,-92 z"
     inkscape:connector-curvature="0"
     style="fill:#ff0000" /><path
     id="path8860"
     d="m 7290,21150 c -333,-4 -897,-11 -1255,-14 -665,-8 -673,-8 -660,-45 3,-8 13,-818 21,-1800 9,-982 19,-1789 22,-1793 7,-6 2922,-31 2928,-25 2,2 -13,826 -32,1832 -24,1217 -39,1834 -46,1842 -12,14 28,14 -978,3 z m 954,-212 c 11,-320 67,-3420 62,-3425 -5,-6 -2847,15 -2853,21 -2,2 -11,797 -19,1766 -13,1533 -14,1765 -1,1777 12,12 185,17 1133,27 616,7 1243,14 1395,15 l 277,1 6,-182 z"
     inkscape:connector-curvature="0"
     style="fill:#ff0000" /><path
     id="path8862"
     d="m 5006,14603 c 5,-868 9,-1883 9,-2256 0,-670 0,-678 20,-682 11,-2 83,-6 160,-10 181,-7 552,-23 830,-35 121,-5 740,-32 1375,-59 635,-28 1193,-52 1240,-54 100,-5 106,-4 125,33 13,25 15,315 15,2299 0,2108 -1,2273 -17,2306 l -17,35 -1874,0 -1874,0 8,-1577 z m 3634,1135 c 0,-178 5,-1175 11,-2216 7,-1041 10,-1895 7,-1898 -3,-2 -210,4 -459,15 -250,12 -922,41 -1494,66 -572,24 -1137,49 -1256,55 -119,5 -237,10 -263,10 l -46,0 0,2145 0,2145 1750,0 1750,0 0,-322 z"
     inkscape:connector-curvature="0"
     style="fill:#ff0000" /><path
     id="path8864"
     d="m 5045,10716 -25,-25 0,-2185 c 0,-1446 -3,-2187 -10,-2191 -19,-12 -11,-64 13,-79 16,-10 218,-29 777,-71 415,-31 1252,-94 1860,-140 762,-58 1110,-80 1123,-74 10,6 22,21 27,35 15,38 13,4516 -1,4548 -7,13 -23,29 -38,35 -14,5 -507,31 -1096,56 -588,25 -1272,54 -1520,65 -247,11 -558,24 -690,30 -132,5 -275,12 -317,16 -73,5 -79,4 -103,-20 z m 790,-126 c 374,-16 788,-34 920,-40 433,-19 1112,-49 1533,-67 l 412,-17 0,-2204 0,-2203 -42,5 c -24,3 -169,15 -323,26 -154,11 -815,61 -1470,110 -654,49 -1287,96 -1405,105 -118,9 -239,18 -267,21 l -53,6 0,2144 c 0,1179 3,2144 8,2144 4,0 313,-13 687,-30 z"
     inkscape:connector-curvature="0"
     style="fill:#ff0000" /><path
     id="path8866"
     d="m 18235,26706 -25,-25 0,-2081 c 0,-2253 -3,-2141 52,-2155 13,-3 193,-5 401,-3 l 379,3 20,25 c 19,24 20,35 14,340 -3,173 -11,1076 -17,2005 -6,1073 -14,1700 -20,1716 -16,42 -13,41 -419,124 -41,8 -91,19 -110,24 -19,6 -75,17 -125,26 -49,9 -98,18 -107,21 -11,3 -28,-5 -43,-20 z m 151,-117 44,-11 0,-975 0,-974 -37,6 c -21,4 -44,8 -50,10 -10,4 -13,208 -13,980 0,536 3,975 6,975 3,0 25,-5 50,-11 z m 249,-52 50,-13 3,-963 2,-963 -72,7 c -40,4 -76,9 -80,12 -5,2 -8,438 -8,969 l 0,964 28,0 c 15,0 50,-6 77,-13 z m 240,-51 50,-11 7,-155 c 3,-85 8,-516 11,-958 l 4,-804 -51,7 c -28,3 -63,8 -78,11 l -28,6 0,959 c 0,907 1,959 18,958 9,0 40,-6 67,-13 z m -467,-1952 22,-6 0,-984 0,-984 -50,0 -50,0 0,990 0,990 28,0 c 15,0 37,-3 50,-6 z m 274,-40 c 5,-3 8,-439 8,-970 l 0,-964 -80,0 -80,0 0,976 0,977 72,-8 c 40,-3 76,-9 80,-11 z m 215,-30 50,-6 6,-676 c 4,-371 7,-798 7,-949 l 0,-273 -85,0 -85,0 0,961 0,962 29,-6 c 15,-3 51,-9 78,-13 z"
     inkscape:connector-curvature="0"
     style="fill:#ff0000" /><path
     id="path8868"
     d="m 18690,21583 c -173,-7 -350,-12 -392,-9 -122,7 -113,37 -111,-371 2,-191 8,-1140 14,-2108 12,-1930 7,-1805 71,-1805 17,0 137,32 267,70 130,39 274,82 321,96 225,66 255,78 266,104 15,33 -12,3951 -27,3991 -11,27 -47,50 -77,48 -9,-1 -159,-8 -332,-16 z m 301,-105 c 2,-6 28,-3203 28,-3514 1,-317 0,-342 -16,-347 -10,-3 -56,-17 -103,-30 -47,-14 -192,-57 -324,-97 -131,-39 -241,-68 -244,-65 -8,8 -36,4015 -27,4023 8,8 683,37 686,30 z"
     inkscape:connector-curvature="0"
     style="fill:#ff0000" /><path
     id="path8870"
     d="m 18645,16565 c -316,-105 -404,-138 -417,-157 -15,-21 -16,-83 -3,-908 8,-487 19,-1252 25,-1700 22,-1560 22,-1565 44,-1589 20,-21 64,-28 82,-12 5,5 72,44 149,87 77,42 192,106 255,142 63,35 163,91 222,124 59,32 115,69 123,81 13,19 15,254 15,2024 0,1990 0,2003 -20,2023 -11,11 -32,20 -47,19 -16,0 -208,-60 -428,-134 z m 375,-1934 0,-1939 -97,-55 c -161,-91 -394,-221 -465,-260 l -67,-37 -5,42 c -2,24 -12,590 -21,1258 -8,668 -21,1547 -27,1953 -6,406 -8,741 -4,744 6,6 661,230 679,232 4,1 7,-872 7,-1938 z"
     inkscape:connector-curvature="0"
     style="fill:#ff0000" /><path
     id="path8872"
     d="m 18753,11610 c -258,-172 -400,-260 -417,-260 -14,0 -35,-9 -47,-21 -20,-20 -21,-25 -15,-352 3,-183 11,-1137 17,-2122 5,-984 12,-1800 15,-1812 2,-13 15,-30 28,-39 33,-21 44,-14 238,138 86,68 250,195 364,283 114,88 226,177 248,197 l 41,37 0,2084 c 0,2036 0,2085 -19,2106 -11,12 -29,21 -40,21 -12,0 -198,-117 -413,-260 z m 331,-3925 c -14,-11 -168,-131 -342,-266 l -317,-246 -7,116 c -3,64 -12,977 -18,2030 -10,1605 -10,1915 2,1922 7,4 168,111 358,238 l 345,230 3,-2002 3,-2002 -27,-20 z"
     inkscape:connector-curvature="0"
     style="fill:#ff0000" /></g><g
   id="g10302"
   transform="matrix(0.01707874,0,0,-0.01707874,102.27518,373.16162)"
   style="fill:#ff0000;stroke:none"><path
     id="path10304"
     d="m 5655,3939 c -170,-18 -371,-82 -555,-174 -320,-160 -599,-443 -753,-762 l -39,-83 -63,83 c -234,307 -569,501 -948,548 -124,15 -339,6 -453,-20 -82,-18 -167,-46 -295,-96 l -45,-18 -45,42 c -144,135 -320,203 -524,203 -300,-1 -557,-165 -686,-438 -51,-107 -70,-195 -70,-318 -1,-145 32,-274 96,-381 19,-32 35,-59 35,-61 0,-1 -46,0 -103,3 C 724,2494 266,2180 111,1715 19,1439 37,1138 161,886 296,613 516,416 795,319 c 139,-48 241,-62 405,-56 257,8 459,84 655,243 166,135 308,345 360,532 10,34 19,62 21,62 1,0 40,-27 86,-60 334,-241 762,-320 1164,-216 326,84 640,313 814,593 25,40 47,72 50,73 3,0 21,-30 40,-67 87,-166 257,-365 430,-502 595,-473 1424,-489 2051,-40 53,38 102,76 109,84 7,9 39,38 71,66 l 58,50 22,-73 c 111,-373 420,-702 794,-847 179,-69 272,-86 490,-86 218,0 311,17 489,87 511,201 855,702 856,1246 l 0,87 33,-60 c 158,-293 426,-496 757,-576 134,-33 374,-33 505,-1 350,85 626,302 783,617 75,152 112,317 112,506 0,241 -68,464 -198,649 -170,241 -409,403 -697,472 -130,31 -372,31 -500,-1 -100,-24 -211,-63 -268,-94 l -37,-21 -53,51 c -57,56 -165,128 -240,161 -46,21 -47,22 -33,44 25,40 28,82 10,127 -35,88 -119,121 -201,79 -55,-27 -83,-73 -83,-135 l 0,-43 -65,0 c -141,0 -320,-56 -449,-140 -131,-86 -247,-221 -315,-368 -14,-28 -30,-52 -37,-52 -7,0 -53,10 -101,21 -74,18 -118,22 -273,22 -166,0 -196,-3 -292,-27 -185,-45 -393,-141 -505,-232 -23,-19 -44,-34 -47,-34 -3,0 -8,17 -12,38 -19,112 -58,260 -93,352 -249,663 -888,1105 -1587,1099 -82,-1 -180,-5 -219,-10 z m 490,-105 c 635,-111 1147,-596 1289,-1223 14,-58 27,-135 31,-171 l 6,-65 -60,-65 -60,-65 -1,63 c 0,98 -28,257 -64,377 -230,746 -989,1184 -1749,1009 -489,-112 -906,-486 -1062,-953 l -32,-94 -32,68 c -17,37 -34,78 -37,89 -7,29 76,205 151,320 261,404 700,674 1180,726 107,12 329,3 440,-16 z M 1834,3620 c -6,-6 -37,-17 -70,-25 -83,-22 -208,-85 -276,-139 -245,-196 -331,-553 -203,-842 80,-181 243,-328 433,-390 45,-15 82,-31 82,-36 0,-10 -34,-3 -108,23 -181,62 -354,224 -429,404 -58,136 -73,319 -40,458 51,207 197,391 384,484 100,49 257,93 227,63 z m 4177,-26 c 66,-63 93,-200 55,-286 -22,-52 -71,-105 -120,-131 -58,-31 -184,-31 -241,0 -125,67 -175,218 -113,344 16,31 37,64 49,75 25,23 122,34 253,29 80,-4 91,-6 117,-31 z m -4011,11 c 16,-9 36,-29 45,-45 43,-84 -13,-180 -105,-180 -92,0 -148,96 -105,180 29,55 105,76 165,45 z m 4091,-41 c 42,-74 54,-150 35,-225 -48,-184 -234,-284 -409,-219 -76,29 -130,79 -169,157 -44,90 -45,175 -2,260 16,32 37,59 46,61 14,3 12,-8 -14,-58 -98,-190 35,-410 248,-410 136,0 246,91 274,226 15,72 -1,149 -45,215 -32,46 -33,50 -13,47 13,-2 31,-22 49,-54 z m 264,-26 c 87,-34 168,-74 228,-110 l 37,-24 -59,-42 c -32,-22 -76,-61 -97,-86 l -39,-44 -55,28 c -30,15 -82,37 -116,49 l -60,22 -1,77 c 0,54 -7,93 -22,132 -11,30 -21,56 -21,57 0,7 141,-34 205,-59 z m -4570,-43 c 1,-50 -3,-75 -11,-75 -6,0 -42,-16 -80,-35 -231,-117 -342,-367 -282,-635 2,-8 -11,-16 -29,-20 -18,-4 -44,-15 -57,-24 -14,-9 -28,-16 -31,-16 -11,0 -24,49 -35,128 -42,311 149,623 448,728 37,13 69,24 72,24 3,0 5,-34 5,-75 z m 369,55 c 95,-32 177,-82 248,-149 38,-35 68,-67 68,-71 0,-5 -26,-24 -57,-43 l -57,-35 -58,53 c -51,48 -164,115 -193,115 -7,0 -11,26 -10,75 0,41 0,75 1,75 0,0 26,-9 58,-20 z m 3320,-22 c -17,-46 -23,-156 -11,-199 7,-28 11,-25 -109,-75 -11,-5 -164,169 -164,185 0,12 88,57 186,95 116,46 117,46 98,-6 z m -2079,-28 c 382,-87 680,-294 887,-616 44,-69 105,-196 122,-256 9,-32 23,-82 31,-111 18,-65 31,-189 17,-167 -5,8 -12,38 -16,66 -3,28 -20,95 -37,150 -143,456 -524,801 -999,905 -87,19 -134,22 -275,22 -148,0 -184,-4 -280,-27 -60,-14 -149,-42 -198,-61 -91,-37 -107,-41 -107,-26 0,27 262,112 415,135 55,8 389,-3 440,-14 z m 6455,-73 c 32,-16 70,-73 70,-104 0,-14 -7,-41 -17,-60 -13,-27 -20,-33 -37,-29 -12,3 -58,14 -103,23 l -83,16 0,39 c 0,97 88,156 170,115 z m -4661,-39 c 15,-18 51,-61 79,-95 l 51,-61 -42,-25 c -272,-160 -480,-486 -519,-813 l -12,-101 -28,27 c -39,40 -108,64 -163,58 -45,-6 -45,-5 -45,26 0,57 21,160 52,261 73,239 234,481 426,639 82,68 150,116 164,116 5,0 21,-15 37,-32 z m -1769,-21 c 52,-13 129,-38 171,-54 85,-34 254,-130 282,-161 18,-20 18,-20 -2,-27 -34,-11 -61,-58 -61,-109 0,-67 38,-107 108,-114 48,-4 54,-2 85,29 19,19 36,41 39,49 4,11 12,6 34,-19 176,-208 283,-492 284,-750 l 0,-83 -27,5 c -16,3 -82,16 -149,28 l -120,22 -13,94 c -15,114 -32,173 -78,278 -95,213 -280,389 -503,477 -213,84 -474,83 -685,-4 -253,-104 -473,-343 -535,-581 -7,-23 -23,-59 -37,-79 -21,-32 -24,-44 -19,-85 4,-26 10,-102 15,-168 7,-100 24,-188 48,-252 4,-11 -242,-143 -266,-143 -13,0 -58,154 -76,260 -29,180 -14,379 42,557 18,59 30,83 42,83 36,0 119,50 158,94 54,61 76,126 72,214 -4,85 9,105 129,199 184,145 384,231 617,267 17,2 102,3 190,1 127,-3 179,-9 255,-28 z m -1547,-12 c 46,-19 81,-19 137,1 43,15 48,15 102,-6 59,-22 176,-102 185,-127 3,-8 -21,-37 -58,-72 l -64,-59 -39,35 c -60,54 -119,77 -201,77 -85,0 -149,-28 -211,-90 -146,-146 -89,-409 105,-481 25,-9 47,-17 49,-18 1,-1 -10,-41 -25,-88 -19,-65 -31,-87 -43,-87 -24,0 -161,70 -165,84 -1,6 -8,29 -14,52 -16,59 -50,104 -101,134 -54,32 -68,68 -69,186 -2,205 108,372 296,450 69,28 71,28 116,9 z m 4846,-22 c 58,-46 131,-115 131,-124 0,-4 -13,-12 -29,-18 -41,-18 -109,-88 -139,-146 -24,-44 -27,-62 -27,-145 0,-83 3,-101 27,-145 32,-62 103,-129 166,-158 36,-16 67,-22 127,-22 78,0 104,8 207,63 10,5 27,-56 43,-154 8,-49 15,-92 15,-96 0,-14 -125,-68 -197,-84 -128,-28 -266,-9 -390,55 -50,25 -50,24 -74,112 -33,118 -107,245 -189,324 l -41,40 6,70 c 17,176 107,331 246,424 34,23 64,41 67,41 3,0 26,-16 51,-37 z M 5344,3201 c 3,-5 -13,-20 -36,-34 -110,-65 -246,-195 -325,-312 -132,-195 -190,-406 -181,-650 3,-69 2,-125 -2,-125 -23,0 -27,237 -5,360 47,267 188,502 404,674 51,41 117,86 138,95 1,1 4,-3 7,-8 z m 891,-21 c 42,-17 87,-37 100,-46 l 23,-15 -19,-53 c -10,-30 -21,-73 -24,-97 -13,-97 -3,-93 -110,-39 -54,27 -130,57 -173,67 -110,25 -265,23 -365,-5 -42,-12 -81,-22 -85,-22 -9,0 -141,162 -143,174 0,6 19,18 44,27 l 44,17 41,-42 c 22,-23 67,-55 99,-71 53,-27 67,-30 158,-30 90,0 106,3 157,29 53,27 148,109 148,128 0,14 28,9 105,-22 z m 3520,8 c 3,-3 1,-33 -5,-65 l -12,-60 -121,0 c -105,0 -133,-3 -202,-26 -181,-59 -312,-171 -397,-338 l -33,-65 -62,24 -63,24 16,36 c 70,169 209,316 382,402 121,61 212,80 364,77 69,-1 129,-5 133,-9 z m 106,-27 c 30,-10 81,-32 114,-49 70,-35 205,-138 205,-155 0,-7 -24,-29 -52,-49 l -51,-37 -46,40 c -55,49 -147,100 -220,124 l -53,17 6,49 c 12,89 13,89 97,60 z m -2928,-33 c 99,-123 244,-390 235,-436 -5,-26 -97,-71 -160,-78 -118,-14 -229,46 -285,155 -54,103 -44,212 28,313 25,34 104,88 130,88 10,0 33,-19 52,-42 z m -1453,-88 70,-84 -33,-19 c -120,-72 -216,-156 -274,-242 -39,-58 -87,-161 -109,-235 -15,-50 -19,-96 -19,-202 l 0,-138 -70,0 c -38,0 -88,-5 -110,-10 -28,-6 -42,-6 -48,3 -4,7 -6,84 -4,172 4,136 9,173 31,245 26,85 81,208 108,244 14,18 16,18 33,-11 53,-89 192,-81 231,14 29,68 -4,140 -79,172 l -40,17 65,51 c 75,59 160,114 170,110 4,-1 39,-40 78,-87 z m -1503,26 c 54,-50 57,-55 48,-82 -12,-33 -68,-74 -100,-74 -60,0 -116,75 -101,135 9,34 49,75 75,75 11,0 46,-24 78,-54 z m -1969,28 c 58,-24 101,-72 118,-131 14,-48 14,-58 0,-106 -51,-177 -290,-198 -367,-32 -75,162 87,337 249,269 z m 9037,-36 c 572,-129 943,-676 850,-1253 -35,-218 -132,-418 -279,-575 -159,-169 -334,-270 -566,-327 -149,-37 -350,-37 -495,0 -339,86 -588,285 -743,592 -201,401 -126,906 182,1235 274,292 667,415 1051,328 z M 9739,2935 c 73,-18 164,-63 217,-109 l 36,-31 -19,-24 -19,-24 -51,37 c -258,185 -588,108 -724,-170 -33,-67 -42,-73 -72,-49 -18,13 -17,16 13,80 63,133 206,250 351,289 71,19 188,19 268,1 z m -4498,-34 c 71,-72 6,-196 -93,-177 -52,10 -83,48 -83,103 0,38 5,49 33,74 45,41 102,41 143,0 z m -1916,-16 c 279,-75 502,-328 540,-614 7,-49 6,-53 -11,-48 -11,3 -45,11 -76,17 -51,10 -58,14 -58,35 0,36 -43,147 -81,211 -49,82 -154,176 -242,218 -343,165 -733,-10 -843,-379 -24,-81 -24,-229 0,-310 84,-283 347,-467 630,-440 294,27 524,263 543,558 5,74 8,87 22,83 9,-3 32,-7 51,-11 78,-14 73,-8 67,-102 -11,-152 -75,-300 -183,-424 -203,-230 -540,-311 -824,-197 -96,39 -172,89 -249,167 -113,113 -180,240 -207,390 -19,108 -17,154 8,202 17,34 19,47 12,77 -8,28 -6,49 7,87 81,246 289,431 549,490 81,18 259,13 345,-10 z m 2725,-51 c 151,-51 270,-155 340,-298 76,-153 87,-304 35,-458 -14,-40 -25,-75 -25,-77 0,-8 -51,43 -70,70 -18,24 -18,29 -4,75 11,36 14,76 11,149 -4,88 -2,104 14,124 47,57 0,151 -75,151 -28,0 -45,9 -86,49 -160,153 -412,175 -599,50 -77,-52 -123,-105 -169,-198 -34,-69 -37,-82 -40,-181 -4,-93 -1,-115 21,-179 14,-39 22,-71 19,-69 -4,2 -36,14 -70,27 -76,29 -81,39 -89,161 -11,175 49,335 171,455 100,99 198,151 334,175 72,13 198,1 282,-26 z m 3751,-26 c 41,-20 85,-48 99,-63 22,-24 23,-26 7,-42 -16,-16 -19,-16 -44,5 -16,13 -57,37 -93,55 -59,29 -73,32 -160,32 -86,0 -101,-3 -160,-31 -79,-37 -129,-79 -167,-139 -15,-25 -32,-45 -36,-45 -5,0 -22,-14 -38,-31 -38,-41 -37,-19 2,59 52,105 147,187 259,224 42,14 79,17 156,15 93,-2 106,-5 175,-39 z m -67,-58 c 59,-22 136,-74 136,-91 0,-6 -13,-29 -29,-52 -82,-120 -151,-307 -174,-472 -13,-87 -14,-90 -40,-93 -15,-2 -27,1 -27,7 0,19 -131,205 -184,261 -91,97 -91,97 -73,118 39,43 28,111 -23,140 -16,9 -30,20 -30,23 0,14 86,102 120,124 92,58 224,72 324,35 z m -8214,-59 c 19,-10 49,-37 65,-60 56,-79 35,-206 -41,-256 -25,-16 -27,-16 -46,2 -19,19 -19,20 21,60 35,35 41,47 41,84 0,114 -118,175 -210,109 l -30,-21 -12,26 c -11,24 -9,29 12,46 53,40 132,44 200,10 z m 1760,2 c 204,-56 353,-224 391,-437 31,-179 -43,-379 -183,-499 -262,-223 -654,-156 -830,142 -97,166 -90,406 16,566 136,205 372,294 606,228 z m 2685,3 c 64,-17 129,-50 182,-93 46,-38 59,-61 43,-77 -5,-5 -10,-30 -10,-53 0,-52 33,-93 75,-93 32,0 45,-31 45,-109 0,-173 -100,-329 -260,-405 -61,-28 -73,-30 -180,-31 -138,0 -169,11 -284,106 -64,52 -82,74 -113,136 -31,63 -37,87 -41,159 -10,190 78,345 244,428 92,46 203,58 299,32 z m 2720,-32 c 451,-97 811,-426 952,-869 37,-116 53,-233 53,-385 0,-215 -39,-389 -126,-561 -174,-349 -480,-591 -864,-686 -92,-22 -127,-26 -280,-26 -150,-1 -189,2 -275,22 -95,22 -175,48 -175,57 0,3 16,27 35,56 19,28 45,81 56,119 12,38 22,69 24,69 1,0 40,-10 86,-22 111,-29 355,-32 464,-5 350,87 621,333 731,664 51,154 65,313 40,463 -68,422 -379,751 -787,836 l -87,18 -4,66 c -7,125 -87,197 -208,188 -119,-9 -187,-91 -178,-217 l 5,-67 -66,-23 c -347,-122 -606,-435 -660,-798 -29,-191 4,-416 82,-570 15,-29 27,-58 27,-65 0,-7 -26,-24 -57,-37 -32,-15 -79,-47 -111,-78 -30,-30 -56,-52 -58,-50 -2,1 -23,46 -48,98 -111,242 -149,495 -110,742 62,388 280,713 612,911 280,167 604,220 927,150 z m -7197,-38 c 27,-14 45,-40 57,-82 11,-42 -39,-124 -76,-124 -33,0 -147,152 -131,176 28,42 100,56 150,30 z m 6945,-19 c 48,-37 70,-88 65,-149 -15,-154 -207,-203 -301,-77 -24,33 -33,106 -18,151 33,100 169,140 254,75 z m 907,-77 c 42,-79 -64,-153 -119,-84 -24,31 -26,43 -10,78 22,47 105,51 129,6 z m -3010,0 c 47,-47 12,-134 -54,-134 -49,0 -80,31 -80,80 0,66 87,101 134,54 z M 1688,2421 c 31,-15 74,-34 95,-41 34,-11 38,-15 33,-38 -3,-15 -7,-44 -8,-65 -1,-21 -6,-40 -10,-43 -12,-8 -130,36 -196,73 l -63,35 40,44 c 23,24 41,48 41,54 0,14 4,13 68,-19 z m -673,-27 c -22,-9 -80,-28 -130,-43 C 769,2315 676,2272 588,2214 170,1936 18,1390 230,933 283,820 332,749 423,653 557,513 704,426 897,372 c 89,-24 113,-27 263,-26 170,0 221,8 348,54 243,90 445,268 561,496 48,94 89,217 98,291 8,72 29,65 25,-8 -4,-70 -52,-214 -103,-309 C 1940,594 1705,414 1390,334 1298,311 1037,307 950,328 719,384 572,465 414,624 208,831 108,1071 108,1355 c 0,138 11,220 48,331 117,360 414,628 785,709 90,19 126,19 74,-1 z m 1345,-9 c 37,-19 50,-43 50,-92 -1,-91 -103,-135 -172,-74 -28,25 -33,36 -33,76 0,40 5,51 33,76 37,33 77,37 122,14 z m -1189,-39 c 44,-30 69,-80 69,-139 0,-82 -75,-157 -157,-157 -96,0 -154,55 -161,151 -5,67 17,114 71,148 47,30 131,29 178,-3 z m 3479,-18 c 73,-38 104,-100 89,-182 -9,-52 -36,-86 -90,-114 -52,-27 -112,-24 -165,8 -38,24 -74,92 -74,142 0,55 39,118 90,145 54,29 94,29 150,1 z m -3371,-23 c 8,-17 17,-55 19,-85 3,-46 -1,-64 -25,-110 -84,-159 -314,-158 -392,3 -33,68 -25,197 13,197 12,0 11,-6 -1,-42 -29,-83 19,-193 101,-232 66,-31 163,-17 220,33 55,49 73,163 37,234 -17,34 -18,38 -3,35 9,-2 23,-17 31,-33 z m 131,6 c 36,-10 91,-35 123,-54 60,-36 151,-76 226,-99 44,-13 44,-13 47,-63 8,-126 26,-214 81,-395 3,-8 -9,9 -25,37 -106,186 -253,309 -452,379 l -65,23 3,53 c 2,30 -3,72 -11,96 -17,49 -17,49 73,23 z m 7203,3 c 226,-51 424,-184 556,-374 127,-182 188,-415 162,-619 -34,-265 -148,-474 -346,-630 -193,-153 -447,-224 -688,-192 -124,17 -116,9 -98,102 l 15,80 51,-8 c 27,-4 102,-8 165,-7 101,1 127,5 207,32 331,112 538,410 520,751 -10,197 -79,354 -217,491 -47,47 -111,100 -143,119 -84,49 -203,89 -307,102 l -90,12 0,56 c 0,54 1,57 38,77 46,27 83,29 175,8 z m -1941,-19 c 29,-13 86,-32 126,-41 67,-15 72,-18 72,-43 0,-45 -29,-194 -49,-256 -40,-124 -129,-291 -151,-283 -4,2 -45,47 -90,101 l -83,98 36,77 c 46,98 66,174 74,285 3,48 7,87 9,87 1,0 26,-11 56,-25 z m 567,-102 c -4,-125 -5,-130 -42,-208 -44,-91 -92,-240 -106,-326 -9,-54 -46,-139 -60,-139 -3,0 -16,15 -28,34 -24,38 -111,86 -156,86 -16,0 -27,3 -25,8 2,4 24,48 50,97 70,136 114,299 120,444 l 3,54 60,13 c 33,6 85,23 115,37 30,14 59,26 64,26 4,1 6,-56 5,-126 z m 1011,102 c 16,-8 48,-17 72,-19 l 43,-4 5,-82 c 3,-51 1,-84 -5,-85 -5,-2 -41,-8 -80,-15 -244,-43 -450,-222 -532,-464 -25,-72 -28,-95 -28,-211 0,-98 5,-145 19,-190 64,-206 219,-378 406,-451 25,-9 46,-18 48,-19 4,-3 -40,-210 -47,-218 -4,-4 -21,-2 -38,4 -27,9 -33,18 -43,61 -37,174 -194,313 -370,327 l -75,6 -42,85 c -208,418 -50,942 357,1184 77,46 225,105 263,106 10,0 31,-7 47,-15 z M 815,2218 c 0,-35 4,-77 8,-95 8,-31 7,-32 -55,-68 C 524,1911 383,1681 363,1394 l -6,-92 -71,-24 c -39,-14 -79,-28 -90,-33 -17,-8 -18,-2 -14,141 6,173 26,262 87,391 101,210 254,366 461,470 36,18 70,32 75,33 6,0 10,-27 10,-62 z m 3544,-124 c 11,-11 -23,-198 -54,-296 -133,-417 -461,-721 -897,-829 -81,-20 -118,-23 -278,-23 -157,0 -198,4 -273,22 -313,78 -563,249 -741,506 -46,68 -121,205 -114,211 2,1 63,32 135,69 l 133,66 30,-59 c 100,-199 278,-364 485,-449 212,-87 472,-89 685,-4 132,52 271,149 352,244 134,159 202,311 229,511 l 13,93 145,-28 c 80,-16 147,-31 150,-34 z m 4204,20 c 40,-9 114,-36 166,-61 79,-38 107,-58 180,-131 95,-96 140,-165 177,-271 131,-377 -69,-788 -446,-916 -101,-34 -223,-47 -319,-34 -84,12 -91,14 -91,34 0,11 7,11 38,3 49,-14 224,-13 287,1 389,89 629,493 514,867 -63,205 -225,382 -413,451 -69,25 -149,42 -198,43 -36,0 -48,4 -48,15 0,20 59,20 153,-1 z m -3419,-67 c 8,-44 67,-163 104,-212 17,-22 41,-52 52,-67 l 21,-27 -53,24 c -182,83 -403,41 -542,-105 -31,-33 -59,-60 -61,-60 -7,0 -68,137 -91,204 -28,82 -29,81 78,152 125,83 250,122 399,123 l 87,1 6,-33 z m -3724,-10 c 166,-64 306,-192 389,-355 12,-24 21,-45 19,-47 -2,-1 -31,-17 -65,-34 l -62,-31 -38,73 c -50,98 -147,193 -244,241 -75,37 -169,65 -224,66 l -30,1 35,19 c 19,10 53,37 74,59 44,45 49,45 146,8 z m 7130,19 c 238,-58 411,-218 487,-451 32,-100 37,-253 9,-353 -53,-194 -174,-342 -351,-427 -105,-51 -175,-67 -290,-66 -98,0 -155,9 -161,25 -5,12 20,143 28,151 2,3 20,0 39,-5 49,-14 166,-12 228,5 245,65 404,310 363,558 -33,198 -194,365 -390,406 -345,72 -654,-242 -581,-591 29,-137 130,-271 253,-332 48,-24 57,-33 52,-50 -3,-12 -11,-47 -17,-78 -6,-32 -16,-58 -22,-58 -6,0 -45,17 -86,37 -102,50 -232,178 -283,278 -58,113 -72,174 -72,310 -1,106 3,130 28,202 72,214 258,386 471,437 76,18 224,19 295,2 z m -2208,-43 37,-46 -32,-45 c -45,-63 -138,-144 -207,-181 -76,-41 -196,-71 -280,-71 l -67,0 -37,62 c -20,33 -35,63 -33,65 2,2 34,-1 71,-6 190,-27 385,66 478,228 13,23 25,41 28,40 3,0 22,-21 42,-46 z m -949,-1 c 94,-43 281,-209 325,-289 l 22,-41 -34,8 c -56,12 -166,68 -215,108 -62,51 -99,93 -143,165 -56,90 -53,93 45,49 z M 916,1999 c 21,-16 57,-35 81,-42 43,-11 49,-27 10,-27 -47,0 -188,-82 -256,-149 -113,-113 -165,-237 -166,-398 0,-57 -2,-103 -5,-102 -3,0 -36,6 -75,13 -70,12 -70,12 -73,46 -6,57 18,188 49,274 58,160 174,296 329,384 30,17 58,32 61,32 3,0 24,-14 45,-31 z m 3538,-91 C 4404,1571 4170,1226 3858,1027 3520,812 3089,759 2702,886 c -136,45 -333,154 -426,236 -63,55 -26,54 44,-2 139,-111 329,-200 525,-247 95,-22 133,-26 280,-26 142,-1 188,3 275,22 478,105 859,450 999,906 25,84 51,202 51,240 0,6 3,6 9,0 6,-6 4,-47 -5,-107 z m 4098,-69 c 185,-60 308,-230 308,-423 0,-127 -35,-216 -120,-310 -64,-70 -164,-121 -266,-136 -236,-36 -466,138 -505,381 -27,165 57,347 204,441 106,68 258,87 379,47 z m -1986,-95 c 44,-52 81,-100 83,-106 8,-25 -175,-187 -284,-249 -126,-73 -314,-129 -433,-129 l -59,0 -7,103 c -3,56 -9,114 -12,128 -6,26 -5,26 63,32 200,17 383,109 508,257 28,33 53,60 56,60 4,0 42,-43 85,-96 z m -5213,43 c 46,-23 97,-58 127,-87 90,-91 150,-254 135,-369 -7,-51 -53,-191 -64,-191 -3,0 -18,12 -34,25 l -27,24 20,60 c 54,162 -3,338 -140,432 -193,133 -452,62 -553,-150 -96,-201 6,-437 220,-513 82,-28 195,-22 277,15 l 59,27 29,-29 28,-29 -36,-21 c -102,-61 -213,-80 -325,-56 -150,31 -258,114 -326,251 -38,77 -38,79 -38,198 0,115 2,124 32,189 36,76 116,166 183,205 86,51 136,63 251,60 99,-3 110,-5 182,-41 z m 3131,-52 c 4,-14 30,-74 60,-133 201,-409 567,-694 1021,-797 107,-25 140,-28 305,-28 171,0 195,3 315,31 321,74 590,233 800,471 l 80,90 8,-86 9,-86 -84,-84 C 6649,760 6113,588 5620,669 c -502,83 -911,374 -1163,826 l -56,100 32,86 c 18,48 35,85 38,83 4,-2 10,-15 13,-29 z m 699,20 c 86,-22 135,-51 203,-119 138,-139 171,-340 83,-514 -27,-54 -100,-142 -117,-142 -10,0 -156,75 -182,93 -18,13 -16,15 33,48 97,64 136,199 88,304 -25,56 -90,111 -152,129 -65,20 -73,20 -140,0 -67,-20 -138,-88 -157,-152 -7,-23 -17,-40 -21,-37 -14,8 -131,182 -131,194 0,6 28,39 63,74 117,119 272,163 430,122 z m -3877,-75 c 153,-75 225,-244 175,-408 -16,-55 -28,-75 -55,-96 -19,-14 -41,-38 -48,-53 -8,-16 -37,-39 -73,-57 -54,-28 -68,-31 -150,-30 -73,0 -99,4 -137,23 -75,36 -134,95 -170,169 -29,59 -33,76 -33,147 1,65 6,91 26,135 86,184 287,258 465,170 z m 724,-250 c 24,-36 58,-83 77,-106 l 33,-41 -15,-86 c -69,-393 -359,-698 -756,-794 -100,-24 -325,-24 -424,1 -73,18 -185,56 -185,63 0,2 17,27 39,56 21,29 44,63 51,75 9,18 17,22 33,17 226,-70 429,-59 622,34 221,108 380,311 432,554 19,89 12,297 -11,371 -25,78 -18,77 23,-4 21,-42 57,-105 81,-140 z m 3463,185 c 62,-36 162,-71 244,-85 l 72,-13 12,-71 c 14,-85 7,-236 -16,-321 -19,-71 -92,-225 -111,-232 -14,-5 -168,28 -246,53 l -47,15 42,52 c 135,167 148,404 32,577 -19,28 -31,50 -29,50 3,0 24,-11 47,-25 z M 1872,1480 c 14,-87 4,-251 -20,-326 -100,-319 -398,-528 -726,-511 -93,5 -211,28 -228,45 -4,4 -1,42 5,85 9,64 14,76 27,71 57,-25 155,-44 223,-44 242,0 447,140 539,367 28,70 31,89 32,188 1,61 -3,128 -7,150 l -8,40 63,32 63,31 14,-32 c 7,-17 18,-60 23,-96 z m 5050,104 c 34,-17 64,-56 79,-101 42,-127 -98,-252 -224,-199 -49,20 -95,78 -102,129 -8,51 23,137 48,137 8,0 21,9 28,21 25,37 109,44 171,13 z m -1752,-74 c 127,-65 149,-242 43,-342 -34,-32 -99,-61 -116,-52 -28,17 -162,130 -198,168 -35,36 -39,45 -35,79 8,74 79,148 160,168 41,10 102,1 146,-21 z m 1468,-37 c -24,-30 -146,-123 -210,-160 -90,-53 -210,-101 -305,-123 -97,-23 -279,-38 -270,-23 4,6 48,13 98,17 162,12 324,61 454,138 75,44 174,119 215,163 25,27 42,17 18,-12 z m 11,-93 c 15,-52 60,-102 110,-125 l 41,-18 -80,-63 C 6494,997 6223,897 5931,883 c -76,-3 -149,-3 -163,0 l -26,7 31,57 c 17,32 41,85 53,118 l 22,60 93,7 c 235,18 461,105 629,242 30,25 58,45 61,46 3,0 11,-18 18,-40 z M 528,1269 c 59,-15 69,-23 78,-62 3,-18 17,-53 30,-79 13,-26 24,-50 24,-52 0,-3 -19,8 -42,23 -49,33 -135,61 -187,61 -50,0 -134,-24 -176,-50 -20,-12 -37,-21 -39,-19 -5,6 -26,97 -26,112 0,16 74,51 137,66 55,13 147,13 201,0 z m -11,-174 c 69,-20 143,-88 173,-157 47,-109 21,-233 -65,-318 -42,-42 -46,-43 -71,-30 -14,8 -63,53 -107,100 -82,87 -163,208 -194,294 -16,43 -16,46 1,65 26,29 112,60 167,60 25,1 68,-6 96,-14 z M 856,882 c 60,-31 20,-222 -73,-343 -20,-27 -42,-50 -48,-53 -7,-2 -36,9 -65,26 l -52,30 45,46 c 76,79 92,120 92,237 0,79 -4,107 -19,134 -18,34 -17,33 40,-16 33,-28 69,-55 80,-61 z m 6968,-27 c 30,-14 76,-46 101,-71 63,-61 130,-204 95,-204 -5,0 -42,19 -82,42 -73,44 -278,233 -278,258 0,21 100,5 164,-25 z m -232,-18 c 15,-24 37,-52 48,-62 29,-26 25,-32 -23,-37 -58,-7 -123,-50 -155,-103 -15,-25 -30,-45 -33,-45 -4,0 -26,29 -49,64 -47,74 -47,80 21,140 38,35 130,86 154,86 6,0 22,-20 37,-43 z m 171,-188 c 34,-28 68,-60 74,-72 17,-29 16,-100 0,-140 -14,-31 -88,-107 -106,-107 -15,0 -163,116 -215,169 -56,57 -57,77 -4,137 40,46 79,63 141,64 43,0 54,-5 110,-51 z m 210,-137 69,-34 -7,-36 c -9,-53 -59,-153 -93,-185 l -29,-27 -72,36 -73,36 37,31 c 46,38 85,118 85,175 0,24 3,42 8,40 4,-1 38,-18 75,-36 z"
     inkscape:connector-curvature="0"
     style="fill:#ff0000" /><path
     id="path10306"
     d="m 1893,3594 c -39,-19 -67,-74 -58,-114 8,-37 48,-77 86,-85 46,-10 101,23 118,71 12,36 12,44 -4,78 -12,25 -30,43 -51,52 -42,18 -51,17 -91,-2 z m 108,-33 c 20,-20 29,-39 29,-61 0,-43 -47,-90 -90,-90 -43,0 -90,47 -90,90 0,43 47,90 90,90 22,0 41,-9 61,-29 z"
     inkscape:connector-curvature="0"
     style="fill:#ff0000" /><path
     id="path10308"
     d="m 6800,2480 c -45,-45 -11,-120 54,-120 37,0 76,36 76,70 0,10 -9,29 -21,44 -26,33 -79,36 -109,6 z"
     inkscape:connector-curvature="0"
     style="fill:#ff0000" /><path
     id="path10310"
     d="m 1852,3073 c -119,-58 -134,-227 -26,-309 27,-21 50,-29 95,-32 72,-5 108,8 153,59 79,87 51,227 -55,281 -43,22 -123,23 -167,1 z m 161,-40 c 64,-32 88,-134 47,-201 -20,-33 -87,-71 -124,-72 -11,0 -39,9 -63,21 -71,34 -103,122 -69,187 43,83 125,108 209,65 z"
     inkscape:connector-curvature="0"
     style="fill:#ff0000" /><path
     id="path10312"
     d="m 10637,3001 c -21,-11 -60,-24 -87,-30 -26,-6 -81,-24 -122,-40 -387,-154 -647,-534 -648,-949 -1,-563 460,-1023 1025,-1023 247,0 457,76 659,238 43,35 84,67 90,71 16,10 138,196 170,259 90,178 125,415 91,613 -81,474 -443,809 -930,861 -200,22 -208,22 -248,0 z m 182,-40 c 87,-62 93,-186 12,-254 -70,-59 -156,-54 -222,12 -81,81 -50,219 61,264 32,13 117,1 149,-22 z m 95,-20 c 26,-29 41,-118 27,-167 -16,-61 -63,-118 -116,-144 -64,-31 -167,-26 -220,11 -51,37 -82,84 -96,143 -13,59 1,130 27,140 14,5 15,2 8,-21 -5,-16 -9,-53 -9,-85 0,-47 5,-64 30,-99 62,-88 183,-112 267,-54 81,57 111,166 68,250 -11,22 -20,41 -20,42 0,9 19,0 34,-16 z m 271,-58 c 44,-18 89,-40 99,-48 18,-14 17,-17 -25,-62 -24,-27 -51,-58 -59,-71 l -15,-23 -65,29 c -36,16 -79,33 -97,36 l -32,7 1,67 c 0,37 -5,80 -11,95 -6,16 -11,30 -11,32 0,9 145,-32 215,-62 z m -711,-158 c 5,-16 -1,-24 -31,-38 -111,-55 -221,-152 -295,-260 -87,-127 -127,-251 -135,-420 l -6,-118 -51,-26 c -28,-14 -64,-37 -81,-50 l -29,-25 -8,28 c -17,61 -20,192 -8,279 48,337 237,608 528,757 l 97,49 6,-78 c 4,-43 10,-87 13,-98 z m 915,43 c 70,-53 131,-108 131,-118 0,-5 -16,-18 -35,-30 -19,-12 -47,-42 -61,-66 -23,-39 -26,-53 -22,-109 3,-53 9,-71 34,-101 63,-78 163,-99 247,-52 l 45,25 20,-71 c 11,-39 23,-96 27,-127 7,-55 6,-56 -22,-67 -165,-64 -343,-29 -467,92 -140,137 -174,343 -85,518 19,37 114,148 127,148 3,0 30,-19 61,-42 z m -281,-131 c 39,-18 43,-23 38,-46 -61,-272 82,-516 342,-581 41,-11 42,-12 42,-53 -1,-49 -24,-174 -34,-184 -12,-13 -138,26 -226,69 -120,59 -239,178 -298,298 -54,110 -75,193 -76,305 -1,119 10,179 40,214 l 25,30 52,-16 c 29,-8 72,-24 95,-36 z m -498,-52 c 67,-34 158,-31 250,9 13,5 15,-12 15,-126 0,-111 4,-145 23,-208 41,-130 87,-206 187,-306 78,-78 104,-98 185,-137 52,-25 123,-51 158,-58 70,-15 70,-13 24,-104 -55,-110 -168,-231 -279,-298 -77,-47 -192,-85 -289,-95 -85,-9 -230,0 -246,16 -7,7 -6,28 1,62 50,234 -84,469 -315,551 -42,15 -85,22 -153,22 l -94,2 6,100 c 15,259 158,484 382,604 l 59,31 25,-24 c 14,-13 42,-32 61,-41 z m 985,-22 c 19,-27 53,-83 76,-126 46,-89 45,-96 -27,-123 -54,-21 -104,-14 -149,20 -42,32 -70,102 -61,151 10,52 75,121 118,124 4,1 24,-20 43,-46 z m 193,-580 c 1,-32 -4,-89 -11,-128 l -12,-70 -55,-12 c -30,-6 -74,-12 -98,-12 -37,-1 -43,2 -38,17 12,40 26,139 26,179 0,42 1,43 33,44 17,0 57,8 87,19 30,10 58,18 61,19 3,1 6,-25 7,-56 z m -1504,-109 c 128,-33 241,-127 298,-250 25,-53 32,-83 36,-154 3,-54 0,-108 -7,-137 -24,-92 -90,-200 -151,-243 l -28,-20 -71,36 c -39,19 -71,39 -71,43 0,4 11,13 25,19 46,21 112,92 136,145 18,40 23,70 23,127 0,129 -61,222 -182,278 -47,21 -64,24 -136,20 -96,-5 -142,-26 -206,-92 -24,-25 -47,-43 -51,-40 -4,2 -17,37 -29,76 l -22,73 33,28 c 109,92 264,127 403,91 z m 1476,-122 c 0,-21 -51,-154 -82,-217 -38,-75 -77,-129 -78,-107 0,28 -44,75 -86,94 l -43,19 33,62 c 19,34 39,79 46,100 11,36 12,37 63,38 29,0 70,4 92,8 56,12 55,12 55,3 z m -1503,-47 c 60,-18 135,-81 165,-139 26,-51 35,-159 18,-212 -19,-58 -59,-112 -105,-144 -65,-45 -84,-46 -130,-6 l -40,35 30,1 c 41,1 102,37 139,83 26,33 31,48 34,105 2,55 -1,74 -20,107 -33,57 -92,95 -159,101 -46,5 -62,2 -109,-23 -44,-23 -59,-39 -83,-83 -15,-30 -30,-56 -31,-58 -2,-1 -13,18 -25,44 l -22,46 26,39 c 43,66 139,118 221,119 22,0 63,-7 91,-15 z m -14,-109 c 43,-18 84,-67 98,-118 23,-88 -34,-184 -125,-207 -68,-17 -90,-7 -157,73 -59,68 -61,73 -56,118 10,112 131,180 240,134 z m 1284,-111 c 14,-9 31,-33 40,-53 34,-81 -15,-161 -105,-170 -46,-4 -53,-2 -87,30 -115,105 21,278 152,193 z m -205,-177 c 15,-28 37,-49 66,-63 l 44,-22 -49,-35 c -119,-85 -241,-139 -387,-169 -125,-26 -318,-22 -432,9 -100,27 -101,28 -58,71 20,20 48,53 62,74 22,32 30,38 51,33 161,-36 328,-23 481,37 58,22 167,83 176,98 10,17 23,8 46,-33 z"
     inkscape:connector-curvature="0"
     style="fill:#ff0000" /><path
     id="path10314"
     d="m 3223,2616 c -23,-19 -42,-24 -113,-28 -439,-22 -551,-614 -153,-801 53,-24 84,-32 149,-35 180,-10 325,75 407,238 31,62 32,70 32,180 0,104 -3,121 -27,172 -15,32 -48,80 -73,107 -28,30 -45,56 -42,65 10,25 -13,84 -40,106 -37,29 -103,27 -140,-4 z m 123,-21 c 67,-42 9,-161 -68,-142 -78,20 -89,118 -18,154 26,13 51,10 86,-12 z m -166,-56 c 0,-95 119,-151 186,-88 l 21,20 38,-42 c 134,-148 129,-379 -11,-529 -69,-74 -154,-113 -259,-118 -184,-10 -338,93 -394,265 -82,248 101,511 357,513 56,0 62,-2 62,-21 z"
     inkscape:connector-curvature="0"
     style="fill:#ff0000" /><path
     id="path10316"
     d="m 3008,2407 c -138,-71 -186,-231 -111,-368 51,-95 150,-147 263,-136 233,21 326,319 148,471 -86,74 -197,86 -300,33 z m 160,-84 c 103,-22 126,-30 139,-50 9,-13 13,-26 11,-29 -3,-2 -90,-31 -194,-63 l -189,-59 -3,36 c -2,20 -1,50 3,68 6,33 78,124 98,124 7,0 67,-12 135,-27 z m 167,-124 c 14,-43 -21,-145 -61,-180 -88,-77 -214,-70 -293,16 -22,24 -41,51 -41,58 0,9 62,33 178,69 97,31 185,57 194,57 9,1 20,-8 23,-20 z"
     inkscape:connector-curvature="0"
     style="fill:#ff0000" /><path
     id="path10318"
     d="m 5753,2592 c -146,-52 -232,-172 -233,-324 0,-98 29,-169 99,-239 77,-76 146,-102 256,-97 135,7 229,68 287,186 29,59 33,76 33,152 0,72 -4,93 -27,140 -35,71 -97,133 -165,167 -73,35 -176,41 -250,15 z m 219,-28 c 134,-44 226,-205 199,-350 -56,-299 -454,-359 -591,-90 -31,61 -35,78 -35,145 0,90 26,155 83,214 96,99 210,126 344,81 z"
     inkscape:connector-curvature="0"
     style="fill:#ff0000" /><path
     id="path10320"
     d="m 5784,2474 c -148,-53 -191,-247 -79,-359 68,-69 164,-83 253,-39 137,68 161,251 47,352 -67,59 -141,74 -221,46 z m 162,-65 c 48,-29 76,-81 76,-139 0,-66 -7,-74 -43,-53 -23,14 -29,24 -29,51 0,69 -90,118 -144,77 -17,-13 -22,-12 -48,6 -32,23 -29,32 16,60 43,26 128,26 172,-2 z m -176,-135 c 0,-26 8,-43 29,-65 33,-32 62,-36 105,-14 25,13 31,13 57,-2 34,-20 35,-25 11,-46 -35,-32 -93,-49 -141,-42 -92,14 -163,126 -132,208 11,27 11,27 41,12 25,-13 30,-22 30,-51 z"
     inkscape:connector-curvature="0"
     style="fill:#ff0000" /><path
     id="path10322"
     d="m 8273,2580 c -74,-45 -83,-139 -19,-197 29,-27 44,-33 81,-33 64,0 115,46 121,110 6,54 -9,86 -55,117 -42,28 -86,29 -128,3 z m 124,-25 c 34,-24 47,-76 29,-118 -14,-35 -58,-67 -91,-67 -63,0 -115,75 -95,136 15,44 44,64 95,64 22,0 50,-7 62,-15 z"
     inkscape:connector-curvature="0"
     style="fill:#ff0000" /><path
     id="path10324"
     d="m 4511,2303 c -67,-33 -93,-132 -52,-199 36,-60 127,-81 188,-44 154,94 27,323 -136,243 z m 113,-7 c 107,-45 102,-200 -8,-236 -56,-18 -112,3 -147,57 -37,56 -12,141 51,175 42,22 60,22 104,4 z"
     inkscape:connector-curvature="0"
     style="fill:#ff0000" /><path
     id="path10326"
     d="m 8303,1742 c -96,-34 -154,-86 -203,-182 -35,-67 -40,-195 -11,-271 85,-224 373,-292 559,-133 25,21 55,62 74,102 30,60 33,75 33,157 0,78 -4,98 -27,145 -35,71 -97,133 -166,167 -72,35 -184,42 -259,15 z m 247,-50 c 60,-31 112,-83 141,-140 20,-40 24,-61 24,-142 0,-85 -3,-100 -27,-140 -63,-108 -157,-164 -273,-164 -124,0 -223,61 -277,171 -64,130 -36,269 73,367 66,59 114,76 214,73 61,-1 91,-7 125,-25 z"
     inkscape:connector-curvature="0"
     style="fill:#ff0000" /><path
     id="path10328"
     d="m 8322,1657 c -46,-17 -98,-61 -129,-110 -15,-23 -38,-54 -51,-68 -13,-15 -24,-40 -24,-57 -1,-32 25,-82 42,-82 6,0 10,-6 10,-13 0,-33 61,-107 111,-136 104,-59 220,-47 304,30 61,56 85,110 85,190 0,151 -107,259 -255,258 -33,0 -75,-6 -93,-12 z m 195,-36 c 211,-108 151,-417 -86,-438 -79,-7 -156,26 -200,88 -17,23 -31,45 -31,49 0,4 14,13 30,20 36,15 50,37 50,80 0,33 -38,80 -65,80 -21,0 -19,11 9,49 69,93 193,124 293,72 z"
     inkscape:connector-curvature="0"
     style="fill:#ff0000" /><path
     id="path10330"
     d="m 1052,1633 c -61,-21 -136,-99 -157,-164 -36,-109 -4,-236 77,-305 109,-92 275,-88 377,9 114,108 108,309 -11,411 -73,63 -190,83 -286,49 z m 179,-15 c 57,-19 117,-66 145,-114 31,-53 43,-152 25,-207 -60,-180 -291,-236 -425,-101 -107,107 -99,268 19,372 65,57 158,77 236,50 z"
     inkscape:connector-curvature="0"
     style="fill:#ff0000" /><path
     id="path10332"
     d="m 6780,1563 c -131,-68 -88,-263 59,-263 54,0 94,21 120,63 72,117 -58,263 -179,200 z m 145,-36 c 103,-103 -8,-264 -140,-201 -52,25 -82,90 -66,145 17,57 61,89 123,89 43,0 54,-4 83,-33 z"
     inkscape:connector-curvature="0"
     style="fill:#ff0000" /><path
     id="path10334"
     d="m 7881,3714 c -150,-40 -282,-171 -327,-324 -25,-87 -16,-238 19,-315 85,-182 243,-285 438,-285 285,0 503,252 462,535 -40,280 -318,463 -592,389 z m 306,-104 c 73,-36 144,-110 182,-190 23,-48 26,-68 26,-160 0,-93 -3,-112 -27,-162 -56,-120 -169,-205 -300,-228 -259,-45 -498,195 -450,452 50,267 326,406 569,288 z"
     inkscape:connector-curvature="0"
     style="fill:#ff0000" /><path
     id="path10336"
     d="m 7945,3551 c -176,-47 -275,-220 -219,-383 11,-34 13,-55 6,-81 -11,-40 6,-90 37,-106 24,-13 81,-14 100,-2 7,5 32,3 59,-5 99,-30 196,-7 277,68 193,176 86,489 -176,512 -30,3 -67,1 -84,-3 z m 173,-80 c 54,-27 99,-85 118,-149 47,-161 -88,-319 -256,-299 -64,8 -70,12 -70,46 0,40 -44,81 -85,81 -28,0 -35,5 -44,31 -17,48 -13,129 8,175 56,123 208,177 329,115 z m -244,-361 c 29,-28 25,-78 -8,-107 -36,-31 -61,-29 -97,6 -37,37 -37,65 1,103 25,24 36,29 58,23 15,-3 36,-15 46,-25 z"
     inkscape:connector-curvature="0"
     style="fill:#ff0000" /><path
     id="path10338"
     d="m 4239,1155 c -25,-8 -67,-33 -93,-56 -209,-185 -82,-519 197,-519 112,0 210,63 258,165 73,152 13,321 -141,400 -47,24 -161,29 -221,10 z m 212,-63 c 187,-97 176,-366 -18,-447 -49,-21 -149,-19 -198,4 -45,20 -99,71 -122,115 -21,41 -28,128 -13,181 16,56 81,132 135,156 63,29 151,25 216,-9 z"
     inkscape:connector-curvature="0"
     style="fill:#ff0000" /><path
     id="path10340"
     d="m 4269,1086 c -111,-39 -172,-144 -148,-254 36,-169 235,-238 361,-124 105,94 104,244 -1,334 -62,53 -141,70 -212,44 z m 171,-60 c 22,-14 47,-44 59,-68 82,-170 -105,-339 -260,-235 -123,83 -109,256 26,319 52,24 124,18 175,-16 z"
     inkscape:connector-curvature="0"
     style="fill:#ff0000" /></g></svg>