<?xml version="1.0" encoding="utf-8"?>
<!-- Generator: Adobe Illustrator 17.0.0, SVG Export Plug-In . SVG Version: 6.00 Build 0)  -->
<!DOCTYPE svg PUBLIC "-//W3C//DTD SVG 1.1//EN" "http://www.w3.org/Graphics/SVG/1.1/DTD/svg11.dtd">
<svg version="1.1"
	 id="Layer_1" xmlns:rdf="http://www.w3.org/1999/02/22-rdf-syntax-ns#" xmlns:dc="http://purl.org/dc/elements/1.1/" xmlns:inkscape="http://www.inkscape.org/namespaces/inkscape" xmlns:sodipodi="http://sodipodi.sourceforge.net/DTD/sodipodi-0.dtd" xmlns:svg="http://www.w3.org/2000/svg" xmlns:cc="http://creativecommons.org/ns#" sodipodi:docname="musicbox_speaker.svg" inkscape:version="0.48.2 r9819"
	 xmlns="http://www.w3.org/2000/svg" xmlns:xlink="http://www.w3.org/1999/xlink" x="0px" y="0px" width="2304px" height="1440px"
	 viewBox="0 0 2304 1440" enable-background="new 0 0 2304 1440" xml:space="preserve">
<sodipodi:namedview  borderopacity="1" objecttolerance="10" gridtolerance="10" guidetolerance="10" showgrid="false" inkscape:cx="773.875" inkscape:zoom="0.32" inkscape:cy="720" id="namedview23" bordercolor="#666666" pagecolor="#ffffff" inkscape:window-y="0" inkscape:pageopacity="0" inkscape:pageshadow="2" inkscape:window-x="0" inkscape:window-maximized="1" inkscape:current-layer="Layer_1" inkscape:window-width="1280" inkscape:window-height="752">
	</sodipodi:namedview>
<path id="path5" inkscape:connector-curvature="0" fill="none" stroke="#000000" stroke-width="0.2835" stroke-linecap="round" stroke-linejoin="round" stroke-miterlimit="10" d="
	M792.25,266.424v60.102 M792.25,194.525v23.899 M432.25,266.424v60.102 M792.25,194.525l-0.2-8l-0.6-8.101l-0.899-8l-1.2-8
	l-1.7-7.899l-1.901-7.801l-2.4-7.8l-2.6-7.6l-3-7.5l-3.4-7.4l-3.6-7.2l-4-7l-4.301-6.8l-4.6-6.7l-4.9-6.4l-5.199-6.2l-5.4-5.9
	l-5.8-5.8l-5.9-5.4l-6.2-5.2l-6.398-4.9l-6.702-4.6l-6.8-4.3l-7-4l-7.2-3.6l-7.4-3.4l-7.5-3l-7.6-2.6l-7.8-2.4l-7.8-1.9l-7.9-1.7
	l-8-1.2l-8-0.9l-8.1-0.6l-8-0.2l-8.102,0.2l-8.1,0.6l-8,0.9l-8,1.2l-7.9,1.7l-7.8,1.9l-7.8,2.4l-7.602,2.6l-7.5,3l-7.3,3.4l-7.2,3.6
	l-7.1,4l-6.8,4.3l-6.602,4.6l-6.5,4.9l-6.198,5.2l-5.9,5.4l-5.7,5.8l-5.5,5.9l-5.2,6.2l-4.898,6.399l-4.602,6.7l-4.3,6.8l-4,7
	l-3.6,7.2l-3.4,7.4l-3,7.5l-2.6,7.6l-2.4,7.8l-1.898,7.801l-1.7,7.899l-1.2,8l-0.899,8l-0.601,8.101l-0.1,8 M432.25,194.525v23.899
	 M418.05,374.526h388.3 M432.25,218.425h-14.2 M418.05,218.425v48 M432.25,266.424h-14.2 M432.25,326.526h-14.2 M418.05,374.526v-48
	 M806.35,374.526v-48 M792.25,326.526h14.1 M792.25,266.424h14.1 M806.35,218.424v48 M792.25,218.424h14.1"/>
<g id="g3004" transform="matrix(0,-1,1,0,-650.45,841.725)">
	
		<path id="path11" inkscape:connector-curvature="0" fill="none" stroke="#000000" stroke-width="0.2835" stroke-linecap="round" stroke-linejoin="round" stroke-miterlimit="10" d="
		M575.301,1040.2H515.2 M647.201,1040.2h-23.899 M575.301,680.2H515.2 M647.201,1040.2l8-0.2l8.101-0.601l8-0.899l8-1.2l7.899-1.7
		l7.801-1.898l7.8-2.4l7.601-2.6l7.5-3l7.399-3.4l7.2-3.6l7-4l6.8-4.301l6.7-4.601l6.399-4.899l6.199-5.199l5.9-5.4l5.8-5.8l5.4-5.9
		l5.2-6.199l4.899-6.399l4.601-6.7l4.3-6.8l4-7l3.6-7.2l3.4-7.399l3-7.5l2.6-7.601l2.4-7.8l1.9-7.8l1.699-7.9l1.2-8l0.9-8l0.6-8.1
		l0.2-8l-0.2-8.102l-0.6-8.1l-0.9-8l-1.2-8l-1.699-7.9l-1.9-7.8l-2.4-7.8l-2.6-7.601l-3-7.5l-3.4-7.301l-3.6-7.199l-4-7.101
		l-4.3-6.8l-4.601-6.601l-4.899-6.5l-5.2-6.199l-5.4-5.9l-5.8-5.7l-5.9-5.5l-6.199-5.199l-6.399-4.899l-6.7-4.601l-6.8-4.301l-7-4
		l-7.2-3.6l-7.399-3.4l-7.5-3l-7.601-2.6l-7.8-2.4l-7.801-1.898l-7.899-1.7l-8-1.2l-8-0.899l-8.101-0.601l-8-0.1 M647.201,680.2
		h-23.899 M467.201,666v388.3 M623.301,680.2V666 M623.301,666h-48 M575.301,680.2V666 M515.201,680.2V666 M467.201,666h48
		 M467.201,1054.3h48 M515.201,1040.2v14.1 M575.301,1040.2v14.1 M623.301,1054.3h-48 M623.301,1040.2v14.1"/>
	
		<circle id="circle13" sodipodi:ry="106.301" sodipodi:cy="860.14801" sodipodi:rx="106.301" sodipodi:cx="647.20099" fill="none" stroke="#000000" stroke-width="0.2835" stroke-linecap="round" stroke-linejoin="round" stroke-miterlimit="10" cx="647.201" cy="860.148" r="106.301">
	</circle>
	
		<circle id="circle15" sodipodi:ry="5.8109999" sodipodi:cy="945.18799" sodipodi:rx="5.8109999" sodipodi:cx="562.16199" fill="none" stroke="#000000" stroke-width="0.2835" stroke-linecap="round" stroke-linejoin="round" stroke-miterlimit="10" cx="562.162" cy="945.188" r="5.811">
	</circle>
	
		<circle id="circle17" sodipodi:ry="5.8109999" sodipodi:cy="945.18799" sodipodi:rx="5.8109999" sodipodi:cx="732.24103" fill="none" stroke="#000000" stroke-width="0.2835" stroke-linecap="round" stroke-linejoin="round" stroke-miterlimit="10" cx="732.241" cy="945.188" r="5.811">
	</circle>
	
		<circle id="circle19" sodipodi:ry="5.8109999" sodipodi:cy="775.10901" sodipodi:rx="5.8109999" sodipodi:cx="732.24103" fill="none" stroke="#000000" stroke-width="0.2835" stroke-linecap="round" stroke-linejoin="round" stroke-miterlimit="10" cx="732.241" cy="775.109" r="5.811">
	</circle>
	
		<circle id="circle21" sodipodi:ry="5.8109999" sodipodi:cy="775.10901" sodipodi:rx="5.8109999" sodipodi:cx="562.16199" fill="none" stroke="#000000" stroke-width="0.2835" stroke-linecap="round" stroke-linejoin="round" stroke-miterlimit="10" cx="562.162" cy="775.109" r="5.811">
	</circle>
</g>
<path fill="#EC1E24" d="M615.846,73.655c0,0-14.267,0.258-18.891,3.194c-0.26,0.254-0.52,0.508-0.777,0.505
	c-6.179,0.827-11.16-1.932-14.978-5.189c-1.274-1.043-1.248-3.101-2.658-3.63c-1.291,0.498-1.946,1.519-2.858,2.666
	c-2.488,3.827-0.749,8.989,1.14,12.353c0.756,1.295,2.069,2.377,2.911,3.89c-2.866,3.308-7.135,5.573-11.518,6.678
	c-6.053,1.085-15.342,2.806-18.726-3.433c-1.187-2.187-0.159-6.621,4.584-7.273c2.306-0.317,4.618,0.825,5.878,2.896
	c0.88,1.682-0.041,3.599-0.189,5.14c0.768,0.267,1.924,0.409,2.828,0.033c2.326-1,4.158-3.807,4.572-6.245
	c0.818-3.975-0.812-7.464-3.482-9.937l3.133-4.078c2.953-3.996,1.155-15.435-4.963-15.227c0.461,10.974-6.055,12.141-9.393,11.716
	c-0.384-0.135-1.026-0.14-0.891-0.782c4.424-4.576,6.82-11.489,4.585-18.199c-1.613-4.903-6.06-9.454-11.19-10.414
	c-5.519-0.707-11.702,0.504-15.348,4.447c-4.027,3.551-3.463,10.243-8.634,12.753c-0.775,0.376-2.055-0.152-2.449,0.486
	c2.63,5.943,11.173,0.901,14.583,6.084c0.246,0.903,1.646,2.076,0.481,2.834c-6.254-3.802-14.966-6.217-22.453-3.478
	c-5.939,2.116-9.484,8.501-9.432,15.058c0.327,5.016,5.397,14.826,14.65,11.225c-0.368-1.547-1.107-2.928-1.102-4.768
	c0.011-3.456,6.63-8.468,9.684-3.615c-0.279,1.797-0.302,3.724-0.067,5.656c2.158,13.265,15.716,19.079,27.116,22.426
	c0,0,4.536,1.446,3.149,5.436c-1.061,2.816-3.136,4.334-5.85,5.586c-1.288,0.242-2.711,0.997-3.992,0.596
	c-0.729-3.607,0.047-5.159-3.48-10.066c-3.527-4.907-9.719-4.227-13.794-7.618c-2.546-2.087-3.926-4.929-5.565-7.648
	c-5.456,3.079-4.234,12.14-3.656,15.766c0.124,0.388,0.496,1.55-0.404,1.538l-5.505-1.864c-7.436-1.63-14.93,1.753-18.729,7.749
	c-3.915,4.967-3.351,11.786-3.682,18.081l-0.278,0.817c-0.783,1.021-2.564,0.307-3.721,0.294c-1.034,0.502-1.181,2.042-1.196,3.456
	c0.227,2.574,1.614,4.775,3.526,6.212c2.672,2.344,7.299,2.398,10.656,1.024c4.402-2.647,7.542-7.366,8.122-13.016
	c0.544-2.436-0.587-4.634,0.47-7.064c0.397-1.024,1.561-1.653,2.586-1.384c3.447,2.097,4.559,5.838,7.226,8.568
	c2.415,2.342,4.831,4.556,8.157,6.008l-0.262,0.383c-6.326,2.369-12.393,4.483-18.089,8.014
	c-11.386,6.293-20.622,19.188-20.17,31.898c0.451,12.712,2.462,20.107,16.35,30.656c-0.04,3.343,0.178,6.687,2.464,9.028
	c4.067,3.904,10.491,4.235,15.214,6.991c3.32,1.966,5.341,4.947,4.906,9.184c-0.408,1.923-1.841,3.577-3.902,3.938
	c-1.803,0.234-2.936-1.706-4.212-2.49c-0.512-0.264-0.774,0.246-0.909,0.758c-0.277,1.669-0.691,4.105,1.096,5.155
	c3.309,2.867,8.574,3.184,12.832,1.823c5.042-2.515,9.209-6.964,10.051-12.995c1.224-5.77-1.153-11.325-4.701-15.608l-0.249-0.775
	c2.866-3.179,5.354-7.133,5.793-11.629c0.398-1.023-0.859-7.358-3.509-7.752c-1.433,1.654-2.988,2.791-5.181,3.409
	c-0.903,0.246-2.453,0.872-3.085-0.037c3.259-3.817,6.52-7.892,6.073-13.552c-0.554-7.591-10.666-14.959-11.762-16.335
	c-1.096-1.375-1.004-2.069-1.004-2.069c-3.349,0.605-5.957,3.659-7.404,6.47c-1.711,3.45-1.646,8.851,0.765,11.578
	c0.63,1.035,2.294,1.569,2.536,2.987c-2.485,3.569-7.25,4.413-11.351,3.336c-1.405-0.787-2.948-1.748-3.303-3.381
	c-2.536-11.717,9.032-26.456,22.515-23.642c5.01,1.044,6.653,4.47,13.549,6.585c0.626,0.192,6.139,0.964,6.643,1.741l1.028-28.791
	l15.925-1.08c0,0,14.685-13.581,22.581-18.373c4.788-2.772,10.583-3.603,15.874-5.341l0.771,0.01
	c-3.629,2.528-7.762,4.279-10.883,7.327c-4.552,4.446-7.059,9.944-8.29,16.227c2.067,0.545,30.344,0.545,30.344,0.545"/>
<path fill="#FFFFFF" d="M542.537,47.931c0.25,0.645-0.403,0.662-0.905,0.503c-2.178-0.667-4.841-0.268-6.315,1.341
	c-0.477,0.521-1.685,1.265-1.567,2.167c2.445-0.229,6.447-1.724,7.827,1.121c-1.546,0.367-3.78,0.382-5.41,0.964
	c-2.909,1.04-6.693,3.531-9.792,1.942c-0.564-0.307,0.134-0.513,0.134-0.513c5.057-3.668,5.034-12.666,12.982-10.902
	C541.027,45.214,541.652,46.636,542.537,47.931"/>
<path fill="#FFFFFF" d="M546.857,52.224c1.966,7.735-1.728,15.79-5.406,22.431l-0.004,0.386c10.712-3.699,17.217,0.587,18.483,2.273
	l-0.26,0.254c-6.398-2.517-14.513-1.071-19.196,3.758c-3.374,3.383-2.299,8.306,1.553,12.466c3.947,4.264,10.711,7.498,12.58,9.937
	c0.12,0.645-0.519,0.38-0.777,0.505c-6.65-2.905-14.723-5.056-18.11-12.167c-1.63-3.49-2.596-8.771-0.752-12.605
	c3.045-7.42,9.419-13.901,10.167-22.89l-0.048-6.813C545.982,50.156,546.536,51.26,546.857,52.224"/>
<path fill="#FFFFFF" d="M520.196,67.721c-3.737,0.569-6.725,1.725-8.036,5.562c0.539,0.695,1.374-0.398,1.937-0.749
	c2.976-1.636,7.611-2.352,10.539,0.124c0.403,0.453,0.761,0.909,0.626,1.421c-2.55-1.701-6.241-1.026-8.616,0.285
	c-5.939,3.278-5.248,9.064-5.248,9.064c-1.269-0.067-2.347-1.267-3.059-2.092c-6.211-7.197,1.052-15.295,5.842-15.871
	C516.492,65.188,518.54,66.416,520.196,67.721"/>
<path fill="#FFFFFF" d="M587.649,92.165c-5.465,5.72-12.212,11.04-19.061,14.172c-0.263,0.511,0.248,0.774,0.762,0.78
	c3.35-0.603,6.071-2.499,9.171-3.877l9.712-6.055l0.385,0.004c-1.448,2.939-3.911,4.71-6.122,6.868
	c-4.8,3.8-10.496,7.204-15.169,11.134l-0.004,0.385c1.537,0.404,2.965-0.736,4.254-1.106c5.946-2.759,11.647-6.676,16.961-10.342
	l0.384,0.133c-1.995,5.633-7.445,9.939-12.619,12.705c-4.806,4.315-8.737,10.696-16.571,10.089l-2.696-0.288
	c-0.389,0.252-0.14,1.027,0.113,1.415c2.032,2.08,4.59,3.14,7.279,4.069c0.51,0.393,0.007,0.849-0.141,1.028
	c-5.069,4.824-11.158,8.865-19.106,7.102c-7.945-2.151-12.503-8.116-18.475-13.843c-1.02-0.783-2.293-1.826-3.579-1.842
	c3.175,3.25,5.332,5.718,8.116,9.479c2.409,2.856,5.19,6.873,8.765,8.843c0,0,0.369,0.136,0.252,0.39
	c-2.086,2.244-4.66,2.901-6.86,4.161c-10.086,5.023-21.688,7.971-28.864,17.013c-4.434,5.346-6.951,11.745-7.676,18.806
	c-1.266-1.686-1.235-4.257-1.081-6.439c0.06-5.142,1.789-10.005,4.153-14.348c7.079-11.743,21.402-16.33,33.533-20.558
	c0.533-0.245,0.524-0.766,0.399-1.152c-2.804-1.961-6.256-3.543-8.539-6.142c-5.731-4.695-7.306-12.811-15.646-14.065
	c0.14-1.026,1.176-1.657,1.954-2.164c3.887-2.653,9.414-2.716,14.027-1.505c0.517-0.123,0.397-0.896,0.141-1.027
	c-2.645-2.532-5.108-11.744-3.675-15.34c2.258,4.655,5.415,9.447,10.14,12.075c3.451,1.71,7.414,3.557,7.874,8.19
	c-0.156,2.312-0.82,4.103-2.381,5.757c0.623,1.677,2.023,2.851,3.294,4.022c3.306,3.124,8.809,5.245,13.588,3.245
	c-0.503-0.906-1.401-1.045-2.162-1.954c-1.779-1.691-3.035-4.277-2.491-6.842c2.839-0.995,6.189-1.598,8.398-3.628
	c3.509-3.3,6.143-8.669,4.533-13.829c-0.613-2.578-1.224-4.124-3.108-7.894c11.225,0.343,18.158-3.884,24.269-9.853l3.711,1.457
	L587.649,92.165z"/>
<path fill="#FFFFFF" d="M508.589,114.758c-1.828,2.421-6.19,3.333-6.749,7.054c-0.144,1.283-1.961,12.253-3.542,15.448
	c-0.919,1.66-2.095,3.317-3.776,4.068c-1.159,0.244-2.576,0.485-3.209-0.294c3.494-1.887,4.576-6.502,4.748-10.227
	c-0.065-5.399,1.563-12.708,7.503-15.079C505.115,115.103,506.791,114.609,508.589,114.758"/>
<path fill="#FFFFFF" d="M590.189,116.745c-4.809,4.443-9.492,9.144-15.812,11.126c-0.945,0.196-2.068,0.875-3.089,0.349
	c4.905-1.742,7.783-6.079,11.545-8.99c2.073-1.39,4.274-2.779,6.851-3.262l0.641,0.137L590.189,116.745z"/>
<path fill="#EC1E24" d="M535.446,126.386c2.396,3.884,5.43,8.162,10.433,9.12c2.818,0.805,6.163,0.587,8.863,0.619
	c-0.397,0.767-1.908,1.411-2.848,1.637c-3.996,0.852-8.011,0.474-11.164-1.674c-6.598-4.496-8.429-11.406-8.82-15.271
	c-0.253-1.372-0.997-2.582-0.997-2.582C533.331,120.319,533.675,123.922,535.446,126.386"/>
<path fill="#FFFFFF" d="M521.248,193.104c0.729-0.686,0.816,0.093,0.816,0.093c0.113,1.287-0.416,2.568-1.199,3.587
	c-2.086,2.546-6.076,2.884-8.894,2.079c-1.279-0.528-2.557-1.185-3.573-2.226c0.264-0.512,1.42-0.498,2.061-0.361
	C515.173,197.188,518.892,195.547,521.248,193.104"/>
<path fill="#FFFFFF" d="M520.006,204.757c9.126,1.285,16.09-2.396,16.09-2.396c0.147,2.738-7.503,7.336-16.177,5.951
	c-14.48-2.312-15.269-9.921-15.269-9.921C506.314,198.926,510.501,203.418,520.006,204.757"/>
<path fill="#FFFFFF" d="M533.532,223.667c-0.008,0.642,2.025,5.596-0.773,11.046c-0.387,0.123-0.529,1.279-1.558,1.266
	c-0.257-0.003-0.511-0.261-0.507-0.519c1.187-2.556,0.708-9.283-0.126-11.058c-2.759-5.944-8.977-7.906-14.524-11.095
	c-1.347-0.773-2.885-1.926-4.208-2.878c-0.743-0.531,0.115-0.745,0.393-0.638C520.948,211.565,530.035,214.886,533.532,223.667"/>
<path fill="#FFFFFF" d="M545.068,148.889l0.086,18.337c-1.372,1.285-5.313-0.214-6.452-0.827c-5.49-3.021-12.272-6.285-19.104-4.081
	c-9.412,2.46-16.573,10.217-18.231,20.094c-0.667,2.049-0.362,4.671-0.722,6.804c0,0-0.091,1.359-0.629-1.164
	c-1.71-12.665,6.582-24.088,16.931-29.749c7.238-3.387,14.847-5.481,21.83-9.127C539.713,148.804,543.698,147.005,545.068,148.889"
	/>
<path fill="#FFFFFF" d="M525.37,174.341c1.404,0.812,5.861,5.095,7.35,8.954c0.694,1.454,0.718,4.509,0.192,5.53l-0.257-0.003
	c-1.1-4.769-5.184-7.387-7.578-11.4c-0.907,0.503-0.189,1.714,0.101,2.315c2.521,4.271,5.3,8.418,4.467,13.678
	c-1.417,0.24-1.52-1.947-2.282-2.727c-3.424-4.025-8.266-7.552-7.424-13.584c0.28-1.91,1.328-3.711,2.76-5.237
	C523.85,172.395,523.966,173.529,525.37,174.341"/>
<path fill="#FFFFFF" d="M589.437,82.288c0.627,1.293-0.414,2.309-0.938,3.203c-4.36-0.951-8.439-3.828-9.284-8.465l0.132-0.384
	C582.404,79.121,586.773,79.173,589.437,82.288"/>
<path fill="#EC1E24" d="M609.067,73.655c0,0,14.267,0.258,18.892,3.194c0.259,0.254,0.519,0.508,0.778,0.505
	c6.179,0.827,11.16-1.932,14.977-5.189c1.274-1.043,1.249-3.101,2.658-3.63c1.291,0.498,1.946,1.519,2.857,2.666
	c2.489,3.827,0.749,8.989-1.138,12.353c-0.758,1.295-2.07,2.377-2.911,3.89c2.867,3.308,7.135,5.573,11.519,6.678
	c6.053,1.085,15.341,2.806,18.726-3.433c1.185-2.187,0.157-6.621-4.584-7.273c-2.307-0.317-4.619,0.825-5.88,2.896
	c-0.88,1.682,0.044,3.599,0.19,5.14c-0.769,0.267-1.924,0.409-2.828,0.033c-2.325-1-4.158-3.807-4.572-6.245
	c-0.819-3.975,0.812-7.464,3.483-9.937l-3.133-4.078c-2.953-3.996-1.154-15.435,4.964-15.227
	c-0.463,10.974,6.055,12.141,9.392,11.716c0.383-0.135,1.025-0.14,0.89-0.782c-4.423-4.576-6.819-11.489-4.583-18.199
	c1.613-4.903,6.059-9.454,11.188-10.414c5.518-0.707,11.703,0.504,15.35,4.447c4.026,3.551,3.462,10.243,8.632,12.753
	c0.776,0.376,2.055-0.152,2.449,0.486c-2.631,5.943-11.175,0.901-14.582,6.084c-0.248,0.903-1.647,2.076-0.483,2.834
	c6.255-3.802,14.968-6.217,22.454-3.478c5.938,2.116,9.485,8.501,9.432,15.058c-0.327,5.016-5.398,14.826-14.65,11.225
	c0.368-1.547,1.106-2.928,1.101-4.768c-0.011-3.456-6.63-8.468-9.682-3.615c0.279,1.797,0.301,3.724,0.067,5.656
	c-2.159,13.265-15.715,19.079-27.117,22.426c0,0-4.537,1.446-3.148,5.436c1.06,2.816,3.135,4.334,5.849,5.586
	c1.288,0.242,2.712,0.997,3.993,0.596c0.727-3.607-0.048-5.159,3.478-10.066c3.529-4.907,9.721-4.227,13.795-7.618
	c2.545-2.087,3.926-4.929,5.566-7.648c5.454,3.079,4.233,12.14,3.655,15.766c-0.125,0.388-0.497,1.55,0.402,1.538l5.509-1.864
	c7.433-1.63,14.929,1.753,18.728,7.749c3.914,4.967,3.351,11.786,3.682,18.081l0.275,0.817c0.784,1.021,2.565,0.307,3.722,0.294
	c1.035,0.502,1.181,2.042,1.198,3.456c-0.227,2.574-1.615,4.775-3.526,6.212c-2.672,2.344-7.299,2.398-10.657,1.024
	c-4.401-2.647-7.54-7.366-8.122-13.016c-0.543-2.436,0.587-4.634-0.468-7.064c-0.398-1.024-1.562-1.653-2.589-1.384
	c-3.446,2.097-4.559,5.838-7.225,8.568c-2.415,2.342-4.83,4.556-8.156,6.008l0.261,0.383c6.326,2.369,12.393,4.483,18.09,8.014
	c11.385,6.293,20.621,19.188,20.17,31.898c-0.452,12.712-2.461,20.107-16.35,30.656c0.04,3.343-0.178,6.687-2.464,9.028
	c-4.068,3.904-10.49,4.235-15.214,6.991c-3.32,1.966-5.34,4.947-4.905,9.184c0.408,1.923,1.841,3.577,3.903,3.938
	c1.801,0.234,2.936-1.706,4.211-2.49c0.512-0.264,0.775,0.246,0.91,0.758c0.276,1.669,0.69,4.105-1.097,5.155
	c-3.309,2.867-8.575,3.184-12.834,1.823c-5.043-2.515-9.207-6.964-10.051-12.995c-1.224-5.77,1.153-11.325,4.701-15.608l0.249-0.775
	c-2.867-3.179-5.354-7.133-5.792-11.629c-0.398-1.023,0.858-7.358,3.509-7.752c1.432,1.654,2.988,2.791,5.181,3.409
	c0.902,0.246,2.452,0.872,3.083-0.037c-3.258-3.817-6.52-7.892-6.071-13.552c0.554-7.591,10.667-14.959,11.762-16.335
	c1.095-1.375,1.005-2.069,1.005-2.069c3.35,0.605,5.956,3.659,7.403,6.47c1.711,3.45,1.646,8.851-0.764,11.578
	c-0.631,1.035-2.294,1.569-2.537,2.987c2.485,3.569,7.25,4.413,11.351,3.336c1.405-0.787,2.949-1.748,3.302-3.381
	c2.537-11.717-9.032-26.456-22.516-23.642c-5.008,1.044-6.65,4.47-13.547,6.585c-0.627,0.192-6.14,0.964-6.643,1.741l-1.028-28.791
	l-15.925-1.08c0,0-14.684-13.581-22.582-18.373c-4.788-2.772-10.583-3.603-15.873-5.341l-0.771,0.01
	c3.628,2.528,7.762,4.279,10.882,7.327c4.552,4.446,7.06,9.944,8.29,16.227c-2.066,0.545-30.344,0.545-30.344,0.545"/>
<path fill="#FFFFFF" d="M682.377,47.931c-0.25,0.645,0.402,0.662,0.905,0.503c2.178-0.667,4.841-0.268,6.315,1.341
	c0.478,0.521,1.685,1.265,1.567,2.167c-2.444-0.229-6.446-1.724-7.827,1.121c1.547,0.367,3.781,0.382,5.41,0.964
	c2.909,1.04,6.694,3.531,9.792,1.942c0.564-0.307-0.134-0.513-0.134-0.513c-5.055-3.668-5.032-12.666-12.982-10.902
	C683.888,45.214,683.261,46.636,682.377,47.931"/>
<path fill="#FFFFFF" d="M678.058,52.224c-1.967,7.735,1.726,15.79,5.404,22.431l0.004,0.386
	c-10.713-3.699-17.217,0.587-18.483,2.273l0.26,0.254c6.398-2.517,14.512-1.071,19.196,3.758c3.374,3.383,2.3,8.306-1.554,12.466
	c-3.947,4.264-10.711,7.498-12.579,9.937c-0.122,0.645,0.519,0.38,0.778,0.505c6.65-2.905,14.721-5.056,18.109-12.167
	c1.629-3.49,2.595-8.771,0.751-12.605c-3.043-7.42-9.418-13.901-10.167-22.89l0.049-6.813
	C678.933,50.156,678.377,51.26,678.058,52.224"/>
<path fill="#FFFFFF" d="M704.717,67.721c3.736,0.569,6.724,1.725,8.036,5.562c-0.541,0.695-1.376-0.398-1.937-0.749
	c-2.975-1.636-7.611-2.352-10.538,0.124c-0.404,0.453-0.763,0.909-0.627,1.421c2.55-1.701,6.241-1.026,8.616,0.285
	c5.938,3.278,5.247,9.064,5.247,9.064c1.269-0.067,2.349-1.267,3.061-2.092c6.209-7.197-1.053-15.295-5.843-15.871
	C708.422,65.188,706.374,66.416,704.717,67.721"/>
<path fill="#FFFFFF" d="M637.265,92.165c5.465,5.72,12.211,11.04,19.061,14.172c0.263,0.511-0.247,0.774-0.761,0.78
	c-3.35-0.603-6.072-2.499-9.172-3.877l-9.713-6.055l-0.385,0.004c1.448,2.939,3.912,4.71,6.122,6.868
	c4.801,3.8,10.496,7.204,15.169,11.134l0.004,0.385c-1.537,0.404-2.964-0.736-4.253-1.106c-5.947-2.759-11.648-6.676-16.961-10.342
	l-0.385,0.133c1.995,5.633,7.444,9.939,12.619,12.705c4.806,4.315,8.737,10.696,16.572,10.089l2.694-0.288
	c0.39,0.252,0.141,1.027-0.112,1.415c-2.03,2.08-4.589,3.14-7.278,4.069c-0.51,0.393-0.008,0.849,0.142,1.028
	c5.068,4.824,11.157,8.865,19.106,7.102c7.945-2.151,12.501-8.116,18.476-13.843c1.018-0.783,2.292-1.826,3.577-1.842
	c-3.176,3.25-5.331,5.718-8.115,9.479c-2.409,2.856-5.19,6.873-8.765,8.843c0,0-0.37,0.136-0.253,0.39
	c2.089,2.244,4.661,2.901,6.861,4.161c10.086,5.023,21.689,7.971,28.865,17.013c4.434,5.346,6.95,11.745,7.675,18.806
	c1.266-1.686,1.236-4.257,1.083-6.439c-0.06-5.142-1.789-10.005-4.153-14.348c-7.079-11.743-21.403-16.33-33.534-20.558
	c-0.531-0.245-0.523-0.766-0.398-1.152c2.805-1.961,6.257-3.543,8.539-6.142c5.729-4.695,7.305-12.811,15.645-14.065
	c-0.141-1.026-1.176-1.657-1.953-2.164c-3.886-2.653-9.417-2.716-14.029-1.505c-0.516-0.123-0.394-0.896-0.14-1.027
	c2.643-2.532,5.107-11.744,3.674-15.34c-2.257,4.655-5.414,9.447-10.14,12.075c-3.451,1.71-7.415,3.557-7.874,8.19
	c0.156,2.312,0.82,4.103,2.381,5.757c-0.623,1.677-2.022,2.851-3.292,4.022c-3.306,3.124-8.809,5.245-13.589,3.245
	c0.504-0.906,1.402-1.045,2.163-1.954c1.78-1.691,3.035-4.277,2.49-6.842c-2.839-0.995-6.189-1.598-8.398-3.628
	c-3.509-3.3-6.142-8.669-4.533-13.829c0.613-2.578,1.225-4.124,3.109-7.894c-11.225,0.343-18.157-3.884-24.268-9.853l-3.711,1.457
	L637.265,92.165z"/>
<path fill="#FFFFFF" d="M716.325,114.758c1.829,2.421,6.19,3.333,6.749,7.054c0.145,1.283,1.963,12.253,3.543,15.448
	c0.919,1.66,2.096,3.317,3.776,4.068c1.159,0.244,2.575,0.485,3.21-0.294c-3.493-1.887-4.575-6.502-4.749-10.227
	c0.066-5.399-1.563-12.708-7.503-15.079C719.8,115.103,718.122,114.609,716.325,114.758"/>
<path fill="#EC1E24" d="M689.469,126.386c-2.398,3.884-5.433,8.162-10.434,9.12c-2.819,0.805-6.163,0.587-8.862,0.619
	c0.394,0.767,1.907,1.411,2.847,1.637c3.996,0.852,8.011,0.474,11.164-1.674c6.597-4.496,8.428-11.406,8.819-15.271
	c0.252-1.372,0.997-2.582,0.997-2.582C691.581,120.319,691.238,123.922,689.469,126.386"/>
<path fill="#FFFFFF" d="M680.798,148.804l-0.168,18.512c1.29,0.37,4.442-0.303,5.58-0.916c5.493-3.02,12.272-6.285,19.105-4.079
	c9.414,2.459,16.575,10.216,18.233,20.094c0.667,2.049,0.363,4.671,0.723,6.805c0,0,0.09,1.358,0.628-1.165
	c1.711-12.665-6.582-24.088-16.931-29.751c-7.237-3.385-14.847-5.481-21.83-9.126C685.201,148.804,682.071,147.761,680.798,148.804"
	/>
<path fill="#FFFFFF" d="M699.543,174.341c-1.404,0.812-5.859,5.095-7.348,8.954c-0.697,1.454-0.719,4.509-0.193,5.53l0.256-0.003
	c1.102-4.769,5.184-7.387,7.58-11.4c0.905,0.503,0.188,1.714-0.101,2.315c-2.52,4.271-5.3,8.418-4.467,13.678
	c1.416,0.24,1.518-1.947,2.281-2.727c3.425-4.025,8.267-7.552,7.425-13.584c-0.282-1.91-1.329-3.711-2.761-5.237
	C701.064,172.395,700.949,173.529,699.543,174.341"/>
<path fill="#FFFFFF" d="M703.666,193.104c-0.728-0.686-0.817,0.093-0.817,0.093c-0.112,1.287,0.416,2.568,1.199,3.587
	c2.088,2.546,6.077,2.884,8.894,2.079c1.279-0.528,2.557-1.185,3.574-2.226c-0.264-0.512-1.421-0.498-2.062-0.361
	C709.74,197.188,706.022,195.547,703.666,193.104"/>
<path fill="#FFFFFF" d="M704.909,204.757c-9.127,1.285-16.09-2.396-16.09-2.396c-0.148,2.738,7.502,7.336,16.175,5.951
	c14.48-2.312,15.27-9.921,15.27-9.921C718.6,198.926,714.414,203.418,704.909,204.757"/>
<path fill="#FFFFFF" d="M691.383,223.667c0.007,0.642-2.026,5.596,0.772,11.046c0.386,0.123,0.53,1.279,1.558,1.266
	c0.257-0.003,0.511-0.261,0.508-0.519c-1.187-2.556-0.709-9.283,0.127-11.058c2.757-5.944,8.976-7.906,14.523-11.095
	c1.346-0.773,2.883-1.926,4.207-2.878c0.742-0.531-0.114-0.745-0.393-0.638C703.965,211.565,694.878,214.886,691.383,223.667"/>
<path fill="#FFFFFF" d="M634.441,82.288c-0.627,1.293,0.413,2.309,0.938,3.203c4.359-0.951,8.438-3.828,9.283-8.465l-0.132-0.384
	C641.473,79.121,637.103,79.173,634.441,82.288"/>
<path fill="#EC1E24" d="M545.37,143.4c0,0-0.17,125.104-0.17,137.101c0,13.537,9.409,20.101,18.164,22.621
	c13.71,3.941,26.477,5.84,34.94,8.921c9.619,3.502,12.445,9.201,12.874,9.717c0.54,0.647,0.776,1.758,1.778,1.763
	c1.001,0.003,1.236-1.11,1.777-1.76c0.428-0.513,3.255-6.212,12.875-9.714c8.463-3.083,21.229-4.98,34.939-8.924
	c8.756-2.517,18.164-9.081,18.164-22.619c0-11.997-0.17-137.102-0.17-137.102"/>
<path fill="#FFFFFF" d="M549.894,224.986l-0.177,49.671c0,0-1.028,13.539,4.883,18.164c5.829,4.561,7.97,5.57,23.307,8.83
	c9.534,2.022,20.663,4.942,27.678,8.224c4.599,2.151,6.17,4.198,7.369,5.997c1.201-1.799,2.664-3.483,7.262-5.633
	c7.014-3.283,18.144-6.203,27.678-8.226c15.337-3.257,17.479-4.267,23.307-8.827c5.912-4.627,4.883-18.164,4.883-18.164
	l-0.212-50.022L549.894,224.986z"/>
<path fill="#EC1E24" d="M616.189,254.199c-0.073,6.298,2.708,11.99,4.701,17.413c-3.239,2.146-7.476,1.84-10.589,4.118
	c-3.496,2.144-5.725,5.974-6.802,10.074c-0.39,0.824-1.087,1.881-1.823,2.036c0.092-0.721,0.144-1.411-0.103-2.185
	c-0.243-1.291-1.128-2.457-1.501-3.617l-0.129-0.003c-0.909,0.761-0.796,2.175-1.195,3.198c-0.645,1.316-1.445,2.683-2.863,3.053
	c0.152-2.055-0.856-3.739-1.609-5.288c-0.776,0.376-0.715,1.487-0.793,1.791c-0.307,1.428-1.59,4.093-3.651,4.456
	c0.415-2.438-1.233-4.385-1.462-6.831c-0.243-1.161,0.541-2.307-0.089-3.344c-2.583,0.999-5.176,2.897-6.362,5.455
	c-0.014,1.155,0.874,2.194,0.987,3.48c1.923,0.409,3.322,1.711,4.459,3.396c0.414,0.698,0.735,3.092-0.434,4.108
	c-0.648,0.505-1.3,1.27-2.197,1.002c-0.269,1.025-0.927,2.301-1.962,2.805c-1.28-0.4-0.991-3.096-2.671-2.345
	c-0.899-0.14-1.531-1.047-1.777-1.951c-0.359-2.318,1.465-4.48-0.313-6.3c0,0-0.1-0.108-0.515,0.122
	c-0.479,0.264-0.428,5.45-3.532,5.229c-1.409-0.404-2.678-1.832-3.05-2.994c-1.156-0.142-2.929,0.738-3.727-0.042
	c-1.133-2.07,3.375-2.788,0.953-4.619c-0.852-0.82-1.384-2.586-0.597-3.862c1.301-1.27,3.435-1.655,5.412-1.094
	c0.259,0.074,0.13-0.126,0.13-0.126c-2.004-1.829-3.758,0.595-5.848-1.443c-2.373-2.313,0.401-5.305-2.286-6.365
	c-0.383-0.263-1.413-0.145-1.02-0.783c1.298-1.014,2.961-0.35,4.502-0.334c1.555-1.009,4.262-1.619,6.307-0.695
	c2.682,1.574,2.641,4.914,3.123,7.748c0.379,0.517,1.156,0.014,1.546-0.367c2.334-1.644,4.802-3.8,7.264-5.57l0.003-0.257
	c-3.207-0.552-5.491-3.021-8.965-2.805c0.655-1.021,1.82-1.778,2.982-2.149c2.066-0.878,4.258-1.365,6.446-1.596
	c-0.5-1.291-2.716-1.559-3.451-1.711c-0.504-0.079-1.542-0.019-1.542-0.019c0.013-1.157,1.296-1.945,1.956-2.29
	c3.187-1.281,10.076-0.713,10.298-1.294c-0.35-1.02-2.421-1.828-3.699-2.485c0.79-1.533,3.735-1.632,5.031-1.613
	c4.746,0.956,8.76-1.567,12.758-2.678c2.451-0.743,7.136-0.928,7.448-1.073C616.252,253.407,616.189,254.199,616.189,254.199"/>
<path fill="#EC1E24" d="M598.063,223.269c9.681-0.538,28.58-0.772,30.295-0.517c2.313,0.342,3.717,2.229,3.717,2.229
	c-0.131,0.255,0.144,1.388,0.141,1.645c-0.667,2.049-2.906,3.066-4.413,3.677c-1.551,0.753-4.211-0.031-5.27-0.062
	c-0.354-0.001-0.008,0.769-0.008,0.769c2.875,6.976,7.546,14.1,14.446,17.652c2.176,0.797,3.563,2.999,6.006,3.028
	c1.678-0.623,1.79-2.653,2.101-3.704c0.953-4.615-0.402-9.517-4.098-12.387c-1.527-1.302-3.709-1.458-3.943-3.518
	c0.899,0.012,1.662,0.791,2.564,0.674c1.544-0.238,3.47-0.086,5.01,0.188c2.691,0.673,4.331,3.394,4.942,6.1
	c1.555-1.139,2.669-3.533,2.884-4.851c0.729-2.527,1.372-6.255,1.222-9.21l3.001,0.005c0,0,0.191,3.358-0.47,7.194
	c-0.661,3.834-1.758,7.432-3.337,10.501c2.474-2.671,6.337-3.269,10.064-3.225c-1.214,4.871-6.752,5.704-10.379,8.234
	c-2.349,2.927-4.306,5.347-6.649,7.892c-0.805,2.819,1.866,5.162,0.928,8.493c-0.446,5.136,1.428,9.788,4.082,13.546
	c0.379,0.647,0.753,1.551,0.105,2.057c-0.76-1.038-2.044-1.179-3.069-1.45c-0.01,0.901,0.879,1.81,1.127,2.583
	c0.877,1.941,0.845,4.638-0.585,6.036c-0.233-2.059-2.668-2.602-3.42-4.282c-0.639-0.393-1.404-0.917-1.925-0.408
	c0.107,1.8,0.224,3.988,0.06,5.912c-0.031,0.363-0.27,0.897-0.78,0.764l-2.025-2.725c-0.897-0.267-1.27-1.428-2.037-1.693
	c-0.416,2.565-0.324,5.652,0.031,8.227c0,0-0.073,0.418,0.506,0.648c3.63,0.735,7.35-1.97,11.322-0.767
	c1.021,0.527,2.039,1.439,2.026,2.595c0.109,1.543-1.06,2.686-2.227,3.573c-2.191,0.359-3.4,1.867-3.893,3.172
	c-0.493,1.307-1.691,1.179-1.799,0.419c-0.058-0.419-0.125-0.832-0.376-1.477c-0.634-0.778-1.673,0.11-2.571,0.099
	c-0.643-0.008-1.023-0.526-1.276-0.916c-1.051,2.045-4.631,0.333-4.917,2.771c-0.397,1.024-0.675,2.821-1.96,2.805
	c-0.763-0.652,0.016-1.414-0.234-2.059c-0.506-0.649-1.008-1.684-1.778-1.821c-0.649,0.637-0.92,0.374-2.188,0.101
	c-1.439-0.308-1.777-1.819-2.793-2.858c-0.912,1.017,0.357,2.445,0.473,3.474l-1.93,0.105c-1.414,0.115-2.287-2.211-3.845-0.945
	c-1.674,0.496-2.078,1.906-3.373,2.79c-0.642-0.138-0.375-0.905-0.754-1.422c-1.128-2.456,2.489-3.956,0.842-6.031
	c-0.238-1.804,0.552-3.209,1.977-4.219c4.92-3.027,9.081,3.834,14.508,1.455c0.52-0.508,0.531-1.409,0.54-2.049
	c-0.356-2.575,0.062-5.399-0.298-7.588c-1.172,1.145-1.704,2.806-3.51,3.301c-1.03,0.245-1.432,1.526-2.337,2.029
	c-0.63-1.036-0.097-2.572,0.301-3.852c0.274-1.283,1.826-2.163,1.584-3.451c-1.298,1.14-2.594,1.897-3.637,3.298
	c-0.261,0.255-0.776,0.376-1.028-0.011c-0.362-2.063,0.432-3.979,0.967-5.774l-0.125-0.259c-0.385-0.004-0.902,0.118-1.164,0.501
	c-0.906,0.633-2.582,0.998-3.11,2.277c-0.511-0.393-0.501-1.164-0.367-1.803c1.065-2.945,3.034-6.391,1.272-9.625
	c-1.901-2.337-3.28-5.31-4.015-8.402c-1.745-4.649-1.807-10.304-2.52-15.196c-0.269,1.024,0.099,2.442-0.806,2.946
	c-1.265-1.815-3.309-2.868-4.969-3.788c-3.191-1.836-7.043-2.267-9.452-4.995c1.446-2.809,3.788-5.225,4.98-8.168
	c-2.643,6.14-10.012,9.781-13.297,15.784c-0.656,1.148-1.834,2.806-3.501,2.531c0.783-1.02,0.672-2.437,0.17-3.47
	c-1.057,2.43-3.656,4.713-6.354,4.683c-0.122-0.517,0.396-0.897,0.658-1.279c0.139-0.898,0.666-1.921,0.16-2.697
	c-0.524,0.764-0.786,1.276-1.31,2.04c-1.172,1.272-2.862,2.923-4.786,2.515c0.403-1.41,1.832-2.679,1.079-4.357l-0.257-0.004
	c-1.31,2.042-4.015,2.652-6.458,2.753c0.916-1.403,1.452-3.326,1.089-5.258c-2.44-0.156-4.382,1.106-6.701,1.465
	c-0.904,0.374-2.191,0.487-2.841,1.124c-0.938,3.202,0.967,5.153,1.321,7.985c-0.02,1.669-0.304,3.852-2.112,4.601
	c-1.031,0.245-2.054-0.281-2.947-0.806c-1.678,0.624-3.734,0.6-5.396-0.19c-1.138-1.685,1.802-0.236,1.437-2.04
	c-0.888-1.039-1.644-2.333-0.855-3.869c0.263-0.508,1.292-0.497,1.803-0.234c0.642,0.138,1.286-0.112,1.296-0.883
	c0.004-0.387-0.897-0.27-1.409-0.402c-1.538-0.405-1.391-1.945-2.152-2.854c-1.278-0.528-2.429-1.057-3.573-2.099
	c-0.633-0.909-1.135-1.941-0.863-3.224c1.043-1.144,1.665,0.663,2.693,0.545c0.383,0.263,0.775-0.248,0.906-0.631
	c-0.497-1.42,1.969-3.318-0.338-3.862c-0.5-1.29-0.1-2.569,0.173-3.851c-0.372-1.164-2.426-1.317-1.894-2.851
	c1.428-1.269,3.618-1.629,5.541-1.22c0.775-0.249,1.68-0.753,2.577-0.486c1.412,0.274,2.035,1.825,2.791,3.118
	c0.998,2.582-1.212,4.742-1.243,7.311c0.249,0.648,0.759,1.038,1.4,1.175c2.701-0.097,5.531-0.32,7.48-2.097
	c-0.376-0.776-1.535-0.661-1.913-1.309c-0.639-0.393-1.667-0.405-1.916-1.051c0.921-1.788,3.353-0.987,5.156-1.224l0.259-0.253
	c-1.144-1.042-2.81-1.448-4.087-2.235c0.135-0.511,0.647-0.378,0.91-0.888c1.686-1.136,3.741-1.113,5.661-0.446
	c0.259-0.127,0.901-0.119,0.907-0.632c-1.797-0.149-3.069-1.321-4.863-1.729c0.002-0.257,0.005-0.515,0.265-0.638
	c2.987-2.665,7.612-2.482,11.728-2.69c3.739-0.986,6.587-2.75,9.571-5.031C592.394,224.359,594.685,223.457,598.063,223.269"/>
<path fill="#FFFFFF" d="M598.063,223.269c1.654,1.433,4.216,2.235,6.538,1.491c2.296,1.57,5.269,0.192,7.964,0.479
	c2.044,0.924,3.734-0.6,5.159-1.483l2.433,0.802c1.792,0.661,3.473-0.219,4.642-1.233c-1.269-1.428-3.185-2.351-3.933-4.416
	c-0.363-1.932-2.691-0.674-3.447-1.969c2.322-0.742,5.157-1.354,7.358-2.613c2.977-1.763,4.694-4.772,4.979-8.038
	c0.567-6.537,0.538-12.976,1.384-19.395c0.667-2.048,1.463-4.096,3.406-5.487l15.795-9.583c8.54-4.912,17.754-12.26,16.352-24.231
	c-0.37-1.418-1.543-0.018-1.804,0.365c-2.353,3.443-5.606,6.747-8.722,9.41c-8.707,8.124-18.942,14.816-29.293,20.608
	c-2.332,1.643-5.952,3.271-5.609,6.875c0.427,7.588,1.751,15.187-0.52,22.487c-0.786,1.403-1.708,3.195-2.879,4.208
	c0,0-0.301,0.151-0.125-0.13c2.186-3.896,2.305-10.383,2.244-16.041c-0.346-3.346-0.819-6.95-0.648-10.419
	c-0.924,2.045-2.365,4.342-4.936,4.312c-1.833-0.322-4.483-1.337-5.489-3.279c1.161-0.371,2.191,0.382,3.335,0.554
	c1.027,0.153,3.333,0.81,3.864-0.598c-0.38-0.519-1.282-0.4-1.528-1.175c0.391-0.381,0.906-0.632,1.295-0.884
	c-0.891-0.782-2.556-1.187-3.572-2.356c-0.125-0.259-0.761-0.78-0.243-1.159c2.851,0.735,5.678,2.598,7.557,2.274
	c0.433-0.26,0.391-0.511,0.391-0.511c0.415-2.437-1.234-4.383-2.237-6.452c1.446-2.554,1.606-5.381,1.254-8.341
	c0.012-1.028,0.151-1.797-0.096-2.7c-2.973,1.379-2.638,5.625-5.861,6.615c-0.518,0.252-1.546,0.24-1.666-0.533
	c1.185-2.428,0.191-5.268-0.813-7.335c-0.376-0.776,0.024-2.057-0.61-2.836c-2.841,1.123-1.602,5.123-3.297,7.159
	c-1.832,2.806-4.496-0.31-7.079,0.817c-1.786,0.496-2.474,2.671-3.772,3.684c-3.34-0.168-7.446-0.73-9.54,2.458
	c-0.557,1.199-0.421,2.953,0.337,4.118c1.651,1.69,2.224-1.409,2.848-1.767c0.918-1.12,2.837-0.738,4.115-0.081
	c2.433,0.8,4.865,1.729,7.158,3.426c0.764,0.523,2.308,0.413,2.941,1.321c-2.237,4.342-8.135,3.117-12.501,2.68
	c-0.257-0.004-0.261,0.381-0.007,0.642c4.225,1.335,7.655,4.973,12.54,4.903c1.287-0.115-0.115-1.158,0.662-1.663
	c0.627,1.421,1.136,2.479,3.202,3.299c2.066,0.82,2.426-0.92,3.966-0.772c1.273,1.043,2.673,2.215,4.336,2.879
	c0.634,0.65,1.928,0.022,2.303,0.927c-1.682,1.008-4.637,0.845-6.166-0.33c-1.014-1.169-2.43-1.057-3.721-0.559
	c-1.283-0.144-2.303-0.927-3.323-1.581c-2.82-0.676-3.753,2.141-5.561,2.891c0.382,0.261,1.024,0.27,1.276,0.657
	c-1.171,1.272-2.973,1.507-4.269,2.393c-0.146,1.411,1.791,0.791,2.552,1.573c-2.337,1.9-6.218,4.04-9.665,2.07
	c-1.656-1.303-2.539-2.727-3.937-4.159c-0.736,0.501-0.677,0.819-0.897,2.268c-0.22,1.45,0.712,2.616,0.053,4.022
	c-1.77-2.593-1.855-6.194-2.204-9.411c-0.245-0.902-0.486-2.319-1.64-2.59c-1.575,1.745-1.864,6.181-1.877,6.534
	c-0.012,0.353-0.257-0.003-0.257-0.003c-2.017-3.366-0.406-9.259-4.885-10.854c0.747,2.066-0.035,6.541-0.34,7.065
	c-0.226,0.385-0.515-0.006-0.515-0.006l-3.425-3.769c-1.263-1.944-3.815-3.515-4.559-5.837c1.053-2.045,3.745-1.499,5.175-2.767
	c1.817-1.522,3.125-3.435,2.768-6.01c0.028-2.313-2.546-2.086-4.079-2.875c-1.016-1.042-1.121-3.099-2.789-3.375l-0.686,3.719
	c0.115,1.158,0.746,2.194,0.73,3.478c-1.43,1.399-0.461-1.293-1.391-1.815c-1.395-1.686-3.337-0.424-5.012-0.188
	c-1.019-0.783-1.777-1.82-3.065-1.708c-0.526,1.023,0.233,2.06,0.348,3.09c-0.677,2.947-3.899,3.681-3.296,7.031
	c0.493,1.933,2.556,1.314,3.439,2.739c-1.576,2.809-6.326,2.368-6.372,6.225c0.113,1.285,1.258,2.198,2.278,2.983
	c0.506,0.647-0.144,1.283-0.409,1.923c1.014,1.296,2.97-1.123,3.465,0.553c0.169,0.784,1.616,1.522,2.43,1.057
	c1.942-1.133,2.229-3.7,2.511-5.754c0.178-1.075,0.292-2.953,1.966-3.318c3.054,2.606,5.463,5.463,8.124,8.706
	c0.209,0.349,0.502,1.035-0.142,1.157c-2.051-0.411-4.234-0.565-6.041-0.071c0.617,2.193,2.793,2.988,4.319,4.42
	c0.637,0.522,1.921,0.665,2.041,1.309c-1.034,0.502-2.86,0.669-3.731,0.344c-0.575,4.245,8.166,3.923,10.33,6.932
	c-2.176-0.794-4.757,0.074-6.937-0.338c0.867,2.839,3.673,4.542,6.363,5.346c3.067,1.577,7.318,6.884,10.908,7.569
	C591.683,226.479,598.063,223.269,598.063,223.269"/>
<path fill="#FFFFFF" d="M670.57,189.543c0.802,1.034,0.868,2.838,1.106,4.383c2.034,1.953,2.025,5.837,0.932,8.11
	c-3.42,6.643-11.421,9.376-14.842,16.15c-1.052,2.044-1.596,4.48-1.108,6.799c-1.029-0.005-2.01-0.005-3.001-0.005
	c-1.37-3.744-1.147-7.885-0.204-11.729c0.404-1.539,0.594-4.5,0.318-5.268c-0.139-0.386-0.871-2.324-0.871-2.324
	c2.315-0.1,3.576,1.971,4.583,3.784c0.249,0.645,0.528,1.132,0.748,1.936c0.662-0.541,2.132-2.01,3.116-2.663
	c3.279-2.175,6.092-4.298,7.932-7.619c0.527-1.151,0.679-2.465,0.171-3.726c-0.63-1.035-1.652-1.562-2.815-1.19
	c-1.446,2.81-5.608,4.489-7.376,4.283c-0.576-0.066-1.155-0.142-1.155-0.142c0.912-1.017,2.386-1.948,2.482-3.44
	c-0.472-3.606,1.017-7.504,3.706-9.083C666.425,186.548,669.227,187.815,670.57,189.543"/>
<path fill="#FFFFFF" d="M594.185,236.078c-0.157,0.346-2.727,5.166-5.736,6.873c-0.749,0.424-1.538,1.281-1.819,1.648
	c-0.233-4.319,6.354-6.905,7.043-8.656C593.811,235.589,594.27,235.685,594.185,236.078"/>
<path fill="#FFFFFF" d="M585.187,236.1c-1.828,2.42-5.551,1.992-8.248,1.832c2.825,0.162,5.618-1.974,8.12-1.962
	C585.272,235.958,585.187,236.1,585.187,236.1"/>
<path fill="#FFFFFF" d="M557.648,238.734c-0.171,0.212-0.519,0.379-0.903,0.246c0.013-1.028,0.926-2.175,1.705-2.808
	C558.953,237.077,558.039,238.32,557.648,238.734"/>
<path fill="#FFFFFF" d="M587.475,238.311c-1.094,4.203-6.363,5.454-9.218,7.734c0.846-4.352,7.24-5.604,8.834-7.867
	C587.268,237.929,587.586,237.774,587.475,238.311"/>
<path fill="#FFFFFF" d="M558.232,248.249c0.014,0.545-0.193,1.029-0.58,1.153c-0.502-1.034-0.683-3.563-0.983-3.867
	c-0.156-0.386-0.348-0.901,0.267-0.768C557.75,244.939,558.201,246.899,558.232,248.249"/>
<path fill="#FFFFFF" d="M561.286,257.285c-0.39,0.382-1.001-0.333-1.409-0.402c-0.408-0.071-0.397-0.701,0.008-0.643
	C560.288,256.297,561.398,256.587,561.286,257.285"/>
<path fill="#FFFFFF" d="M603.645,262.411c-2.204,1.644-5.432,2.894-8.507,1.958C598.103,263.759,600.432,262.244,603.645,262.411"/>
<path fill="#FFFFFF" d="M623.543,264.574c0.53,0.999,4.149,5.07,3.88,8.914l-0.405,1.666c-0.624-1.678-0.852-4.125-1.99-5.68
	c-1.01-1.554-2.147-3.237-1.995-5.165C623.033,264.309,623.228,263.915,623.543,264.574"/>
<path fill="#FFFFFF" d="M600.252,266.741c-1.429,1.27-3.594,2.471-5.05,3.027c-2.268,0.517-4.624-0.312-7.189-0.727
	c0.518-0.379,1.927,0.022,2.83-0.225c2.844-1.381,5.942-2.501,9.281-2.204L600.252,266.741z"/>
<path fill="#FFFFFF" d="M612.3,269.711c-1.831,2.676-6.137,4.148-6.638,6.04c-0.615-3.697,4.447-5.551,6.656-7.582
	C612.827,268.56,612.549,269.265,612.3,269.711"/>
<path fill="#FFFFFF" d="M630.718,277.511c-0.267,0.664-0.663,1.662-0.663,1.662l-0.831-5.793c0.403-1.536,0.68-3.205,0.442-4.879
	C632.255,270.65,630.97,276.884,630.718,277.511"/>
<path fill="#FFFFFF" d="M637.328,272.832c0.602,3.35,3.659,5.829,3.235,9.165c-1.634-3.233-4.953-5.072-5.034-9.185l-0.724-3.992
	C635.95,269.86,636.315,271.536,637.328,272.832"/>
<path fill="#FFFFFF" d="M601.382,268.94c-0.016,1.414-1.4,2.79-2.357,3.699c-2.338,2.029-6.14,4.638-6.504,6.608
	c-0.365,1.971-0.555,3.336-0.555,3.336c-1.126-2.585-0.184-6.172,1.382-8.211C593.684,273.796,598.796,270.323,601.382,268.94"/>
<path fill="#FFFFFF" d="M643.59,275.99c0.305,0.39,0.376,0.776,0.501,1.164c-1.652-1.689-4.714-3.655-4.94-6.227
	C640.937,272.104,642.217,274.227,643.59,275.99"/>
<path fill="#FFFFFF" d="M604.023,273.982c-1.692,1.782-4.144,2.652-5.582,4.691c-0.174-0.617,0.094-1.047,0.272-1.28
	c1.825-2.166,3.267-4.59,5.599-6.107C605.332,271.944,604.51,273.526,604.023,273.982"/>
<path fill="#FFFFFF" d="M570.731,273.978c0.033,0.315-0.235,2.218-0.947,2.869c-0.321,0.307-1.156,1.091-1.404,0.318
	c0.401-1.281,0.987-2.037,2.094-3.19C570.683,273.758,570.698,273.663,570.731,273.978"/>
<path fill="#FFFFFF" d="M633.385,280.241c-0.38-0.517-0.364-1.803,0.157-2.439C633.92,278.449,633.65,279.603,633.385,280.241"/>
<path fill="#FFFFFF" d="M574.023,289.184c-1.017-0.91-1.51-2.717-2.659-3.5C572.435,285.717,574.443,287.628,574.023,289.184"/>
<path fill="#FFFFFF" d="M583.365,292.765c-1.034,0.502-1.307,1.784-2.724,2.026c-0.379-0.519-0.012-1.202,0.402-1.41
	C581.815,292.994,582.47,292.368,583.365,292.765"/>
<path fill="#FFFFFF" d="M647.724,296.093c-1.704-0.416-2.579,0.741-3.997,1.109c-0.641-0.135-0.238-0.764,0.012-1.028
	C644.605,295.259,647.26,294.949,647.724,296.093"/>
<path fill="#FFFFFF" d="M623.399,298.762c-1.367,0.208-2.637-2.025-3.19-2.094c-0.427-0.092-0.443-0.331-0.252-0.387
	c0.982-0.426,2.433,0.798,3.322,1.582C623.43,298.087,623.66,298.38,623.399,298.762"/>
<path fill="#FFFFFF" d="M635.482,298.776c-1.413-0.145-3.214-0.038-4.508,0.719c-0.508-0.52,0.201-0.894,0.398-1.023
	C632.537,297.712,634.721,297.738,635.482,298.776"/>
<path fill="#231F20" d="M610.671,167.631c0.118,0.901-0.279,1.925-0.926,2.303c-0.645,0.12-0.855-0.41-0.76-1.037l0.547-2.822
	C610.043,166.339,610.55,166.987,610.671,167.631"/>
<path fill="#EC1E24" d="M617.329,169.895c0.363,1.803-0.684,3.333-1.852,4.348c0,0-0.287,0.351-0.386-0.005
	c-0.53-1.888,1.624-2.932,1.981-4.347C617.159,169.545,617.329,169.895,617.329,169.895"/>
<path fill="#EC1E24" d="M610.838,175.345c-2.836,0.739-6.83,1.463-8.726-1.259l-0.125-0.257
	C604.95,173.22,609.331,172.242,610.838,175.345"/>
<path fill="#EC1E24" d="M570.466,176.156c-0.145,1.541-1.436,1.91-2.344,2.671c-0.329,0.176-0.77-0.138-0.765-0.523
	c0.524-0.894,2.073-1.389,2.09-2.932C570.097,174.738,570.473,175.642,570.466,176.156"/>
<path fill="#EC1E24" d="M558.829,182.061c-0.492,0.252-2.557,1.248-2.832,0.352c-0.014-1.242,2.07-1.132,3.104-1.634
	c0.931-0.522,2.2-1.984,2.104-3.959C561.607,177.043,562.169,179.999,558.829,182.061"/>
<path fill="#EC1E24" d="M557.911,194.518c0.125,0.387,0.435,0.921,0.115,1.158c-1.127,0.422-1.398-1.3-2.421-1.827
	c-0.511-0.134-1.023-0.398-1.272-1.043c0.003-0.386,0.526-0.323,0.775-0.375C556.529,192.338,557.3,193.142,557.911,194.518"/>
<path fill="#EC1E24" d="M576.125,197.817c0.496,1.55,2.159,2.211,2.013,3.751c-1.376-0.505-2.743-1.203-3.305-3.123
	c-0.343-1.166-1.121-3.098,0.43-3.851C576.283,195.376,575.88,196.786,576.125,197.817"/>
<path fill="#EC1E24" d="M583.08,207.54c-0.132,0.385-0.776,0.376-0.899-0.012c-0.88-1.68-1.627-3.617-1.345-5.799
	C582.102,203.287,582.976,205.483,583.08,207.54"/>
<path fill="#EC1E24" d="M578.189,208.126c-1.405-0.788-1.602-2.726-2.783-3.762c-0.62-0.541-1.149-0.784-1.525-1.561
	C575.86,201.965,579.529,204.237,578.189,208.126"/>
<path fill="#EC1E24" d="M588.222,207.472c-0.024,2.183,0.075,4.628,0.951,6.567c-0.389,0.381-0.901,0.118-1.154-0.144
	c-1.653-1.561-1.758-3.618-1.09-5.667C587.156,207.758,587.461,206.691,588.222,207.472"/>
<path fill="#EC1E24" d="M583.899,214.362c0.055,0.212-0.129,0.127-0.129,0.127c-1.151-0.527-1.908-1.693-2.538-2.857
	c0,0-0.362-0.657,0.263-0.511C583.023,211.312,583.845,214.151,583.899,214.362"/>
<path fill="#EC1E24" d="M582.571,218.074c2.437,0.415,5.404-0.452,7.186,1.113c0,0,0.191,0.27-0.132,0.255
	c-0.818-0.144-4.508,0.719-6.556,0.052c-1.663-0.663-4.227-1.206-5.103-3.273C579.632,216.626,580.905,217.669,582.571,218.074"/>
<path fill="#EC1E24" d="M618.753,190.863c0.372,1.161-0.961,1.17-1.811,1.008c-0.386-0.133-0.641-0.264-1.02-0.656
	c0.394-0.894,1.681-0.879,2.58-0.997L618.753,190.863z"/>
<path fill="#EC1E24" d="M610.85,196.483c1.992,0,2.32-0.802,3.34-0.019c1.142,1.3,2.94,1.45,4.212,2.491
	c-1.429,1.269-3.216,0.092-4.623-0.439c-1.291,0.5-2.562,1.058-4.102,0.586c-1.171-0.36-2.573-1.307-3.591-2.219
	c-1.156-0.141-2.441-0.156-3.205-0.809c-0.113-1.158,1.555-1.01,2.331-1.387C607.138,194.838,608.857,196.483,610.85,196.483"/>
<path fill="#EC1E24" d="M607.968,200.761l3.342,0.04c1.529,1.046,3.189,2.094,5.117,2.119c-0.009,0.771-0.908,0.758-1.298,1.012
	c-1.546,0.368-2.433-0.799-3.456-1.198c-1.933,0.364-4.309,1.188-5.785,0.059c-1.373-1.05-2.999-0.498-4.019-1.281
	c-0.893-0.524-1.927-1.028-1.349-2.089l2.312,0.45C605.081,200.515,604.953,199.744,607.968,200.761"/>
<path fill="#EC1E24" d="M610.602,206.322c2.185,0.023,3.057,2.349,4.979,2.884c-0.52,0.509-1.728,1.013-2.448,0.485
	c-2.525-1.977-6.413,0.657-9.272-1.688c-1.655-1.357-1.352-2.163-2.504-2.561c-2.194,0.743-4.501,0.203-6.289-0.846
	c2.075-1.518,4.628-0.075,6.953-1.076C604.186,205.475,607.631,207.57,610.602,206.322"/>
<path fill="#EC1E24" d="M599.519,208.76c1.285,0.016,1.911,1.332,2.419,1.958c0.509,0.627,2.382,1.532,3.068,1.448
	c0.687-0.081,2.067-0.873,2.957-0.092c1.135,1.94,2.789,3.503,5.23,3.404c-0.65,0.762-2.066,0.875-3.349,0.73
	c-1.027-0.14-1.659-1.047-2.423-1.699c-3.472,0.088-6.158-0.972-8.317-3.31c-2.703,0.352-4.614-1.084-6.005-3.028
	c0.003-0.257,0.008-0.643,0.393-0.638C595.023,208.451,597.322,209.765,599.519,208.76"/>
<path fill="#EC1E24" d="M596.102,215.147c2.178,0.669,4.756-0.073,6.276,1.874c2.182,0.283,4.103,0.819,5.89,1.997
	c1.283,0.274,2.826,0.162,3.986-0.082c0.374,1.034-1.066,1.084-1.556,1.139c-2.575,0.355-4.223-1.592-6.802-0.851
	c-1.28-0.4-2.689-0.931-3.575-1.971c-2.179-0.539-5.274,0.326-6.276-2.001c-0.305-0.919-0.747-2.064-0.733-3.221
	C594.586,212.946,594.437,214.613,596.102,215.147"/>
<path fill="#EC1E24" d="M616.361,220.47c1.182-0.769,1.992-2.218,2.565-0.554c-0.142,1.153-1.257,1.938-2.211,2.157
	c-1.125,0.261-2.056-0.025-2.821-0.546C614.304,221.016,615.395,221.099,616.361,220.47"/>
<path fill="#EC1E24" d="M604.904,220.908l3.584,1.199c0.465-0.111,1.675-0.238,2.313,0.155c-0.011,0.772-1.141,0.924-1.554,0.882
	c-1.284-0.144-2.568-0.288-3.459-0.94c-1.55,0.624-3.736,0.728-5.138-0.316c-0.253-0.389-0.763-0.782-0.373-1.164
	C601.687,221.254,603.476,222.048,604.904,220.908"/>
<path fill="#FFFFFF" d="M662.619,166.056c0.828,4.17-4.131,6.73-5.096,7.268c-0.519,0.288-2.827,0.908-3.855-0.174
	c2.22-3.059,6.63-3.802,8.695-7.096C662.502,165.724,662.619,166.056,662.619,166.056"/>
<path fill="#FFFFFF" d="M661.119,173.495c-0.95,3.608-6.155,8.064-10.5,7.46c0.832-1.432,2.365-4.343,2.365-4.343
	C655.947,176.004,658.656,175.265,661.119,173.495"/>
<path fill="#FFFFFF" d="M649.519,176.186c0.71,3.877-5.411,6.529-7.769,4.665c-0.085-0.145-0.052-0.355,0.135-0.512
	C642.004,180.237,646.823,176.898,649.519,176.186"/>
<path fill="#FFFFFF" d="M657.167,181.673c0.105,1.93-1.198,3.458-2.37,4.728c-1.946,1.52-4.014,2.524-6.461,2.88
	c0.281-2.053,1.968-3.447,2.25-5.5C652.905,183.294,655.097,182.807,657.167,181.673"/>
<path fill="#FFFFFF" d="M639.791,183.527c-0.034,2.957-2.376,5.37-4.834,6.756c-0.389,0.123-1.132,0.112-1.021-0.654
	c0.164-3.084,2.126-6.016,4.971-7.269C639.678,182.238,639.769,183.245,639.791,183.527"/>
<path fill="#FFFFFF" d="M641.507,190.745c-0.64,0.066-1.416,0.111-1.798-0.278l2.637-5.496c1.804-0.366,3.485-1.463,5.292-1.958
	C647.638,183.013,646.266,189.505,641.507,190.745"/>
<path fill="#FFFFFF" d="M653.984,189.862c-1.317,2.684-4.302,5.22-7.391,5.57c0.789-1.406,1.316-2.684,1.976-3.96
	C650.753,191.368,651.807,189.194,653.984,189.862"/>
<path fill="#FFFFFF" d="M645.49,190.92c-0.658,3.469-1.602,4.775-5.858,6.229c-0.513-0.134-0.243-0.66-0.118-0.899
	c0.912-1.02,1.056-2.431,1.714-3.58C642.647,192.044,643.939,191.544,645.49,190.92"/>
<path fill="#FFFFFF" d="M638.522,193.152c0.075,0.98-0.418,3.637-4.307,5.477c-0.717-0.725-1.509-4.624,0.836-5.517
	c1.005-0.256,2.188-0.233,3.217-0.348C638.269,192.764,638.489,192.729,638.522,193.152"/>
<path fill="#FFFFFF" d="M649.269,197.391c-0.691,1.561-2.661,3.916-7.125,4.674c0.53-1.281,1.317-2.556,2.102-3.832
	c1.675-0.367,3.097-1.121,5.027-1.227C649.273,197.006,649.401,196.967,649.269,197.391"/>
<path fill="#FFFFFF" d="M639.473,199.718c-0.341,2.426-2.954,7.095-6.498,5.966c-0.112-1.415-0.47-3.734,1.081-4.487
	c1.672-0.108,3.221-0.604,4.646-1.615L639.473,199.718z"/>
<path fill="#FFFFFF" d="M647.154,202.379c-0.074,2.602-4.381,5.484-6.222,4.426C641.097,203.722,645.302,203.086,647.154,202.379"/>
<path fill="#FFFFFF" d="M636.79,209.198c-0.62,2.178-4.042,5.168-6.344,3.781c-0.882-1.424,0.608-2.24,1.225-3.643
	c1.751-1.206,3.455-0.798,5.009-1.81C637.424,207.199,637.074,208.199,636.79,209.198"/>
<path fill="#FFFFFF" d="M643.599,209.536c-0.327,0.444-3.524,3.802-5.94,2.372c0.396-1.024,1.176-1.656,1.701-2.55
	c0.764-1.21,2.579-0.279,4.246-0.465C643.866,208.865,643.924,209.094,643.599,209.536"/>
<path fill="#FFFFFF" d="M642.139,213.503c0.153,2.227-5.101,5.151-5.953,3.4c0.908-0.76,1.495-1.927,2.6-2.541
	C639.942,214.378,640.982,213.49,642.139,213.503"/>
<path fill="#FFFFFF" d="M633.633,215.332c-0.79,1.662-2.852,2.152-4.65,2.003c-0.767-0.394-2.185-0.155-2.689-0.932
	C628.375,214.37,631.187,215.689,633.633,215.332"/>
<path fill="#FFFFFF" d="M629.723,219.914c-0.526,1.15-2.197,1.131-3.485,1.372c-2.313-0.155-3.58-1.713-4.585-3.652
	c0.52-0.508,1.808-0.749,2.702-0.355C626.146,218.071,627.935,218.993,629.723,219.914"/>
<path fill="#FFFFFF" d="M639.632,219.001c0.699,0.987-1.871,1.951-2.341,2.159c-1.458,0.79-2.694-0.29-3.715-0.943
	c-0.383-0.263-0.765-0.652-0.76-1.038C634.764,217.532,637.447,218.976,639.632,219.001"/>
<path fill="#FFFFFF" d="M635.47,223.195c-1.3,1.142-3.611,0.857-5.276,0.45c-0.418-0.107-0.241-0.621,0.135-0.639
	c0.905-0.376,2.337-1.773,3.61-0.858L635.47,223.195z"/>
<path fill="#FFFFFF" d="M628.748,226.329c-0.786,1.276-2.591,1.77-4.137,2.008c-0.636-0.522-1.409-0.402-1.916-1.051
	c1.548-0.497,3.35-0.731,4.901-1.484C628.154,225.547,628.877,225.741,628.748,226.329"/>
<path fill="#FFFFFF" d="M597.267,181.613c0,0,0.393,0.025-0.002,0.257c-0.81,0.468-4.36-0.951-5.789,0.446
	c-2.338,2.029-5.827,3.659-9.16,2.849c0.777-0.505,2.079-0.496,2.968-0.994c2.508-1.405,4.313-6.119,8.155-4.917
	C594.711,180.297,595.732,180.952,597.267,181.613"/>
<path fill="#EC1E24" d="M603.764,118.384l0.14,1.608c-3.629,2.528-7.762,4.278-10.883,7.326c-4.551,4.445-7.058,9.944-8.289,16.227
	c-0.16,2.601,2.924,2.945,2.924,2.945c0.857,1.885,1.884,0.686,2.227,3.428c0.344,2.742,1.028,10.796,4.113,11.996
	c3.085,1.199,14.531-1.901,20.223-8.226c1.543-1.715,4.284,3.427,6.513,2.056c7.539,0.171,14.215-11.311,14.215-11.311h18.164
	c0,0,4.979-16.451-1.019-21.765c-5.997-5.313-9.595-5.998-10.967-5.484c-1.372,0.514-10.796-10.282-10.454-11.997
	c3.428-1.371,3.628-15.541,0.857-23.992c-3.427-10.454-29.417-13.486-37.017,1.713c-2.055,4.114-2.228,9.255-1.713,12.683
	c-5.484,5.998,2.399,17.822,4.113,23.135C599.481,120.612,603.764,118.384,603.764,118.384"/>
<path fill="#FFFFFF" d="M617.219,69.76c0.504,0.906,1.264,1.943,1.379,3.101c-1.673,0.109-3.6,0.087-4.872-1.086
	c-0.634-0.779-1.78-1.692-1.506-3.103C613.901,67.793,615.817,68.845,617.219,69.76"/>
<path fill="#FFFFFF" d="M625.147,73.323c-1.416,0.241-2.825-0.289-4.103-0.818c-1.147-0.914-1.515-2.332-2.274-3.498
	c0.651-0.635,2.063-0.49,2.828,0.033C623.131,69.959,624.525,71.645,625.147,73.323"/>
<path fill="#FFFFFF" d="M611.79,72.396c0.373,1.034-0.779,0.633-1.167,0.886c-2.318,0.358-4.231-0.95-5.368-2.634
	c-0.248-0.774,0.146-1.54,0.92-1.789C608.623,68.503,610.916,70.2,611.79,72.396"/>
<path fill="#FFFFFF" d="M632.104,71.863c0.505,0.906-0.405,1.795-1.179,1.915c-1.417,0.241-3.211-0.166-3.843-1.203
	c-0.502-0.905-1.138-1.555-1.124-2.712c0.782-0.89,2.579-0.742,3.603-0.343C630.585,70.045,631.602,70.829,632.104,71.863"/>
<path fill="#FFFFFF" d="M602.809,71.004c0.376,0.905,1.65,1.82,0.867,2.71c-1.293,0.628-2.835,0.609-4.244,0.207
	c-0.768-0.267-1.662-0.791-1.908-1.694c0.01-0.899,0.662-1.663,1.436-1.91C600.381,69.691,601.788,70.35,602.809,71.004"/>
<path fill="#FFFFFF" d="M629.026,82.367c0.478,2.962-1.826,5.341-3.295,6.902c-7.398,5.954-17.201,8.924-27.468,7.519
	c-2.433-0.8-1.497-3.874-1.602-5.933c0.045-3.856,1.884-7.047,4.101-9.85c4.942-4.954,13.562-5.496,20.612-3.999
	C623.557,77.418,628.914,79.525,629.026,82.367"/>
<path fill="#EC1E24" d="M615.456,77.709c-0.014,1.156-1.19,2.241-2.346,2.801c-2.774,1.339-5.054,3.41-7.894,4.406
	c0,0-0.232,0.026-0.126-0.13c0.475-1.024,7.656-5.876,9.852-7.083C615.213,77.554,615.456,77.709,615.456,77.709"/>
<path fill="#EC1E24" d="M619.817,78.403c-0.273,1.411-1.882,2.161-2.731,2.668c-2.328,1.257-3.888,2.781-6.338,3.395
	c1.901-2.777,8.464-6.031,8.685-6.195C619.654,78.106,619.817,78.403,619.817,78.403"/>
<path fill="#EC1E24" d="M609.27,79.051c-0.525,0.213-4.653,4.277-7.516,5.181c0,0-0.315,0.066-0.286-0.037
	c0.212-0.74,5.207-5.318,7.809-5.658C609.34,78.524,609.794,78.838,609.27,79.051"/>
<path fill="#EC1E24" d="M622.752,80.237c-1.569,2.296-3.9,3.683-6.476,4.165l5.71-4.559
	C622.243,79.845,622.629,79.851,622.752,80.237"/>
<path fill="#EC1E24" d="M625.727,81.688c-1.687,2.86-7.728,5.19-8.462,6.069c-0.503,0.342-0.514-0.007-0.514-0.007
	c1.175-1.529,3.502-2.787,5.189-4.052c1.162-0.502,1.963-2.935,3.63-2.53C625.57,81.169,625.855,81.384,625.727,81.688"/>
<path fill="#EC1E24" d="M627.222,84.469c0.45,0.337-0.035,1.218-0.035,1.218c-4.287,4.067-11.517,7.666-13.461,7.941
	c-0.483,0.143-0.257-0.132-0.257-0.132c2.987-2.407,7.12-4.287,10.236-6.821C624.871,85.917,625.76,83.28,627.222,84.469"/>
<path fill="#EC1E24" d="M613.768,90.03c-2.968,0.994-6.313,1.339-9.523,0.916c-0.893-0.525-1.294-1.78-1.257-2.458
	c0.676-2.82,4.118-1.123,6.175-1.765c1.525-0.381,3.744-1.773,5.557-1.181C615.365,85.802,615.443,89.663,613.768,90.03"/>
<path fill="#FFFFFF" d="M612.76,88.347c-1.178,1.656-5.843,0.953-6.182,0.956c-0.339,0.002-0.126-0.259-0.126-0.259
	c1.807-0.623,3.987-0.21,5.546-1.607C612.515,87.315,612.894,87.834,612.76,88.347"/>
<path fill="#231F20" d="M594.039,102.04c-0.278,0.642,0.042,0.741,0.042,0.741c7.263,2.173,11.248-0.227,11.248-0.227
	c-3.595-0.299-7.258-0.24-10.592-0.923C594.736,101.631,594.227,101.604,594.039,102.04"/>
<path fill="#FFFFFF" d="M593.993,99.309c0.561-0.333,0.739,0.603,4.227,1.207c3.488,0.603,18.997,1.459,31.089-9.404
	c0.645-0.249,0.708,0.458,0.761,0.78c0.595,3.992-0.223,8.095-1.806,11.548c-7.916,6.334-17.987,10.2-28.423,12.262
	c-2.57-0.03-1.893-2.978-2.903-4.533c-1.385-2.459-2.639-5.044-3.248-8.007C593.69,103.162,592.583,100.133,593.993,99.309"/>
<path fill="#EC1E24" d="M628.355,95.727c-4.159,3.936-9.585,6.058-15.63,6.372c0,0-0.477-0.167,0.005-0.385
	c4.61-1.308,10.462-4.248,15.251-7.02c0,0,0.349-0.152,0.512,0.136C628.748,95.281,628.355,95.727,628.355,95.727"/>
<path fill="#EC1E24" d="M628.32,98.683c-0.014,1.157-1.291,1.707-2.082,2.161c-3.623,2.015-7.748,2.994-11.747,4.36
	c-0.491,0.069-0.936-0.077-1.027-0.268c-0.091-0.193,0.262-0.383,0.262-0.383c4.525-2.26,9.43-4.002,13.574-6.525
	C627.814,97.906,628.282,98.173,628.32,98.683"/>
<path fill="#EC1E24" d="M627.117,102.526c-3.641,3.556-8.409,4.659-13.178,5.758c0,0-0.213,0.092-0.39-0.004
	c-0.176-0.097-0.122-0.258-0.122-0.258c1.815-1.265,4.39-1.62,6.463-2.882c2.48-1.344,6.111-3.641,7.498-3.51
	C627.527,101.885,627.117,102.526,627.117,102.526"/>
<path fill="#EC1E24" d="M605.625,104.844c-2.589,1.511-6.063,1.857-9.399,1.304c-0.386-0.005-0.51-0.392-0.377-0.777
	c2.579-0.613,5.388-0.29,7.809-0.525L605.625,104.844z"/>
<path fill="#EC1E24" d="M606.11,107.293c-2.587,1.384-6.193,1.983-9.401,1.56c-0.374-1.033,1.039-1.016,1.684-1.138
	C600.964,107.617,603.541,107.133,606.11,107.293"/>
<path fill="#FFFFFF" d="M632.894,114.163c1.645,2.204,3.681,4.027,5.979,5.34c0.248,0.646,0.497,1.421-0.151,1.798
	c-6.873,5.189-10.177,12.863-14.632,20.138c-0.917,1.403-2.698-0.16-3.977-0.689c-1.789-0.921-2.673-2.217-4.204-3.263l-0.644,0.12
	c-3.525,4.714-7.815,8.778-13.371,11.155c-0.761-0.78-0.744-2.323-0.602-3.478c0.041-3.471,1.744-6.149,2.295-9.357
	c-1.536-0.531-3.209-0.294-4.747-0.697c-0.117-1.03,0.668-2.178,1.322-3.199c2.489-3.956,6.127-7.254,10.642-8.615
	c-0.788,1.404-1.572,2.552-2.743,3.694l0.384,0.134c1.289-0.243,2.456-1.128,3.867-0.854c-0.012,1.028-1.427,1.14-1.568,2.167
	c1.675-0.238,3.104-1.635,4.895-0.842c0.382,0.262,0.753,1.423,1.658,1.048c0.925-2.047-0.213-3.73-0.704-5.664
	c0,0-2.682-5.35-2.888-5.947c-0.205-0.598,0.266-0.769,0.266-0.769c4.914-2.513,9.836-5.54,14.49-7.928
	C630.5,110.021,631.247,112.215,632.894,114.163"/>
<path fill="#EC1E24" d="M607.631,109.109c-2.334,1.644-5.303,2.766-8.51,2.214c-0.126-0.129-0.639-0.393-0.247-0.774
	C601.832,110.326,604.671,109.46,607.631,109.109"/>
<path fill="#EC1E24" d="M627.917,111.148c-2.218,2.672-5.187,3.794-8.16,5.173l-0.642-0.007l0.005-0.386
	c3.356-1.245,5.191-4.181,8.671-5.039L627.917,111.148z"/>
<path fill="#EC1E24" d="M600.465,112.387c1.971,0.021,6.083-1.328,7.526-1.088c-0.65,0.635-1.811,1.007-2.715,1.382
	c-1.808,0.622-3.878,1.755-5.664,0.704C599.459,113.158,599.78,112.536,600.465,112.387"/>
<path fill="#EC1E24" d="M629.053,112.832c-0.142,1.284-0.919,1.66-1.825,2.292c-2.329,1.258-4.402,2.648-6.977,3.003
	c2.465-2.028,5.315-3.922,8.16-5.431L629.053,112.832z"/>
<path fill="#EC1E24" d="M630.319,114.517c-0.14,0.898-0.79,1.662-1.697,2.166c-2.066,0.876-4.016,2.781-6.594,3.264
	c2.081-2.032,4.412-3.418,6.619-5.321C629.161,114.632,629.809,114.127,630.319,114.517"/>
<path fill="#EC1E24" d="M631.584,116.332c-0.272,1.153-1.828,2.293-2.989,2.665c-1.164,0.628-2.591,1.897-4.007,2.009
	c1.693-1.908,4.155-3.551,6.226-4.811L631.584,116.332z"/>
<path fill="#EC1E24" d="M633.616,118.284c-2.595,2.283-5.317,4.051-8.418,5.428l0.266-0.639c2.338-2.157,4.546-4.06,7.773-5.307
	C633.624,117.77,633.877,118.03,633.616,118.284"/>
<path fill="#EC1E24" d="M635.008,120.228c-1.103,1.498-2.966,2.398-3.764,3.041c-1.943,1.261-3.767,3.297-5.962,4.171l0.007-0.514
	c2.47-2.413,5.593-5.718,8.954-7.221C634.497,119.965,635.014,119.714,635.008,120.228"/>
<path fill="#EC1E24" d="M636.927,121.022l-0.267,0.768c-2.337,1.901-4.925,3.413-6.75,5.706c0,0-1.696,2.165-2.606,2.925
	l-0.124-0.259c0,0,1.231-2.202,1.705-2.936c2.083-2.289,4.556-4.83,7.272-6.341C636.414,120.888,636.673,120.762,636.927,121.022"/>
<path fill="#FFFFFF" d="M649.738,124.643c0.505,0.906,1.268,1.558,0.998,2.583c-0.779,0.633-1.503-0.551-2.305-0.67
	c-3.851-0.431-6.962,1.846-9.054,4.779c0,0-2.091,2.931-3.135,4.332c-4.185,6.122-7.22,12.77-13.566,16.808
	c-1.424,0.756-2.679-0.217-3.717-0.942c-1.313-0.918-2.283-2.597-3.96-2.103c-5.066,4.44-10.905,9.127-18.114,10.071
	c-1.315,0.079-1.924-2.042-2.405-3.243c-1.373-3.487-1.835-7.991-1.532-11.843c0.273-1.411-1.268-1.558-2.166-1.696
	c-0.643-0.009-1.411-0.273-1.403-0.916c-0.04-7.585,5.046-13.823,11.635-16.574c-3.379,3.173-6.127,7.256-6.956,12.13
	c0.758,1.166,2.562,0.802,3.842,1.202c0.514,0.006,1.285,0.014,1.277,0.658c-0.819,4.103-1.648,8.978-0.025,13.111
	c0.631,1.036,1.923,0.408,2.824,0.29c5.297-2.251,10.72-6.407,13.361-10.255c0.311-0.455,0.645-0.249,0.645-0.249
	c3.07,1.32,5.101,3.53,8.308,4.081c1.68-0.879,8.235-11.728,9.937-14.279c0.769-1.354,3.268-4.718,5.472-6.363
	C642.292,123.913,647.08,121.141,649.738,124.643"/>
<path fill="#FFFFFF" d="M635.707,143.239c0.038-0.099,0.099-0.224,0.193-0.378c0.599-0.992,6.103-11.817,10.433-12.859
	c1.799,0.021,2.81,1.448,3.436,2.997c0.665,3.422,0.783,7.7-1.595,10.244L635.707,143.239z"/>
<path fill="#EC1E24" d="M612.236,132.944c1.028,0.012,1.554-1.01,2.708-0.74c2.68,1.575,5.01,0.187,7.34-1.07
	c0.643-0.249,0.895,0.268,1.15,0.527c0.495,1.549-0.419,2.824-1.33,3.841c-0.41,0.587-2.847,1.509-4.129,1.235
	c-1.156-0.012-1.911-1.436-3.077-0.678c-1.166,0.886-2.466,2.027-4.262,1.749c-1.669-0.148-2.941-1.32-3.699-2.486
	c-0.601-1.386-0.862-3.094-0.202-4.63c0.263-0.512,0.524-0.765,1.04-1.016C608.919,130.719,609.918,133.302,612.236,132.944"/>
<path fill="#EC1E24" d="M646.182,131.929c-0.267,0.769-1.174,1.4-1.821,1.778l-0.255-0.131
	C644.631,132.681,645.408,132.177,646.182,131.929"/>
<path fill="#FFFFFF" d="M613.501,134.629c-1.671,3.26-6.554,0.496-5.334-2.363C610.448,134.677,613.501,134.629,613.501,134.629"/>
<path fill="#EC1E24" d="M647.575,133.744l-4.537,3.16l-0.386-0.005l0.266-0.639c1.426-1.012,2.734-2.925,4.793-3.157
	L647.575,133.744z"/>
<path fill="#FFFFFF" d="M621.92,132.748c-0.032,2.121-2.905,2.975-4.701,2.698c-0.762-0.094-1.54-0.736-1.662-1.38
	C617.513,134.601,620.795,133.937,621.92,132.748"/>
<path fill="#EC1E24" d="M648.328,135.295c-1.823,2.036-4.413,3.677-6.742,4.934l0.134-0.513c1.951-1.904,3.257-3.689,5.711-4.689
	C647.685,135.16,648.204,134.909,648.328,135.295"/>
<path fill="#EC1E24" d="M648.16,138.635c-1.95,1.907-4.146,2.78-6.087,3.914c1.306-1.785,3.127-3.691,5.454-4.693l0.642,0.136
	L648.16,138.635z"/>
<path fill="#EC1E24" d="M610.671,167.631c0.118,0.901-0.279,1.925-0.926,2.303c-0.645,0.12-0.767-0.394-0.76-1.037l0.547-2.822
	C610.043,166.339,610.55,166.987,610.671,167.631"/>
<path fill="#EC1E24" d="M596.956,76.849c-1.245-0.494-2.036-1.824-2.275-3.24c-0.369-1.547-0.127-2.909,0.951-4.487
	c2.136-3.135,6.688-0.308,9.285-2.462c0.522-0.765-0.24-1.546-0.229-2.445c-0.112-1.415,0.234-2.984,1.456-3.582
	c1.68-0.752,3.705-0.13,4.948,0.471c1.149,0.527,1.921,2.424,3.47,1.928c0.646-0.142,1.07-0.36,0.95-1.004
	c-3.846-0.945-7.671-3.56-9.82-6.67c-2.909-4.018-4.252-10.076-2.14-14.808c-0.373-1.033-1.524-1.427-1.415-2.368
	c0.129-1.114-1.671-0.814-1.876-1.911c-0.052-1.688-1.187-1.752-1.502-3.488c-0.115-1.031,0.913-1.392,1.053-2.044
	c0.14-0.654-0.171-1.657,0.156-2.312c0.327-0.655,1.44-0.57,1.817-1.522c-0.617-2.192,1.943-1.263,2.723-2.025
	c0.656-1.149,2.199-1.131,3.354-0.988l1.558,0.58c1.071-0.686,2.828,0.042,2.999,0.985c0.335,0.78,1.201,0.688,1.718,0.308
	c0.533-1.665,2.637-1.123,3.723-0.864c1.689-1.522,2.841,0.169,4.641,0.191c1.669,0.019,2.047,2.432,2.409,2.727
	c0.362,0.295,2.175,0.797,1.901,2.337c-0.795,1.918,1.373,3.358-0.316,4.882c-2.22,3.057,1.613,4.902,2.225,7.609l2.221,7.867
	c1.012,1.298,3.324,1.453,4.87,1.214c1.136,1.685,0.598,4.622-0.448,5.265c-1.01,0.898-3.867,0.983-2.867,3.308
	c0.487,2.19,1.881,4.007,2.76,5.817c0.12,0.644-0.389,0.642-0.779,0.633c-2.439-0.285-4.216-2.233-6.137-2.899
	c-0.137,0.769-0.149,1.798,0.358,2.447c1.137,1.683,4.544,3.126,4.971,3.528c0.427,0.403,1.561,0.791,1.508,2.975
	c-0.053,2.183-0.852,2.809-1.382,3.512c-0.529,0.703-2.012,1.499-3.77,1.628c-1.757,0.128-8.096-3.599-14.523-3.17
	C609.077,75.198,603.042,79.014,596.956,76.849"/>
<path fill="#FFFFFF" d="M611.647,29.848c0.365,1.802,0.72,4.378-0.454,5.907c-1.041,1.015-2.597,2.155-4.393,1.876
	c-1.415-0.017-2.56-0.93-3.451-1.712c-1.399-1.301-0.857-3.609-0.708-5.407c0.413-2.31,2.865-3.052,4.925-3.412
	C609.364,27.25,610.898,28.039,611.647,29.848"/>
<path fill="#FFFFFF" d="M623.334,30.756c0.875,2.067-0.055,4.627-1.229,6.155c-1.684,1.137-4.138,2.137-6.179,0.828
	c-1.786-1.178-2.663-3.117-2.381-5.298c0.539-2.051,1.722-4.351,4.042-4.838C620.288,27.378,622.334,28.302,623.334,30.756"/>
<path fill="#EC1E24" d="M609.948,32.27c-0.185,0.941-1.276,1.589-2.079,1.903c-1.704,0.666-4.104-1.99-2.397-3.884
	c0.552-0.612,1.171-1.143,2.07-1.133C609.763,29.398,610.074,31.627,609.948,32.27"/>
<path fill="#EC1E24" d="M620.753,31.626c0.376,0.775,0.109,1.543-0.157,2.44c-0.293,0.859-2.081,2.033-3.355,0.99
	c-1.274-0.915-1.773-2.207-1.115-3.613c0.524-0.765,1.303-1.398,2.203-1.388C619.356,30.066,620.377,30.721,620.753,31.626"/>
<path fill="#FFFFFF" d="M608.231,31.674c-0.068,0.409-0.46,0.359-0.812,0.354c-0.393-0.016-0.54-0.924,0.013-1.101
	C607.979,30.933,608.311,31.192,608.231,31.674"/>
<path fill="#FFFFFF" d="M619.009,32.205c-0.003,0.284-0.436,0.706-0.863,0.842c-0.285-0.092-0.704-0.292-0.557-0.716
	C617.738,31.622,618.877,31.352,619.009,32.205"/>
<path fill="#FFFFFF" d="M613.876,39.167c-0.257,0.771-2.014,2.355-2.399,2.099c-0.638-0.393-0.324-2.169,0.066-2.55
	C612.077,37.709,614.146,37.884,613.876,39.167"/>
<path fill="#FFFFFF" d="M610.594,42.946l2.685,1.318c1.353,5.028,3.482,9.938,7.033,13.964c-0.011,1.028-1.554,1.01-2.582,0.999
	c-2.445,0.227-4.752-0.441-6.535-1.877c-4.585-3.525-6.446-9.331-5.609-14.847c0.399-1.152,1.31-2.042,2.593-1.898
	C609.591,40.75,609.573,42.292,610.594,42.946"/>
<path fill="#FFFFFF" d="M619.477,41.765c0.914-1.146,2.58-0.869,3.73-0.212c0.393-0.511,1.032-0.374,1.413,0.144
	c2.914,3.633,3.11,8.778,3.44,13.537c-2.415-2.341-3.815-9.255-3.992-10.33c-1.823,2.034,0.413,8.617,0.534,9.26
	c-2.799-1.245-3.899-7.372-4.522-9.05c-1.174,1.528-0.559,3.849-0.324,5.78l0.487,2.32c-1.656-1.305-3.3-3.639-3.915-5.959
	c-0.364-1.805-0.595-3.992-0.318-5.789c0.138-0.898,1.296-0.885,1.806-0.492C618.325,41.366,618.827,42.272,619.477,41.765"/>
<path fill="#FFFFFF" d="M633.85,54.66c-0.137,0.77-0.783,1.019-1.429,1.268c-0.647,0.378-0.765-0.524-0.89-0.781
	c0.009-0.644,0.018-1.543,0.661-1.536C632.704,53.876,634.251,53.379,633.85,54.66"/>
<path fill="#FFFFFF" d="M625.788,62.534c0.377,0.777-0.277,1.668-1.172,1.271c-0.897-0.268-1.664-0.533-2.042-1.309
	c-0.115-1.03,0.661-1.535,1.307-1.785C625.037,60.854,625.415,61.501,625.788,62.534"/>
<path fill="#FFFFFF" d="M624.458,66.374c0.126,0.259-0.134,0.513-0.264,0.64c-1.786-1.178-5.911-0.069-5.487-3.407
	c0.393-0.767,1.161-0.5,1.799-0.107L624.458,66.374z"/>
<path fill="#FFFFFF" d="M615.984,65.504c0.515,0.006,1.027,0.14,1.276,0.786c0.251,0.518-0.392,0.639-0.651,0.764
	c-2.047-0.795-4.611-1.34-6.677-0.592c-1.711,0.168-2.311-0.285-2.553-1.573c-0.145-0.702-0.369-1.418,0.407-1.795
	C610.867,63.387,612.764,66.108,615.984,65.504"/>
<path fill="#FFFFFF" d="M617.219,69.76c0.504,0.906,1.264,1.943,1.379,3.101c-1.673,0.109-3.6,0.087-4.872-1.086
	c-0.634-0.779-1.78-1.692-1.506-3.103C613.901,67.793,615.817,68.845,617.219,69.76"/>
<path fill="#FFFFFF" d="M625.147,73.323c-1.416,0.241-2.825-0.289-4.103-0.818c-1.147-0.914-1.515-2.332-2.274-3.498
	c0.651-0.635,2.063-0.49,2.828,0.033C623.131,69.959,624.525,71.645,625.147,73.323"/>
<path fill="#FFFFFF" d="M611.79,72.396c0.373,1.034-0.656,0.831-1.167,0.886c-2.318,0.358-4.231-0.95-5.368-2.634
	c-0.248-0.774,0.146-1.54,0.92-1.789C608.623,68.503,610.916,70.2,611.79,72.396"/>
<path fill="#FFFFFF" d="M632.104,71.863c0.505,0.906-0.405,1.795-1.179,1.915c-1.417,0.241-3.211-0.166-3.843-1.203
	c-0.502-0.905-1.138-1.555-1.124-2.712c0.782-0.89,2.579-0.742,3.603-0.343C630.585,70.045,631.602,70.829,632.104,71.863"/>
<path fill="#FFFFFF" d="M602.809,71.004c0.57,0.68,1.65,1.82,0.867,2.71c-1.293,0.628-2.835,0.609-4.244,0.207
	c-0.768-0.267-1.662-0.791-1.908-1.694c0.01-0.899,0.662-1.663,1.436-1.91C600.381,69.691,601.788,70.35,602.809,71.004"/>
<g>
	<rect x="536.535" y="329.523" fill="none" width="182.809" height="54.687"/>
	<path fill="#FF0000" d="M536.522,329.528h5.882l2.118,11.221l3.1-11.221h5.861l3.107,11.206l2.12-11.206h5.852l-4.418,20.043
		h-6.073l-3.516-12.619l-3.502,12.619h-6.073L536.522,329.528z"/>
	<path fill="#FF0000" d="M580.132,329.528h6.207v20.043h-6.207V329.528z"/>
	<path fill="#FF0000" d="M604.069,329.528h16.598v4.279h-10.391v3.186h9.639v4.088h-9.639v3.951h10.691v4.539h-16.898V329.528z"/>
	<path fill="#FF0000" d="M636.523,342.94l5.893-0.369c0.127,0.957,0.387,1.687,0.779,2.188c0.638,0.812,1.549,1.217,2.734,1.217
		c0.884,0,1.565-0.207,2.044-0.622c0.479-0.415,0.718-0.896,0.718-1.442c0-0.52-0.228-0.984-0.684-1.395
		c-0.456-0.41-1.513-0.797-3.172-1.162c-2.716-0.61-4.653-1.422-5.811-2.434c-1.167-1.012-1.75-2.301-1.75-3.869
		c0-1.03,0.298-2.003,0.896-2.919c0.597-0.916,1.495-1.636,2.693-2.16c1.198-0.524,2.841-0.786,4.929-0.786
		c2.561,0,4.514,0.477,5.858,1.429c1.344,0.953,2.144,2.468,2.399,4.546l-5.838,0.342c-0.155-0.902-0.481-1.559-0.978-1.969
		c-0.497-0.41-1.183-0.615-2.058-0.615c-0.72,0-1.263,0.153-1.627,0.458c-0.365,0.306-0.547,0.677-0.547,1.114
		c0,0.319,0.15,0.606,0.451,0.861c0.292,0.265,0.984,0.511,2.078,0.738c2.707,0.583,4.646,1.174,5.817,1.771
		c1.171,0.597,2.023,1.338,2.557,2.222c0.533,0.884,0.8,1.873,0.8,2.967c0,1.285-0.355,2.47-1.066,3.555
		c-0.711,1.085-1.705,1.907-2.98,2.468c-1.276,0.561-2.885,0.841-4.826,0.841c-3.409,0-5.77-0.656-7.082-1.969
		S636.696,344.964,636.523,342.94z"/>
	<path fill="#FF0000" d="M670.044,342.94l5.893-0.369c0.127,0.957,0.387,1.687,0.779,2.188c0.638,0.812,1.549,1.217,2.734,1.217
		c0.884,0,1.565-0.207,2.044-0.622c0.479-0.415,0.718-0.896,0.718-1.442c0-0.52-0.228-0.984-0.684-1.395
		c-0.456-0.41-1.513-0.797-3.172-1.162c-2.716-0.61-4.653-1.422-5.811-2.434c-1.167-1.012-1.75-2.301-1.75-3.869
		c0-1.03,0.298-2.003,0.896-2.919c0.597-0.916,1.495-1.636,2.693-2.16c1.198-0.524,2.841-0.786,4.929-0.786
		c2.561,0,4.514,0.477,5.858,1.429c1.344,0.953,2.144,2.468,2.399,4.546l-5.838,0.342c-0.155-0.902-0.481-1.559-0.978-1.969
		c-0.497-0.41-1.183-0.615-2.058-0.615c-0.72,0-1.263,0.153-1.627,0.458c-0.365,0.306-0.547,0.677-0.547,1.114
		c0,0.319,0.15,0.606,0.451,0.861c0.292,0.265,0.984,0.511,2.078,0.738c2.707,0.583,4.646,1.174,5.817,1.771
		c1.171,0.597,2.023,1.338,2.557,2.222c0.533,0.884,0.8,1.873,0.8,2.967c0,1.285-0.355,2.47-1.066,3.555
		c-0.711,1.085-1.705,1.907-2.98,2.468c-1.276,0.561-2.885,0.841-4.826,0.841c-3.409,0-5.77-0.656-7.082-1.969
		S670.217,344.964,670.044,342.94z"/>
	<path fill="#FF0000" d="M547.532,364.712l3.877,1.172c-0.26,1.087-0.67,1.996-1.23,2.725s-1.255,1.279-2.085,1.65
		s-1.886,0.557-3.169,0.557c-1.556,0-2.827-0.226-3.813-0.678s-1.837-1.248-2.554-2.386s-1.074-2.596-1.074-4.372
		c0-2.368,0.63-4.188,1.89-5.46c1.26-1.272,3.042-1.908,5.347-1.908c1.803,0,3.221,0.365,4.253,1.094s1.798,1.849,2.3,3.359
		l-3.906,0.869c-0.137-0.436-0.28-0.755-0.43-0.957c-0.248-0.338-0.55-0.599-0.908-0.781s-0.758-0.273-1.201-0.273
		c-1.002,0-1.771,0.403-2.305,1.209c-0.404,0.598-0.605,1.538-0.605,2.819c0,1.587,0.241,2.674,0.723,3.263
		c0.482,0.589,1.159,0.883,2.031,0.883c0.846,0,1.486-0.238,1.919-0.713S547.336,365.617,547.532,364.712z"/>
	<path fill="#FF0000" d="M561,363.423c0-2.337,0.651-4.157,1.953-5.459s3.115-1.953,5.439-1.953c2.383,0,4.219,0.64,5.508,1.919
		s1.934,3.071,1.934,5.376c0,1.673-0.282,3.045-0.845,4.116s-1.377,1.904-2.441,2.5s-2.391,0.894-3.979,0.894
		c-1.615,0-2.951-0.257-4.009-0.771s-1.916-1.328-2.573-2.441S561,365.096,561,363.423z M565.424,363.442
		c0,1.445,0.269,2.484,0.806,3.115s1.268,0.947,2.192,0.947c0.951,0,1.686-0.309,2.207-0.928s0.781-1.729,0.781-3.33
		c0-1.348-0.272-2.333-0.815-2.954s-1.281-0.933-2.212-0.933c-0.892,0-1.608,0.316-2.148,0.947S565.424,361.984,565.424,363.442z"/>
	<path fill="#FF0000" d="M586.217,356.255h4.424v10.791h6.904v3.525h-11.328V356.255z"/>
	<path fill="#FF0000" d="M607.557,356.255h4.424v10.791h6.904v3.525h-11.328V356.255z"/>
	<path fill="#FF0000" d="M628.887,356.255h11.855v3.057h-7.422v2.275h6.885v2.92h-6.885v2.822h7.637v3.242h-12.07V356.255z"/>
	<path fill="#FF0000" d="M658.538,365.386v-2.979h6.836v6.104c-1.309,0.892-2.466,1.499-3.472,1.821s-2.199,0.483-3.579,0.483
		c-1.699,0-3.084-0.29-4.155-0.869s-1.901-1.442-2.49-2.588s-0.884-2.461-0.884-3.945c0-1.562,0.322-2.921,0.967-4.077
		s1.588-2.033,2.832-2.632c0.97-0.462,2.275-0.693,3.916-0.693c1.582,0,2.765,0.143,3.55,0.43s1.436,0.731,1.953,1.333
		s0.907,1.366,1.167,2.29l-4.268,0.762c-0.176-0.541-0.474-0.954-0.894-1.24s-0.956-0.43-1.606-0.43
		c-0.97,0-1.743,0.337-2.319,1.011s-0.864,1.74-0.864,3.198c0,1.549,0.292,2.656,0.874,3.32s1.395,0.996,2.437,0.996
		c0.495,0,0.967-0.072,1.416-0.215s0.963-0.387,1.543-0.732v-1.348H658.538z"/>
	<path fill="#FF0000" d="M675.991,356.255h11.855v3.057h-7.422v2.275h6.885v2.92h-6.885v2.822h7.637v3.242h-12.07V356.255z"/>
</g>
<g>
	
		<rect x="35.012" y="292.935" transform="matrix(0.9979 0.0647 -0.0647 0.9979 21.675 -12.3704)" fill="none" width="333.401" height="70.649"/>
</g>
<g>
	<rect x="84.834" y="311.864" fill="none" width="252.497" height="71.443"/>
	<path fill="#FF0000" d="M86.487,311.876h48.41v12.727h-16.242v38.812h-15.926v-38.812H86.487V311.876z"/>
	<path fill="#FF0000" d="M178.174,311.876h39.375v11.074H194.17v9h19.969v10.406H194.17v21.059h-15.996V311.876z"/>
	<path fill="#FF0000" d="M256.819,311.876h15.126l5.446,28.853l7.971-28.853h15.072l7.99,28.814l5.452-28.814h15.048l-11.361,51.539
		h-15.617l-9.04-32.449l-9.004,32.449h-15.617L256.819,311.876z"/>
</g>
<g>
	<path fill="none" d="M80.961,150.988c2.041-11.287,6.622-21.569,13.576-30.608c15.287-19.869,28.174-33.125,50.681-45.004
		c12.621-6.661,30.735-11.081,45.132-12.543c18.328-1.861,32.669,1.609,50.304,1.629c20.023,0.023,37.368,11.028,52.438,23.146
		c17.208,13.837,34.977,29.222,42.159,50.857c4.962,14.946,5.624,31.365,14.017,45.069"/>
	<path fill="#FF0000" d="M67.083,92.268l1.725,0.633c0.24,2.01,0.56,3.436,0.958,4.278c0.398,0.843,0.903,1.477,1.515,1.902
		c0.313,0.218,0.93,0.38,1.851,0.487c0.737,0.09,1.345,0.301,1.824,0.634c0.599,0.416,0.961,0.94,1.088,1.572
		c0.126,0.632-0.002,1.225-0.387,1.779c-0.396,0.569-0.952,0.898-1.669,0.988c-0.717,0.09-1.435-0.115-2.153-0.614
		c-1.258-0.874-2.288-2.194-3.09-3.962C67.94,98.198,67.387,95.632,67.083,92.268z M71.127,86.448l1.722,0.637
		c0.236,2.016,0.555,3.443,0.955,4.283c0.4,0.84,0.906,1.473,1.518,1.898c0.313,0.218,0.93,0.38,1.851,0.487
		c0.736,0.09,1.345,0.302,1.823,0.634c0.599,0.417,0.964,0.937,1.097,1.561c0.132,0.625,0,1.222-0.395,1.79
		c-0.396,0.569-0.952,0.899-1.669,0.988c-0.717,0.09-1.435-0.115-2.154-0.614c-1.257-0.874-2.286-2.197-3.085-3.969
		C71.99,92.37,71.436,89.806,71.127,86.448z"/>
	<path fill="#FF0000" d="M105.003,69.493l-1.01,1.039c-0.565-0.752-1.043-1.319-1.436-1.7c-0.523-0.508-1.079-0.622-1.669-0.343
		c-0.589,0.28-2.277,1.853-5.062,4.719l-2.766,2.885l6.552,10.56l3.938-4.053c1.243-1.279,1.913-2.158,2.009-2.636
		c0.096-0.478-0.172-1.15-0.803-2.018l1.086-1.118c1.175,1.956,2.552,4.018,4.13,6.187l-0.972,1
		c-0.551-0.662-0.997-1.159-1.336-1.489c-0.144-0.14-0.409-0.22-0.796-0.24c-0.194-0.01-0.431,0.09-0.711,0.301
		c-0.409,0.29-0.975,0.807-1.7,1.553l-3.908,4.022c3.313,5.473,5.622,10.06,6.927,13.758c0.798-1.589,1.655-2.855,2.571-3.797
		c1.525-1.57,3.643-3.251,6.352-5.045c1.444-0.937,2.375-1.621,2.795-2.053c0.559-0.576,0.868-1.179,0.924-1.811
		c0.057-0.631-0.097-1.124-0.461-1.479c-0.208-0.203-0.633-0.442-1.275-0.719c-0.432-0.207-0.791-0.449-1.077-0.728
		c-0.299-0.291-0.449-0.671-0.448-1.141c0.001-0.469,0.166-0.874,0.497-1.214c0.394-0.405,0.878-0.589,1.452-0.553
		c0.574,0.037,1.123,0.31,1.646,0.818c1.111,1.08,1.612,2.514,1.501,4.301c-0.111,1.788-0.941,3.479-2.492,5.076
		c-0.814,0.837-1.916,1.828-3.305,2.97c-3.047,2.508-5.289,4.501-6.725,5.979c-1.882,1.937-3.924,4.353-6.128,7.248l-0.794-1.375
		c1.08-1.967,1.654-3.186,1.722-3.657c0.067-0.471-0.004-0.988-0.213-1.549c-0.632-1.832-2.331-5.062-5.096-9.69
		c-2.765-4.628-5.723-9.476-8.874-14.542c-1.526,1.57-2.598,3.418-3.214,5.541c-0.617,2.124-0.71,4.159-0.278,6.104
		c0.431,1.946,1.306,3.56,2.625,4.841c0.562,0.545,1.105,0.965,1.63,1.26c0.526,0.295,1.358,0.614,2.496,0.958
		c0.698,0.196,1.191,0.433,1.478,0.712c0.288,0.279,0.425,0.647,0.414,1.103c-0.012,0.456-0.188,0.859-0.528,1.209
		c-0.493,0.507-1.139,0.662-1.939,0.465c-1.174-0.282-2.402-1.046-3.683-2.291c-2.746-2.668-4.2-6.102-4.363-10.302
		c-0.164-4.2,1.686-8.287,5.548-12.262l6.536-6.726c2.261-2.327,3.781-4.192,4.561-5.596
		C102.999,66.618,104.224,68.457,105.003,69.493z"/>
	<path fill="#FF0000" d="M131.559,75.25l1.332,0.245c-0.2,2.135-0.693,4.308-1.48,6.521s-1.688,3.691-2.703,4.434
		c-0.456,0.333-0.958,0.435-1.505,0.305c-0.547-0.13-1.041-0.497-1.482-1.101c-0.861-1.177-2.192-3.952-3.994-8.326l-4.708-11.429
		c-1.695-4.135-2.685-7.014-2.968-8.636c-0.408-2.469-0.143-4.812,0.795-7.028c0.938-2.217,2.333-4.002,4.185-5.357
		c0.632-0.462,1.239-0.673,1.821-0.633c0.583,0.04,1.031,0.275,1.345,0.705c0.347,0.475,0.456,0.993,0.326,1.553
		c-0.129,0.561-0.532,1.088-1.206,1.582c-0.44,0.322-1.117,0.704-2.031,1.147c-0.79,0.397-1.485,0.815-2.086,1.255
		c-0.601,0.439-0.964,0.896-1.09,1.371c-0.167,0.663-0.012,1.684,0.469,3.063c0.48,1.379,1.548,4.015,3.203,7.907l4.563,10.857
		c2.302,5.431,3.528,8.25,3.679,8.455c0.345,0.471,0.686,0.583,1.024,0.335c0.323-0.237,0.655-0.772,0.993-1.607
		C130.703,79.208,131.209,77.335,131.559,75.25z"/>
	<path fill="#FF0000" d="M148.127,45.641l-0.135-1.266c2.378-1.186,4.36-2.337,5.944-3.454c0.038,1.356,0.183,3.092,0.435,5.208
		l0.828,7.929l2.398-0.773c1.108-0.367,2.191-1.094,3.249-2.183c1.057-1.088,1.804-2.576,2.242-4.462
		c0.438-1.886,0.325-3.697-0.341-5.434c-0.659-1.719-1.798-2.844-3.416-3.375c-1.618-0.531-3.693-0.311-6.227,0.661
		c-2.89,1.108-5.445,2.914-7.665,5.415c-2.22,2.501-3.653,5.16-4.299,7.975c-0.646,2.815-0.551,5.312,0.284,7.491
		c0.411,1.072,0.964,1.929,1.66,2.57c0.695,0.642,1.691,1.153,2.989,1.533c1.069,0.293,1.715,0.729,1.937,1.307
		c0.144,0.375,0.127,0.742-0.048,1.102c-0.176,0.36-0.451,0.613-0.827,0.757c-1.009,0.387-2.248,0.071-3.717-0.947
		c-1.469-1.018-2.608-2.582-3.418-4.692c-1.482-3.864-1.353-7.955,0.388-12.273c2.275-5.675,6.68-9.767,13.216-12.273
		c2.485-0.953,4.647-1.411,6.486-1.375c1.84,0.037,3.371,0.464,4.593,1.284s2.085,1.885,2.587,3.195
		c0.64,1.668,0.712,3.52,0.219,5.554c-0.494,2.035-1.633,3.96-3.417,5.777s-3.999,3.232-6.644,4.247
		c-0.407,0.156-1.053,0.375-1.938,0.655l0.995,8.732c0.175,1.474,0.301,2.946,0.379,4.418c1.449-0.186,2.666-0.467,3.651-0.845
		c1.24-0.476,2.482-1.226,3.727-2.25l0.243,1.547c-1.189,0.866-2.243,1.475-3.161,1.827c-0.884,0.339-2.212,0.741-3.984,1.206
		c-1.425,0.352-2.563,0.69-3.413,1.017c-1.649,0.632-3.266,1.477-4.85,2.534l-0.213-1.471c1.658-0.968,2.706-1.848,3.143-2.641
		c0.625-1.118,0.782-2.945,0.472-5.482l-2.015-16.769c-0.104-0.78-0.212-1.314-0.323-1.604c-0.104-0.272-0.308-0.472-0.61-0.601
		c-0.303-0.128-0.607-0.133-0.913-0.016C148.499,45.44,148.335,45.522,148.127,45.641z"/>
	<path fill="#FF0000" d="M178.181,64.623l-3.996,0.794l0.444-7.587c0.208-3.721,0.336-7.241,0.383-10.559
		c0.004-0.818-0.013-1.326-0.052-1.523c-0.085-0.429-0.325-0.604-0.718-0.526c-0.269,0.053-0.644,0.318-1.125,0.795
		c-0.481,0.477-1.302,1.583-2.463,3.319l-1.018-0.773c1.35-2.182,2.787-3.903,4.311-5.164c1.524-1.26,2.741-1.98,3.653-2.162
		c0.322-0.064,0.591-0.038,0.809,0.076c0.218,0.115,0.35,0.289,0.396,0.521c0.046,0.234,0.052,0.877,0.017,1.93l-0.208,5.057
		c1.243-3.213,2.799-6.06,4.672-8.541c0.9-1.186,1.718-1.853,2.452-1.999c0.537-0.106,1.02-0.021,1.447,0.256
		c0.428,0.277,0.688,0.648,0.78,1.113c0.096,0.483,0.003,0.929-0.277,1.337c-0.281,0.409-1.072,0.984-2.373,1.726
		c-1.233,0.71-2.203,1.461-2.909,2.252c-0.707,0.791-1.428,1.929-2.163,3.414c-0.736,1.485-1.206,2.745-1.41,3.779
		c-0.204,1.035-0.363,3.375-0.477,7.021L178.181,64.623z"/>
	<path fill="#FF0000" d="M202.493,55.051l0.984,1.137c-4.158,4.55-7.828,6.937-11.01,7.16c-1.292,0.091-2.308-0.276-3.051-1.102
		c-0.743-0.825-1.183-2.201-1.318-4.128c-0.273-3.891,0.636-7.848,2.729-11.869c2.347-4.568,5.366-6.983,9.058-7.242
		c1.291-0.091,2.3,0.163,3.027,0.76c0.728,0.598,1.131,1.46,1.21,2.587c0.083,1.183-0.245,2.375-0.982,3.578
		s-2.118,2.498-4.14,3.882c-1.013,0.674-3.192,1.915-6.537,3.721c-0.095,0.994-0.111,1.936-0.048,2.827
		c0.091,1.292,0.359,2.177,0.804,2.657c0.445,0.48,1.058,0.693,1.84,0.638c0.745-0.052,1.549-0.318,2.411-0.8
		C198.631,58.21,200.305,56.941,202.493,55.051z M192.668,51.767c2.835-1.515,4.937-3.079,6.304-4.692
		c0.926-1.125,1.353-2.206,1.28-3.242c-0.055-0.781-0.304-1.39-0.745-1.825c-0.442-0.435-0.99-0.629-1.645-0.583
		c-0.673,0.047-1.31,0.348-1.91,0.902c-0.808,0.733-1.455,1.802-1.94,3.207C193.316,47.591,192.868,49.669,192.668,51.767z"/>
	<path fill="#FF0000" d="M219.686,39.969c1.621,0.072,2.859,0.442,3.714,1.109s1.265,1.411,1.229,2.23
		c-0.022,0.492-0.228,0.912-0.617,1.259c-0.39,0.348-0.848,0.51-1.376,0.486c-0.346-0.015-0.643-0.106-0.891-0.272
		s-0.595-0.569-1.041-1.209c-0.84-1.223-1.697-1.854-2.571-1.894c-0.747-0.033-1.419,0.225-2.019,0.772s-0.918,1.249-0.956,2.103
		c-0.033,0.746,0.116,1.477,0.45,2.193c0.333,0.717,1.203,1.89,2.608,3.519c1.926,2.236,2.846,4.319,2.761,6.246
		c-0.085,1.928-0.98,3.579-2.683,4.952c-1.703,1.374-3.848,2.002-6.434,1.887c-2.167-0.096-3.759-0.609-4.776-1.54
		c-1.018-0.93-1.497-2.042-1.439-3.334c0.028-0.637,0.252-1.156,0.671-1.558s0.92-0.589,1.503-0.563
		c0.509,0.022,0.939,0.21,1.289,0.563c0.349,0.354,0.514,0.758,0.494,1.213c-0.008,0.182-0.031,0.418-0.068,0.708
		c-0.023,0.236-0.038,0.436-0.045,0.6c-0.027,0.601,0.205,1.122,0.694,1.563c0.471,0.441,1.133,0.68,1.986,0.718
		c0.98,0.043,1.849-0.086,2.608-0.39s1.362-0.787,1.81-1.451s0.687-1.332,0.717-2.005c0.029-0.655-0.138-1.318-0.5-1.99
		c-0.363-0.672-1.193-1.793-2.492-3.364c-1.801-2.194-2.657-4.264-2.571-6.21c0.079-1.782,0.868-3.311,2.366-4.583
		C215.604,40.458,217.464,39.87,219.686,39.969z"/>
	<path fill="#FF0000" d="M226.348,47.138l-1.145-1.001c1.938-1.891,3.683-3.214,5.234-3.97s2.853-1.101,3.907-1.037
		c0.582,0.036,1.019,0.19,1.312,0.463s0.427,0.628,0.4,1.065c-0.032,0.528-0.757,2.73-2.176,6.607
		c-2.315,6.343-3.513,10.179-3.593,11.506c-0.016,0.255,0.035,0.473,0.152,0.653s0.248,0.275,0.394,0.284
		c0.582,0.036,2.143-1.002,4.681-3.113l1.001,1.102c-2.635,2.196-4.545,3.587-5.731,4.173c-1.187,0.585-2.144,0.856-2.871,0.812
		c-0.637-0.039-1.13-0.27-1.479-0.692c-0.349-0.423-0.501-0.989-0.458-1.699c0.138-2.274,1.84-7.75,5.105-16.428
		c0.152-0.411,0.239-0.78,0.259-1.107c0.022-0.364-0.131-0.556-0.458-0.576c-0.364-0.022-0.787,0.099-1.269,0.361
		C229.133,44.805,228.044,45.67,226.348,47.138z M238.17,29.72c0.563,0.034,1.016,0.249,1.358,0.644
		c0.341,0.395,0.494,0.884,0.459,1.466c-0.049,0.801-0.369,1.489-0.961,2.065c-0.592,0.576-1.233,0.843-1.925,0.801
		c-0.546-0.033-0.989-0.252-1.33-0.656c-0.341-0.404-0.492-0.916-0.455-1.534c0.049-0.819,0.355-1.499,0.918-2.04
		C236.797,29.924,237.442,29.675,238.17,29.72z"/>
	<path fill="#FF0000" d="M258.969,60.701l0.634,1.124c-2.674,1.75-4.64,2.888-5.897,3.414c-1.741,0.725-3.082,1.029-4.023,0.915
		c-0.434-0.053-0.772-0.218-1.014-0.496s-0.344-0.569-0.307-0.877c0.038-0.308,0.199-0.802,0.484-1.483l1.354-3.201
		c-2.456,2.072-4.459,3.437-6.008,4.093c-1.549,0.656-2.903,0.915-4.061,0.773c-0.959-0.117-1.713-0.636-2.262-1.558
		s-0.724-2.198-0.525-3.828c0.313-2.573,1.556-5.423,3.727-8.55s4.436-5.361,6.793-6.701c2.357-1.34,4.432-1.901,6.224-1.683
		c0.398,0.049,0.987,0.185,1.769,0.408c1.279-3.418,2.406-5.889,3.382-7.411c0.975-1.522,2.149-2.795,3.522-3.819
		c1.374-1.024,2.891-1.761,4.552-2.209c1.662-0.448,3.18-0.589,4.555-0.421c0.724,0.088,1.28,0.349,1.668,0.782
		c0.388,0.433,0.546,0.939,0.476,1.518c-0.068,0.561-0.324,0.993-0.766,1.298c-0.442,0.304-1.008,0.414-1.697,0.33
		c-0.454-0.055-1.286-0.248-2.498-0.58c-1.211-0.331-2.043-0.524-2.497-0.579c-0.635-0.078-1.216,0.049-1.744,0.379
		c-0.528,0.33-1.088,1.109-1.679,2.338c-0.388,0.779-1.362,3.296-2.923,7.551l-5.836,15.929c-0.687,1.882-1.069,3.14-1.146,3.773
		c-0.083,0.689,0.137,1.065,0.662,1.128c0.326,0.04,0.72-0.031,1.183-0.214C255.729,62.574,257.028,61.86,258.969,60.701z
		 M254.924,45.968c-1.408-0.502-2.411-0.791-3.008-0.863c-1.212-0.147-2.456,0.184-3.729,0.995
		c-1.274,0.811-2.616,2.519-4.026,5.124c-1.41,2.605-2.239,4.923-2.486,6.953c-0.113,0.924,0.044,1.711,0.47,2.361
		c0.426,0.65,0.956,1.013,1.589,1.09c0.76,0.092,1.669-0.137,2.729-0.689c1.515-0.827,2.766-1.907,3.755-3.239
		c0.599-0.846,1.53-2.986,2.793-6.419L254.924,45.968z"/>
	<path fill="#FF0000" d="M275.242,66.493l0.396,1.451c-5.717,2.305-10.058,2.871-13.023,1.696c-1.204-0.477-1.962-1.248-2.275-2.312
		c-0.313-1.065-0.115-2.496,0.597-4.293c1.436-3.626,3.967-6.801,7.593-9.521c4.091-3.105,7.858-3.977,11.299-2.614
		c1.203,0.476,2.003,1.142,2.401,1.995c0.397,0.854,0.388,1.806-0.028,2.856c-0.437,1.102-1.247,2.036-2.433,2.801
		c-1.186,0.766-2.99,1.336-5.412,1.71c-1.205,0.17-3.706,0.347-7.503,0.529c-0.515,0.855-0.937,1.698-1.266,2.528
		c-0.477,1.204-0.618,2.118-0.424,2.744c0.193,0.625,0.654,1.083,1.383,1.371c0.695,0.275,1.535,0.382,2.52,0.321
		C270.394,67.671,272.452,67.251,275.242,66.493z M267.803,59.284c3.212-0.14,5.783-0.641,7.713-1.505
		c1.321-0.614,2.173-1.404,2.556-2.37c0.289-0.729,0.328-1.385,0.118-1.968c-0.21-0.583-0.621-0.996-1.231-1.237
		c-0.627-0.248-1.332-0.252-2.112-0.013c-1.045,0.312-2.09,0.996-3.136,2.052C270.192,55.799,268.89,57.479,267.803,59.284z"/>
	<path fill="#FF0000" d="M284.952,61.333l-0.237-1.313c3.185-0.551,5.557-0.744,7.117-0.577c1.56,0.166,2.748,0.523,3.565,1.074
		c0.318,0.213,0.522,0.45,0.612,0.708s0.074,0.478-0.048,0.66c-0.092,0.136-0.292,0.353-0.602,0.65l-4.094,3.877
		c2.691-0.675,5.698-0.971,9.021-0.891c1.758,0.061,3.037,0.36,3.837,0.899c0.589,0.396,0.922,0.895,1,1.497
		c0.078,0.602-0.123,1.258-0.601,1.969c-0.315,0.469-0.74,0.953-1.272,1.451c-0.902,0.821-2.975,2.535-6.218,5.143
		c-3.041,2.437-4.901,4.162-5.583,5.175c-0.208,0.311-0.32,0.573-0.333,0.79c-0.014,0.216,0.062,0.38,0.229,0.492
		c0.438,0.295,1.412,0.335,2.919,0.119c1.072-0.157,2.114-0.269,3.126-0.336l0.018,1.199c-2.424,0.599-4.699,0.861-6.824,0.787
		c-1.358-0.039-2.347-0.267-2.967-0.685c-0.575-0.387-0.881-0.895-0.919-1.524c-0.038-0.629,0.259-1.413,0.89-2.351
		c0.905-1.346,3.999-4.131,9.28-8.356c1.796-1.56,2.801-2.499,3.015-2.816c0.315-0.469,0.193-0.892-0.366-1.268
		c-0.605-0.407-1.598-0.613-2.979-0.618c-2.054-0.018-3.984,0.29-5.793,0.921c-1.155,0.411-2.538,1.373-4.149,2.885l-7.172,6.693
		l-3.38-2.274c2.163-1.844,4.178-3.647,6.042-5.407l7.828-7.274c0.31-0.297,0.516-0.522,0.617-0.673
		c0.275-0.409,0.261-0.715-0.041-0.918c-0.242-0.163-0.698-0.237-1.367-0.222C287.764,60.81,286.375,60.982,284.952,61.333z"/>
	<path fill="#FF0000" d="M318.43,73.194l4.404,1.491l-6.4,4.634l4.356,3.617l-1.577,1.214l-4.36-3.619l-7.688,5.527
		c-2.339,1.633-3.853,2.863-4.539,3.69c-0.314,0.378-0.461,0.719-0.439,1.021c0.021,0.302,0.172,0.569,0.453,0.802
		c0.435,0.361,1.316,0.655,2.645,0.881c1.749,0.291,3.517,0.444,5.305,0.459l-0.004,1.631c-4.993-0.235-8.224-0.524-9.692-0.867
		c-1.469-0.343-2.519-0.776-3.15-1.3c-0.519-0.431-0.772-0.961-0.759-1.59s0.374-1.371,1.084-2.227
		c0.838-1.01,2.385-2.332,4.642-3.965L311.804,78l-3.408-2.83l1.619-1.179l3.412,2.832L318.43,73.194z"/>
	<path fill="#FF0000" d="M323.318,105.442l-0.195,1.491c-6.164-0.083-10.386-1.239-12.667-3.468
		c-0.926-0.905-1.327-1.909-1.205-3.012c0.122-1.104,0.858-2.346,2.209-3.729c2.726-2.791,6.287-4.74,10.683-5.848
		c4.974-1.283,8.784-0.631,11.431,1.955c0.926,0.904,1.407,1.827,1.444,2.768c0.037,0.941-0.34,1.815-1.129,2.624
		c-0.828,0.848-1.937,1.396-3.326,1.644c-1.389,0.248-3.273,0.077-5.652-0.514c-1.177-0.309-3.552-1.112-7.125-2.411
		c-0.805,0.589-1.52,1.204-2.144,1.842c-0.904,0.926-1.388,1.715-1.452,2.367c-0.063,0.651,0.186,1.251,0.746,1.799
		c0.535,0.522,1.268,0.946,2.2,1.27C318.391,104.656,320.451,105.063,323.318,105.442z M319.243,95.919
		c3.016,1.112,5.581,1.643,7.695,1.592c1.456-0.056,2.547-0.455,3.273-1.198c0.547-0.561,0.837-1.151,0.869-1.77
		s-0.188-1.158-0.657-1.617c-0.483-0.471-1.131-0.747-1.943-0.828c-1.084-0.116-2.313,0.111-3.686,0.681
		C322.792,93.628,320.942,94.674,319.243,95.919z"/>
	<path fill="#FF0000" d="M336.534,93.261l0.98-1.522c2.028,0.223,3.499,0.232,4.412,0.029c0.913-0.203,1.638-0.55,2.177-1.042
		c0.296-0.27,0.6-0.843,0.912-1.719c0.251-0.698,0.586-1.238,1.003-1.619c0.552-0.503,1.147-0.75,1.786-0.74
		c0.639,0.01,1.185,0.264,1.639,0.763c0.479,0.525,0.679,1.145,0.602,1.857c-0.078,0.712-0.44,1.364-1.087,1.953
		c-1.131,1.032-2.648,1.743-4.55,2.132S339.88,93.711,336.534,93.261z M341.339,98.53l0.965-1.539
		c2.021,0.214,3.486,0.218,4.396,0.013s1.635-0.554,2.174-1.045c0.296-0.27,0.6-0.843,0.912-1.719
		c0.251-0.698,0.586-1.237,1.003-1.618c0.552-0.504,1.15-0.748,1.795-0.73c0.645,0.017,1.194,0.274,1.648,0.773
		c0.467,0.512,0.664,1.127,0.592,1.847c-0.072,0.719-0.431,1.374-1.078,1.963c-1.131,1.032-2.65,1.74-4.556,2.125
		C347.285,98.984,344.667,98.961,341.339,98.53z"/>
</g>
</svg>
